<?xml version="1.0" encoding="utf-8" ?>
<svg baseProfile="full" height="300mm" version="1.1" viewBox="0,0,200,300" width="200mm" xmlns="http://www.w3.org/2000/svg" xmlns:ev="http://www.w3.org/2001/xml-events" xmlns:xlink="http://www.w3.org/1999/xlink"><defs /><rect fill="#222222" height="300" width="200" x="0" y="0" /><text fill="#FFFFFF" style="font-size:12px; font-family:Arial; font-weight:bold;" x="10" y="20">Over 10km Runs</text><text fill="#FFFFFF" style="font-size:4px; font-family:Arial" x="10" y="280">ATHLETE</text><text fill="#FFFFFF" style="font-size:9px; font-family:Arial" x="10" y="290">李一鸣</text><text fill="#FFFFFF" style="font-size:4px; font-family:Arial" x="65" y="280">SPECIAL TRACKS</text><rect fill="yellow" height="2.6" width="2.6" x="65" y="283" /><text fill="#FFFFFF" style="font-size:3px; font-family:Arial" x="70" y="285.5">Over 20.0 km</text><rect fill="red" height="2.6" width="2.6" x="65" y="287" /><text fill="#FFFFFF" style="font-size:3px; font-family:Arial" x="70" y="289.5">Over 40.0 km</text><text fill="#FFFFFF" style="font-size:4px; font-family:Arial" x="120" y="280">STATISTICS</text><text fill="#FFFFFF" style="font-size:3px; font-family:Arial" x="120" y="285">Number: 5</text><text fill="#FFFFFF" style="font-size:3px; font-family:Arial" x="120" y="290">Weekly: 2.5</text><text fill="#FFFFFF" style="font-size:3px; font-family:Arial" x="141" y="285">Total: 57.2 km</text><text fill="#FFFFFF" style="font-size:3px; font-family:Arial" x="141" y="290">Avg: 11.4 km</text><text fill="#FFFFFF" style="font-size:3px; font-family:Arial" x="167" y="285">Min: 10.0 km</text><text fill="#FFFFFF" style="font-size:3px; font-family:Arial" x="167" y="290">Max: 13.1 km</text><polyline fill="none" points="33.67335098970216,34.428096600662684 34.11635785945691,34.57079522470303 34.57782334869262,34.02378317304829 35.02083021833096,34.02378317304829 35.814550859853625,34.404313484817976 36.165264631737955,34.6659275732527 36.072971533983946,35.5221162825037 36.05451291438658,36.140472076484 36.05451291438658,36.63991163040919 35.96221981651615,37.496090262779035 35.8883853382431,38.30469940252078 35.3161681315396,38.542524878212134 34.70703368564136,38.39982963325747 34.15327509853523,38.70900251051353 34.171733718249016,39.39869379837182 34.96545435965527,39.54138819350919 35.83300947945099,39.58895296492847 36.128347392659634,39.70786483440315 36.552895642700605,39.58895296492847 36.18372325133532,39.7792119156511 36.20218187093269,40.421334281010786 36.14680601214059,41.30127575199003 36.14680601214059,42.20499461978034 36.05451291438658,42.918453444421175 35.96221981651615,43.70325464635971 35.92530257732142,44.55939722419134 35.8883853382431,45.39175387429714 35.79609224037267,46.50948344991775 35.556130185956135,47.389392982644495 35.42691984900739,48.24551674621762 35.26079227286391,49.2205412662006 35.07620607712306,50.266902738963836 35.334626751136966,50.885204177655396 35.980678435997106,50.98032727361715 36.81131631671451,51.24191550935211 37.66041281691287,51.43216124283208 38.45413345855195,51.64618743502069 39.28477133915294,51.883993994953926 40.02311612199992,52.0742390002124 40.68762642657384,52.26448378970963 41.31521949195303,52.45472836346016 41.3336781115504,53.04924126564583 41.702850503032096,53.45350883556239 42.38581942708697,53.59619127474434 43.16108144912869,53.762653967001825 44.17630552535411,54.024237863966846 44.93310892779846,54.190700131468475 45.78220542811323,54.40472280411632 46.5759260696359,54.71386618251563 47.388105330755934,54.927888187696226 48.071074254927225,55.18947026763635 48.90171213564463,55.451051939686295 49.67697415756993,55.6650730042893 50.34148446202744,55.85531372138939 51.02445338619873,56.04555422278645 51.72588092985097,56.330914570280584 52.48268433229532,56.735174231696874 53.147194636869244,57.02053340608836 53.922456658794545,57.30589209507161 54.790011778706685,57.75770902665681 55.602191039710306,58.138185498828534 56.35899444215465,58.399762572851614 57.134256464079954,58.73267825903895 57.96489434479736,59.0418136617518 58.777073605917394,59.32716891246673 59.64462872571312,59.70764182510902 60.43834936723579,60.064334396927734 61.04748381313402,60.27834957600862 61.30590448703151,60.92039347504033 61.804287215461954,61.419759253330994 62.65338371566031,61.776448184784385 63.46556297689676,62.109357169960276 64.18544914002996,62.46604463530821 65.08992149902042,62.77517315845762 65.93901799933519,63.15563825122081 66.82503173872828,63.536102480997215 67.56337652157526,63.84522903242032 68.50476611964405,64.22569169838971 69.20619366329629,64.60615350151784 70.05529016361106,64.96283565829799 70.73825908766594,65.343295789673 71.23664181609638,65.58108293364057 71.32893491385039,66.12799208579236 71.25510043569375,66.81757064943668 71.14434871822596,67.67359526801738 71.10743147914764,68.5058372374915 71.08897285955027,69.29051874173456 70.94130390300415,70.12275269033853 70.812093565939,70.6458690592699 70.812093565939,71.40676268438983 70.60904875071719,72.35787486305344 70.44292117457371,73.11876072391169 70.46137979417108,73.99853069891105 70.97822114208248,74.21252810339502 71.49506249011029,74.45030267714174 72.25186589255463,74.73563172081776 72.93483481660951,74.99718291802856 73.71009683853481,75.40139760241436 74.50381748005748,75.66294776175346 75.37137259996962,76.06716084235813 75.94358980667312,76.32870996370912 76.70039320900105,76.59025867751916 77.53103108960204,77.01824660231068 78.47242068778723,77.37490237233578 78.89696893806104,77.99310391118343 78.71238274220377,79.01550914984546 78.58317240525503,79.99035485439526 78.47242068778723,80.70365300118283 78.38012758991681,81.2505128600751 78.26937587244902,82.03513476182707 78.14016553550027,82.86730549685308 78.04787243762985,83.39038213215827 77.9186621006811,84.34142638232152 77.78945176373236,85.19736159856257 77.69715866574552,85.76798265046091 77.54948970931582,86.67146201414289 77.43873799184803,87.57493651307595 77.38336213317234,88.24065145220084 77.27261041570455,88.88258835650049 77.12494145915844,89.76227568124887 76.97727250261232,90.35665639808576 76.8849794047419,91.14123572058452 76.97727250261232,91.80693651144975 76.8849794047419,92.56773418156081 76.75576906767674,93.25720409071073 76.5711828720523,94.04176985174126 76.626558730728,94.58858624336426 77.30952765478287,94.87388104462298 78.01095519855153,95.15917536096822 78.8046758400742,95.44446919216716 79.41381028597243,95.70598811139644 80.00448611215688,95.89618343298207 80.79820675367955,96.25279908002994 81.59192739520222,96.60941396925773 82.34873079764657,96.87093107304827 83.12399281957187,97.27509306815045 83.14245143916924,97.84567305125529 83.05015834129881,98.96305323185516 82.84711352607701,99.86646155554627 82.77327904780395,100.4845802381169 82.69944456941448,101.12647030645167 82.5886928520631,101.83967861403653 82.49639975419268,102.62420425155142 82.31181355856825,103.3374061940267 82.23797908017877,104.19324452419824 82.05339288455434,105.19171705996268 81.83188944961876,105.9524540524435 81.33350672118831,105.88113510591211 80.59516193845775,105.52453991849325 79.91219301428646,105.26303629949689 78.95234479662031,104.88266667175048 78.32475173124112,104.64493521672557 77.42027937225066,104.26456418805174 76.79268630675506,104.00305860584194 75.9989656653488,103.71777932409896 75.24216226290446,103.3849528824212 74.44844162138179,103.05212578068313 73.6178037407808,102.71929801894294 72.89791757741477,102.33892262584413 71.99344521842431,101.98231991184002 71.23664181609638,101.62571644003037 70.38754531578161,101.2691122104734 69.66765915264841,100.93628091257415 68.92931436980143,100.62722268773359 68.08021786948666,100.27061633650737 67.26803860836662,99.9853307098092 66.73273864085786,99.60494911992282 66.8619489778066,99.05814907384047 66.9727006952744,98.41625109428423 67.10191103222314,97.56038330224692 67.21266274969094,96.8471568077075 67.41570756502915,95.70598811139644 67.24957998888567,95.13540085307613 66.64044554298744,94.82633194475784 65.99439385801088,94.44593866080686 65.18221459689084,94.18441777786938 64.38849395536818,93.8991218044248 63.59477331384551,93.56627588902484 62.94872162886895,93.28097886467003 62.358045802568085,92.94813172311115 62.46879752003588,93.09078057891747 63.39172849850729,93.42362743745616 64.14853190095164,93.7089242193033 64.79458358581178,94.01799518565531 65.25604907528032,94.2081924204831 66.01285247760825,94.51726246721228 66.76965587993618,94.82633194475784 67.12036965182051,94.39838943973882 67.32341446715873,93.56627588902484 67.47108342370484,92.7817079047818 67.61875238025095,91.80693651144975 67.82179719547275,90.76083408297563 67.85871443466749,90.2853308232443 67.98792477173265,89.64339928522531 68.09867648908403,88.85881295936997 68.22788682614919,88.0979984732694 68.3755557826953,87.21830242349824 68.44939026096836,86.67146201414289 68.56014197831973,85.74420681208721 68.65243507619016,84.69806658633752 68.54168335872237,83.96100932911213 68.00638339109719,83.46171063788643 67.30495584756136,83.05751537113974 66.69582140166312,82.77220047889568 66.2897317711031,82.46310879815428 65.68059732532129,82.1777928952506 64.88687668379862,81.86870011957944 64.16699052043259,81.51205390160612 63.50248021597508,81.2029598995432 62.89334577007685,80.91764185382635 62.228835465502925,80.6323233229341 61.453573443577625,80.2281212402886 60.75214589992538,79.91902487300104 60.12455283454619,79.60992793626792 59.46004252997227,79.30083043013292 58.70323912752792,78.92040194859146 57.81722538813483,78.49241887581593 57.02350474661216,78.11198856131523 56.24824272468686,77.77911132850568 55.5468151809182,77.47001044960052 54.863846256863326,77.11335488175973 54.10704285453539,76.78047566773603 53.4240739303641,76.49515010141477 52.8518567236606,76.16226966089744 51.94738436478656,75.75805680951453 51.39362577756401,75.496506798474 50.43377755989786,75.06851499182812 49.49238796182908,74.5929672595812 48.73558455950115,74.23630557590513 47.86802943958901,73.83208808448398 47.05585017846897,73.49920236025355 46.22521229775157,73.11876072391169 45.33919855847489,72.66698516017641 44.69314687338192,72.35787486305344 43.95480209053494,72.00120842785691 42.90266077499837,71.54942985494563 42.090481513994746,71.16898379729537 41.407512589823455,70.93120457312034 40.669167806976475,70.55075711353857 40.04157474159729,70.26542095273908 38.97097480657976,69.83741580153583 38.12187830626499,69.48074400819314 37.34661628433969,69.1954060276039 36.53443702321965,68.86251110347803 35.740716381696984,68.5533937967848 34.983912979252636,68.24427592052962 34.042523381183855,67.84004399215337 33.11959240247961,67.45958952284127 32.362789000268094,67.22180504142307 31.550609739148058,66.88890620112943 30.812264956301078,66.6035638123285 29.963168455986306,66.29444234342373 29.261740912334062,65.98532030492788 28.504937509889714,65.67619769692828 27.63738239009399,65.343295789673 26.84366174857132,64.96283565829799 26.10531696572434,64.62993233553425 25.311596324201673,64.3208072300331 24.370206726132892,63.96412370825419 23.39189988875296,63.55988146670279 22.74584820389282,63.322091457928764 21.859834464499727,62.96540581269073 21.08457244245801,62.63249852624722 20.383144898922183,62.39470720292593 19.71863459434826,62.085577978679794 19.091041528852656,61.776448184784385 18.33423812640831,61.53865564808075 17.577434724080376,61.13440756207274 16.839089941233397,60.730158501901315 16.94984165870119,60.01677543116966 17.06059337616898,59.160711741875275 17.0975106152473,58.49488140772155 17.15288647392299,57.282112222892465 17.18980371300131,56.44981457182439 17.31901405006647,55.33215123019181 17.392848528339528,54.690085942842416 17.429765767417848,53.66753244875872 17.872772637289017,53.33460671026842 18.500365702668205,53.310826275046566 19.035665670176968,53.382167570482125 19.607882876880467,53.429728417278966 20.32776904013008,53.524850070345565 21.1399483011337,53.61997166942456 21.915210323175415,53.59619127474434 22.52434476907365,53.66753244875872 23.281148171517998,53.81021470588166 23.52111022581812,53.57241087667353 23.6872378019616,52.9065583612537 23.85336537810508,52.335825530128204 23.945658475975506,51.931555266550276 24.0564101934433,51.6224067605217 24.240996389184147,51.26569623785326 24.388665345613845,50.59983456603368 24.59171016095206,49.672379975614604 24.887048074044287,49.196760247752536 25.58847561769653,49.10163614038902 25.93918938958086,48.86382563585357 26.289903161348775,48.673576989545836 26.9544134659227,48.507109246973414 27.674299629288726,48.57845258542511 27.877344444510527,48.031486215026234 28.006554781575687,47.12779873877298 28.02501340105664,46.31923213323171 28.098847879329696,45.70091386378044 28.117306498927064,45.011248489652644 28.080389259848744,43.94107246742351 28.19114097720012,43.13249050002196 28.24651683587581,42.30012263840763 28.33880993386265,41.58666118369729 28.41264441201929,40.96832546804217 28.468020270811394,40.34998747287318 28.634147846954875,39.42247620600392 29.02177885780111,38.97060988454905 29.741665021167137,38.946827412888524 30.480009804014117,39.06573973761988 31.126061488990672,39.232216850607074 31.790571793564595,39.25599928185693 32.4550820980221,39.327346555364784 33.304178598336875,39.44625861023087 34.097899239859544,39.30356413421396 34.097899239859544,38.923044937779196 34.042523381183855,38.56630740722176 34.02406476147007,38.13822136889212 34.208650957327336,37.28204601442849 34.35631991387345,36.59234602266224 34.3747785333544,36.02155767774093 34.35631991387345,35.189154526087805 34.097899239859544,34.99889036847162 33.50722341355868,34.73727679932199" stroke="#4DD2FF" stroke-linecap="round" stroke-linejoin="round" stroke-width="0.5"><title>2025-01-12 12.0km</title><desc>9223370300161143807</desc></polyline><polyline fill="none" points="164.98712446168065,50.51076428289525 158.188841201365,48.12429911433719 150.46351931244135,45.73783192038536 141.19313304685056,41.76038209465332 129.7596566528082,44.14685266511515 122.96137339062989,56.079175136750564 117.09012875519693,68.01144697703421 115.54506437666714,79.5459282961674 126.66952789761126,87.1029766118154 140.26609441824257,95.05774237355217 152.31759656593204,99.03511681547388 160.35193132981658,91.8758387689013 172.71244635246694,95.85321771213785 181.36480686627328,92.67131500761025 185.38197424821556,79.14818834932521 174.25751072913408,69.60241273161955 166.84120171517134,62.84080206323415 164.06008583679795,51.703996108844876 152.0085836891085,47.72655472182669 135.63090128824115,43.35136270010844 125.43347639404237,51.306252223905176 119.56223175860941,64.82951277052052 115.23605150170624,78.35270828427747 122.65236051380634,85.5120207592845 135.63090128824115,91.47810056433082 148.30042918212712,98.63737962464802 157.26180257461965,93.46679102117196 167.76824034191668,93.06905304314569 179.8197424877435,95.4554800700862 185.69098712317646,84.71654249564745 179.2017167378217,73.18208238459192 166.53218884021044,66.02273852005601 166.84120171517134,57.27240459877066 157.57081544958055,48.919787729159 143.6652360521257,44.54459756286815 130.0686695277691,44.54459756286815 123.88841201737523,54.09045824082568 121.4163090121001,55.681431870441884 122.03433476388454,52.499483711319044 118.63519313186407,55.283688547089696 121.1072961371392,52.10173993790522 122.96137339062989,54.488201732281595 118.94420600868762,63.636286514112726 114.9270386248827,73.97756391158327 121.4163090121001,83.92106400709599 135.9399141613394,92.67131500761025 145.51931330375373,97.44416771316901 156.3347639478743,94.26226680865511 163.7510729599744,93.06905304314569 174.56652360409498,97.84190507256426 181.67381974123418,96.25095529668033 185.69098712317646,80.73914780118503 176.72961373254657,71.5911186565645 165.60515021532774,62.4430597522296 163.7510729599744,51.703996108844876 152.31759656593204,47.32881027436815 139.03004291839898,42.158127329545096 127.9055793993175,47.72655472182669 121.4163090121001,61.24983248393983 115.23605150170624,74.37530459067784 121.725321887061,84.71654249564745 134.70386265963316,90.28488561627455 147.06437768228352,97.44416771316901 155.40772532112896,95.05774237355217 164.98712446168065,92.27357691689394 174.56652360409498,96.64869282441214 182.60085836797953,93.46679102117196 186.0,80.34140802267939 175.18454935587943,70.79563645459712 165.60515021532774,63.636286514112726 166.22317596524954,54.488201732281595 151.3905579391867,47.32881027436815 140.26609441824257,42.95361763355322 128.2145922742784,47.32881027436815 122.34334763884544,58.465633555315435 115.85407725162804,71.98885967209935 122.34334763884544,84.71654249564745 136.5579399149865,92.67131500761025 148.60944205895066,98.63737962464802 158.188841201365,93.86452894308604 166.53218884021044,93.06905304314569 179.2017167378217,97.44416771316901 186.0,83.12558529269882 180.1287553627044,72.38660063408315 167.76824034191668,67.21596376388334 164.98712446168065,52.89722742768936 153.55364806763828,47.32881027436815 140.26609441824257,42.5558725099545 128.5236051492393,46.53332120925188 122.03433476388454,58.465633555315435 115.54506437666714,74.77304521296173 122.03433476388454,85.90975980670191 134.70386265963316,92.27357691689394 147.06437768228352,97.44416771316901 155.40772532112896,95.05774237355217 164.06008583679795,91.8758387689013 176.11158798262477,96.25095529668033 182.90987124294043,88.29619291075505 183.52789699472487,75.17078577890061 171.1673819720745,68.80692996666767 166.22317596524954,60.05660470877774 163.7510729599744,51.306252223905176 150.77253218740225,46.53332120925188 138.10300429165363,42.158127329545096 126.36051502078772,49.71527611929923 121.725321887061,58.8633764279075 115.23605150170624,73.97756391158327 122.96137339062989,86.70523773320019 138.41201716661453,93.86452894308604 152.62660944089293,98.23964237677865 158.8068669512868,92.27357691689394 169.62231759540737,95.05774237355217 179.8197424877435,95.85321771213785 186.0,83.92106400709599 178.58369098603725,71.5911186565645 167.15021459199488,65.6249966591131 166.84120171517134,56.47691834741272 159.11587982811034,50.113020228920504 145.82832617871463,44.9423424040433 130.37768240273,45.340087190270424 122.65236051380634,57.27240459877066 117.09012875519693,68.80692996666767 119.56223175860941,82.72784585203044 132.23175965622067,90.68262398941442 147.06437768228352,97.84190507256426 156.3347639478743,94.66000461950898 164.6781115885824,92.67131500761025 176.72961373254657,97.84190507256426 184.1459227465093,89.4894087035209 183.52789699472487,74.77304521296173 169.62231759540737,69.20467137708329 165.914163088426,60.45434735692106 161.89699570834637,50.113020228920504 148.91845493391156,45.73783192038536 138.41201716661453,42.95361763355322 125.74248927086592,52.89722742768936 117.09012875519693,69.20467137708329 117.09012875519693,81.1368875245098 126.36051502078772,87.50071543455124 136.24892703816295,92.67131500761025 151.6995708141476,99.43285394995473 157.26180257461965,93.46679102117196 169.62231759540737,93.86452894308604 181.36480686627328,93.86452894308604 185.69098712317646,79.5459282961674 177.0386266093701,70.79563645459712 165.60515021532774,64.03402865631506 164.36909871175885,51.703996108844876 152.0085836891085,46.93106576940045 136.5579399149865,42.158127329545096 124.50643776729703,52.10173993790522 118.32618025690317,65.22725474322215 116.78111587837338,80.34140802267939 126.36051502078772,87.89845420070924 135.63090128824115,92.27357691689394 144.9012875519693,96.64869282441214 155.40772532112896,95.05774237355217 166.84120171517134,93.06905304314569 180.1287553627044,95.4554800700862 185.69098712317646,83.12558529269882 181.67381974123418,73.18208238459192 169.62231759540737,68.80692996666767 166.22317596524954,59.261119245318696 160.66094420477748,49.71527611929923 145.51931330375373,44.54459756286815 130.99570815451443,43.74910771008581 122.96137339062989,57.27240459877066 115.23605150170624,72.38660063408315 118.32618025690317,82.72784585203044 134.08583690971136,92.27357691689394 150.1545064356178,99.43285394995473 159.73390557803214,92.27357691689394 171.78540772385895,96.64869282441214 182.29184549301863,91.8758387689013 185.69098712317646,80.34140802267939 178.27467811107635,71.5911186565645 166.22317596524954,64.43177074217238 164.98712446168065,52.10173993790522 154.78969956934452,47.72655472182669 139.95708154514432,42.5558725099545 126.97854077257216,48.12429911433719 118.94420600868762,63.23854431672953 116.78111587837338,79.94366818806157 125.12446351908147,85.5120207592845 139.03004291839898,93.06905304314569 153.55364806763828,95.85321771213785 164.06008583679795,91.0803623048123 176.42060085758567,95.05774237355217 184.7639484964311,85.90975980670191 181.36480686627328,73.18208238459192 169.31330471858382,68.80692996666767 166.22317596524954,60.05660470877774 161.58798283152282,50.90850828262046 152.0085836891085,46.53332120925188 140.57510729506612,42.95361763355322 129.14163090102375,44.54459756286815 122.34334763884544,56.47691834741272 116.78111587837338,67.61370539758354 115.54506437666714,80.34140802267939 125.74248927086592,86.30749879754148 137.1759656649083,91.47810056433082 150.77253218740225,97.04643029649742 158.8068669512868,89.88714718841948 169.9313304722309,92.67131500761025 181.05579398944974,91.47810056433082 185.072961371392,79.94366818806157 176.72961373254657,70.79563645459712 166.22317596524954,64.82951277052052 164.98712446168065,52.89722742768936 154.48068669438362,47.72655472182669 140.26609441824257,43.35136270010844 127.9055793993175,47.32881027436815 120.48927038535476,57.67014764086343 114.0,73.57982317591086 120.18025751039386,83.52332467748784 130.68669527955353,88.69393156375736 147.06437768228352,96.64869282441214 156.0257510729134,93.86452894308604 162.8240343350917,90.68262398941442 175.49356223270297,95.05774237355217 183.52789699472487,87.89845420070924 185.072961371392,80.34140802267939 176.42060085758567,71.5911186565645 165.2961373385042,64.82951277052052 165.60515021532774,55.283688547089696 155.09871244616807,48.52204345050268 141.50214592181146,44.14685266511515 130.68669527955353,44.14685266511515 124.81545064412057,51.703996108844876 121.1072961371392,61.64757496374659 115.23605150170624,71.5911186565645 120.48927038535476,83.12558529269882 135.0128755364567,90.68262398941442 148.30042918212712,96.25095529668033 154.78969956934452,93.46679102117196 164.98712446168065,90.68262398941442 175.18454935587943,95.05774237355217 183.83690986968577,85.11428165622056 181.98283261619508,75.9662667431403 168.69527896866202,69.20467137708329 166.22317596524954,58.06789062614553 159.73390557803214,50.51076428289525 146.44635193049908,45.73783192038536 132.23175965622067,43.35136270010844 125.74248927086592,52.10173993790522 118.32618025690317,66.42048032465391 116.47210300341249,78.35270828427747 128.5236051492393,87.89845420070924 141.50214592181146,94.26226680865511 152.93562231585383,97.44416771316901 160.96995708160102,91.0803623048123 170.2403433471918,93.86452894308604 177.6566523592919,95.85321771213785 183.21888411976397,87.50071543455124 179.8197424877435,73.57982317591086 167.15021459199488,67.61370539758354 165.914163088426,54.885945168323815 154.78969956934452,48.12429911433719 144.59227467887104,44.54459756286815 128.8326180242002,45.73783192038536 123.57939914055169,55.283688547089696 116.78111587837338,69.60241273161955 119.25321888364851,82.72784585203044 128.8326180242002,87.50071543455124 139.64806866832078,92.67131500761025 152.62660944089293,97.84190507256426 160.66094420477748,91.47810056433082 173.63948497921228,95.85321771213785 180.74678111448884,92.67131500761025 184.4549356214702,80.34140802267939 174.87553647905588,71.5911186565645 166.84120171517134,65.6249966591131 165.60515021532774,53.69271469372325 156.0257510729134,49.31753195193596 143.04721030034125,44.14685266511515 130.68669527955353,44.54459756286815 123.27038626559079,56.87466150103137 116.16309012845159,71.5911186565645 120.48927038535476,83.52332467748784 132.84978540800512,89.09167016088031 146.13733905553818,96.64869282441214 155.09871244616807,94.66000461950898 167.45922746695578,93.46679102117196 175.80257510580122,95.85321771213785 182.60085836797953,88.69393156375736 183.21888411976397,76.36400714120828 171.78540772385895,70.00015402794816 165.60515021532774,60.852089948253706 162.8240343350917,52.89722742768936 153.24463519267738,49.71527611929923 138.41201716661453,43.35136270010844 127.5965665243566,47.32881027436815 121.725321887061,60.45434735692106 116.16309012845159,75.56852628849447 122.96137339062989,85.11428165622056 135.0128755364567,90.68262398941442 141.811158798635,93.86452894308604 151.08154506236315,98.23964237677865 161.58798283152282,91.47810056433082 174.25751072913408,95.4554800700862 180.4377682376653,93.86452894308604 184.1459227465093,78.75044834474102 175.80257510580122,71.98885967209935 166.53218884021044,66.02273852005601 165.2961373385042,54.488201732281595 155.09871244616807,49.31753195193596 145.21030042879283,46.13557659299113 130.99570815451443,44.9423424040433 123.57939914055169,56.47691834741272 117.09012875519693,68.80692996666767 118.32618025690317,81.53462719079107 130.68669527955353,88.69393156375736 146.75536480545998,97.04643029649742 155.40772532112896,93.86452894308604 169.9313304722309,93.86452894308604 181.05579398944974,92.67131500761025 184.4549356214702,80.73914780118503 173.63948497921228,71.5911186565645 165.60515021532774,62.04531738627702 162.8240343350917,51.703996108844876 151.08154506236315,47.72655472182669 141.19313304685056,43.74910771008581 129.14163090102375,45.73783192038536 122.34334763884544,58.8633764279075 116.16309012845159,76.36400714120828 123.27038626559079,84.71654249564745 134.08583690971136,89.88714718841948 147.37339055538177,96.64869282441214 156.0257510729134,93.46679102117196 164.36909871175885,91.47810056433082 172.71244635246694,94.66000461950898 180.74678111448884,93.06905304314569 184.7639484964311,80.73914780118503 176.42060085758567,72.38660063408315 166.53218884021044,65.22725474322215 165.914163088426,56.079175136750564" stroke="#4DD2FF" stroke-linecap="round" stroke-linejoin="round" stroke-width="0.5"><title>2025-01-10 12.0km</title><desc>9223370300352296807</desc></polyline><polyline fill="none" points="33.91953180730343,186.0 34.68299617245793,183.54276053525973 35.16016140161082,181.08551411586814 35.637326629366726,178.8739863919909 36.59165708580986,174.69664087647106 37.164255359675735,171.7479142929078 37.736853633541614,169.4134986451245 38.50031799869612,165.85043108015088 39.35921540949494,161.67302289849613 40.790711094625294,156.88126523181563 43.46283637266606,153.6867454268504 44.798899011686444,149.7550126069109 46.039528605528176,146.31473178206943 49.47511824872345,146.31473178206943 52.0518104811199,149.01781072065933 53.76960530271754,152.2123477057321 57.30062799202278,152.94954687933205 59.68645413313061,152.2123477057321 63.790075096301734,150.7379474811023 65.60330296400934,148.64920954289846 64.64897250710055,145.20892433606787 63.503775959368795,141.64575742790475 64.26724032498896,137.3453640967491 67.32109778514132,134.51937973633176 69.03889260720462,131.69338617753237 68.37086128769442,128.99025329464348 66.84393255691975,125.5498901794781 62.16771331988275,123.21535030053928 58.82755672233179,121.86377171176719 55.58283317042515,120.38931994186714 51.76551134418696,118.7919943651068 47.6618903814815,116.08882130903658 45.4669303316623,114.24574394407682 42.317639824934304,114.49148781911936 39.74094759253785,115.59733439399861 37.92771972483024,119.52922191965627 36.30535794887692,123.0924796066829 33.82409876212478,127.88442378025502 31.342839575372636,130.83329935494112 32.39260307746008,135.1337249451317 35.25559444678947,138.69691858184524 38.50031799869612,141.7686254956643 43.46283637266606,143.61164442705922 48.23448865534738,145.70039448601892 51.76551134418696,148.52634244860383 53.4833061657846,151.7208812427125 57.396061037667096,152.94954687933205 61.117949817795306,151.7208812427125 65.22157078096643,149.63214566913666 65.88960210047662,146.43759918940486 63.790075096301734,143.61164442705922 63.69464205065742,138.45118155918317 65.88960210047662,135.62520079908427 68.6571604241617,132.6763415019377 68.37086128769442,128.6216436131508 66.17590123740956,125.30414943525102 62.45401245681569,123.33822097675875 58.44582453975454,121.61802992381854 54.34220357704908,119.89783546194667 50.42944870470092,118.42338035319699 47.75732342712581,116.21169299405301 44.98976510297507,114.0 41.64960850542411,114.49148781911936 37.92771972483024,117.93189476034604 35.82819272065535,123.70683290198212 34.01496485294774,127.51581362908473 31.724571757484227,129.8503419428598 31.533705666661263,134.0279032565304 34.110397899057716,137.09962669142988 37.25968840532005,140.90854865533765 41.36330936849117,142.75156941270689 45.27606424037367,144.4717185892514 49.76141738565639,146.06899691582657 52.147243526764214,148.77207661943976 55.201100987847894,152.58094737055944 60.83165068086237,151.84374788444256 64.93527164403349,150.12361331505235 65.88960210047662,146.92906864348333 63.69464205065742,143.7345122169354 63.59920900501311,139.5569976135157 65.9850351465866,135.50233186187688 68.84802651591599,132.30773338564904 68.56172737898305,128.86738341813907 67.8936960590072,127.0243331840611 64.93527164403349,124.44405628263485 61.49968200083822,122.47812587628141 58.82755672233179,121.24941711197607 54.914801850914955,120.02070660784375 51.00204697903246,118.66912304528523 47.47102428972721,115.35159083257895 44.03543464653194,114.24574394407682 40.02724672947079,115.10584720142651 37.6414205878973,119.16060822043801 36.40079099452123,122.60099665739108 34.58756312727928,127.27007344143931 31.915437849238515,129.23599299538182 30.86567434715107,132.92208015942015 33.53779962519184,136.60815167234978 36.496224040631205,140.17133925680537 40.98157718544826,142.75156941270689 46.325827741995454,144.84032154112356 50.1431495686993,146.19186435785377 52.81527484674007,149.63214566913666 55.86913230782375,152.82668039400596 59.78188717877492,151.9666145091178 64.17180727887899,150.0007464294904 65.88960210047662,147.54340507020243 63.88550814194605,144.84032154112356 63.59920900501311,141.64575742790475 63.98094118805602,137.9597073054174 67.60739692207426,134.39651064260397 69.13432565284893,130.21895110292826 67.98912910511717,127.27007344143931 64.74440555321053,124.56692678516265 61.308815909549594,122.9696088952478 56.155431444291025,121.00367515010294 52.62440875498578,119.28347947105067 49.37968520261347,118.17763759155059 46.898426016792655,115.84307788609294 43.558269418776035,114.98297535954043 40.40897891158238,115.59733439399861 38.59575104434043,117.93189476034604 36.496224040631205,121.98664257937344 35.54189358372241,126.28711199463578 32.77433526003733,128.49877368449233 31.15197348408401,131.93912511260714 32.9652013508603,135.74806971929502 36.01905881194398,139.43412923248252 38.88205018173903,141.7686254956643 41.5541754597798,142.75156941270689 44.41716682910919,143.98024774395162 47.94818951841444,145.45465944573516 51.860944389831275,148.15774106234312 53.76960530271754,151.84374788444256 56.05999839864671,152.94954687933205 59.209288904909045,152.2123477057321 63.503775959368795,150.36934703378938 65.88960210047662,147.42053781973664 63.790075096301734,144.71745390782598 63.59920900501311,141.40002123999875 63.59920900501311,138.328313021746 65.88960210047662,135.62520079908427 69.03889260720462,131.32477764348732 67.98912910511717,128.25303377473028 65.50786991789937,125.42701981589198 61.88141418341547,123.33822097675875 57.20519494637847,121.49515900382539 54.5330696683377,120.51219101814786 51.67007829900831,119.28347947105067 48.520787792280316,117.31753737787949 45.27606424037367,114.98297535954043 42.41307287057862,115.59733439399861 40.40897891158238,116.08882130903658 38.59575104434043,119.0377369527705 36.59165708580986,122.72386742098024 35.16016140161082,126.90146302938228 33.63323267083615,128.49877368449233 31.247406529262662,131.81625565356808 32.48803612263873,135.01085593830794 34.396697035990655,137.46823277318617 37.164255359675735,140.4170757928514 41.93590764235705,143.24304095399566 45.56236337684095,144.59458625741536 49.57055129483342,146.31473178206943 52.24267657240853,149.38641174184158 54.43763662269339,152.4580808330793 58.1595254028216,152.58094737055944 62.549445502925664,151.10654777224408 65.79416905483231,148.64920954289846 64.83983859885484,145.45465944573516 63.40834291372448,142.2600975932437 63.98094118805602,137.46823277318617 67.60739692207426,134.0279032565304 69.03889260720462,131.07903853367316 68.27542824205011,128.37590373825515 65.3170038270764,125.05840862140758 61.78598113777116,123.21535030053928 57.58692712895572,121.61802992381854 54.34220357704908,120.38931994186714 50.1431495686993,118.66912304528523 47.37559124454856,115.96594960632501 44.70346596557647,114.61435973015614 41.36330936849117,115.47446262207814 38.78661713562906,117.44040888908785 37.06882231449708,122.23238426272292 35.73275967454538,125.79563085420523 33.53779962519184,128.6216436131508 31.342839575372636,131.93912511260714 32.201736986171454,134.88798691419652 35.923625766299665,139.1883924184949 38.977483226917684,142.01436157955322 42.985671144444495,143.4887766201864 45.56236337684095,144.71745390782598 50.42944870470092,146.68333395110676 52.43354266369715,149.26354475226253 54.72393575916067,152.4580808330793 58.541257585864514,152.70381389098475 62.0722802747041,151.3522812126903 65.41243687225506,149.38641174184158 65.79416905483231,146.56046657892875 63.503775959368795,143.98024774395162 63.503775959368795,141.27715312002692 63.59920900501311,138.20544446719578 67.225664739497,134.39651064260397 69.03889260720462,130.7104297390324 67.5119638768956,126.53285246074665 64.83983859885484,124.68979727011174 60.068186316173524,122.60099665739108 55.29653403395787,120.75793311896268 51.09748002467677,119.16060822043801 47.94818951841444,116.7031795605435 46.2303946968168,115.35159083257895 43.17653723573312,115.10584720142651 39.35921540949494,117.31753737787949 37.450554496608675,121.37228806648636 36.40079099452123,124.32118576293578 35.351027492433786,127.39294354384765 32.583469168283045,129.4817326265038 31.247406529262662,133.53642649832182 33.728665716480464,136.73102045297856 36.87795622320846,140.53994403447723 40.218112820759416,142.5058335378999 43.940001600887626,144.1031154813245 47.37559124454856,145.45465944573516 51.288346115965396,147.9120067176409 53.00614093802869,150.49221386678983 54.5330696683377,152.58094737055944 57.58692712895572,153.07241334719583 61.690548092126846,151.475147906458 65.41243687225506,149.63214566913666 65.3170038270764,145.9461294565117 63.40834291372448,142.75156941270689 63.503775959368795,138.81978706724476 65.60330296400934,135.99380750668934 68.75259347027168,132.4306027753628 68.37086128769442,128.99025329464348 66.7484995117411,126.04137145943241 62.263146365992725,123.70683290198212 57.58692712895572,121.86377171176719 53.76960530271754,120.51219101814786 49.76141738565639,118.7919943651068 47.47102428972721,116.94892273977166 45.84866251423955,115.84307788609294 41.745041551068425,115.84307788609294 39.263782364316285,117.07179430319229 37.54598754271865,120.75793311896268 35.82819272065535,126.28711199463578 33.156067442614585,129.23599299538182 31.438272620551288,132.06199455435853 32.869768305681646,136.11667637439677 36.40079099452123,137.46823277318617 37.83228667965159,134.51937973633176 39.35921540949494,129.60460241598776 40.98157718544826,124.19831522530876 44.512599874753505,121.49515900382539 49.57055129483342,121.00367515010294 53.387873120605946,121.98664257937344 56.34629753557965,122.84673816681607 58.541257585864514,125.18127903726418 59.68645413313061,129.11312315386022 58.636690631043166,132.6763415019377 57.109761900734156,136.36241405829787 57.968659311532974,140.66281225899002 55.01023489655927,144.22598320135148 51.47921220725402,146.56046657892875 47.94818951841444,145.45465944573516 46.039528605528176,147.29767055186676 43.65370246395469,152.2123477057321 41.5541754597798,156.88126523181563 40.59984500333667,160.6901004050742 40.02724672947079,163.3931345840101 38.977483226917684,167.69339888781542 37.92771972483024,172.11650566384196 36.78252317709848,176.41672675823793 35.82819272065535,180.59406399767613 34.96929530939087,185.01710504858056" stroke="#4DD2FF" stroke-linecap="round" stroke-linejoin="round" stroke-width="0.5"><title>2025-01-06 10.0km</title><desc>9223370300701165807</desc></polyline><polyline fill="none" points="179.79503105580807,168.26082266526646 179.599378881976,167.32535828879918 179.45962732925545,166.82164527630084 180.074534161482,165.85019593467587 180.04658385086805,165.56235838014982 180.63354037271347,164.91472269114456 181.13664596283343,164.55492437351495 180.913043478271,163.6914063344302 181.22049689444248,162.89984555597766 181.69565217394847,162.5040642429958 182.36645962728653,162.03632189703058 183.23291925457306,161.17279530581436 184.29503105592448,160.38122668804135 185.30124223593157,159.55367504418246 185.77639751543757,158.65415933326585 185.5807453414891,157.89856367735774 186.0,157.32287024220568 185.52484472061042,156.67521356974612 185.07763975148555,155.9555931102659 183.987577639753,155.0200834685238 183.0931677018525,154.30045832542237 182.1428571428405,153.72475674457382 181.13664596283343,152.969146441872 180.3819875776535,152.7892388960754 178.92857142863795,152.6453127678542 177.86645962728653,151.8537176058744 177.13975155283697,150.52239291291335 177.3074534162879,149.2270432783116 177.6428571428405,148.11159802784096 177.75465838506352,147.21204184240196 177.00000000011642,146.60034181855735 176.18944099382497,146.31248247460462 176.161490683211,146.16855268055224 175.37888198764995,145.62881522686803 174.2888198759174,145.0530940137396 173.086956521729,144.4773714969051 171.88509316777345,143.82968210749095 170.48757763986941,143.1460081844707 169.84472049679607,142.89412785475724 168.3074534162879,142.13848536839942 167.24534161493648,141.67070556111867 166.15527950320393,141.16694172937423 165.20496894407552,141.0589922069048 164.19875776395202,140.62719365922385 162.8571428571595,139.94351112560253 161.6552795030875,139.36777704005362 160.87267080752645,139.07990950837848 159.95031055889558,138.68409112023073 158.9440993788885,138.18032137144473 158.07763975160196,137.46064857041347 157.43478260864504,137.06482766158297 156.26086956530344,136.70498993710498 155.19875776395202,136.30916785186855 154.0807453416055,136.05728074960643 153.49378881999291,136.81294130790047 153.27018633543048,137.8204852255585 152.962732919259,139.2598267539579 152.59937888209242,140.80710980988806 152.37577639753,142.1025023368129 152.23602484480944,142.96609368862119 152.12422360258643,144.18950974970357 151.92857142852154,144.98112877033418 151.5931677017361,146.09658775289427 151.42546583840158,146.96016554016387 151.56521739135496,148.32749103888636 151.39751552802045,149.08311513389344 150.586956521729,149.19106124987593 149.86024844716303,149.04713308505598 149.32919254666194,149.26302530177054 149.21739130432252,149.87471892044414 148.6304347825935,150.81024749123026 147.54037267074455,150.45042921742424 146.33850931667257,149.94668277879828 144.68944099382497,149.11909717769595 143.45962732913904,148.43543747559306 142.25776397518348,147.85972261667484 141.111801242223,147.21204184240196 139.9937888198765,146.45641218737 139.18322981370147,146.60034181855735 138.68012422358152,146.78025374299614 137.8695652174065,147.6078469560307 137.33850931667257,148.9032048387453 136.80745341617148,150.01864661692525 136.19254658382852,151.24202874762705 135.80124223604798,152.32147868117318 135.07453416159842,152.75325737160165 133.9565217392519,152.17755228816532 132.86645962751936,151.67380927086924 131.524844720494,151.24202874762705 130.2950310560409,150.99015643715393 129.56832298147492,150.88221108482685 128.562111801235,150.6663202426862 127.13664596283343,150.16257423182833 125.93478260876145,149.58686328327167 124.98447204974946,148.9032048387453 123.81055900617503,147.85972261667484 123.0559006211115,146.70828898853506 122.16149068321101,145.44890248778393 121.37888198753353,144.3334406641079 120.54037267086096,143.07404240142205 119.72981366456952,141.7426717413182 118.83540372690186,140.51924390773638 118.22049689444248,139.54769408181892 117.437888198765,138.39622281459742 116.62732919247355,137.13679514537216 115.84472049691249,135.98531296034344 114.92236024839804,134.54595289600547 114.13975155272055,133.17855328781297 114.11180124233942,131.88311529671773 115.22981366468593,131.99106871470576 116.62732919247355,132.42288192847627 117.60559006209951,132.60280388433603 118.72360248456243,132.81871006338042 119.61801242246293,133.14256898825988 120.81987577641848,133.6463487180299 122.07763975160196,134.18611160674482 123.33540372678544,134.5819369968376 124.64906832296401,135.04972984528285 125.8509316771524,135.58948975475505 126.46583850926254,135.94932905799942 127.36024844727945,136.56105470456532 128.28260869567748,137.06482766158297 129.62422360247,137.8204852255585 130.79813664592803,138.7200746354647 131.91614906827454,139.58367747499142 132.97826086962596,140.48326064707362 133.900621118024,141.34685749807977 134.962732919259,142.28241744363913 135.82919254666194,143.11002529546386 136.611801242223,143.93763045358355 137.70186335407197,144.98112877033418 138.54037267074455,146.09658775289427 138.3447204970289,147.104094886221 137.925465838518,148.14758020910085 137.3944099380169,149.11909717769595 137.11490683234297,149.80275504171732 136.611801242223,150.77426568674855 136.2763975156704,151.45791910096887 135.437888198765,152.7892388960754 134.4316770187579,152.50138655793853 133.45341614913195,152.06960743988748 132.22360248444602,151.3859556701209 130.74223602481652,150.91819287394173 129.512422360247,150.73828387720278 128.31055900629144,150.52239291291335 126.8012422361644,149.94668277879828 125.23602484469302,149.08311513389344 124.20186335407197,148.18356238520937 123.3633540373994,147.17605952883605 122.5807453416055,145.9526578365476 121.85403726715595,144.90916350661428 121.07142857147846,143.6857509080146 120.20496894407552,142.42634943753364 119.36645962740295,141.0230090226396 118.50000000011642,139.83556108389166 117.68944099382497,138.68409112023073 117.13043478270993,137.85646886302857 116.26397515530698,136.59703852038365 115.64906832308043,135.55350579650258 114.86645962728653,134.4380005627172 114.27950310567394,133.4304432417266 114.13975155272055,131.95508424716536 115.25776397506706,131.88311529671773 116.29192546592094,132.1350065341103 117.54968944110442,132.49485072601237 118.69565217383206,132.78272571295383 119.56211180135142,133.0706003739615 120.42857142863795,133.35847470906447 121.77018633543048,133.8622540110082 123.0559006211115,134.36603231495246 124.20186335407197,134.9057936758618 125.29192546580452,135.40956991235726 126.27018633543048,136.05728074960643 127.36024844727945,136.6330223310506 128.59006211184897,137.35269747459097 129.70807453419548,138.07237058121245 131.049689440988,139.00794257453526 131.9440993788885,139.65564424579497 133.03416149062105,140.55522716327687 134.04037267074455,141.4548068983422 135.0186335403705,142.35438345072907 135.99689440988004,143.28993968936265 136.72360248444602,144.08156151050935 137.61801242246293,144.9451461409917 138.51242236036342,145.9886403233104 138.59627329197247,146.67230660360656 138.12111801235005,147.7157936982985 137.61801242246293,148.86722276447108 136.975155279506,150.12659233578597 136.388198757777,151.24202874762705 135.913043478271,152.17755228816532 134.93478260876145,152.71727584209293 133.67701863346156,152.0336258135212 132.6428571428405,151.56586420885287 131.21739130432252,151.06211997990613 129.76397515530698,150.8462292905606 128.53416149073746,150.59435658805887 127.16459627333097,150.09061043450492 126.04658385098446,149.58686328327167 125.09627329197247,148.9751689719851 124.00621118023992,148.0756158415752 123.08385093160905,146.70828898853506 122.27329192543402,145.484885045822 121.51863354048692,144.3334406641079 120.73602484480944,143.18199106832617 120.17701863369439,142.3903664466343 119.36645962740295,141.09497538616415 118.5559006211115,139.97949446275015 117.77329192543402,138.7560581456928 116.79503105592448,137.2807300518034 116.12422360258643,136.3811355496291 115.39751552790403,135.1216978993325 114.50310559011996,133.8622540110082 114.11180124233942,132.78272571295383 114.36335403728299,131.8471308138105 115.425465838518,131.9190997745318 116.76708074542694,132.24295984511264 117.8571428572759,132.49485072601237 119.00310559000354,132.85469440877205 119.72981366456952,133.10658468364272 120.84782608703244,133.5024117542489 122.10559006209951,134.07815912069054 123.25155279505998,134.54595289600547 124.62111801246647,135.15768191890675 125.8509316771524,135.84137732046656 126.66149068321101,136.27318399539217 127.58385093172546,136.88490886302316 128.450310559012,137.42466487691854 129.68012422358152,138.1443377798132 130.9378881988814,138.97195909990114 131.91614906827454,139.61966086283792 132.92236024851445,140.51924390773638 133.78881987580098,141.23890805218252 135.07453416159842,142.35438345072907 135.94099378876854,143.2539568208158 136.66770186345093,143.93763045358355 137.3944099380169,144.65728492339258 138.00931677024346,145.26898962142877 138.68012422358152,146.2045351366687 138.20496894419193,147.31998875262798 137.70186335407197,148.32749103888636 137.17080745333806,149.47891733518918 136.863354037283,150.19855612289393 136.36024844716303,151.24202874762705 135.913043478271,152.32147868117318 135.1583850933239,152.75325737160165 133.900621118024,152.17755228816532 133.31366459617857,151.8537176058744 131.77639751555398,151.2060470042925 130.60248447209597,150.88221108482685 129.400621118024,150.6663202426862 127.97515527962241,150.3065017653571 126.88509316777345,149.94668277879828 125.45962732925545,149.15507921631797 124.64906832296401,148.61534810165176 123.75465838517994,147.7157936982985 122.86024844727945,146.42042976681842 122.2453416150529,145.37693735648645 121.43478260876145,144.18950974970357 120.62422360247001,142.96609368862119 120.037267080741,142.17446839492186 119.45031055912841,141.31087435450172 118.58385093172546,139.94351112560253 117.80124223604798,138.79204165088595 116.962732919259,137.49663225878612 116.487577639753,136.88490886302316 115.76086956518702,135.73342553715338 115.0062111801235,134.61792109260568 114.16770186333451,133.25052187155234 114.16770186333451,131.9190997745318 115.14596273284405,131.8471308138105 116.45962732925545,132.20697541325353 117.074534161482,132.42288192847627 118.58385093172546,132.85469440877205 119.84161490690894,133.17855328781297 121.2950310560409,133.75430138752563 122.5807453416055,134.29406404701876 123.30745341617148,134.5819369968376 124.48136645974591,135.1936659332423 125.487577639753,135.6974415992736 126.68944099382497,136.34515170325176 127.7515527951764,136.95687639768585 129.20496894419193,137.89245249549276 130.462732919259,138.68409112023073 132.02795031061396,139.69162762365886 132.67080745345447,140.30334426721674 133.70496894419193,141.31087435450172 134.850931677036,142.2464344324835 135.57763975160196,142.96609368862119 136.47204968938604,143.9736132255057 137.14285714295693,144.6932675933931 138.12111801235005,145.66479775949847 138.59627329197247,146.38444734114455 138.12111801235005,147.49990016792435 137.64596273296047,148.7232944162388 137.00310559023637,149.9826647003938 136.3322981366655,151.17006525569013 135.57763975160196,152.57334967300994 134.487577639753,152.42942342246533 133.3695652174065,151.92568090429995 132.33540372666903,151.45791910096887 130.9937888198765,151.0261382110475 130.12732919258997,150.88221108482685 128.8695652175229,150.63033841791912 127.97515527962241,150.37846550162067 127.27639751555398,150.09061043450492 126.27018633543048,149.62284525565337 125.15217391296756,149.01115103106713 124.28571428568102,148.29150888306322 123.39130434778053,147.2480241509038 122.66459627321456,146.1325702192844 121.937888198765,145.0530940137396 120.987577639753,143.6497680954344 120.20496894407552,142.53429837938165 119.45031055912841,141.2748912058887 118.66770186345093,140.08744444331387 117.82919254654553,138.8280251508404 116.99068322987296,137.64056696157786 116.26397515530698,136.56105470456532 115.537267080741,135.4815378646599 114.72670807456598,134.29406404701876 114.22360248456243,133.25052187155234 114.08385093172546,131.99106871470576 114.16770186333451,133.21453758218559 114.53105590073392,134.114143287763 115.06211180135142,134.9057936758618 115.70496894419193,135.76940947008552 116.3757763976464,136.88490886302316 116.87888198764995,137.6045832935779 117.57763975160196,138.61212407430867 118.47204968950246,140.0154777947755 119.3385093169054,141.20292489335407 120.06521739135496,142.35438345072907 120.79192546592094,143.50583679409465 121.68633540382143,144.87318086720188 122.30124223604798,145.70078028691933 123.13975155283697,146.92418319091666 124.20186335407197,148.14758020910085 125.37577639752999,149.2270432783116 126.38198757765349,149.87471892044414 127.63975155283697,150.41444736201083 128.84161490690894,150.70230206247652" stroke="#4DD2FF" stroke-linecap="round" stroke-linejoin="round" stroke-width="0.5"><title>2025-01-04 13.1km</title><desc>9223370300867349807</desc></polyline><polyline fill="none" points="35.722033898346126,236.02300139382714 34.094915254507214,233.61406731046736 32.38644067803398,231.4145989085082 30.27118644118309,227.8535409712931 28.48135593254119,225.13036745897261 27.098305084742606,223.14034971001092 24.49491525441408,219.05555967177497 22.216949152760208,215.1802252061898 19.694915254600346,211.30487044906477 18.149152542464435,209.1053357492783 16.277966101653874,206.48683353577508 14.813559322152287,204.18254392431118 14.325423729140311,200.726096055354 16.684745762497187,199.2597193554975 20.10169491544366,199.99290806869976 23.681355932261795,200.93557820399292 26.93559322040528,201.66876525711268 29.457627119030803,202.50669242820004 32.22372881369665,203.5541000579833 34.9084745766595,204.49676565767732 37.59322033915669,205.5441704710247 40.928813559468836,207.01053471962223 45.240677966270596,209.1053357492783 49.796610169578344,211.40961003385019 51.993220339063555,212.77122328442056 55.084745762869716,214.65652980352752 57.850847458001226,216.22761490067933 61.91864406783134,218.84608265187126 65.90508474595845,221.88349363801535 68.83389830542728,224.29246590088587 72.41355932224542,227.5393291543587 76.3186440677382,231.10038860299392 78.51525423768908,233.09038495016284 80.4677966106683,235.18511216691695 82.98983050882816,237.48930525797186 85.67457627132535,240.42190427239984 85.18644067831337,243.35449166729813 83.47796610184014,246.91547502647154 82.01355932187289,251.10484527988592 80.4677966106683,254.14212388615124 78.6779661020264,257.80778836563695 77.13220339035615,260.3213763732929 74.04067796608433,259.58824741950957 71.11186440708116,258.43618616770254 68.5898305089213,257.38885620079236 66.71864406811073,256.3415247522644 61.511864406988025,255.18945844715927 57.1186440680176,254.45632441033376 53.13220338989049,253.09478784364183 50.04067796608433,251.73324877291452 47.355932203587145,250.37170719733695 44.915254237130284,248.4864916500519 43.20677966112271,246.91547502647154 41.41694915294647,244.50657639361452 39.952542372979224,242.09766992076766 37.75593220349401,238.9556062176125 35.47796610184014,236.2324735521106 33.60677966102958,232.98564843391068 31.81694915285334,230.4719675925444 30.433898305054754,228.06301544210874 28.318644067738205,224.920892158465 25.877966101747006,221.67401741846697 23.84406779659912,218.42712843441404 21.40338983060792,214.44705153815448 19.288135593291372,211.20013084972743 17.09152542380616,208.0579359754338 15.057627118658274,204.81098725722404 14.325423729140311,201.04031925625168 16.44067796645686,199.15497805125779 19.53220338979736,199.88816686841892 22.054237288422883,200.3071315806592 25.877966101747006,201.35454232327174 28.80677966121584,202.19246985006612 32.38644067803398,203.5541000579833 36.291525423992425,205.12520872353343 39.057627118658274,206.27735295845196 42.31186440680176,207.74371575430268 45.32203389843926,209.21007564495085 47.51864406792447,210.25747378793312 50.447457626927644,211.61908915825188 53.37627118639648,213.39965932420455 57.1186440680176,215.59918126213597 59.64067796617746,217.37974185257917 62.32542372914031,219.3697750904248 64.92881355946884,221.46454113937216 67.77627118676901,223.4545633944217 71.43728813575581,226.80616772931535 74.36610169475898,229.11038690560963 76.56271186424419,231.4145989085082 79.16610169503838,234.03301293135155 81.60677966102958,236.33720960927894 83.72203389834613,238.2224561009789 85.91864406783134,240.63137518597068 85.18644067831337,243.66869677061914 83.64067796617746,248.067554209847 82.09491525404155,251.41904709296068 80.79322033934295,253.82792322937166 79.41016949154437,256.3415247522644 77.70169491553679,260.2166437099804 75.34237288171425,260.42610902152956 71.92542372876778,258.6456519832136 67.61355932243168,256.76045750972116 63.708474576473236,255.6083918561926 59.23389830533415,254.9799916537595 54.51525423768908,253.93265679653268 50.93559322087094,252.36165173217887 47.84406779659912,250.58117529482115 44.42711864458397,248.1722885920899 41.254237288143486,244.50657639361452 39.2203389829956,241.05031683522975 37.10508474567905,238.11772031063447 34.82711864402518,234.97563971200725 33.03728813584894,231.93828245409532 31.003389830701053,228.3772270368063 28.725423728581518,225.23510508728214 27.17966101691127,222.93087384593673 24.73898305092007,219.2650366324815 22.62372881406918,215.70392023888417 20.264406779780984,212.03804722992936 18.230508474633098,209.31481552607147 16.44067796645686,206.69631405355176 14.89491525432095,204.07780331687536 14.244067796971649,200.3071315806592 16.684745762497187,199.36446064454503 20.50847457628697,200.3071315806592 24.332203389611095,201.35454232327174 27.667796610388905,202.29721072432585 31.81694915285334,203.34461865061894 34.9898305083625,204.60150620527565 38.406779661308974,206.17261264746776 41.41694915294647,207.53423553245375 45.07796610193327,209.21007564495085 48.16949152573943,210.67643263022183 50.93559322087094,212.35226562764728 54.59661016985774,214.3423123836983 57.60677966102958,216.22761490067933 60.6983050853014,218.1129126153537 62.89491525432095,219.57925196242286 66.55593220330775,222.61665993917268 68.6711864406243,224.18772813951364 71.19322033878416,226.2824805523851 73.14576271222904,228.06301544210874 75.17966101691127,229.73880907217972 78.02711864421144,232.46196562907426 81.44406779669225,235.7087930450216 84.29152542399243,238.64139911381062 86.0,242.20240514772013 84.45423728832975,245.86812875821488 83.07118644099683,249.32436581939692 81.76949152583256,252.2569179426646 80.06101694935933,255.92259175807703 78.02711864421144,259.902445631742 75.6677966103889,260.740306878055 72.0067796614021,258.85511773929466 68.42711864411831,257.1793900299235 65.41694915248081,255.81785847229185 62.40677966084331,255.18945844715927 58.82711864449084,254.66579135210486 53.62033898336813,253.40898881206522 50.20338983088732,251.5237810011604 47.84406779659912,250.05750493949745 44.10169491544366,247.4391476047458 41.254237288143486,243.87816676526563 39.46440677950159,241.25978757091798 36.942372881341726,237.69877700175857 34.82711864402518,234.55669462430524 32.06101694935933,230.4719675925444 29.213559322059155,226.1777430723305 27.50508474605158,223.24508761952166 25.63389830524102,220.52189715130953 23.84406779659912,217.90343532868428 21.40338983060792,214.23757321410812 19.369491525925696,211.0953912353143 16.603389830794185,207.3247552519315 15.057627118658274,204.9157277608174 14.325423729140311,200.20239042473258 16.76610169513151,199.2597193554975 20.264406779780984,200.09764925425407 23.19322033878416,200.83083713724045 25.796610169578344,201.35454232327174 30.27118644118309,203.03039642836666 33.525423729326576,204.28728451684583 36.7796610170044,205.43943005631445 39.46440677950159,206.69631405355176 42.39322033897042,208.0579359754338 46.54237288190052,210.0479942781967 49.796610169578344,211.82856822380563 53.13220338989049,213.60913788562175 56.06101694935933,215.3897032639943 59.47796610184014,217.5892192875035 62.48813559347764,219.3697750904248 65.74237288162112,221.7787555354298 69.2406779662706,224.60667909646872 72.08813559357077,227.22511720412876 75.17966101691127,229.9482830092311 78.27118644118309,232.35722902382258 81.68813559319824,236.02300139382714 83.88474576314911,238.11772031063447 85.91864406783134,240.42190427239984 84.77966101747006,244.2971065765014 83.5593220340088,247.7533509740024 81.68813559319824,252.04745031893253 80.30508474586532,254.87525823432952 78.6779661020264,257.80778836563695 76.64406779687852,260.740306878055 74.36610169475898,260.1119110319996 71.27457627141848,258.43618616770254 68.5898305089213,257.07465692190453 66.14915254246444,256.0273250285536 61.26779661048204,254.9799916537595 57.200000000186265,254.45632441033376 53.538983050733805,253.40898881206522 49.95932203391567,251.41904709296068 45.891525423619896,249.01016311720014 42.96271186461672,246.70600589131936 40.928813559468836,243.87816676526563 38.732203389983624,240.3171687934082 36.291525423992425,237.17509753187187 34.01355932187289,233.29985793860396 31.979661017190665,230.36723070545122 30.02711864421144,227.01564249623334 27.50508474605158,223.5593012594618 25.227118644397706,220.20768222154584 22.786440677940845,216.54183151986217 20.42711864411831,212.77122328442056 18.067796610295773,209.41955539223272 16.033898305147886,206.17261264746776 14.732203389983624,203.9730626945966 14.0,200.726096055354 16.196610169950873,198.94549539900618 20.18305084761232,200.20239042473258 23.600000000093132,201.14506029331824 26.93559322040528,202.08772896119626 30.515254237689078,203.13513718399918 34.9898305083625,205.0204682497424 38.89491525478661,206.5915738021722 42.63728813594207,208.26741604867857 46.37966101709753,210.1527340405737 49.552542373072356,211.61908915825188 52.96949152555317,213.39965932420455 57.200000000186265,216.01813708036207 61.26779661048204,218.74134411977138 63.30169491562992,220.20768222154584 66.23050847509876,222.51192194066243 68.42711864411831,224.29246590088587 71.51864406792447,226.80616772931535 74.36610169475898,229.0056498257909 76.56271186424419,231.20512538630283 80.22372881369665,234.13774929987267 83.07118644099683,236.75615368888248 85.83728813566267,240.9455814451794 85.02372881397605,243.87816676526563 83.5593220340088,247.54388207616284 81.85084745800123,251.31431316991802 79.81694915285334,255.50365852628602 78.27118644118309,258.1219873330556" stroke="#4DD2FF" stroke-linecap="round" stroke-linejoin="round" stroke-width="0.5"><title>2025-01-02 10.1km</title><desc>9223370301043998807</desc></polyline></svg>