<?xml version="1.0" encoding="utf-8" ?>
<svg baseProfile="full" height="200mm" version="1.1" viewBox="0,0,200,200" width="200mm" xmlns="http://www.w3.org/2000/svg" xmlns:ev="http://www.w3.org/2001/xml-events" xmlns:xlink="http://www.w3.org/1999/xlink"><defs /><rect fill="#1a1a1a" height="200" width="200" x="0" y="0" /><text alignment-baseline="middle" fill="#e1ed5e" style="dominant-baseline: central; font-size:9.0px; font-family:Arial;" text-anchor="middle" x="100.0" y="100.0">2016</text><line stroke="#e1ed5e" stroke-width="0.3" x1="100.0" x2="100.0" y1="15.0" y2="10.0" /><path d="M 100.0 14.0 a86.0,86.0 0 0,1 42.35913384403234,11.155469271406648" fill="none" id="id1" stroke="none" /><text fill="#e1ed5e" style="font-size:6.75px; font-family:Arial;" text-anchor="middle"><textPath startOffset="22.145653131862478" xlink:href="#id1">January</textPath></text><line stroke="#e1ed5e" stroke-width="0.3" x1="143.13028292997686" x2="145.6673583964461" y1="26.7553504044142" y2="22.446841604673864" /><path d="M 143.63769802327073 25.89364864446614 a86.0,86.0 0 0,1 29.32050498858742,28.57503671076993" fill="none" id="id2" stroke="none" /><text fill="#e1ed5e" style="font-size:6.75px; font-family:Arial;" text-anchor="middle"><textPath startOffset="20.669276256404974" xlink:href="#id2">February</textPath></text><path d="M 117.62189284568427 88.57770195909679 l 18.507203251807166 -11.9961455501352 a43.05502392344498,43.05502392344498 0 0,0 0.39668501980050797,0.6236547387568855 l -18.710405963233562 11.676677136699643" fill="red" stroke="none" /><line stroke="#e1ed5e" stroke-width="0.3" x1="172.87174338648825" x2="177.1583165268699" y1="56.24261187166439" y2="53.66864786411523" /><path d="M 173.72905801456457 55.72781907015455 a86.0,86.0 0 0,1 12.242430191666344,42.057860355516425" fill="none" id="id3" stroke="none" /><text fill="#e1ed5e" style="font-size:6.75px; font-family:Arial;" text-anchor="middle"><textPath startOffset="22.145653131862474" xlink:href="#id3">March</textPath></text><path d="M 118.18653347947321 89.5 l 31.040864293380515 -17.921451355661887 a56.84290271132377,56.84290271132377 0 0,0 0.4806382360412888,0.8492417092186818 l -31.343935894443177 17.38595287634409" fill="red" stroke="none" /><path d="M 119.0197475246899 91.09779779509293 l 25.298994315137758 -11.8412067605941 a48.933014354066984,48.933014354066984 0 0,0 0.3495577302181338,0.763846725652865 l -25.498536510210943 11.405171052726551" fill="red" stroke="none" /><path d="M 119.16976305983485 91.42560881287824 l 25.620831649348652 -11.459872112931476 a49.066985645933016,49.066985645933016 0 0,0 0.33731477327773285,0.7718422133626487 l -25.813780304643355 11.018367829792979" fill="red" stroke="none" /><path d="M 120.592083275326 95.88100663000786 l 16.459434983760044 -3.2923479701133322 a37.78548644338118,37.78548644338118 0 0,0 0.12176590312123335,0.6371306585033211 l -16.513527179163436 3.0093147465766963" fill="red" stroke="none" /><path d="M 120.99303781780057 99.45929381324524 l 27.979556517398212 -0.7206541255684146 a48.98883572567783,48.98883572567783 0 0,0 0.014436702894765266,0.8408655676383502 l -27.987804651891643 0.24024164196099795" fill="red" stroke="none" /><line stroke="#e1ed5e" stroke-width="0.3" x1="184.99686870605535" x2="189.99668451229388" y1="99.2704041080226" y2="99.22748670261217" /><path d="M 185.99683186730306 99.26182062694052 a86.0,86.0 0 0,1 -10.086455211305974,41.156179273409016" fill="none" id="id4" stroke="none" /><text fill="#e1ed5e" style="font-size:6.75px; font-family:Arial;" text-anchor="middle"><textPath startOffset="21.40746469413373" xlink:href="#id4">April</textPath></text><path d="M 120.9064616781168 101.97986365728391 l 27.903068603355784 2.642449607448837 a49.02791068580542,49.02791068580542 0 0,0 -0.08654035003549361,0.8371993835164842 l -27.853595860838624 -3.1210535132482526" fill="red" stroke="none" /><line stroke="#e1ed5e" stroke-width="0.3" x1="174.33088141563837" x2="178.70328620479359" y1="141.23008692659167" y2="143.65538615756765" /><path d="M 175.20536237346943 141.71514677278685 a86.0,86.0 0 0,1 -30.301960400862466,31.631185727798858" fill="none" id="id5" stroke="none" /><text fill="#e1ed5e" style="font-size:6.75px; font-family:Arial;" text-anchor="middle"><textPath startOffset="22.145653131862474" xlink:href="#id5">May</textPath></text><line stroke="#e1ed5e" stroke-width="0.3" x1="143.1302829299769" x2="145.66735839644613" y1="173.24464959558577" y2="177.55315839532614" /><path d="M 143.63769802327073 174.10635135553383 a86.0,86.0 0 0,1 -40.68552437913181,11.842963189579606" fill="none" id="id6" stroke="none" /><text fill="#e1ed5e" style="font-size:6.75px; font-family:Arial;" text-anchor="middle"><textPath startOffset="21.407464694133747" xlink:href="#id6">June</textPath></text><path d="M 107.407793817531 119.65005319985036 l 5.907331592927428 15.669898883453241 a37.74641148325359,37.74641148325359 0 0,0 -0.6082759586695357,0.2233673575233978 l -5.637466482603766 -15.76899708998536" fill="red" stroke="none" /><path d="M 107.06938296918513 119.77432235084164 l 2.224920105134286 6.2234975181808885 a27.609250398724082,27.609250398724082 0 0,0 -0.4476566856632967,0.1557182329919595 l -2.1177576474259676 -6.260774183741439" fill="red" stroke="none" /><line stroke="#e1ed5e" stroke-width="0.3" x1="101.45913802915013" x2="101.54496967792366" y1="184.9874750549273" y2="189.98673829345242" /><path d="M 101.47630435890484 185.9873277026323 a86.0,86.0 0 0,1 -42.54439059252881,-10.42667462771756" fill="none" id="id7" stroke="none" /><text fill="#e1ed5e" style="font-size:6.75px; font-family:Arial;" text-anchor="middle"><textPath startOffset="22.145653131862474" xlink:href="#id7">July</textPath></text><path d="M 98.55909050195518 120.95050786540614 l -1.1521147714297768 16.75149592215355 a37.791068580542266,37.791068580542266 0 0,0 -0.6468229413534428,-0.05006818645494067 l 1.4395067075584558 -16.729249968703556" fill="red" stroke="none" /><path d="M 96.76829788921471 120.74984581791261 l -6.020999493485939 38.6591359217835 a60.125199362041464,60.125199362041464 0 0,0 -1.01847076411894,-0.16758897666218925 l 6.683747760657942 -38.55008094662565" fill="red" stroke="none" /><path d="M 96.41257539226777 120.69131181640829 l -3.81914820679627 22.027831957659536 a43.35645933014354,43.35645933014354 0 0,0 -0.732239533362291,-0.13343843516084014 l 4.1967224737096185 -21.95902534856733" fill="red" stroke="none" /><path d="M 95.00130118170881 120.39639698878247 l -8.094649973692164 33.028934198740764 a55.006379585326954,55.006379585326954 0 0,0 -0.9151875174261346,-0.23263708811677786 l 8.660442784343676 -32.88511187878873" fill="red" stroke="none" /><path d="M 94.30408787586889 120.21278271476187 l -14.058092523274164 49.88721092678469 a72.83014354066987,72.83014354066987 0 0,0 -1.200448808733965,-0.3494331526940656 l 14.912401344389735 -49.63853407978811" fill="red" stroke="none" /><path d="M 93.95794788825049 120.11202640906438 l -8.040008737750673 26.762574216846442 a48.94417862838915,48.94417862838915 0 0,0 -0.8025898274804668,-0.24864438014654475 l 8.498239198102773 -26.620613248893246" fill="red" stroke="none" /><path d="M 93.27111125876986 119.89276391827306 l -12.534835805034756 37.05701476322637 a60.119617224880386,60.119617224880386 0 0,0 -0.9747801262825931,-0.339079128451962 l 13.169121703362372 -36.83637720220582" fill="red" stroke="none" /><path d="M 91.59046798132341 119.24265499422711 l -15.135816400441039 34.63370998562247 a58.79665071770335,58.79665071770335 0 0,0 -0.9213899861035607,-0.4121260211766342 l 15.728119789400234 -34.36878021353598" fill="red" stroke="none" /><path d="M 90.6110303473126 118.78422872680471 l -3.251947755835108 6.506073905110721 a28.273524720893143,28.273524720893143 0 0,0 -0.4322790063850892,-0.22072474077009155 l 3.3631539839337794 -6.449291212667793" fill="red" stroke="none" /><path d="M 89.97174638481275 118.45085714620012 l -30.084760845561753 55.35257143860034 a84.0,84.0 0 0,0 -1.2610232473755896,-0.6994683382674065 l 31.030528281093442 -54.82797018489979" fill="red" stroke="none" /><line stroke="#e1ed5e" stroke-width="0.3" x1="58.13341422392154" x2="55.67067388415222" y1="173.97424548756322" y2="178.32567169271397" /><path d="M 57.64086615596768 174.84453072859336 a86.0,86.0 0 0,1 -31.369924170532247,-30.572349798747897" fill="none" id="id8" stroke="none" /><text fill="#e1ed5e" style="font-size:6.75px; font-family:Arial;" text-anchor="middle"><textPath startOffset="22.145653131862474" xlink:href="#id8">August</textPath></text><path d="M 89.34428304082925 118.09573695890944 l -29.791821099563506 50.59302534125715 a79.71291866028707,79.71291866028707 0 0,0 -1.173173906528426,-0.7044572228461139 l 30.65592776264936 -50.07415411787512" fill="red" stroke="none" /><path d="M 89.03521579738668 117.91015095944536 l -30.18667463755082 49.30766440376809 a78.81419457735248,78.81419457735248 0 0,0 -1.147819422014367,-0.7163242116943617 l 31.0286581883549 -48.78220439523218" fill="red" stroke="none" /><path d="M 88.72937992617639 117.7192867562869 l -24.665341591650655 38.77801378641947 a66.95773524720893,66.95773524720893 0 0,0 -0.9645560449434262,-0.6252135748968057 l 25.32738326885109 -38.34888636981877" fill="red" stroke="none" /><path d="M 87.83215693770417 117.11559508785305 l -34.165052170927915 48.0574244851121 a79.96411483253588,79.96411483253588 0 0,0 -1.1119542866542027,-0.8049691520682717 l 34.984987467956074 -47.463854561670765" fill="red" stroke="none" /><path d="M 87.2517909369889 116.68781488649013 l -30.914915279598706 40.46861648310723 a71.92583732057416,71.92583732057416 0 0,0 -0.9747322869152267,-0.757957721920808 l 31.60505751114916 -39.93195770956563" fill="red" stroke="none" /><line stroke="#e1ed5e" stroke-width="0.3" x1="26.387840678322732" x2="22.057713659400548" y1="142.50000000000003" y2="145.00000000000006" /><path d="M 25.521815274538298 143.00000000000003 a86.0,86.0 0 0,1 -11.493303480769221,-40.785679425670985" fill="none" id="id9" stroke="none" /><text fill="#e1ed5e" style="font-size:6.75px; font-family:Arial;" text-anchor="middle"><textPath startOffset="21.40746469413373" xlink:href="#id9">September</textPath></text><path d="M 81.1358732173502 109.22738970284198 l -5.019402155617347 2.455241119762045 a26.587719298245613,26.587719298245613 0 0,0 -0.1970286003022167,-0.41171399592342006 l 5.060810013879475 -2.3687146217735204" fill="red" stroke="none" /><path d="M 80.16572619554312 106.89939002012753 l -37.74416963479714 13.12938148699973 a60.962519936204146,60.962519936204146 0 0,0 -0.335336180491275,-0.9913618322880597 l 37.963991236860785 -12.479517980237508" fill="red" stroke="none" /><line stroke="#e1ed5e" stroke-width="0.3" x1="15.003131293944662" x2="10.003315487706104" y1="100.72959589197737" y2="100.7725132973878" /><path d="M 14.003168132696942 100.73817937305945 a86.0,86.0 0 0,1 10.791469493833604,-42.45332614584628" fill="none" id="id10" stroke="none" /><text fill="#e1ed5e" style="font-size:6.75px; font-family:Arial;" text-anchor="middle"><textPath startOffset="22.145653131862435" xlink:href="#id10">October</textPath></text><line stroke="#e1ed5e" stroke-width="0.3" x1="26.387840678322718" x2="22.05771365940052" y1="57.49999999999999" y2="54.99999999999999" /><path d="M 25.521815274538284 56.99999999999999 a86.0,86.0 0 0,1 29.574782752854787,-30.34633250058573" fill="none" id="id11" stroke="none" /><text fill="#e1ed5e" style="font-size:6.75px; font-family:Arial;" text-anchor="middle"><textPath startOffset="21.40746469413373" xlink:href="#id11">November</textPath></text><line stroke="#e1ed5e" stroke-width="0.3" x1="56.869717070023135" x2="54.33264160355391" y1="26.7553504044142" y2="22.446841604673864" /><path d="M 56.362301976729285 25.89364864446614 a86.0,86.0 0 0,1 42.16139366436587,-11.88097634709845" fill="none" id="id12" stroke="none" /><text fill="#e1ed5e" style="font-size:6.75px; font-family:Arial;" text-anchor="middle"><textPath startOffset="22.145653131862474" xlink:href="#id12">December</textPath></text></svg>