<?xml version="1.0" encoding="utf-8" ?>
<svg baseProfile="full" height="200mm" version="1.1" viewBox="0,0,200,200" width="200mm" xmlns="http://www.w3.org/2000/svg" xmlns:ev="http://www.w3.org/2001/xml-events" xmlns:xlink="http://www.w3.org/1999/xlink"><defs /><rect fill="#1a1a1a" height="200" width="200" x="0" y="0" /><text alignment-baseline="middle" fill="#e1ed5e" style="dominant-baseline: central; font-size:9.0px; font-family:Arial;" text-anchor="middle" x="100.0" y="100.0">2026</text><line stroke="#e1ed5e" stroke-width="0.3" x1="100.0" x2="100.0" y1="15.0" y2="10.0" /><path d="M 100.0 14.0 a86.0,86.0 0 0,1 42.46469731375804,11.215312516191453" fill="none" id="id121" stroke="none" /><text fill="#e1ed5e" style="font-size:6.75px; font-family:Arial;" text-anchor="middle"><textPath startOffset="22.20632615414155" xlink:href="#id121">January</textPath></text><path d="M 100.0 79.0 l 0.0 -63.0 a84.0,84.0 0 0,0 1.4459219170901134,0.012445506434235476 l -1.084441437817585 62.990665870174325" fill="#4dd2ff" stroke="none" /><path d="M 100.72285384407766 79.0124445844662 l 0.82962210147399 -24.08749703870472 a45.1017797355478,45.1017797355478 0 0,0 0.7756629155738171,0.033401676794893816 l -1.2441258494371386 24.06964763538563" fill="#ffc812" stroke="none" /><path d="M 101.08401301168833 79.027996857942 l 1.2393532506213543 -23.977313912191182 a45.00932275020648,45.00932275020648 0 0,0 0.7733843716333881,0.046652657318033114 l -1.6518996710943543 23.952427985492843" fill="#ffc712" stroke="none" /><path d="M 102.52436894288641 79.15227682838746 l 1.7701452804221416 -14.618900649911014 a35.72568064728315,35.72568064728315 0 0,0 0.6098633488611089,0.07917776587748132 l -2.021523357791097 14.586264560869395" fill="#ff2f04" stroke="none" /><path d="M 102.88285421437855 79.19881850522331 l 3.322718764180683 -23.97501605356811 a45.20417019347465,45.20417019347465 0 0,0 0.7698292131032813,0.11345281467249684 l -3.73491695771262 23.91426875473464" fill="#ffca12" stroke="none" /><path d="M 103.2404852339499 79.25152402106235 l 3.8579010985037785 -24.70172288791866 a46.00117026295692,46.00117026295692 0 0,0 0.7812987579156958,0.12892098948217254 l -4.28252906255835 24.631655635496863" fill="#ffd614" stroke="none" /><path d="M 103.95276090670814 79.375362276772 l 5.595497100138218 -29.196074160689207 a50.72743403313039,50.72743403313039 0 0,0 0.8561669801372356,0.1717390418147598 l -6.097230489742579 29.09543116279724" fill="#e2ff1b" stroke="none" /><path d="M 104.66035177308747 79.52364482259891 l 5.356259612052061 -23.533990475162344 a45.135828651959145,45.135828651959145 0 0,0 0.7560816851941657,0.17894010686594786 l -5.7605649842087505 23.438304456155528" fill="#ffc912" stroke="none" /><path d="M 105.36241919743992 79.69619591428918 l 6.989859221146441 -26.46580339720755 a48.37328773441526,48.37328773441526 0 0,0 0.8032317875323514,0.21955358978914952 l -7.444388897902503 26.341563266592107" fill="#fffa17" stroke="none" /><path d="M 105.71112130821622 79.79150937346287 l 6.588714115423518 -23.313804812886346 a45.226940552784285,45.226940552784285 0 0,0 0.7473424187741514,0.21816974551864304 l -6.989046751921096 23.196936738449" fill="#ffca12" stroke="none" /><path d="M 106.0581310904928 79.89281104454417 l 5.1150759822345995 -16.97714984373815 a38.730979079587556,38.730979079587556 0 0,0 0.6366905003575613,0.19782283771164183 l -5.406551855302879 16.88658687114399" fill="#ff6209" stroke="none" /><path d="M 106.40334571778207 80.00007090966166 l 7.328942060192778 -22.89089609889503 a45.03552612139103,45.03552612139103 0 0,0 0.7362604631820884,0.2427334989383874 l -7.7218853456172845 22.761348875697408" fill="#ffc712" stroke="none" /><path d="M 106.74666289553966 80.11325718540242 l 3.8713425173780287 -11.411329450180787 a33.050134136490854,33.050134136490854 0 0,0 0.5371716928050975,0.18740865597702058 l -4.067196214246399 11.34299994103156" fill="#ff0000" stroke="none" /><path d="M 107.4271985657038 80.35727306442388 l 10.221691917633885 -27.03332910537873 a49.90127796791586,49.90127796791586 0 0,0 0.8008367030104214,0.3107121990233765 l -10.685511785643973 26.853374202464806" fill="#eeff19" stroke="none" /><path d="M 108.09893153111575 80.62456947434976 l 19.58457193747187 -46.853033821957666 a71.78151471052749,71.78151471052749 0 0,0 1.1359125347010335,0.48633846650284407 l -20.38816822996322 46.50897582749203" fill="#3bff97" stroke="none" /><path d="M 108.76106565485865 80.91482961587045 l 7.35466442107097 -16.02145550825685 a38.62890028758518,38.62890028758518 0 0,0 0.6019151356015761,0.2826072269657498 l -7.629357767972144 15.892483298651097" fill="#ff6008" stroke="none" /><path d="M 109.73455568895987 81.39251694778311 l 11.756549896372292 -22.472500023538736 a46.36197395262916,46.36197395262916 0 0,0 0.7039402403581534,0.3760204974049668 l -12.141635183258757 22.266800799632012" fill="#ffdc14" stroke="none" /><line stroke="#e1ed5e" stroke-width="0.3" x1="143.23703022742887" x2="145.7803849466894" y1="26.81831364943548" y2="22.513508569990506" /><path d="M 143.74570117128098 25.957352633546492 a86.0,86.0 0 0,1 28.547481713284135,27.462654790039103" fill="none" id="id122" stroke="none" /><text fill="#e1ed5e" style="font-size:6.75px; font-family:Arial;" text-anchor="middle"><textPath startOffset="19.985693538727396" xlink:href="#id122">February</textPath></text><path d="M 110.68208982089419 81.91981866633111 l 21.98634963365448 -37.21342873043183 a64.22312862447868,64.22312862447868 0 0,0 0.9469484213486894,0.5705258283843809 l -22.62366012122081 36.82945629258884" fill="#31ff2f" stroke="none" /><path d="M 111.2981086023043 82.29822771554956 l 13.1248094884546 -20.56383037369925 a45.395322169352546,45.395322169352546 0 0,0 0.6550609282123669,0.42606984941448645 l -13.476837442451247 20.334861600125237" fill="#ffcd13" stroke="none" /><path d="M 111.90073688211348 82.69761687909136 l 9.539591690896506 -13.869533616948193 a37.8335311916626,37.8335311916626 0 0,0 0.5333966888305687,0.3736784676625831 l -9.776919519310725 13.703270306521674" fill="#ff5307" stroke="none" /><path d="M 113.06298171725822 83.55741782278167 l 22.406127948298444 -28.202948456739602 a57.02000654204593,57.02000654204593 0 0,0 0.763244288228552,0.617157134331737 l -22.888275635091485 27.813085225143734" fill="#8bff24" stroke="none" /><path d="M 113.34407831869373 83.78471172551755 l 16.757916229715516 -20.36367263850604 a47.372465180380885,47.372465180380885 0 0,0 0.6251867466861528,0.5235759209413331 l -17.105960513360785 20.072195560170886" fill="#ffeb16" stroke="none" /><path d="M 113.89432698308785 84.25364557470407 l 19.126706336185823 -21.676177430164586 a49.90826115930648,49.90826115930648 0 0,0 0.6392749466687266,0.5739473590749185 l -19.49699227045054 21.34373106232037" fill="#edff19" stroke="none" /><path d="M 114.42810811169701 84.74124197986012 l 21.065441546975357 -22.27821365519916 a51.660587587907344,51.660587587907344 0 0,0 0.6408785100703899,0.616524618920337 l -21.445803300658167 21.912305949516522" fill="#d4ff1c" stroke="none" /><path d="M 114.94478906791727 85.2469230424477 l 22.429777789450462 -22.142048065364627 a52.51769700046376,52.51769700046376 0 0,0 0.6295514820489889,0.6488081413890793 l -22.80759353520256 21.75267572842543" fill="#c8ff1d" stroke="none" /><path d="M 115.19652480421416 85.50635884689758 l 17.778709958372342 -16.95639270303959 a45.568308474203555,45.568308474203555 0 0,0 0.5364749970168282,0.5722741221801133 l -18.067952277359634 16.647849163981423" fill="#ffd013" stroke="none" /><path d="M 115.4437574822437 85.77008943001954 l 11.650914229746247 -10.73517683364421 a36.84259524315745,36.84259524315745 0 0,0 0.42571857295054993,0.4700890811981052 l -11.833976443312833 10.533034965176556" fill="#ff4206" stroke="none" /><path d="M 115.9244219780498 86.31012108654704 l 18.654783108964352 -16.037110940068484 a45.60060690606161,45.60060690606161 0 0,0 0.5065779814157256,0.5996285470757176 l -18.928071703867197 15.71362344336366" fill="#ffd013" stroke="none" /><path d="M 117.2510076193507 88.02491185347247 l 11.799542395019406 -8.190858376907046 a35.36382127716746,35.36382127716746 0 0,0 0.34281946726165624,0.5030452665060725 l -11.938786327949796 7.9865350871305685" fill="#ff2903" stroke="none" /><path d="M 117.45458315368197 88.32363383020206 l 19.97862053707444 -13.364838730572458 a45.036725918032644,45.036725918032644 0 0,0 0.4254970454571726,0.6480611919056177 l -20.20571421788954 13.018959474689167" fill="#ffc712" stroke="none" /><line stroke="#e1ed5e" stroke-width="0.3" x1="172.23445277983987" x2="176.4835382374775" y1="55.19839476539836" y2="52.563006222186495" /><path d="M 173.08426987136738 54.67131705675599 a86.0,86.0 0 0,1 12.851231095245387,41.99856678651699" fill="none" id="id123" stroke="none" /><text fill="#e1ed5e" style="font-size:6.75px; font-family:Arial;" text-anchor="middle"><textPath startOffset="22.20632615414155" xlink:href="#id123">March</textPath></text><path d="M 118.56541770881063 90.18545643968196 l 21.88283814651756 -11.568286347280086 a45.75245148180986,45.75245148180986 0 0,0 0.3620774212417264,0.6994183309105272 l -22.078725000919402 11.189895294109215" fill="#ffd213" stroke="none" /><path d="M 118.73160827565052 90.50648371742162 l 17.12801921671854 -8.68078847952451 a40.20221682292242,40.20221682292242 0 0,0 0.3075277899846922,0.6199572590090304 l -17.274907019656638 8.38467163201653" fill="#ff7a0b" stroke="none" /><path d="M 118.89224826269711 90.83032412892265 l 21.675602697779258 -10.520624559086231 a45.09388497991189,45.09388497991189 0 0,0 0.33292558923703053,0.701226197543969 l -21.853486480858045 10.14595594590172" fill="#ffc812" stroke="none" /><path d="M 119.34039704204932 91.81776055985345 l 22.147564811693076 -9.369853054797217 a45.04805134219066,45.04805134219066 0 0,0 0.29598353015521134,0.7167475954738624 l -22.305570028734486 8.98723088887005" fill="#ffc812" stroke="none" /><path d="M 119.61058180528143 92.48833698450437 l 22.439734870259148 -8.595345521929271 a45.02959978212026,45.02959978212026 0 0,0 0.2710254663842007,0.726213504525386 l -22.584364925144975 8.207808880374552" fill="#ffc712" stroke="none" /><path d="M 119.7369772167798 92.82701384747503 l 22.58350818596684 -8.207497516674144 a45.02868821787497,45.02868821787497 0 0,0 0.25847950665906927,0.7307563725498917 l -22.721440773435717 7.817543517697637" fill="#ffc712" stroke="none" /><path d="M 119.97218684219823 93.5106431181261 l 27.30061543414409 -8.870507673833494 a49.70556582745871,49.70556582745871 0 0,0 0.2573908433302181,0.815999311747479 l -27.449261761242514 8.399258195659595" fill="#f0ff19" stroke="none" /><path d="M 120.28053869075195 94.5502522615342 l 30.374541845271693 -8.1621890449926 a52.45209249503693,52.45209249503693 0 0,0 0.22680201902988192,0.8739606976883685 l -30.510540196171878 7.63813192175538" fill="#c9ff1d" stroke="none" /><path d="M 120.37134235888165 94.90015583598534 l 23.36874411281398 -5.85022583119695 a45.08990128012529,45.08990128012529 0 0,0 0.1820068889539197,0.7545360577550226 l -23.46598380202872 5.4471045417825215" fill="#ffc812" stroke="none" /><path d="M 120.6074358757038 95.95851677861258 l 23.577127188904974 -4.623892293888919 a45.02626284771078,45.02626284771078 0 0,0 0.1426137751599943,0.7618484895106942 l -23.653226687974826 4.217365726915662" fill="#ffc712" stroke="none" /><path d="M 120.67395015179393 96.31383870115 l 26.39424787407368 -4.70608927231169 a47.81051280891528,47.81051280891528 0 0,0 0.13748513658542508,0.8114450587145273 l -26.471344872179326 4.251058425281325" fill="#fff216" stroke="none" /><path d="M 120.83666639777658 97.38593545837742 l 24.565265938460122 -3.0818360969732512 a45.757827133168945,45.757827133168945 0 0,0 0.09131878011780531,0.7823635406101553 l -24.614675071581516 2.658528818038243" fill="#ffd313" stroke="none" /><path d="M 120.91429891909075 98.10471618934814 l 24.166356133168165 -2.1899899068494446 a45.265383255724956,45.265383255724956 0 0,0 0.06364208598731803,0.776594648537819 l -24.200472702974977 1.773681341103857" fill="#ffcb12" stroke="none" /><path d="M 120.94382443527127 98.46500227214037 l 21.189667784285827 -1.5530158784277421 a42.246502750501065,42.246502750501065 0 0,0 0.04691254648914378,0.7257163302024988 l -21.213260921779387 1.188040483972208" fill="#ff9b0e" stroke="none" /><path d="M 120.96714384426684 98.82574320788733 l 24.714947975889665 -1.3841511148565537 a45.75367705533243,45.75367705533243 0 0,0 0.03727049164126667,0.7867211721827921 l -24.735112075764427 0.9585188360507618" fill="#ffd213" stroke="none" /><path d="M 120.98425023603335 99.18683210126433 l 24.20011608334287 -0.937787022328754 a45.218279520777656,45.218279520777656 0 0,0 0.023445259219632128,0.7780340129970369 l -24.212673037018146 0.521082861906718" fill="#ffca12" stroke="none" /><line stroke="#e1ed5e" stroke-width="0.3" x1="184.98032266829074" x2="189.97916517819016" y1="98.17113171792111" y2="98.06355123074" /><path d="M 185.9800911702706 98.14961562048488 a86.0,86.0 0 0,1 -9.607161424134198,41.387399972396054" fill="none" id="id124" stroke="none" /><text fill="#e1ed5e" style="font-size:6.75px; font-family:Arial;" text-anchor="middle"><textPath startOffset="21.466115282336823" xlink:href="#id124">April</textPath></text><path d="M 120.99824983174949 100.27111621757518 l 13.466354710759175 0.17386911685308878 a34.46747710841868,34.46747710841868 0 0,0 -0.01276599411215338,0.5931855833811235 l -13.461366653962013 -0.40564451602432716" fill="#ff1902" stroke="none" /><line stroke="#e1ed5e" stroke-width="0.3" x1="174.80103733775053" x2="179.2010983576182" y1="140.37084112569926" y2="142.7455964860345" /><path d="M 175.68104954172406 140.8457921977663 a86.0,86.0 0 0,1 -30.038265399797805,32.042727171017184" fill="none" id="id125" stroke="none" /><text fill="#e1ed5e" style="font-size:6.75px; font-family:Arial;" text-anchor="middle"><textPath startOffset="22.206326154141568" xlink:href="#id125">May</textPath></text><line stroke="#e1ed5e" stroke-width="0.3" x1="143.8653032363475" x2="146.44561519142675" y1="172.8068346515853" y2="177.08958963109032" /><path d="M 144.38136562736335 173.6633856474863 a86.0,86.0 0 0,1 -40.68145358897372,12.25698825130547" fill="none" id="id126" stroke="none" /><text fill="#e1ed5e" style="font-size:6.75px; font-family:Arial;" text-anchor="middle"><textPath startOffset="21.466115282336833" xlink:href="#id126">June</textPath></text><line stroke="#e1ed5e" stroke-width="0.3" x1="102.19456741930631" x2="102.32365962044197" y1="184.97166512339345" y2="189.96999836594603" /><path d="M 102.22038585953345 185.97133177190398 a86.0,86.0 0 0,1 -42.740103519485714,-10.115201625700543" fill="none" id="id127" stroke="none" /><text fill="#e1ed5e" style="font-size:6.75px; font-family:Arial;" text-anchor="middle"><textPath startOffset="22.20632615414155" xlink:href="#id127">July</textPath></text><line stroke="#e1ed5e" stroke-width="0.3" x1="58.666819895761336" x2="56.23545636021788" y1="174.27360380694188" y2="178.64263932499728" /><path d="M 58.180547188652646 175.14741091055294 a86.0,86.0 0 0,1 -31.652253787137756,-30.449443065178592" fill="none" id="id128" stroke="none" /><text fill="#e1ed5e" style="font-size:6.75px; font-family:Arial;" text-anchor="middle"><textPath startOffset="22.20632615414155" xlink:href="#id128">August</textPath></text><line stroke="#e1ed5e" stroke-width="0.3" x1="26.63291911575756" x2="22.317208475507996" y1="142.92168965132927" y2="145.44649492493687" /><path d="M 25.769776987707644 143.4266507060508 a86.0,86.0 0 0,1 -11.730757126820373,-40.83630448921669" fill="none" id="id129" stroke="none" /><text fill="#e1ed5e" style="font-size:6.75px; font-family:Arial;" text-anchor="middle"><textPath startOffset="21.46611528233685" xlink:href="#id129">September</textPath></text><line stroke="#e1ed5e" stroke-width="0.3" x1="15.007084014347285" x2="10.007500721073583" y1="101.09737516637583" y2="101.16192664675087" /><path d="M 14.007167355692545 101.11028546245083 a86.0,86.0 0 0,1 10.666146001902534,-42.60595125391555" fill="none" id="id130" stroke="none" /><text fill="#e1ed5e" style="font-size:6.75px; font-family:Arial;" text-anchor="middle"><textPath startOffset="22.20632615414155" xlink:href="#id130">October</textPath></text><line stroke="#e1ed5e" stroke-width="0.3" x1="26.266209847984243" x2="21.928928074336255" y1="57.711370442889674" y2="55.22380399835377" /><path d="M 25.398753493254645 57.213857153982495 a86.0,86.0 0 0,1 29.58750427330803,-30.492523968695096" fill="none" id="id131" stroke="none" /><text fill="#e1ed5e" style="font-size:6.75px; font-family:Arial;" text-anchor="middle"><textPath startOffset="21.46611528233685" xlink:href="#id131">November</textPath></text><line stroke="#e1ed5e" stroke-width="0.3" x1="56.762969772571076" x2="54.21961505331055" y1="26.818313649435495" y2="22.513508569990535" /><path d="M 56.25429882871897 25.957352633546506 a86.0,86.0 0 0,1 42.265352541879196,-11.944610805530505" fill="none" id="id132" stroke="none" /><text fill="#e1ed5e" style="font-size:6.75px; font-family:Arial;" text-anchor="middle"><textPath startOffset="22.20632615414155" xlink:href="#id132">December</textPath></text></svg>