<?xml version="1.0" encoding="utf-8" ?>
<svg baseProfile="full" height="200mm" version="1.1" viewBox="0,0,200,200" width="200mm" xmlns="http://www.w3.org/2000/svg" xmlns:ev="http://www.w3.org/2001/xml-events" xmlns:xlink="http://www.w3.org/1999/xlink"><defs /><rect fill="#1a1a1a" height="200" width="200" x="0" y="0" /><text alignment-baseline="middle" fill="#e1ed5e" style="dominant-baseline: central; font-size:9.0px; font-family:Arial;" text-anchor="middle" x="100.0" y="100.0">2026</text><line stroke="#e1ed5e" stroke-width="0.3" x1="100.0" x2="100.0" y1="15.0" y2="10.0" /><path d="M 100.0 14.0 a86.0,86.0 0 0,1 42.46469731375804,11.215312516191453" fill="none" id="id121" stroke="none" /><text fill="#e1ed5e" style="font-size:6.75px; font-family:Arial;" text-anchor="middle"><textPath startOffset="22.20632615414155" xlink:href="#id121">January</textPath></text><path d="M 100.0 79.0 l 0.0 -63.0 a84.0,84.0 0 0,0 1.4459219170901134,0.012445506434235476 l -1.084441437817585 62.990665870174325" fill="#4dd2ff" stroke="none" /><path d="M 100.72285384407766 79.0124445844662 l 0.82962210147399 -24.08749703870472 a45.1017797355478,45.1017797355478 0 0,0 0.7756629155738171,0.033401676794893816 l -1.2441258494371386 24.06964763538563" fill="#ffc812" stroke="none" /><path d="M 101.08401301168833 79.027996857942 l 1.2393532506213543 -23.977313912191182 a45.00932275020648,45.00932275020648 0 0,0 0.7733843716333881,0.046652657318033114 l -1.6518996710943543 23.952427985492843" fill="#ffc712" stroke="none" /><path d="M 102.52436894288641 79.15227682838746 l 1.7701452804221416 -14.618900649911014 a35.72568064728315,35.72568064728315 0 0,0 0.6098633488611089,0.07917776587748132 l -2.021523357791097 14.586264560869395" fill="#ff2f04" stroke="none" /><path d="M 102.88285421437855 79.19881850522331 l 3.322718764180683 -23.97501605356811 a45.20417019347465,45.20417019347465 0 0,0 0.7698292131032813,0.11345281467249684 l -3.73491695771262 23.91426875473464" fill="#ffca12" stroke="none" /><path d="M 103.2404852339499 79.25152402106235 l 3.8579010985037785 -24.70172288791866 a46.00117026295692,46.00117026295692 0 0,0 0.7812987579156958,0.12892098948217254 l -4.28252906255835 24.631655635496863" fill="#ffd614" stroke="none" /><path d="M 103.95276090670814 79.375362276772 l 5.595497100138218 -29.196074160689207 a50.72743403313039,50.72743403313039 0 0,0 0.8561669801372356,0.1717390418147598 l -6.097230489742579 29.09543116279724" fill="#e2ff1b" stroke="none" /><path d="M 104.66035177308747 79.52364482259891 l 5.356259612052061 -23.533990475162344 a45.135828651959145,45.135828651959145 0 0,0 0.7560816851941657,0.17894010686594786 l -5.7605649842087505 23.438304456155528" fill="#ffc912" stroke="none" /><path d="M 105.36241919743992 79.69619591428918 l 6.989859221146441 -26.46580339720755 a48.37328773441526,48.37328773441526 0 0,0 0.8032317875323514,0.21955358978914952 l -7.444388897902503 26.341563266592107" fill="#fffa17" stroke="none" /><path d="M 105.71112130821622 79.79150937346287 l 6.588714115423518 -23.313804812886346 a45.226940552784285,45.226940552784285 0 0,0 0.7473424187741514,0.21816974551864304 l -6.989046751921096 23.196936738449" fill="#ffca12" stroke="none" /><path d="M 106.0581310904928 79.89281104454417 l 5.1150759822345995 -16.97714984373815 a38.730979079587556,38.730979079587556 0 0,0 0.6366905003575613,0.19782283771164183 l -5.406551855302879 16.88658687114399" fill="#ff6209" stroke="none" /><path d="M 106.40334571778207 80.00007090966166 l 7.328942060192778 -22.89089609889503 a45.03552612139103,45.03552612139103 0 0,0 0.7362604631820884,0.2427334989383874 l -7.7218853456172845 22.761348875697408" fill="#ffc712" stroke="none" /><path d="M 106.74666289553966 80.11325718540242 l 3.8713425173780287 -11.411329450180787 a33.050134136490854,33.050134136490854 0 0,0 0.5371716928050975,0.18740865597702058 l -4.067196214246399 11.34299994103156" fill="#ff0000" stroke="none" /><path d="M 107.4271985657038 80.35727306442388 l 10.221691917633885 -27.03332910537873 a49.90127796791586,49.90127796791586 0 0,0 0.8008367030104214,0.3107121990233765 l -10.685511785643973 26.853374202464806" fill="#eeff19" stroke="none" /><line stroke="#e1ed5e" stroke-width="0.3" x1="143.23703022742887" x2="145.7803849466894" y1="26.81831364943548" y2="22.513508569990506" /><path d="M 143.74570117128098 25.957352633546492 a86.0,86.0 0 0,1 28.547481713284135,27.462654790039103" fill="none" id="id122" stroke="none" /><text fill="#e1ed5e" style="font-size:6.75px; font-family:Arial;" text-anchor="middle"><textPath startOffset="19.985693538727396" xlink:href="#id122">February</textPath></text><line stroke="#e1ed5e" stroke-width="0.3" x1="172.23445277983987" x2="176.4835382374775" y1="55.19839476539836" y2="52.563006222186495" /><path d="M 173.08426987136738 54.67131705675599 a86.0,86.0 0 0,1 12.851231095245387,41.99856678651699" fill="none" id="id123" stroke="none" /><text fill="#e1ed5e" style="font-size:6.75px; font-family:Arial;" text-anchor="middle"><textPath startOffset="22.20632615414155" xlink:href="#id123">March</textPath></text><line stroke="#e1ed5e" stroke-width="0.3" x1="184.98032266829074" x2="189.97916517819016" y1="98.17113171792111" y2="98.06355123074" /><path d="M 185.9800911702706 98.14961562048488 a86.0,86.0 0 0,1 -9.607161424134198,41.387399972396054" fill="none" id="id124" stroke="none" /><text fill="#e1ed5e" style="font-size:6.75px; font-family:Arial;" text-anchor="middle"><textPath startOffset="21.466115282336823" xlink:href="#id124">April</textPath></text><line stroke="#e1ed5e" stroke-width="0.3" x1="174.80103733775053" x2="179.2010983576182" y1="140.37084112569926" y2="142.7455964860345" /><path d="M 175.68104954172406 140.8457921977663 a86.0,86.0 0 0,1 -30.038265399797805,32.042727171017184" fill="none" id="id125" stroke="none" /><text fill="#e1ed5e" style="font-size:6.75px; font-family:Arial;" text-anchor="middle"><textPath startOffset="22.206326154141568" xlink:href="#id125">May</textPath></text><line stroke="#e1ed5e" stroke-width="0.3" x1="143.8653032363475" x2="146.44561519142675" y1="172.8068346515853" y2="177.08958963109032" /><path d="M 144.38136562736335 173.6633856474863 a86.0,86.0 0 0,1 -40.68145358897372,12.25698825130547" fill="none" id="id126" stroke="none" /><text fill="#e1ed5e" style="font-size:6.75px; font-family:Arial;" text-anchor="middle"><textPath startOffset="21.466115282336833" xlink:href="#id126">June</textPath></text><line stroke="#e1ed5e" stroke-width="0.3" x1="102.19456741930631" x2="102.32365962044197" y1="184.97166512339345" y2="189.96999836594603" /><path d="M 102.22038585953345 185.97133177190398 a86.0,86.0 0 0,1 -42.740103519485714,-10.115201625700543" fill="none" id="id127" stroke="none" /><text fill="#e1ed5e" style="font-size:6.75px; font-family:Arial;" text-anchor="middle"><textPath startOffset="22.20632615414155" xlink:href="#id127">July</textPath></text><line stroke="#e1ed5e" stroke-width="0.3" x1="58.666819895761336" x2="56.23545636021788" y1="174.27360380694188" y2="178.64263932499728" /><path d="M 58.180547188652646 175.14741091055294 a86.0,86.0 0 0,1 -31.652253787137756,-30.449443065178592" fill="none" id="id128" stroke="none" /><text fill="#e1ed5e" style="font-size:6.75px; font-family:Arial;" text-anchor="middle"><textPath startOffset="22.20632615414155" xlink:href="#id128">August</textPath></text><line stroke="#e1ed5e" stroke-width="0.3" x1="26.63291911575756" x2="22.317208475507996" y1="142.92168965132927" y2="145.44649492493687" /><path d="M 25.769776987707644 143.4266507060508 a86.0,86.0 0 0,1 -11.730757126820373,-40.83630448921669" fill="none" id="id129" stroke="none" /><text fill="#e1ed5e" style="font-size:6.75px; font-family:Arial;" text-anchor="middle"><textPath startOffset="21.46611528233685" xlink:href="#id129">September</textPath></text><line stroke="#e1ed5e" stroke-width="0.3" x1="15.007084014347285" x2="10.007500721073583" y1="101.09737516637583" y2="101.16192664675087" /><path d="M 14.007167355692545 101.11028546245083 a86.0,86.0 0 0,1 10.666146001902534,-42.60595125391555" fill="none" id="id130" stroke="none" /><text fill="#e1ed5e" style="font-size:6.75px; font-family:Arial;" text-anchor="middle"><textPath startOffset="22.20632615414155" xlink:href="#id130">October</textPath></text><line stroke="#e1ed5e" stroke-width="0.3" x1="26.266209847984243" x2="21.928928074336255" y1="57.711370442889674" y2="55.22380399835377" /><path d="M 25.398753493254645 57.213857153982495 a86.0,86.0 0 0,1 29.58750427330803,-30.492523968695096" fill="none" id="id131" stroke="none" /><text fill="#e1ed5e" style="font-size:6.75px; font-family:Arial;" text-anchor="middle"><textPath startOffset="21.46611528233685" xlink:href="#id131">November</textPath></text><line stroke="#e1ed5e" stroke-width="0.3" x1="56.762969772571076" x2="54.21961505331055" y1="26.818313649435495" y2="22.513508569990535" /><path d="M 56.25429882871897 25.957352633546506 a86.0,86.0 0 0,1 42.265352541879196,-11.944610805530505" fill="none" id="id132" stroke="none" /><text fill="#e1ed5e" style="font-size:6.75px; font-family:Arial;" text-anchor="middle"><textPath startOffset="22.20632615414155" xlink:href="#id132">December</textPath></text></svg>