<?xml version="1.0" encoding="utf-8" ?>
<svg baseProfile="full" height="200mm" version="1.1" viewBox="0,0,200,200" width="200mm" xmlns="http://www.w3.org/2000/svg" xmlns:ev="http://www.w3.org/2001/xml-events" xmlns:xlink="http://www.w3.org/1999/xlink"><defs /><rect fill="#1a1a1a" height="200" width="200" x="0" y="0" /><text alignment-baseline="middle" fill="#e1ed5e" style="dominant-baseline: central; font-size:9.0px; font-family:Arial;" text-anchor="middle" x="100.0" y="100.0">2025</text><line stroke="#e1ed5e" stroke-width="0.3" x1="100.0" x2="100.0" y1="15.0" y2="10.0" /><path d="M 100.0 14.0 a86.0,86.0 0 0,1 42.46469731375804,11.215312516191453" fill="none" id="id109" stroke="none" /><text fill="#e1ed5e" style="font-size:6.75px; font-family:Arial;" text-anchor="middle"><textPath startOffset="22.20632615414155" xlink:href="#id109">January</textPath></text><path d="M 100.36148047927253 79.00311137660856 l 0.8378501594426446 -48.66721023583897 a69.67442187668003,69.67442187668003 0 0,0 1.1989752511632465,0.030965993415999014 l -1.675452045800759 48.64557745028061" fill="#3aff91" stroke="none" /><path d="M 101.08401301168833 79.027996857942 l 3.2520390350649873 -62.916009426173986 a84.0,84.0 0 0,0 1.4433518046415523,0.08706692247878367 l -4.334552888546152 62.8507092343149" fill="#4dd2ff" stroke="none" /><path d="M 101.80526077348638 79.07773832637324 l 4.144651689835496 -48.03488142785596 a69.2133588481267,69.2133588481267 0 0,0 1.1861023199584246,0.11263470718620486 l -4.970879136884165 47.95642117615458" fill="#39ff8b" stroke="none" /><path d="M 103.2404852339499 79.25152402106235 l 8.96126672914338 -57.378020279958776 a79.07358704814274,79.07358704814274 0 0,0 1.343011384090849,0.22160838574057587 l -9.947607319373104 57.21526563127857" fill="#46fffa" stroke="none" /><path d="M 103.95276090670814 79.375362276772 l 10.896572395675252 -56.85592004928302 a78.89068089619136,78.89068089619136 0 0,0 1.3315003471247793,0.2670864435283125 l -11.873639152267156 56.6599296496775" fill="#46fff8" stroke="none" /><path d="M 104.307194497241 79.44645832069477 l 5.962411285175231 -28.452086140411847 a50.07011444894913,50.07011444894913 0 0,0 0.8420297723862835,0.1840350944882758 l -6.451283781715043 28.3452375478277" fill="#b6ff1f" stroke="none" /><path d="M 105.01212808612495 79.60689891045804 l 5.803343315855745 -23.61235883519946 a45.31506289121847,45.31506289121847 0 0,0 0.7558792256891856,0.19269044498119667 l -6.208931430229956 23.508965394049394" fill="#f2ff19" stroke="none" /><path d="M 105.71112130821622 79.79150937346287 l 7.443772892363825 -26.339383564659254 a48.3710226597278,48.3710226597278 0 0,0 0.7992960972213008,0.23333644892103264 l -7.896059207308553 26.20734878681952" fill="#cbff1d" stroke="none" /><path d="M 106.40334571778207 80.00007090966166 l 5.470344710699473 -17.08583467699946 a38.94019001748964,38.94019001748964 0 0,0 0.6366112446737396,0.20988071831987237 l -5.763638777615631 16.98914023442035" fill="#ffb710" stroke="none" /><path d="M 106.74666289553966 80.11325718540242 l 8.53988474146268 -25.17251775422967 a47.58167190912707,47.58167190912707 0 0,0 0.7733562333020038,0.2698088045513711 l -8.971922978827957 25.021788096506093" fill="#d5ff1c" stroke="none" /><path d="M 107.08798089147638 80.2323363322302 l 8.142039014406114 -22.70732543878448 a45.122923286678585,45.122923286678585 0 0,0 0.7288806234118839,0.2684528848792151 l -8.531701963590574 22.563809286098937" fill="#f4ff19" stroke="none" /><path d="M 108.76106565485865 80.91482961587045 l 10.787308230414876 -23.499152234912977 a46.85683999675119,46.85683999675119 0 0,0 0.7301228093612127,0.34280244887311784 l -11.190209251075686 23.309984803399857" fill="#deff1b" stroke="none" /><path d="M 109.08828744355905 81.06846463323043 l 12.710758884391549 -26.477395532739067 a50.3703228721485,50.3703228721485 0 0,0 0.7784103362844677,0.3819625714158142 l -13.164640487686448 26.254677801188418" fill="#b2ff20" stroke="none" /><path d="M 110.05341064243156 81.56283822128135 l 11.925471979402458 -21.870374541732655 a45.91044288099232,45.91044288099232 0 0,0 0.6905715698161786,0.3843023309367287 l -12.30016763829067 21.661856813235744" fill="#eaff1a" stroke="none" /><line stroke="#e1ed5e" stroke-width="0.3" x1="143.23703022742887" x2="145.7803849466894" y1="26.81831364943548" y2="22.513508569990506" /><path d="M 143.74570117128098 25.957352633546492 a86.0,86.0 0 0,1 28.547481713284135,27.462654790039103" fill="none" id="id110" stroke="none" /><text fill="#e1ed5e" style="font-size:6.75px; font-family:Arial;" text-anchor="middle"><textPath startOffset="19.985693538727396" xlink:href="#id110">February</textPath></text><path d="M 110.68208982089419 81.91981866633111 l 14.778380876022606 -25.013439367817096 a50.05292911780588,50.05292911780588 0 0,0 0.7380135977044029,0.44464493492639634 l -15.206756539944646 24.755347823432086" fill="#b6ff1f" stroke="none" /><path d="M 111.2981086023043 82.29822771554956 l 19.712582504517403 -30.885492334729335 a57.64013572240188,57.64013572240188 0 0,0 0.8317553220074858,0.5409967982131538 l -20.24130485230917 30.541596612356656" fill="#5dff2a" stroke="none" /><path d="M 113.34407831869373 83.78471172551755 l 16.85411206303523 -20.480566674259567 a47.523851619479046,47.523851619479046 0 0,0 0.6271846329053268,0.5252490931937596 l -17.204154232899672 20.187416423671987" fill="#d5ff1c" stroke="none" /><path d="M 113.89432698308785 84.25364557470407 l 16.00452599831643 -18.137829855674454 a45.18937213538587,45.18937213538587 0 0,0 0.5788306943740348,0.5196799125613704 l -16.31436768028646 17.859650934343787" fill="#f3ff19" stroke="none" /><path d="M 114.16331599549186 84.49514656593476 l 16.57610919658092 -18.14618438802422 a45.57745723099012,45.57745723099012 0 0,0 0.5746929214973208,0.5341144382345658 l -16.88601000187309 17.858165363715017" fill="#eeff19" stroke="none" /><path d="M 114.42810811169701 84.74124197986012 l 8.281470816538626 -8.758248708849623 a33.05361685682961,33.05361685682961 0 0,0 0.41004862144853077,0.39446644895238964 l -8.431002681599574 8.614399173134931" fill="#ff6209" stroke="none" /><path d="M 114.94478906791727 85.2469230424477 l 17.328502637393118 -17.106212192544266 a45.34952770035777,45.34952770035777 0 0,0 0.5436236545888483,0.5602519619221282 l -17.620390555685074 16.805396035072025" fill="#f1ff19" stroke="none" /><path d="M 115.68641384162765 86.03803664274999 l 21.181109735765457 -18.85261226577223 a49.35595878968094,49.35595878968094 0 0,0 0.5593866558504992,0.6394756473981223 l -21.502488255193803 18.48522106217116" fill="#bfff1e" stroke="none" /><path d="M 116.60985879189232 87.15038557335679 l 25.182080464427433 -19.481202608811113 a52.83794012813088,52.83794012813088 0 0,0 0.5503299416676195,0.7241696942839295 l -25.513686346319165 19.04484813864615" fill="#94ff23" stroke="none" /><path d="M 116.82858285166822 87.43820079747576 l 27.111058829123102 -20.237216655798594 a54.831264369070006,54.831264369070006 0 0,0 0.5580710094676051,0.7612082297409984 l -27.455392451104334 19.7675459823861" fill="#7dff26" stroke="none" /><path d="M 117.45458315368197 88.32363383020206 l 16.074949095465836 -10.753450262713802 a40.340131358769966,40.340131358769966 0 0,0 0.3811246567468212,0.5804789996851454 l -16.25767038757058 10.475153199050983" fill="#ffca12" stroke="none" /><path d="M 117.65298651832404 88.62581576622439 l 20.86114204210038 -13.441265174451553 a45.81642312644214,45.81642312644214 0 0,0 0.42145088508320067,0.6666340885526495 l -21.08942052342954 13.080183438184697" fill="#ebff1a" stroke="none" /><line stroke="#e1ed5e" stroke-width="0.3" x1="172.23445277983987" x2="176.4835382374775" y1="55.19839476539836" y2="52.563006222186495" /><path d="M 173.08426987136738 54.67131705675599 a86.0,86.0 0 0,1 12.851231095245387,41.99856678651699" fill="none" id="id111" stroke="none" /><text fill="#e1ed5e" style="font-size:6.75px; font-family:Arial;" text-anchor="middle"><textPath startOffset="22.20632615414155" xlink:href="#id111">March</textPath></text><path d="M 117.84615892207809 88.93136811851018 l 20.49183972411104 -12.709548955101617 a45.113235575525316,45.113235575525316 0 0,0 0.40362210727776654,0.6634486190772855 l -20.70757762967503 12.35493256281725" fill="#f4ff19" stroke="none" /><path d="M 118.21658344932153 89.55222093294921 l 13.543481603688784 -7.767609331774958 a36.612868047880696,36.612868047880696 0 0,0 0.30884237166907147,0.5493961176413666 l -13.675181616650288 7.533329704198798" fill="#ff960d" stroke="none" /><path d="M 118.3937258080291 89.86733742301442 l 32.82578521892576 -18.082938112668067 a58.476990621254906,58.476990621254906 0 0,0 0.47809646055939337,0.8858401311481259 l -33.13218977870361 17.515216998187483" fill="#54ff2b" stroke="none" /><path d="M 118.89224826269711 90.83032412892265 l 12.84367271003887 -6.233896257747167 a35.27660293049265,35.27660293049265 0 0,0 0.2604451539747989,0.5485639160661674 l -12.949076057855425 6.0118899260404595" fill="#ff820c" stroke="none" /><path d="M 119.04729006885535 91.15688171328212 l 13.405108277894103 -6.223612793166352 a35.77938713686494,35.77938713686494 0 0,0 0.2545408351770975,0.5608469896464447 l -13.510251430034547 5.991943794677844" fill="#ff8a0c" stroke="none" /><path d="M 119.196687751892 91.48605970444005 l 24.751828187024472 -10.977705639323856 a48.07698320905824,48.07698320905824 0 0,0 0.3290051966609103,0.7593893550542931 l -24.937124093528062 10.55001713968296" fill="#ceff1d" stroke="none" /><path d="M 119.47837535516314 92.15188598940014 l 23.76853166016712 -9.576678903258637 a46.62529758064257,46.62529758064257 0 0,0 0.2935316704212426,0.7470060841922557 l -23.929856880470062 9.166123814170597" fill="#e1ff1b" stroke="none" /><path d="M 119.85752413597 93.16781622104841 l 23.944486277214867 -8.23834480161517 a46.322099994866754,46.322099994866754 0 0,0 0.25292463540886184,0.7562124670172602 l -24.0827482063955 7.824959231675597" fill="#e5ff1a" stroke="none" /><path d="M 120.08093135843002 93.85539295169968 l 23.744248412424188 -7.265553252853808 a45.83098058355657,45.83098058355657 0 0,0 0.22434069207512802,0.7563652879452896 l -23.86579500161102 6.855758578161988" fill="#ebff1a" stroke="none" /><path d="M 120.53481517161879 95.60439243477599 l 23.982801725601682 -5.133670978739666 a45.52609541544428,45.52609541544428 0 0,0 0.1574351001576474,0.7677094603064816 l -24.067616121674327 4.720085862269772" fill="#efff19" stroke="none" /><path d="M 120.67395015179393 96.31383870115 l 24.46848943038529 -4.36272691562913 a45.854383137491695,45.854383137491695 0 0,0 0.13186003994340947,0.7782454199148876 l -24.53996133184892 3.940895707398405" fill="#ebff1a" stroke="none" /><path d="M 120.78858239683441 97.02765380044208 l 24.459742627948973 -3.4972477514108724 a45.70849552806185,45.70849552806185 0 0,0 0.10465939723981982,0.7798340742630417 l -24.51631802424663 3.0756953350831666" fill="#edff1a" stroke="none" /><path d="M 120.87857604477298 97.74499172005257 l 24.055520893307655 -2.5981368976759143 a45.19542107067836,45.19542107067836 0 0,0 0.07688144507840937,0.7741856599637795 l -24.096679464068295 2.1836757070076995" fill="#f3ff19" stroke="none" /><path d="M 120.94382443527127 98.46500227214037 l 26.87727686824118 -1.9698674925065152 a47.94936715008585,47.94936715008585 0 0,0 0.05324528112629978,0.8236809321046067 l -26.907202740371893 1.506927496148873" fill="#d0ff1d" stroke="none" /><path d="M 120.98425023603335 99.18683210126433 l 24.11383916568379 -0.9344436758163419 a45.13193784783432,45.13193784783432 0 0,0 0.023400491861716995,0.77654840233248 l -24.12635135200115 0.5192251260588628" fill="#f4ff19" stroke="none" /><line stroke="#e1ed5e" stroke-width="0.3" x1="184.98032266829074" x2="189.97916517819016" y1="98.17113171792111" y2="98.06355123074" /><path d="M 185.9800911702706 98.14961562048488 a86.0,86.0 0 0,1 -9.607161424134198,41.387399972396054" fill="none" id="id112" stroke="none" /><text fill="#e1ed5e" style="font-size:6.75px; font-family:Arial;" text-anchor="middle"><textPath startOffset="21.466115282336823" xlink:href="#id112">April</textPath></text><path d="M 120.99513854157772 99.54816195383933 l 22.48533979408152 -0.48390878582185476 a43.49054631102369,43.49054631102369 0 0,0 0.00966524143239094,0.7485836004084458 l -22.490338042631624 0.09678892735294617" fill="#fff417" stroke="none" /><path d="M 120.99824983174949 100.27111621757518 l 27.039615080911528 0.3491185324569923 a48.04186878663461,48.04186878663461 0 0,0 -0.017793649710359093,0.8268009832364165 l -27.029599368516163 -0.8145093314835237" fill="#cfff1d" stroke="none" /><path d="M 120.9764740272857 100.99374915477107 l 24.376271375594403 1.1548127223124889 a45.40361035994957,45.40361035994957 0 0,0 -0.04370345944073143,0.7803546266377043 l -24.352781565266145 -1.5742390652856166" fill="#f1ff19" stroke="none" /><path d="M 120.95626037817324 101.35467743843564 l 15.10035569658565 0.9761336615106924 a36.13187295375364,36.13187295375364 0 0,0 -0.04546325834957683,0.6203100394530465 l -15.081315879571736 -1.2359168374605092" fill="#ff8f0d" stroke="none" /><path d="M 120.02730092923936 106.31721596034902 l 48.76542435517933 15.382088586883379 a72.13389542989508,72.13389542989508 0 0,0 -0.38371024209061944,1.1809386951278389 l -48.49342186207246 -16.21922618198901" fill="#3dffad" stroke="none" /><path d="M 119.9155931802556 106.66101706037122 l 5.374600886287 1.797601902801297 a26.66724865237373,26.66724865237373 0 0,0 -0.14934823595409158,0.43407588204221 l -5.342861819389678 -1.8898504879328073" fill="#ff0000" stroke="none" /><path d="M 119.79798401119884 107.00284435728193 l 19.548912806069833 6.914744130389507 a41.73580667078272,41.73580667078272 0 0,0 -0.24539807481989925,0.6752301076249828 l -19.426990470244707 -7.250222035020621" fill="#ffdd14" stroke="none" /><path d="M 119.41010516605496 108.01547362559984 l 11.19081243152057 4.62128675380686 a33.10745944194677,33.10745944194677 0 0,0 -0.2220549132196967,0.5248722208903992 l -11.109606537108565 -4.813233500363422" fill="#ff6309" stroke="none" /><path d="M 119.26925614724726 108.34839909993367 l 47.203430080748646 20.45087107611052 a72.4431913780611,72.4431913780611 0 0,0 -0.5055807403320686,1.1399511000313751 l -46.84440825568531 -21.26037051263458" fill="#3dffb1" stroke="none" /><path d="M 118.81262510543309 109.33194174019688 l 11.571952505216627 5.740229552962266 a33.917442475338945,33.917442475338945 0 0,0 -0.26394445556036145,0.5207874512375803 l -11.471429379869997 -5.93857121590254" fill="#ff6f0a" stroke="none" /><path d="M 118.64920377521936 109.65438752849418 l 21.523670665303396 11.142451985786028 a45.236803319827246,45.236803319827246 0 0,0 -0.3639354503242211,0.6884287193580237 l -21.328682706754282 -11.511295720230185" fill="#f3ff19" stroke="none" /><line stroke="#e1ed5e" stroke-width="0.3" x1="174.80103733775053" x2="179.2010983576182" y1="140.37084112569926" y2="142.7455964860345" /><path d="M 175.68104954172406 140.8457921977663 a86.0,86.0 0 0,1 -30.038265399797805,32.042727171017184" fill="none" id="id113" stroke="none" /><text fill="#e1ed5e" style="font-size:6.75px; font-family:Arial;" text-anchor="middle"><textPath startOffset="22.206326154141568" xlink:href="#id113">May</textPath></text><path d="M 118.48025628344425 109.97397251340804 l 21.77788296521273 11.753733431166808 a45.74725108001758,45.74725108001758 0 0,0 -0.37997141862380823,0.6897584949614961 l -21.57233513713741 -12.12686244452611" fill="#ecff1a" stroke="none" /><path d="M 117.94076556474637 110.91462005526583 l 22.868126109437203 13.912277430951422 a47.76756722365489,47.76756722365489 0 0,0 -0.43340050634018523,0.6987796139458429 l -22.625260963429053 -14.303853376262538" fill="#d2ff1c" stroke="none" /><path d="M 117.75023020441432 111.22182372390056 l 20.398558088686293 12.896115738040155 a45.1331923546479,45.1331923546479 0 0,0 -0.4208028363480073,0.6530953468175104 l -20.17355038896124 -13.245332684779118" fill="#f4ff19" stroke="none" /><path d="M 117.35343817320211 111.8261652097733 l 8.085004619638969 5.509836114279806 a30.783945712533644,30.783945712533644 0 0,0 -0.30217974491198724,0.43531246017606195 l -7.988963967564846 -5.648189836642888" fill="#ff4006" stroke="none" /><path d="M 117.14729908036423 112.12312394758627 l 25.763938755950676 18.21507990573738 a52.5526492737579,52.5526492737579 0 0,0 -0.5285800709912033,0.7341514876873135 l -25.44657889258387 -18.655864998875824" fill="#98ff23" stroke="none" /><path d="M 116.27256486870786 113.27417163493432 l 19.269779187080548 15.719117321724571 a45.8679520526517,45.8679520526517 0 0,0 -0.5043377907451636,0.6075073582233522 l -18.99634539644184 -16.048485937061695" fill="#ebff1a" stroke="none" /><path d="M 115.80600337817218 113.82643327865902 l 14.072524047783613 12.310057777015693 a39.69688357852486,39.69688357852486 0 0,0 -0.4543235554589835,0.5104373308091114 l -13.85854164267629 -12.550469277565671" fill="#ffc111" stroke="none" /><path d="M 115.07121518719521 114.62390073753431 l 18.166944729742013 17.627748866444367 a46.3135420459471,46.3135420459471 0 0,0 -0.5600837233072808,0.5673618547021938 l -17.860820381379195 -17.93785121512723" fill="#e5ff1a" stroke="none" /><path d="M 114.81725581225074 114.88116024355365 l 8.52962892546204 8.566415837466076 a33.08875716963776,33.08875716963776 0 0,0 -0.4070705709810331,0.39840423070299597 l -8.380908402105213 -8.711970171091643" fill="#ff6209" stroke="none" /><path d="M 114.55890576462653 115.13401014063108 l 16.769368571628405 17.431790418729634 a45.188407130144654,45.188407130144654 0 0,0 -0.5652083454308535,0.5344397691310271 l -16.466824391806743 -17.717864824606583" fill="#f3ff19" stroke="none" /><path d="M 114.29624159901734 115.38237550388516 l 16.990166711867406 18.280967233620213 a45.957153842009774,45.957153842009774 0 0,0 -0.5840945269358596,0.5335565016083424 l -16.67297263546468 -18.570716501815138" fill="#e9ff1a" stroke="none" /><path d="M 114.0293411484842 115.62618273729858 l 11.3498153754977 12.64166914290842 a37.98911733365353,37.98911733365353 0 0,0 -0.49034479807693765,0.432672272890816 l -11.130528224514176 -12.835164557571524" fill="#ffa90f" stroke="none" /><path d="M 113.48314897796784 116.09983520530334 l 12.39769245217201 14.803723205325435 a40.30940182601557,40.30940182601557 0 0,0 -0.5357884833398152,0.4409174454944354 l -12.141033840287502 -15.014935769677047" fill="#ffca12" stroke="none" /><path d="M 113.20401910651253 116.32954008644616 l 15.388575959901804 19.03120299838077 a45.47437348818647,45.47437348818647 0 0,0 -0.6129133661525674,0.4869354466360742 l -15.058705101031885 -19.29327235902197" fill="#f0ff19" stroke="none" /><path d="M 112.92097659922987 116.55440617244103 l 15.328183458713413 19.638529093563864 a45.91234700109024,45.91234700109024 0 0,0 -0.6271873029547946,0.48090047926713897 l -14.987867427265124 -19.899468914658375" fill="#eaff1a" stroke="none" /><path d="M 111.7513745106137 117.40417183066458 l 11.325136348258933 16.77289910493288 a41.238301749181275,41.238301749181275 0 0,0 -0.5917211284773481,0.3921604983878498 l -11.034740521041622 -16.965357624412047" fill="#ffd614" stroke="none" /><path d="M 111.1453310114006 117.79835938074945 l 12.940614239561215 20.66530842446558 a45.38266739254388,45.38266739254388 0 0,0 -0.6656574056884424,0.4089011465124285 l -12.582977633940464 -20.884998037806387" fill="#f1ff19" stroke="none" /><line stroke="#e1ed5e" stroke-width="0.3" x1="143.8653032363475" x2="146.44561519142675" y1="172.8068346515853" y2="177.08958963109032" /><path d="M 144.38136562736335 173.6633856474863 a86.0,86.0 0 0,1 -40.68145358897372,12.25698825130547" fill="none" id="id114" stroke="none" /><text fill="#e1ed5e" style="font-size:6.75px; font-family:Arial;" text-anchor="middle"><textPath startOffset="21.466115282336833" xlink:href="#id114">June</textPath></text><line stroke="#e1ed5e" stroke-width="0.3" x1="102.19456741930631" x2="102.32365962044197" y1="184.97166512339345" y2="189.96999836594603" /><path d="M 102.22038585953345 185.97133177190398 a86.0,86.0 0 0,1 -42.740103519485714,-10.115201625700543" fill="none" id="id115" stroke="none" /><text fill="#e1ed5e" style="font-size:6.75px; font-family:Arial;" text-anchor="middle"><textPath startOffset="22.20632615414155" xlink:href="#id115">July</textPath></text><line stroke="#e1ed5e" stroke-width="0.3" x1="58.666819895761336" x2="56.23545636021788" y1="174.27360380694188" y2="178.64263932499728" /><path d="M 58.180547188652646 175.14741091055294 a86.0,86.0 0 0,1 -31.652253787137756,-30.449443065178592" fill="none" id="id116" stroke="none" /><text fill="#e1ed5e" style="font-size:6.75px; font-family:Arial;" text-anchor="middle"><textPath startOffset="22.20632615414155" xlink:href="#id116">August</textPath></text><line stroke="#e1ed5e" stroke-width="0.3" x1="26.63291911575756" x2="22.317208475507996" y1="142.92168965132927" y2="145.44649492493687" /><path d="M 25.769776987707644 143.4266507060508 a86.0,86.0 0 0,1 -11.730757126820373,-40.83630448921669" fill="none" id="id117" stroke="none" /><text fill="#e1ed5e" style="font-size:6.75px; font-family:Arial;" text-anchor="middle"><textPath startOffset="21.46611528233685" xlink:href="#id117">September</textPath></text><line stroke="#e1ed5e" stroke-width="0.3" x1="15.007084014347285" x2="10.007500721073583" y1="101.09737516637583" y2="101.16192664675087" /><path d="M 14.007167355692545 101.11028546245083 a86.0,86.0 0 0,1 10.666146001902534,-42.60595125391555" fill="none" id="id118" stroke="none" /><text fill="#e1ed5e" style="font-size:6.75px; font-family:Arial;" text-anchor="middle"><textPath startOffset="22.20632615414155" xlink:href="#id118">October</textPath></text><line stroke="#e1ed5e" stroke-width="0.3" x1="26.266209847984243" x2="21.928928074336255" y1="57.711370442889674" y2="55.22380399835377" /><path d="M 25.398753493254645 57.213857153982495 a86.0,86.0 0 0,1 29.58750427330803,-30.492523968695096" fill="none" id="id119" stroke="none" /><text fill="#e1ed5e" style="font-size:6.75px; font-family:Arial;" text-anchor="middle"><textPath startOffset="21.46611528233685" xlink:href="#id119">November</textPath></text><line stroke="#e1ed5e" stroke-width="0.3" x1="56.762969772571076" x2="54.21961505331055" y1="26.818313649435495" y2="22.513508569990535" /><path d="M 56.25429882871897 25.957352633546506 a86.0,86.0 0 0,1 42.265352541879196,-11.944610805530505" fill="none" id="id120" stroke="none" /><text fill="#e1ed5e" style="font-size:6.75px; font-family:Arial;" text-anchor="middle"><textPath startOffset="22.20632615414155" xlink:href="#id120">December</textPath></text></svg>