<?xml version="1.0" encoding="utf-8" ?>
<svg baseProfile="full" height="200mm" version="1.1" viewBox="0,0,200,200" width="200mm" xmlns="http://www.w3.org/2000/svg" xmlns:ev="http://www.w3.org/2001/xml-events" xmlns:xlink="http://www.w3.org/1999/xlink"><defs /><rect fill="#1a1a1a" height="200" width="200" x="0" y="0" /><text alignment-baseline="middle" fill="#e1ed5e" style="dominant-baseline: central; font-size:9.0px; font-family:Arial;" text-anchor="middle" x="100.0" y="100.0">2025</text><line stroke="#e1ed5e" stroke-width="0.3" x1="100.0" x2="100.0" y1="15.0" y2="10.0" /><path d="M 100.0 14.0 a86.0,86.0 0 0,1 42.46469731375804,11.215312516191453" fill="none" id="id109" stroke="none" /><text fill="#e1ed5e" style="font-size:6.75px; font-family:Arial;" text-anchor="middle"><textPath startOffset="22.20632615414155" xlink:href="#id109">January</textPath></text><path d="M 100.36148047927253 79.00311137660856 l 0.8378501594426446 -48.66721023583897 a69.67442187668003,69.67442187668003 0 0,0 1.1989752511632465,0.030965993415999014 l -1.675452045800759 48.64557745028061" fill="#3aff91" stroke="none" /><path d="M 101.08401301168833 79.027996857942 l 3.2520390350649873 -62.916009426173986 a84.0,84.0 0 0,0 1.4433518046415523,0.08706692247878367 l -4.334552888546152 62.8507092343149" fill="#4dd2ff" stroke="none" /><path d="M 101.80526077348638 79.07773832637324 l 4.144651689835496 -48.03488142785596 a69.2133588481267,69.2133588481267 0 0,0 1.1861023199584246,0.11263470718620486 l -4.970879136884165 47.95642117615458" fill="#39ff8b" stroke="none" /><path d="M 103.2404852339499 79.25152402106235 l 8.96126672914338 -57.378020279958776 a79.07358704814274,79.07358704814274 0 0,0 1.343011384090849,0.22160838574057587 l -9.947607319373104 57.21526563127857" fill="#46fffa" stroke="none" /><path d="M 103.95276090670814 79.375362276772 l 10.896572395675252 -56.85592004928302 a78.89068089619136,78.89068089619136 0 0,0 1.3315003471247793,0.2670864435283125 l -11.873639152267156 56.6599296496775" fill="#46fff8" stroke="none" /><path d="M 104.307194497241 79.44645832069477 l 5.962411285175231 -28.452086140411847 a50.07011444894913,50.07011444894913 0 0,0 0.8420297723862835,0.1840350944882758 l -6.451283781715043 28.3452375478277" fill="#b6ff1f" stroke="none" /><path d="M 105.01212808612495 79.60689891045804 l 5.803343315855745 -23.61235883519946 a45.31506289121847,45.31506289121847 0 0,0 0.7558792256891856,0.19269044498119667 l -6.208931430229956 23.508965394049394" fill="#f2ff19" stroke="none" /><path d="M 105.71112130821622 79.79150937346287 l 7.443772892363825 -26.339383564659254 a48.3710226597278,48.3710226597278 0 0,0 0.7992960972213008,0.23333644892103264 l -7.896059207308553 26.20734878681952" fill="#cbff1d" stroke="none" /><path d="M 106.40334571778207 80.00007090966166 l 5.470344710699473 -17.08583467699946 a38.94019001748964,38.94019001748964 0 0,0 0.6366112446737396,0.20988071831987237 l -5.763638777615631 16.98914023442035" fill="#ffb710" stroke="none" /><path d="M 106.74666289553966 80.11325718540242 l 8.53988474146268 -25.17251775422967 a47.58167190912707,47.58167190912707 0 0,0 0.7733562333020038,0.2698088045513711 l -8.971922978827957 25.021788096506093" fill="#d5ff1c" stroke="none" /><path d="M 107.08798089147638 80.2323363322302 l 8.142039014406114 -22.70732543878448 a45.122923286678585,45.122923286678585 0 0,0 0.7288806234118839,0.2684528848792151 l -8.531701963590574 22.563809286098937" fill="#f4ff19" stroke="none" /><path d="M 108.76106565485865 80.91482961587045 l 10.787308230414876 -23.499152234912977 a46.85683999675119,46.85683999675119 0 0,0 0.7301228093612127,0.34280244887311784 l -11.190209251075686 23.309984803399857" fill="#deff1b" stroke="none" /><path d="M 109.08828744355905 81.06846463323043 l 12.710758884391549 -26.477395532739067 a50.3703228721485,50.3703228721485 0 0,0 0.7784103362844677,0.3819625714158142 l -13.164640487686448 26.254677801188418" fill="#b2ff20" stroke="none" /><path d="M 110.05341064243156 81.56283822128135 l 11.925471979402458 -21.870374541732655 a45.91044288099232,45.91044288099232 0 0,0 0.6905715698161786,0.3843023309367287 l -12.30016763829067 21.661856813235744" fill="#eaff1a" stroke="none" /><line stroke="#e1ed5e" stroke-width="0.3" x1="143.23703022742887" x2="145.7803849466894" y1="26.81831364943548" y2="22.513508569990506" /><path d="M 143.74570117128098 25.957352633546492 a86.0,86.0 0 0,1 28.547481713284135,27.462654790039103" fill="none" id="id110" stroke="none" /><text fill="#e1ed5e" style="font-size:6.75px; font-family:Arial;" text-anchor="middle"><textPath startOffset="19.985693538727396" xlink:href="#id110">February</textPath></text><path d="M 110.68208982089419 81.91981866633111 l 14.778380876022606 -25.013439367817096 a50.05292911780588,50.05292911780588 0 0,0 0.7380135977044029,0.44464493492639634 l -15.206756539944646 24.755347823432086" fill="#b6ff1f" stroke="none" /><path d="M 111.2981086023043 82.29822771554956 l 19.712582504517403 -30.885492334729335 a57.64013572240188,57.64013572240188 0 0,0 0.8317553220074858,0.5409967982131538 l -20.24130485230917 30.541596612356656" fill="#5dff2a" stroke="none" /><path d="M 113.34407831869373 83.78471172551755 l 16.85411206303523 -20.480566674259567 a47.523851619479046,47.523851619479046 0 0,0 0.6271846329053268,0.5252490931937596 l -17.204154232899672 20.187416423671987" fill="#d5ff1c" stroke="none" /><path d="M 113.89432698308785 84.25364557470407 l 16.00452599831643 -18.137829855674454 a45.18937213538587,45.18937213538587 0 0,0 0.5788306943740348,0.5196799125613704 l -16.31436768028646 17.859650934343787" fill="#f3ff19" stroke="none" /><path d="M 114.16331599549186 84.49514656593476 l 16.57610919658092 -18.14618438802422 a45.57745723099012,45.57745723099012 0 0,0 0.5746929214973208,0.5341144382345658 l -16.88601000187309 17.858165363715017" fill="#eeff19" stroke="none" /><path d="M 114.42810811169701 84.74124197986012 l 8.281470816538626 -8.758248708849623 a33.05361685682961,33.05361685682961 0 0,0 0.41004862144853077,0.39446644895238964 l -8.431002681599574 8.614399173134931" fill="#ff6209" stroke="none" /><path d="M 114.94478906791727 85.2469230424477 l 17.328502637393118 -17.106212192544266 a45.34952770035777,45.34952770035777 0 0,0 0.5436236545888483,0.5602519619221282 l -17.620390555685074 16.805396035072025" fill="#f1ff19" stroke="none" /><path d="M 115.68641384162765 86.03803664274999 l 21.181109735765457 -18.85261226577223 a49.35595878968094,49.35595878968094 0 0,0 0.5593866558504992,0.6394756473981223 l -21.502488255193803 18.48522106217116" fill="#bfff1e" stroke="none" /><path d="M 116.60985879189232 87.15038557335679 l 25.182080464427433 -19.481202608811113 a52.83794012813088,52.83794012813088 0 0,0 0.5503299416676195,0.7241696942839295 l -25.513686346319165 19.04484813864615" fill="#94ff23" stroke="none" /><path d="M 116.82858285166822 87.43820079747576 l 27.111058829123102 -20.237216655798594 a54.831264369070006,54.831264369070006 0 0,0 0.5580710094676051,0.7612082297409984 l -27.455392451104334 19.7675459823861" fill="#7dff26" stroke="none" /><path d="M 117.45458315368197 88.32363383020206 l 16.074949095465836 -10.753450262713802 a40.340131358769966,40.340131358769966 0 0,0 0.3811246567468212,0.5804789996851454 l -16.25767038757058 10.475153199050983" fill="#ffca12" stroke="none" /><path d="M 117.65298651832404 88.62581576622439 l 20.86114204210038 -13.441265174451553 a45.81642312644214,45.81642312644214 0 0,0 0.42145088508320067,0.6666340885526495 l -21.08942052342954 13.080183438184697" fill="#ebff1a" stroke="none" /><line stroke="#e1ed5e" stroke-width="0.3" x1="172.23445277983987" x2="176.4835382374775" y1="55.19839476539836" y2="52.563006222186495" /><path d="M 173.08426987136738 54.67131705675599 a86.0,86.0 0 0,1 12.851231095245387,41.99856678651699" fill="none" id="id111" stroke="none" /><text fill="#e1ed5e" style="font-size:6.75px; font-family:Arial;" text-anchor="middle"><textPath startOffset="22.20632615414155" xlink:href="#id111">March</textPath></text><path d="M 117.84615892207809 88.93136811851018 l 20.49183972411104 -12.709548955101617 a45.113235575525316,45.113235575525316 0 0,0 0.40362210727776654,0.6634486190772855 l -20.70757762967503 12.35493256281725" fill="#f4ff19" stroke="none" /><path d="M 118.21658344932153 89.55222093294921 l 13.543481603688784 -7.767609331774958 a36.612868047880696,36.612868047880696 0 0,0 0.30884237166907147,0.5493961176413666 l -13.675181616650288 7.533329704198798" fill="#ff960d" stroke="none" /><path d="M 118.3937258080291 89.86733742301442 l 32.82578521892576 -18.082938112668067 a58.476990621254906,58.476990621254906 0 0,0 0.47809646055939337,0.8858401311481259 l -33.13218977870361 17.515216998187483" fill="#54ff2b" stroke="none" /><path d="M 118.89224826269711 90.83032412892265 l 12.84367271003887 -6.233896257747167 a35.27660293049265,35.27660293049265 0 0,0 0.2604451539747989,0.5485639160661674 l -12.949076057855425 6.0118899260404595" fill="#ff820c" stroke="none" /><path d="M 119.04729006885535 91.15688171328212 l 13.405108277894103 -6.223612793166352 a35.77938713686494,35.77938713686494 0 0,0 0.2545408351770975,0.5608469896464447 l -13.510251430034547 5.991943794677844" fill="#ff8a0c" stroke="none" /><path d="M 119.196687751892 91.48605970444005 l 24.751828187024472 -10.977705639323856 a48.07698320905824,48.07698320905824 0 0,0 0.3290051966609103,0.7593893550542931 l -24.937124093528062 10.55001713968296" fill="#ceff1d" stroke="none" /><path d="M 119.47837535516314 92.15188598940014 l 23.76853166016712 -9.576678903258637 a46.62529758064257,46.62529758064257 0 0,0 0.2935316704212426,0.7470060841922557 l -23.929856880470062 9.166123814170597" fill="#e1ff1b" stroke="none" /><path d="M 119.85752413597 93.16781622104841 l 23.944486277214867 -8.23834480161517 a46.322099994866754,46.322099994866754 0 0,0 0.25292463540886184,0.7562124670172602 l -24.0827482063955 7.824959231675597" fill="#e5ff1a" stroke="none" /><path d="M 120.08093135843002 93.85539295169968 l 23.744248412424188 -7.265553252853808 a45.83098058355657,45.83098058355657 0 0,0 0.22434069207512802,0.7563652879452896 l -23.86579500161102 6.855758578161988" fill="#ebff1a" stroke="none" /><path d="M 120.53481517161879 95.60439243477599 l 23.982801725601682 -5.133670978739666 a45.52609541544428,45.52609541544428 0 0,0 0.1574351001576474,0.7677094603064816 l -24.067616121674327 4.720085862269772" fill="#efff19" stroke="none" /><path d="M 120.67395015179393 96.31383870115 l 24.46848943038529 -4.36272691562913 a45.854383137491695,45.854383137491695 0 0,0 0.13186003994340947,0.7782454199148876 l -24.53996133184892 3.940895707398405" fill="#ebff1a" stroke="none" /><path d="M 120.78858239683441 97.02765380044208 l 24.459742627948973 -3.4972477514108724 a45.70849552806185,45.70849552806185 0 0,0 0.10465939723981982,0.7798340742630417 l -24.51631802424663 3.0756953350831666" fill="#edff1a" stroke="none" /><path d="M 120.87857604477298 97.74499172005257 l 24.055520893307655 -2.5981368976759143 a45.19542107067836,45.19542107067836 0 0,0 0.07688144507840937,0.7741856599637795 l -24.096679464068295 2.1836757070076995" fill="#f3ff19" stroke="none" /><path d="M 120.94382443527127 98.46500227214037 l 26.87727686824118 -1.9698674925065152 a47.94936715008585,47.94936715008585 0 0,0 0.05324528112629978,0.8236809321046067 l -26.907202740371893 1.506927496148873" fill="#d0ff1d" stroke="none" /><path d="M 120.98425023603335 99.18683210126433 l 24.11383916568379 -0.9344436758163419 a45.13193784783432,45.13193784783432 0 0,0 0.023400491861716995,0.77654840233248 l -24.12635135200115 0.5192251260588628" fill="#f4ff19" stroke="none" /><line stroke="#e1ed5e" stroke-width="0.3" x1="184.98032266829074" x2="189.97916517819016" y1="98.17113171792111" y2="98.06355123074" /><path d="M 185.9800911702706 98.14961562048488 a86.0,86.0 0 0,1 -9.607161424134198,41.387399972396054" fill="none" id="id112" stroke="none" /><text fill="#e1ed5e" style="font-size:6.75px; font-family:Arial;" text-anchor="middle"><textPath startOffset="21.466115282336823" xlink:href="#id112">April</textPath></text><path d="M 120.99513854157772 99.54816195383933 l 22.48533979408152 -0.48390878582185476 a43.49054631102369,43.49054631102369 0 0,0 0.00966524143239094,0.7485836004084458 l -22.490338042631624 0.09678892735294617" fill="#fff417" stroke="none" /><path d="M 120.99824983174949 100.27111621757518 l 27.039615080911528 0.3491185324569923 a48.04186878663461,48.04186878663461 0 0,0 -0.017793649710359093,0.8268009832364165 l -27.029599368516163 -0.8145093314835237" fill="#cfff1d" stroke="none" /><path d="M 120.9764740272857 100.99374915477107 l 24.376271375594403 1.1548127223124889 a45.40361035994957,45.40361035994957 0 0,0 -0.04370345944073143,0.7803546266377043 l -24.352781565266145 -1.5742390652856166" fill="#f1ff19" stroke="none" /><path d="M 120.95626037817324 101.35467743843564 l 15.10035569658565 0.9761336615106924 a36.13187295375364,36.13187295375364 0 0,0 -0.04546325834957683,0.6203100394530465 l -15.081315879571736 -1.2359168374605092" fill="#ff8f0d" stroke="none" /><path d="M 120.02730092923936 106.31721596034902 l 48.76542435517933 15.382088586883379 a72.13389542989508,72.13389542989508 0 0,0 -0.38371024209061944,1.1809386951278389 l -48.49342186207246 -16.21922618198901" fill="#3dffad" stroke="none" /><path d="M 119.9155931802556 106.66101706037122 l 5.374600886287 1.797601902801297 a26.66724865237373,26.66724865237373 0 0,0 -0.14934823595409158,0.43407588204221 l -5.342861819389678 -1.8898504879328073" fill="#ff0000" stroke="none" /><path d="M 119.79798401119884 107.00284435728193 l 19.548912806069833 6.914744130389507 a41.73580667078272,41.73580667078272 0 0,0 -0.24539807481989925,0.6752301076249828 l -19.426990470244707 -7.250222035020621" fill="#ffdd14" stroke="none" /><path d="M 119.41010516605496 108.01547362559984 l 11.19081243152057 4.62128675380686 a33.10745944194677,33.10745944194677 0 0,0 -0.2220549132196967,0.5248722208903992 l -11.109606537108565 -4.813233500363422" fill="#ff6309" stroke="none" /><path d="M 119.26925614724726 108.34839909993367 l 47.203430080748646 20.45087107611052 a72.4431913780611,72.4431913780611 0 0,0 -0.5055807403320686,1.1399511000313751 l -46.84440825568531 -21.26037051263458" fill="#3dffb1" stroke="none" /><path d="M 118.81262510543309 109.33194174019688 l 11.571952505216627 5.740229552962266 a33.917442475338945,33.917442475338945 0 0,0 -0.26394445556036145,0.5207874512375803 l -11.471429379869997 -5.93857121590254" fill="#ff6f0a" stroke="none" /><path d="M 118.64920377521936 109.65438752849418 l 21.523670665303396 11.142451985786028 a45.236803319827246,45.236803319827246 0 0,0 -0.3639354503242211,0.6884287193580237 l -21.328682706754282 -11.511295720230185" fill="#f3ff19" stroke="none" /><line stroke="#e1ed5e" stroke-width="0.3" x1="174.80103733775053" x2="179.2010983576182" y1="140.37084112569926" y2="142.7455964860345" /><path d="M 175.68104954172406 140.8457921977663 a86.0,86.0 0 0,1 -30.038265399797805,32.042727171017184" fill="none" id="id113" stroke="none" /><text fill="#e1ed5e" style="font-size:6.75px; font-family:Arial;" text-anchor="middle"><textPath startOffset="22.206326154141568" xlink:href="#id113">May</textPath></text><path d="M 118.48025628344425 109.97397251340804 l 21.77788296521273 11.753733431166808 a45.74725108001758,45.74725108001758 0 0,0 -0.37997141862380823,0.6897584949614961 l -21.57233513713741 -12.12686244452611" fill="#ecff1a" stroke="none" /><path d="M 117.94076556474637 110.91462005526583 l 22.868126109437203 13.912277430951422 a47.76756722365489,47.76756722365489 0 0,0 -0.43340050634018523,0.6987796139458429 l -22.625260963429053 -14.303853376262538" fill="#d2ff1c" stroke="none" /><path d="M 117.75023020441432 111.22182372390056 l 20.398558088686293 12.896115738040155 a45.1331923546479,45.1331923546479 0 0,0 -0.4208028363480073,0.6530953468175104 l -20.17355038896124 -13.245332684779118" fill="#f4ff19" stroke="none" /><path d="M 117.35343817320211 111.8261652097733 l 8.085004619638969 5.509836114279806 a30.783945712533644,30.783945712533644 0 0,0 -0.30217974491198724,0.43531246017606195 l -7.988963967564846 -5.648189836642888" fill="#ff4006" stroke="none" /><path d="M 117.14729908036423 112.12312394758627 l 25.763938755950676 18.21507990573738 a52.5526492737579,52.5526492737579 0 0,0 -0.5285800709912033,0.7341514876873135 l -25.44657889258387 -18.655864998875824" fill="#98ff23" stroke="none" /><path d="M 116.27256486870786 113.27417163493432 l 19.269779187080548 15.719117321724571 a45.8679520526517,45.8679520526517 0 0,0 -0.5043377907451636,0.6075073582233522 l -18.99634539644184 -16.048485937061695" fill="#ebff1a" stroke="none" /><path d="M 115.80600337817218 113.82643327865902 l 14.072524047783613 12.310057777015693 a39.69688357852486,39.69688357852486 0 0,0 -0.4543235554589835,0.5104373308091114 l -13.85854164267629 -12.550469277565671" fill="#ffc111" stroke="none" /><path d="M 115.07121518719521 114.62390073753431 l 18.166944729742013 17.627748866444367 a46.3135420459471,46.3135420459471 0 0,0 -0.5600837233072808,0.5673618547021938 l -17.860820381379195 -17.93785121512723" fill="#e5ff1a" stroke="none" /><path d="M 114.81725581225074 114.88116024355365 l 8.52962892546204 8.566415837466076 a33.08875716963776,33.08875716963776 0 0,0 -0.4070705709810331,0.39840423070299597 l -8.380908402105213 -8.711970171091643" fill="#ff6209" stroke="none" /><path d="M 114.55890576462653 115.13401014063108 l 16.769368571628405 17.431790418729634 a45.188407130144654,45.188407130144654 0 0,0 -0.5652083454308535,0.5344397691310271 l -16.466824391806743 -17.717864824606583" fill="#f3ff19" stroke="none" /><path d="M 114.29624159901734 115.38237550388516 l 16.990166711867406 18.280967233620213 a45.957153842009774,45.957153842009774 0 0,0 -0.5840945269358596,0.5335565016083424 l -16.67297263546468 -18.570716501815138" fill="#e9ff1a" stroke="none" /><path d="M 114.0293411484842 115.62618273729858 l 11.3498153754977 12.64166914290842 a37.98911733365353,37.98911733365353 0 0,0 -0.49034479807693765,0.432672272890816 l -11.130528224514176 -12.835164557571524" fill="#ffa90f" stroke="none" /><path d="M 113.48314897796784 116.09983520530334 l 12.39769245217201 14.803723205325435 a40.30940182601557,40.30940182601557 0 0,0 -0.5357884833398152,0.4409174454944354 l -12.141033840287502 -15.014935769677047" fill="#ffca12" stroke="none" /><path d="M 113.20401910651253 116.32954008644616 l 15.388575959901804 19.03120299838077 a45.47437348818647,45.47437348818647 0 0,0 -0.6129133661525674,0.4869354466360742 l -15.058705101031885 -19.29327235902197" fill="#f0ff19" stroke="none" /><path d="M 112.92097659922987 116.55440617244103 l 15.328183458713413 19.638529093563864 a45.91234700109024,45.91234700109024 0 0,0 -0.6271873029547946,0.48090047926713897 l -14.987867427265124 -19.899468914658375" fill="#eaff1a" stroke="none" /><path d="M 111.7513745106137 117.40417183066458 l 11.325136348258933 16.77289910493288 a41.238301749181275,41.238301749181275 0 0,0 -0.5917211284773481,0.3921604983878498 l -11.034740521041622 -16.965357624412047" fill="#ffd614" stroke="none" /><path d="M 111.1453310114006 117.79835938074945 l 12.940614239561215 20.66530842446558 a45.38266739254388,45.38266739254388 0 0,0 -0.6656574056884424,0.4089011465124285 l -12.582977633940464 -20.884998037806387" fill="#f1ff19" stroke="none" /><line stroke="#e1ed5e" stroke-width="0.3" x1="143.8653032363475" x2="146.44561519142675" y1="172.8068346515853" y2="177.08958963109032" /><path d="M 144.38136562736335 173.6633856474863 a86.0,86.0 0 0,1 -40.68145358897372,12.25698825130547" fill="none" id="id114" stroke="none" /><text fill="#e1ed5e" style="font-size:6.75px; font-family:Arial;" text-anchor="middle"><textPath startOffset="21.466115282336833" xlink:href="#id114">June</textPath></text><path d="M 110.8373102113329 117.98757091392108 l 13.004051242554036 21.583888375650254 a46.198602860704426,46.198602860704426 0 0,0 -0.6846899773262531,0.40452690724097135 l -12.6305933941994 -21.804533855184975" fill="#e6ff1a" stroke="none" /><path d="M 110.5260780823613 118.17145234162733 l 12.119602243932286 20.922396057857405 a45.17915249451427,45.17915249451427 0 0,0 -0.6762915379097973,0.3840159853501196 l -11.75766193910129 -21.127915209002154" fill="#f3ff19" stroke="none" /><path d="M 110.21172684928248 118.3499491758327 l 6.580153086613739 11.824197463433398 a34.53181659266549,34.53181659266549 0 0,0 -0.5218862310117959,0.28457398443227777 l -6.375644043733295 -11.935712099625448" fill="#ff780b" stroke="none" /><path d="M 109.2508944713604 118.85261126421891 l 10.622438979803244 21.64771345993607 a45.113475649999955,45.113475649999955 0 0,0 -0.7000909627054739,0.3360862065563678 l -10.248235349097536 -21.827353942992" fill="#f4ff19" stroke="none" /><path d="M 108.92500713936063 119.00905698771935 l 7.173743637803829 15.279102805969423 a37.87938329253512,37.87938329253512 0 0,0 -0.5925995101043184,0.2720333699183684 l -6.909676131932092 -15.400323246221866" fill="#ffa80f" stroke="none" /><path d="M 108.2653958097858 119.30500536409082 l 9.78757569230008 22.860272585807916 a45.867422476604695,45.867422476604695 0 0,0 -0.7284806892969196,0.3045049872076456 l -9.3926235435057 -23.025362616035533" fill="#ebff1a" stroke="none" /><path d="M 107.59598834532513 119.57807347666477 l 8.77752524741152 22.623393615771455 a45.266497237200824,45.266497237200824 0 0,0 -0.7288547960843021,0.27559051825330877 l -8.386800230566942 -22.771132384131395" fill="#f2ff19" stroke="none" /><path d="M 106.91757812671514 119.82793768551818 l 3.9770022732277606 11.399329621473958 a33.07316292030686,33.07316292030686 0 0,0 -0.5391402235771071,0.1829056359712471 l -3.7801923167134266 -11.466098244343328" fill="#ff6209" stroke="none" /><path d="M 106.57524785965236 119.94407469862006 l 7.697660929517577 23.348583636672895 a45.58475831942488,45.58475831942488 0 0,0 -0.7473266323126744,0.23927038786930774 l -7.294612952113962 -23.47762687120191" fill="#eeff19" stroke="none" /><path d="M 106.2309692047433 120.05430185196036 l 7.46648603091566 24.030798374583945 a46.16401566065649,46.16401566065649 0 0,0 -0.7608819571659818,0.22924749208424122 l -7.051729099309432 -24.155761235773912" fill="#e7ff1a" stroke="none" /><path d="M 105.53697534728816 120.25689768951611 l 4.603094938023906 16.84031756802892 a38.45808634417085,38.45808634417085 0 0,0 -0.6400699394508739,0.16904828851412734 l -4.312534555761535 -16.917057205846632" fill="#ffb010" stroke="none" /><path d="M 104.83641907484287 120.43548508189849 l 5.552260284647672 23.46015315503266 a45.10822225561364,45.10822225561364 0 0,0 -0.7571304496101081,0.1723204253261485 l -5.147609685644702 -23.552250313936494" fill="#f4ff19" stroke="none" /><path d="M 104.13013068566511 120.58985236759428 l 4.79301089185863 23.894494913239818 a45.370470667763456,45.370470667763456 0 0,0 -0.7670469728181227,0.14700637792777493 l -4.380996304468803 -23.97345848951606" fill="#f1ff19" stroke="none" /><path d="M 103.41894727170886 120.7198165907248 l 1.440957327495617 8.73262123339133 a29.85070797312511,29.85070797312511 0 0,0 -0.507695349233123,0.07929157226800783 l -1.2904261146539768 -8.756131113006443" fill="#ff3204" stroke="none" /><path d="M 102.70371172650421 120.8252237178851 l 3.1107909025841214 23.96073362807719 a45.16182476625615,45.16182476625615 0 0,0 -0.7717781158842066,0.0934515817626673 l -2.6978853636485347 -24.010730738565208" fill="#f4ff19" stroke="none" /><path d="M 102.34483914955558 120.86867818915974 l 2.7081764229125174 24.10231945331621 a45.25398982780615,45.25398982780615 0 0,0 -0.7748504578867014,0.0803164181323343 l -2.2928933684202133 -24.1453652399043" fill="#f2ff19" stroke="none" /><path d="M 101.26447882468166 120.96189622390904 l 0.8091801313789544 13.414182672995691 a34.43856648863696,34.43856648863696 0 0,0 -0.592034924244459,0.03060144311955828 l -0.5781571387210157 -13.426123922877451" fill="#ff760a" stroke="none" /><path d="M 100.90346689309514 120.98055641714683 l 0.5186222697462096 12.043588838460332 a33.05475014957021,33.05475014957021 0 0,0 -0.5686670718818553,0.01958604376600994 l -0.31123484618970204 -12.050731680652436" fill="#ff6209" stroke="none" /><line stroke="#e1ed5e" stroke-width="0.3" x1="102.19456741930631" x2="102.32365962044197" y1="184.97166512339345" y2="189.96999836594603" /><path d="M 102.22038585953345 185.97133177190398 a86.0,86.0 0 0,1 -42.740103519485714,-10.115201625700543" fill="none" id="id115" stroke="none" /><text fill="#e1ed5e" style="font-size:6.75px; font-family:Arial;" text-anchor="middle"><textPath startOffset="22.20632615414155" xlink:href="#id115">July</textPath></text><path d="M 100.54218724476979 120.99299961872073 l 0.6251871212719989 24.206679749658615 a45.21475177322982,45.21475177322982 0 0,0 -0.7782111382067728,0.013397610486956124 l -0.2084162931725582 -24.21385483742473" fill="#f3ff19" stroke="none" /><path d="M 99.81925306533755 120.99922214144158 l -0.11509212389164393 13.371430507767652 a34.3719258157171,34.3719258157171 0 0,0 -0.5915904536104286,-0.010184766159397061 l 0.34524226739474045 -13.367468264329096" fill="#ff750a" stroke="none" /><path d="M 99.45781275523022 120.99299961872073 l -0.5011639716699273 19.404615596685016 a40.41108631121946,40.41108631121946 0 0,0 -0.6952239548077624,-0.023944918704334565 l 0.8351082781523328 -19.393113879554587" fill="#ffcb12" stroke="none" /><path d="M 99.09653310690486 120.98055641714683 l -1.0540724651558155 24.47796039011455 a45.500645167460725,45.500645167460725 0 0,0 -0.7822036095398784,-0.04043099196520484 l 1.4752641431091829 -24.456189591387144" fill="#efff19" stroke="none" /><path d="M 98.37488393609728 120.93702456842531 l -1.866810505482386 24.050871372236287 a45.12321278825095,45.12321278825095 0 0,0 -0.7738753089260054,-0.06677321795161312 l 2.280530132149933 -24.01517390200601" fill="#f4ff19" stroke="none" /><path d="M 98.01472825383883 120.90594882070398 l -1.154554669136257 12.158063937765732 a33.212760343133894,33.212760343133894 0 0,0 -0.5686774283876846,-0.05894574063409833 l 1.363664694129535 -12.136388828675873" fill="#ff6409" stroke="none" /><path d="M 96.58105272829116 120.7198165907248 l -2.747705294206239 16.65189463798349 a37.87706963362752,37.87706963362752 0 0,0 -0.642378919411487,-0.11168580919871657 l 3.0339331850897757 -16.602130250263766" fill="#ffa80f" stroke="none" /><path d="M 95.86986931433489 120.58985236759428 l -4.814522010074739 24.001733831821483 a45.47984577400556,45.47984577400556 0 0,0 -0.7662456079865613,-0.16057421722008586 l 5.226959079490687 -23.915303633874853" fill="#f0ff19" stroke="none" /><path d="M 94.46302465271185 120.25689768951611 l -6.4099495726031455 23.450653929816408 a45.31091572235256,45.31091572235256 0 0,0 -0.7505835868783367,-0.21212241902862114 l 6.812664327586096 -23.336842717449265" fill="#f2ff19" stroke="none" /><path d="M 93.42475214034765 119.94407469862007 l -6.144774969278907 18.638362174226685 a40.62515742511944,40.62515742511944 0 0,0 -0.6622486186099229,-0.22467068762604336 l 6.464693320826056 -18.529828499702518" fill="#ffce13" stroke="none" /><path d="M 92.7421414339146 119.70592522655815 l -8.51058084836385 23.10721107409115 a45.62464598728555,45.62464598728555 0 0,0 -0.7346214988367192,-0.2777709917971349 l 8.907072567960853 -22.95729183218738" fill="#eeff19" stroke="none" /><path d="M 91.40352486487194 119.15986991738527 l -9.871498850028589 22.00164961604914 a45.114706620100335,45.114706620100335 0 0,0 -0.7057916660126873,-0.323994336971241 l 10.248758511808695 -21.828468208743825" fill="#f4ff19" stroke="none" /><path d="M 90.7491055286396 118.85261126421891 l -10.883399303697058 22.179530524435716 a45.705868830868695,45.705868830868695 0 0,0 -0.703317757555216,-0.35265812427532794 l 11.263570968935035 -21.988904559251086" fill="#edff1a" stroke="none" /><path d="M 90.42595943632237 118.69057910512821 l -6.825112771719034 13.3240829002958 a35.970415808541766,35.970415808541766 0 0,0 -0.5486500677800328,-0.28702778465892803 l 7.053453742025562 -13.204625696692155" fill="#ff8c0c" stroke="none" /><path d="M 90.10565033884886 118.52300852407294 l -11.401811190524304 21.345096252377715 a45.19947173902014,45.19947173902014 0 0,0 -0.6831086307406219,-0.37248529142655756 l 11.767542633133566 -21.14567030919139" fill="#f3ff19" stroke="none" /><line stroke="#e1ed5e" stroke-width="0.3" x1="58.666819895761336" x2="56.23545636021788" y1="174.27360380694188" y2="178.64263932499728" /><path d="M 58.180547188652646 175.14741091055294 a86.0,86.0 0 0,1 -31.652253787137756,-30.449443065178592" fill="none" id="id116" stroke="none" /><text fill="#e1ed5e" style="font-size:6.75px; font-family:Arial;" text-anchor="middle"><textPath startOffset="22.20632615414155" xlink:href="#id116">August</textPath></text><path d="M 89.7882731507175 118.34994917583269 l -8.32702270887377 14.963232541279204 a38.12418276235384,38.12418276235384 0 0,0 -0.5706849457841516,-0.3240498061784276 l 8.58335642157913 -14.817679569306144" fill="#ffab0f" stroke="none" /><path d="M 89.4739219176387 118.17145234162733 l -9.10640352376063 15.720629881411874 a39.16768529576346,39.16768529576346 0 0,0 -0.5804877181662284,-0.3429623758159095 l 9.37565911295524 -15.561548933302214" fill="#ffba11" stroke="none" /><path d="M 88.8546689885994 117.79835938074946 l -6.548629083832197 10.457729229042112 a33.33890771120259,33.33890771120259 0 0,0 -0.483760565689599,-0.3087588813620816 l 6.72767145156872 -10.343455918856227" fill="#ff6609" stroke="none" /><path d="M 88.54995079064634 117.60387380957326 l -8.466365494732687 13.016610415372396 a36.52776517712647,36.52776517712647 0 0,0 -0.5241304688739793,-0.3473650948087516 l 8.689170662346628 -12.868947299472326" fill="#ff940d" stroke="none" /><path d="M 88.24862548938628 117.40417183066458 l -8.334611567351626 12.343833628059292 a35.89415921144389,35.89415921144389 0 0,0 -0.5090870573037347,-0.3501547201171324 l 8.545855509278251 -12.198538118577058" fill="#ff8b0c" stroke="none" /><path d="M 87.95078237400918 117.19931262002967 l -13.83839587132917 19.753224162647367 a45.11827243215019,45.11827243215019 0 0,0 -0.6322416472119399,-0.45108762822884313 l 14.176364846389998 -19.512092272574304" fill="#f4ff19" stroke="none" /><path d="M 87.36589467227662 116.77436683061367 l -14.531636818848042 19.293729181893212 a45.15401528481627,45.15401528481627 0 0,0 -0.6168280846847513,-0.4729574724373965 l 14.861593632026281 -19.04073236762845" fill="#f4ff19" stroke="none" /><path d="M 86.79598089348748 116.32954008644616 l -15.823015698583145 19.568478889207316 a46.16531724089647,46.16531724089647 0 0,0 -0.6136247174830998,-0.504971367130508 l 16.157510544610933 -19.293212403219627" fill="#e7ff1a" stroke="none" /><path d="M 85.70375840098266 115.38237550388516 l -10.398280859755252 11.188273482354369 a36.27421711101117,36.27421711101117 0 0,0 -0.45371128431381424,-0.42901233854920295 l 10.589327978459883 -11.007626507059236" fill="#ff910d" stroke="none" /><path d="M 85.44109423537348 115.13401014063109 l -17.058656090743103 17.732505343231555 a45.605680103788686,45.605680103788686 0 0,0 -0.5610585536546715,-0.5491138819232944 l 17.36136459677357 -17.43624135838569" fill="#eeff19" stroke="none" /><path d="M 85.18274418774928 114.88116024355367 l -10.59587090338491 10.641569183337687 a36.01717266614995,36.01717266614995 0 0,0 -0.43556660274106546,-0.4412266689669926 l 10.777478131181509 -10.457602020390029" fill="#ff8d0d" stroke="none" /><path d="M 84.9287848128048 114.62390073753433 l -11.956227917047341 11.601366451378809 a37.659624531890266,37.659624531890266 0 0,0 -0.4474204570588055,-0.4691185604627423 l 12.154154925485104 -11.393840774333567" fill="#ffa50f" stroke="none" /><path d="M 84.67929136418377 114.36230785411682 l -17.727650558487095 16.61868134845794 a45.29918031715086,45.29918031715086 0 0,0 -0.5283903301683465,-0.573463345040105 l 18.01108729665117 -16.31106674861649" fill="#f2ff19" stroke="none" /><path d="M 84.43433777217949 114.09645910891817 l -17.960333597423492 16.265103561485873 a45.23070731110835,45.23070731110835 0 0,0 -0.5176571536367188,-0.5815932997566665 l 18.23764960070855 -15.953536091988342" fill="#f3ff19" stroke="none" /><path d="M 83.95833913139862 113.55231037782056 l -18.505381177993076 15.633709716112854 a45.225235025289265,45.225235025289265 0 0,0 -0.49727084157591595,-0.5989947626985074 l 18.771748019462528 -15.312853696300586" fill="#f3ff19" stroke="none" /><path d="M 83.50135304334701 112.99209946851258 l -12.493207133490255 9.837957632858162 a36.901749427852394,36.901749427852394 0 0,0 -0.3886864479127616,-0.5024296293876994 l 12.660700398621085 -9.62145000935721" fill="#ff9a0e" stroke="none" /><path d="M 83.28015986056508 112.70617746262583 l -28.842288206611972 21.918584706862976 a57.225708337383765,57.225708337383765 0 0,0 -0.5892578420643988,-0.7894071745855661 l 29.215307315371454 -21.4188646527681" fill="#62ff29" stroke="none" /><path d="M 83.06392112726016 112.41649034213515 l -13.885377664276701 10.179904035691317 a38.21726340204734,38.21726340204734 0 0,0 -0.3843932528865017,-0.5338886082753712 l 14.05855070953881 -9.939381821964806" fill="#ffac10" stroke="none" /><path d="M 82.44556493220864 111.52570212397912 l -20.558541710974147 13.49810614520108 a45.593749343867415,45.593749343867415 0 0,0 -0.42509687533025026,-0.6597597906760451 l 20.787843449681443 -13.142224754603587" fill="#eeff19" stroke="none" /><path d="M 82.24976979558568 111.22182372390057 l -22.76578693881311 14.392694912751308 a47.93382115101701,47.93382115101701 0 0,0 -0.43490894690956106,-0.7012117004416056 l 23.010160525390628 -13.998686880944438" fill="#d0ff1d" stroke="none" /><path d="M 82.05923443525364 110.91462005526583 l -20.607740755395778 12.537127232995067 a45.121744097347246,45.121744097347246 0 0,0 -0.39797190136567295,-0.6670237979898669 l 20.820493532459682 -12.180541341119088" fill="#f4ff19" stroke="none" /><line stroke="#e1ed5e" stroke-width="0.3" x1="26.63291911575756" x2="22.317208475507996" y1="142.92168965132927" y2="145.44649492493687" /><path d="M 25.769776987707644 143.4266507060508 a86.0,86.0 0 0,1 -11.730757126820373,-40.83630448921669" fill="none" id="id117" stroke="none" /><text fill="#e1ed5e" style="font-size:6.75px; font-family:Arial;" text-anchor="middle"><textPath startOffset="21.46611528233685" xlink:href="#id117">September</textPath></text><path d="M 81.69416730710424 110.29060199501025 l -21.699169807632252 12.19816240313096 a45.89275268735093,45.89275268735093 0 0,0 -0.38117993828006247,-0.6919523091758505 l 21.90592615536383 -11.822839575557287" fill="#eaff1a" stroke="none" /><path d="M 81.51974371655577 109.97397251340807 l -10.69242348948527 5.770804059756733 a33.15031273567068,33.15031273567068 0 0,0 -0.2666981994405798,-0.5044924855009293 l 10.790174197150735 -5.585896559169678" fill="#ff6309" stroke="none" /><path d="M 81.18737489456691 109.33194174019688 l -21.716210960678 10.77225609754725 a45.24119056316779,45.24119056316779 0 0,0 -0.3400559332032831,-0.7006159436391097 l 21.898420150496 -10.396851197942855" fill="#f3ff19" stroke="none" /><path d="M 81.02952815118164 109.00673069616217 l -14.284815918540366 6.782092245668491 a36.81305603149944,36.81305603149944 0 0,0 -0.26685150284247294,-0.5747743968985145 l 14.399442038222665 -6.535197781491149" fill="#ff990e" stroke="none" /><path d="M 80.87730276802145 108.67885076344099 l -22.28630206934959 10.114655238352013 a45.47418048713823,45.47418048713823 0 0,0 -0.31736412213947507,-0.7155723137431532 l 22.457107276220345 -9.729534588116163" fill="#f0ff19" stroke="none" /><path d="M 80.45479744820244 107.68017299344265 l -18.044694057139356 7.090556959197697 a40.38780497135731,40.38780497135731 0 0,0 -0.24868448654562916,-0.6492367212223266 l 18.164072823278495 -6.7788966711422125" fill="#ffcb12" stroke="none" /><path d="M 80.20201598880116 107.00284435728193 l -22.739634012622048 8.043350153322196 a45.120249516059026,45.120249516059026 0 0,0 -0.252693097772281,-0.734444425143377 l 22.874717941337558 -7.650733025089521" fill="#f4ff19" stroke="none" /><path d="M 79.97269907076064 106.31721596034903 l -55.55199830892587 17.522779109693904 a79.25008415308966,79.25008415308966 0 0,0 -0.3991684371444317,-1.3045055483192134 l 55.84539351857643 -16.563946588822645" fill="#47fffc" stroke="none" /><path d="M 79.86692584326677 105.97154293290107 l -11.570967724457043 3.431991061270667 a33.069211106160516,33.069211106160516 0 0,0 -0.15716908384584014,-0.5471261995140887 l 11.628329445188987 -3.2323073862519824" fill="#ff6209" stroke="none" /><path d="M 79.58551787078972 104.9243191809786 l -23.50497123851909 5.669797547916904 a45.17912895780107,45.17912895780107 0 0,0 -0.17585316346481555,-0.7575708257015429 l 23.59908496791446 -5.264358064866786" fill="#f3ff19" stroke="none" /><path d="M 79.4281124754447 104.21870165774334 l -23.668899280111408 4.853809574390267 a45.16146230087287,45.16146230087287 0 0,0 -0.1496136171042209,-0.7628766103225099 l 23.748942830191297 -4.4456692369998025" fill="#f4ff19" stroke="none" /><path d="M 79.35854240842038 103.8639653848113 l -24.163993792318035 4.52336445515361 a45.583722704044064,45.583722704044064 0 0,0 -0.13773568461883298,-0.7724948658164749 l 24.238275919276056 -4.106750838603921" fill="#eeff19" stroke="none" /><path d="M 79.18660465613746 102.79330883721812 l -20.871186281934737 2.8010648008829264 a42.058309068725485,42.058309068725485 0 0,0 -0.09012192532010702,-0.7183604165545098 l 20.91630971650169 -2.441386630041008" fill="#ffe115" stroke="none" /><path d="M 79.1416061653843 102.43462659150553 l -24.505185969236237 2.860286264778451 a45.67154994935123,45.67154994935123 0 0,0 -0.08442211694826501,-0.7816439541437965 l 24.550790387685552 -2.4380459887498724" fill="#edff1a" stroke="none" /><path d="M 79.10278846688536 102.07522291339032 l -17.94766526189891 1.7823146468288975 a39.03594560463836,39.03594560463836 0 0,0 -0.06064588024083109,-0.6692222349178858 l 17.975685738416814 -1.4731110233624454" fill="#ffb811" stroke="none" /><path d="M 79.0235259727143 100.99374915477108 l -24.26126817009745 1.149364507416623 a45.28847817365865,45.28847817365865 0 0,0 -0.030187719087912533,-0.7790108935445476 l 24.277458022036562 -0.7315763668580787" fill="#f2ff19" stroke="none" /><line stroke="#e1ed5e" stroke-width="0.3" x1="15.007084014347285" x2="10.007500721073583" y1="101.09737516637583" y2="101.16192664675087" /><path d="M 14.007167355692545 101.11028546245083 a86.0,86.0 0 0,1 10.666146001902534,-42.60595125391555" fill="none" id="id118" stroke="none" /><text fill="#e1ed5e" style="font-size:6.75px; font-family:Arial;" text-anchor="middle"><textPath startOffset="22.20632615414155" xlink:href="#id118">October</textPath></text><path d="M 79.00175016825051 100.2711162175752 l -24.145857333041224 0.31175614933138607 a45.147869848999655,45.147869848999655 0 0,0 -0.0033446030236787593,-0.7771679537955922 l 24.147646233354408 0.10392128266788152" fill="#f4ff19" stroke="none" /><path d="M 79.00019446554 99.90962569577889 l -13.286555156031453 -0.05717972843850707 a34.28667819417669,34.28667819417669 0 0,0 0.007619794432828572,-0.5901614761306441 l 13.283602354480909 0.2858774626296231" fill="#ff740a" stroke="none" /><path d="M 79.00486145842228 99.54816195383935 l -24.214831259639567 -0.5211293091873611 a45.22043824313903,45.22043824313903 0 0,0 0.023446378497187177,-0.7780711563700271 l 24.202273186686735 0.9378706129823826" fill="#f3ff19" stroke="none" /><path d="M 79.05617556472873 98.46500227214037 l -16.833148348349106 -1.2337214030463843 a37.87829825005658,37.87829825005658 0 0,0 0.05325601466056957,-0.6498582713975404 l 16.80941784986904 1.5232935916517032" fill="#ffa80f" stroke="none" /><path d="M 79.62865764111835 94.90015583598534 l -23.58945532958779 -5.90547956906886 a45.317423623552465,45.317423623552465 0 0,0 0.19595182358122626,-0.7550823100379699 l 23.484307174136255 6.310658304655694" fill="#f2ff19" stroke="none" /><path d="M 79.81627453868168 94.20196356495316 l -23.632364799558136 -6.788702730660654 a45.58810994738461,45.58810994738461 0 0,0 0.2231518506863938,-0.7523571057872038 l 23.512007051760037 7.194489223194397" fill="#eeff19" stroke="none" /><path d="M 79.91906864156998 93.8553929516997 l -16.212121692314163 -4.960781720748047 a37.95412177163156,37.95412177163156 0 0,0 0.19653821957422649,-0.62307986496198 l 16.124327988971732 5.239111752136441" fill="#ffa90f" stroke="none" /><path d="M 80.14247586403 93.16781622104843 l -22.881793535036802 -7.8727145213544425 a45.19826665930428,45.19826665930428 0 0,0 0.2594529427864682,-0.7335084075663747 l 22.742887511440525 8.26542055534743" fill="#f3ff19" stroke="none" /><path d="M 80.52162464483688 92.15188598940014 l -24.611144941695 -9.916179758935684 a47.533734685351874,47.533734685351874 0 0,0 0.31231545370875186,-0.756296643795311 l 24.43680780110005 10.338350973184305" fill="#d5ff1c" stroke="none" /><path d="M 80.803312248108 91.48605970444005 l -24.23238212500085 -10.747325647942427 a47.50874104960441,47.50874104960441 0 0,0 0.33798551603804783,-0.7447062829119534 l 24.04379429199945 11.162853939696452" fill="#d6ff1c" stroke="none" /><path d="M 80.95270993114464 91.15688171328213 l -14.442824573503316 -6.705395131596307 a36.92348911299991,36.92348911299991 0 0,0 0.27260402103542525,-0.5741735909935409 l 14.325262358626139 6.95301113823038" fill="#ff9a0e" stroke="none" /><path d="M 81.10775173730289 90.83032412892265 l -21.816101844247125 -10.58881822324727 a45.25005919670169,45.25005919670169 0 0,0 0.3461413772959745,-0.6977998947955346 l 21.630600453997737 10.962777706541765" fill="#f3ff19" stroke="none" /><line stroke="#e1ed5e" stroke-width="0.3" x1="26.266209847984243" x2="21.928928074336255" y1="57.711370442889674" y2="55.22380399835377" /><path d="M 25.398753493254645 57.213857153982495 a86.0,86.0 0 0,1 29.58750427330803,-30.492523968695096" fill="none" id="id119" stroke="none" /><text fill="#e1ed5e" style="font-size:6.75px; font-family:Arial;" text-anchor="middle"><textPath startOffset="21.46611528233685" xlink:href="#id119">November</textPath></text><path d="M 81.78341655067845 89.55222093294921 l -21.012682326426084 -12.051429026928695 a45.223330905191354,45.223330905191354 0 0,0 0.39309912118904017,-0.671933823064391 l 20.802123530766718 12.411342262346977" fill="#f3ff19" stroke="none" /><path d="M 81.96595687620814 89.24020034530311 l -20.75321539050857 -12.382161795878686 a45.16637912026043,45.16637912026043 0 0,0 0.4040975754910576,-0.6642301638039775 l 20.537002016731293 12.737559732889737" fill="#f4ff19" stroke="none" /><path d="M 82.15384107792192 88.93136811851018 l -20.99331938913516 -13.020579123130545 a45.70333863419965,45.70333863419965 0 0,0 0.42041065635967184,-0.6649886965234989 l 20.766081136529525 13.38001546736826" fill="#edff1a" stroke="none" /><path d="M 82.54541684631803 88.32363383020206 l -20.188309785126815 -13.505111827934433 a45.28900774970566,45.28900774970566 0 0,0 0.43903495009423277,-0.6442296151958826 l 19.95285036936384 13.850619466400731" fill="#f2ff19" stroke="none" /><path d="M 82.7489923806493 88.02491185347247 l -19.86104266295195 -13.786889544005954 a45.17724837441635,45.17724837441635 0 0,0 0.44894864798697376,-0.6350060241931713 l 19.620781395161096 14.126722068530912" fill="#f3ff19" stroke="none" /><path d="M 83.17141714833178 87.43820079747576 l -19.354852550328452 -14.447548761218979 a45.15247363010165,45.15247363010165 0 0,0 0.470282492442843,-0.6188366341606545 l 19.1032941176615 14.77857017126066" fill="#f4ff19" stroke="none" /><path d="M 83.39014120810768 87.1503855733568 l -19.282581743246197 -14.91726953584263 a45.379148653920424,45.379148653920424 0 0,0 0.48327911536042356,-0.613715398745177 l 19.0229485472918 15.246977328540854" fill="#f1ff19" stroke="none" /><path d="M 83.6137871275137 86.86637796730984 l -16.27561829227856 -13.044979987904368 a41.85826583589292,41.85826583589292 0 0,0 0.45546080297946445,-0.5583410901612756 l 16.048658997222702 13.323205247673725" fill="#ffdf14" stroke="none" /><line stroke="#e1ed5e" stroke-width="0.3" x1="56.762969772571076" x2="54.21961505331055" y1="26.818313649435495" y2="22.513508569990535" /><path d="M 56.25429882871897 25.957352633546506 a86.0,86.0 0 0,1 42.265352541879196,-11.944610805530505" fill="none" id="id120" stroke="none" /><text fill="#e1ed5e" style="font-size:6.75px; font-family:Arial;" text-anchor="middle"><textPath startOffset="22.20632615414155" xlink:href="#id120">December</textPath></text></svg>