<?xml version="1.0" encoding="utf-8" ?>
<svg baseProfile="full" height="200mm" version="1.1" viewBox="0,0,200,200" width="200mm" xmlns="http://www.w3.org/2000/svg" xmlns:ev="http://www.w3.org/2001/xml-events" xmlns:xlink="http://www.w3.org/1999/xlink"><defs /><rect fill="#1a1a1a" height="200" width="200" x="0" y="0" /><text alignment-baseline="middle" fill="#e1ed5e" style="dominant-baseline: central; font-size:9.0px; font-family:Arial;" text-anchor="middle" x="100.0" y="100.0">2024</text><line stroke="#e1ed5e" stroke-width="0.3" x1="100.0" x2="100.0" y1="15.0" y2="10.0" /><path d="M 100.0 14.0 a86.0,86.0 0 0,1 42.35913384403234,11.155469271406648" fill="none" id="id97" stroke="none" /><text fill="#e1ed5e" style="font-size:6.75px; font-family:Arial;" text-anchor="middle"><textPath startOffset="22.145653131862478" xlink:href="#id97">January</textPath></text><path d="M 100.36049292484886 79.00309439819443 l 0.26258597680036183 -15.294316717995967 a36.29657070279424,36.29657070279424 0 0,0 0.6228952774370018,0.016043572785114677 l -0.5250945683081051 15.287555427860807" fill="#ffb510" stroke="none" /><path d="M 100.72087961077811 79.0123766808444 l 0.5453902897800544 -15.87844321394203 a36.887806943268416,36.887806943268416 0 0,0 0.6326684670902329,0.027169506181722057 l -0.8178845174711237 15.866741139334476" fill="#ffbd11" stroke="none" /><path d="M 101.08105385017728 79.02784411241856 l 0.4627203397668193 -8.976650974743793 a29.98856900931414,29.98856900931414 0 0,0 0.5138836156889096,0.03091396223425688 l -0.6167483075881912 8.967385034684844" fill="#ff5f08" stroke="none" /><path d="M 102.15924093988457 79.11130261209362 l 3.230176909856952 -31.24903142259405 a52.41553767993226,52.41553767993226 0 0,0 0.8942193023338286,0.10019913798948066 l -3.7661321137915778 31.1889765240976" fill="#86ff25" stroke="none" /><path d="M 103.23170211078529 79.25015418208739 l 1.4439131925975524 -9.270958489911285 a30.382726502963592,30.382726502963592 0 0,0 0.514658063604279,0.08468678851572227 l -1.602848759254902 9.244805702899896" fill="#ff6509" stroke="none" /><path d="M 103.94208987418118 79.37332000966035 l 2.8884180957872783 -15.113424006469586 a36.38696020321761,36.38696020321761 0 0,0 0.6125199196515538,0.12252113855114527 l -3.1474345009697893 15.061613471255582" fill="#ffb610" stroke="none" /><path d="M 104.29559338865022 79.4440306129975 l 2.1972026865880196 -10.514410251649817 a31.741532599491954,31.741532599491954 0 0,0 0.5324076540785724,0.11603577020304899 l -2.3773727572857264 10.475143023313048" fill="#ff780b" stroke="none" /><path d="M 105.3480935250658 79.69241777938227 l 1.9087395603854667 -7.247795009305988 a28.494919559695173,28.494919559695173 0 0,0 0.4719553810348474,0.1286335377934059 l -2.032876342355007 7.21396097736844" fill="#ff4a06" stroke="none" /><path d="M 106.04205211174951 79.88797359093562 l 2.697862388029274 -8.980306457561348 a30.37679932260796,30.37679932260796 0 0,0 0.49812073286279857,0.15431907634516953 l -2.8516237537637026 8.932670793409532" fill="#ff6509" stroke="none" /><path d="M 106.38641147887787 79.99465700312896 l 4.530692986779436 -14.192331251096624 a35.89796782387807,35.89796782387807 0 0,0 0.5854398925871996,0.19244572100724144 l -4.773655617014378 14.112464608687361" fill="#ffb010" stroke="none" /><path d="M 107.40779381753099 80.34994680014964 l 5.63059236539965 -14.935815203837722 a36.961896697713804,36.961896697713804 0 0,0 0.5917911857438252,0.22891754376833012 l -5.886155813637001 14.836957771931353" fill="#ffbe11" stroke="none" /><path d="M 108.4095320186766 80.7573450057729 l 4.153734415095694 -9.504557222663683 a31.37256562235394,31.37256562235394 0 0,0 0.49163289830232626,0.2199011420926193 l -4.316280716253652 9.431852329661211" fill="#ff720a" stroke="none" /><path d="M 108.73861861582097 80.90454125486305 l 5.561219397127383 -12.152268023030636 a34.364309906858594,34.364309906858594 0 0,0 0.5343016678384086,0.25008015902115127 l -5.7690097788372965 12.055011632438951" fill="#ff9b0e" stroke="none" /><path d="M 109.71004243097381 81.37971332152246 l 2.8673812851838427 -5.498581692734161 a27.20131244707875,27.20131244707875 0 0,0 0.41217913552117746,0.21946217358289055 l -2.96134923649158 5.448549051428698" fill="#ff3705" stroke="none" /><path d="M 110.02825361518725 81.54914285379988 l 5.79886666500561 -10.669261523645913 a33.14331075359864,33.14331075359864 0 0,0 0.49755339708668533,0.2759844821130978 l -5.981164250248396 10.56814412609967" fill="#ff8b0c" stroke="none" /><path d="M 110.34350942703115 81.72400993836675 l 4.278411816346078 -7.559543729981243 a29.68628281117697,29.68628281117697 0 0,0 0.4413467188036127,0.25481164690722385 l -4.407551003010088 7.484985185797848" fill="#ff5b08" stroke="none" /><line stroke="#e1ed5e" stroke-width="0.3" x1="143.13028292997686" x2="145.6673583964461" y1="26.7553504044142" y2="22.446841604673864" /><path d="M 143.63769802327073 25.89364864446614 a86.0,86.0 0 0,1 29.32050498858742,28.57503671076993" fill="none" id="id98" stroke="none" /><text fill="#e1ed5e" style="font-size:6.75px; font-family:Arial;" text-anchor="middle"><textPath startOffset="20.669276256404974" xlink:href="#id98">February</textPath></text><path d="M 111.8722381534696 82.67804972795209 l 10.25961760270549 -14.969088694734037 a39.14754445385267,39.14754445385267 0 0,0 0.5510574432882032,0.38468089269294087 l -10.515070137167454 14.79076298623597" fill="#ffda14" stroke="none" /><path d="M 113.59037401385872 83.9905735841838 l 10.55718511985399 -12.436337525523607 a37.31308213378493,37.31308213378493 0 0,0 0.4847511656852538,0.4187165114596307 l -10.769115765302104 12.253276881599255" fill="#ffc212" stroke="none" /><path d="M 114.13192950727249 84.46653392183569 l 6.009959013571218 -6.6059977457730925 a29.93077900084674,29.93077900084674 0 0,0 0.37708538309548567,0.34902460103529204 l -6.122474167980669 6.501855398605426" fill="#ff5e08" stroke="none" /><path d="M 114.65682725009322 84.96080404539774 l 7.628334589097344 -7.827343308012015 a31.929720575783236,31.929720575783236 0 0,0 0.3892507835901473,0.38592387380700305 l -7.761577292817454 7.695239423976353" fill="#ff7a0b" stroke="none" /><path d="M 114.91283532996326 85.21462403516908 l 7.461679037875348 -7.397904386580304 a31.50740897544454,31.50740897544454 0 0,0 0.3775085695124393,0.38735704900956835 l -7.587574408538599 7.268724645502994" fill="#ff740a" stroke="none" /><path d="M 115.16444852881244 85.47280134310134 l 5.413275833140144 -5.185795794894886 a28.49640135478408,28.49640135478408 0 0,0 0.33536758830214397,0.35614875697201664 l -5.5014992551785475 5.092105577978374" fill="#ff4a06" stroke="none" /><path d="M 115.6541949942343 86.00192230759917 l 7.970693697318285 -7.127443453878378 a31.692633361558002,31.692633361558002 0 0,0 0.35916648066988943,0.40866552372085535 l -8.091871241946764 6.989565652346225" fill="#ff770a" stroke="none" /><path d="M 115.8921839302757 86.27271002978787 l 1.8491540573683776 -1.5972552329155936 a23.443480101608806,23.443480101608806 0 0,0 0.26045196942943677,0.3068117650907167 l -1.8763005903049266 1.5652766853753248" fill="#ff0000" stroke="none" /><path d="M 116.57777611688842 87.10902102172516 l 12.511705711701842 -9.729178037794794 a36.84928027095682,36.84928027095682 0 0,0 0.38401867253408833,0.5026927695121188 l -12.676876361590235 9.512964355041793" fill="#ffbc11" stroke="none" /><path d="M 117.01052211995028 87.68569379921539 l 9.689948142418759 -7.014775187618837 a32.96253175275191,32.96253175275191 0 0,0 0.3278750093988869,0.4611972616318857 l -9.808938250347605 6.847400699277447" fill="#ff880c" stroke="none" /><path d="M 117.42321728460499 88.27688183743584 l 12.37033674271066 -8.323314631083868 a35.90982218458933,35.90982218458933 0 0,0 0.33973352718001454,0.5143998608757586 l -12.511394708811398 8.109734891869051" fill="#ffb010" stroke="none" /><path d="M 117.81537515405839 88.88188828441811 l 12.795844178179525 -7.9855531437276355 a36.08319220999153,36.08319220999153 0 0,0 0.32342917707779406,0.5282972541102856 l -12.93104131971272 7.764718773492795" fill="#ffb210" stroke="none" /><line stroke="#e1ed5e" stroke-width="0.3" x1="172.87174338648825" x2="177.1583165268699" y1="56.24261187166439" y2="53.66864786411523" /><path d="M 173.72905801456457 55.72781907015455 a86.0,86.0 0 0,1 12.242430191666344,42.057860355516425" fill="none" id="id99" stroke="none" /><text fill="#e1ed5e" style="font-size:6.75px; font-family:Arial;" text-anchor="middle"><textPath startOffset="22.145653131862474" xlink:href="#id99">March</textPath></text><path d="M 118.18653347947321 89.5 l 13.30753261234386 -7.683107535986453 a36.3662150719729,36.3662150719729 0 0,0 0.307496497011388,0.5433168464738529 l -13.437462474376623 7.453533919413482" fill="#ffb610" stroke="none" /><path d="M 118.53625476483649 90.13048839642627 l 13.28483909444286 -7.073428546253055 a36.05059271803556,36.05059271803556 0 0,0 0.2861591864174833,0.5487479714585565 l -13.404306349835288 6.84433433169" fill="#ffb210" stroke="none" /><path d="M 118.8641267826498 90.77261029715802 l 13.353437756388859 -6.531835555949101 a35.8653683319221,35.8653683319221 0 0,0 0.2657807253978472,0.5553794947795819 l -13.463597739746618 6.3016435591044155" fill="#ffaf10" stroke="none" /><path d="M 119.71291397450082 92.76114493625339 l 15.324384226437735 -5.627326152786931 a37.324936494496185,37.324936494496185 0 0,0 0.21570228314727022,0.6033576759611265 l -15.418726679628948 5.363433520444888" fill="#ffc312" stroke="none" /><path d="M 119.83427380445688 93.10060997987247 l 25.20150778978656 -8.766392611659356 a47.68268416596105,47.68268416596105 0 0,0 0.2622878647490028,0.7754074666311003 l -25.34828107610793 8.332483470554093" fill="#bbff1f" stroke="none" /><path d="M 120.16314734710363 94.1308016681162 l 9.22650370773124 -2.6857007608147367 a30.60944115156647,30.60944115156647 0 0,0 0.1425255863121196,0.5057730253976473 l -9.271247786117941 2.5269198115140763" fill="#ff6809" stroke="none" /><path d="M 120.35273937422433 94.82641323984039 l 7.431938065312652 -1.889169593834744 a28.668289585097376,28.668289585097376 0 0,0 0.1171474685640216,0.4780016484128696 l -7.4632730603929645 1.7613121208137794" fill="#ff4c07" stroke="none" /><path d="M 120.51834098615036 95.52812308129327 l 14.780676201496547 -3.2213795839032615 a36.12764606265876,36.12764606265876 0 0,0 0.12686358681845278,0.60708818806171 l -14.833797499139367 2.967174944556147" fill="#ffb310" stroke="none" /><path d="M 120.592083275326 95.88100663000786 l 14.589691516197314 -2.918346911380965 a35.87870448772227,35.87870448772227 0 0,0 0.11562118860938009,0.6049789156681029 l -14.637638997088851 2.6674654306795476" fill="#ffb010" stroke="none" /><path d="M 120.7213421655516 96.59031103205396 l 16.257451562148486 -2.675157467865655 a37.476079593564776,37.476079593564776 0 0,0 0.09900557030278966,0.6356867831478916 l -16.30097862458954 2.395682502786322" fill="#ffc512" stroke="none" /><path d="M 120.86939407059847 97.66154086499901 l 8.879653277286813 -0.9949836709043133 a29.93522438611346,29.93522438611346 0 0,0 0.05283938802465298,0.5111731471098094 l -8.895425057793133 0.8424060015115724" fill="#ff5e08" stroke="none" /><path d="M 120.93736805541906 98.37931529534042 l 7.853729084293516 -0.6079283015784864 a28.87722269263336,28.87722269263336 0 0,0 0.034014671522381607,0.49456585874120346 l -7.863007716980964 0.4730190186829488" fill="#ff4f07" stroke="none" /><path d="M 120.98066250479742 99.09900007780936 l 22.851926786907494 -0.9813600620191044 a43.87298899237934,43.87298899237934 0 0,0 0.02585437957926337,0.7527220518476953 l -22.865405853483608 0.5889317456072893" fill="#e9ff1a" stroke="none" /><line stroke="#e1ed5e" stroke-width="0.3" x1="184.99686870605535" x2="189.99668451229388" y1="99.2704041080226" y2="99.22748670261217" /><path d="M 185.99683186730306 99.26182062694052 a86.0,86.0 0 0,1 -10.086455211305974,41.156179273409016" fill="none" id="id100" stroke="none" /><text fill="#e1ed5e" style="font-size:6.75px; font-family:Arial;" text-anchor="middle"><textPath startOffset="21.40746469413373" xlink:href="#id100">April</textPath></text><path d="M 120.99922638620191 99.81974689727618 l 8.89785171106001 -0.0763773554795786 a29.89817950889077,29.89817950889077 0 0,0 0.0,0.5132609164068098 l -8.89785171106001 -0.07637735547957752" fill="#ff5e08" stroke="none" /><path d="M 120.99922638620191 100.18025310272382 l 7.745057600950985 0.06648200451153234 a28.745342929720575,28.745342929720575 0 0,0 -0.008471072425729077,0.4933975005021162 l -7.742775096926588 -0.1994264209827196" fill="#ff4d07" stroke="none" /><path d="M 120.86939407059847 102.33845913500097 l 16.388335211098667 1.8363471431996836 a37.49089754445385,37.49089754445385 0 0,0 -0.07715611314876163,0.6389632994750803 l -16.354397011690242 -2.1174041195981723" fill="#ffc512" stroke="none" /><path d="M 120.77682067341334 103.0534771498775 l 14.780687696115816 2.172252090394075 a35.93945808636749,35.93945808636749 0 0,0 -0.09494607180909254,0.6096218907306378 l -14.741220132168456 -2.4256621630561637" fill="#ffb010" stroke="none" /><path d="M 120.592083275326 104.11899336999214 l 7.40454814924226 1.4811170063138523 a28.551227773073666,28.551227773073666 0 0,0 -0.10025870927435403,0.47977421793908676 l -7.378031729143541 -1.6080076755383483" fill="#ff4b06" stroke="none" /><path d="M 120.51834098615036 104.47187691870673 l 30.758689969712428 6.703713317663306 a52.4807366638442,52.4807366638442 0 0,0 -0.19939965539177332,0.8785916733616875 l -30.63907945276299 -7.23073932496401" fill="#85ff25" stroke="none" /><path d="M 120.35273937422433 105.17358676015961 l 11.616801354650056 2.952945477203717 a32.98624047417443,32.98624047417443 0 0,0 -0.144213517344475,0.5476022150830531 l -11.56439835650085 -3.1519281966595734" fill="#ff890c" stroke="none" /><path d="M 120.16314734710363 105.8691983318838 l 7.135068017620995 2.0769143123339857 a28.431202370872143,28.431202370872143 0 0,0 -0.1404280446013518,0.4674392887316391 l -7.098363653016014 -2.199091204656348" fill="#ff4906" stroke="none" /><path d="M 119.83427380445688 106.89939002012753 l 29.608657677610065 10.299428116413914 a52.34885690093141,52.34885690093141 0 0,0 -0.30252611294718973,0.8462193805373134 l -29.42749139461893 -10.806182453332148" fill="#86ff25" stroke="none" /><path d="M 119.4528033332814 107.91128576633889 l 6.931742649807441 2.8190793903479654 a28.483065198983912,28.483065198983912 0 0,0 -0.18808881007053874,0.45134467284220703 l -6.8823279952004155 -2.9376565726314503" fill="#ff4a06" stroke="none" /><path d="M 119.0197475246899 108.90220220490707 l 28.57927769815633 13.376545015064645 a52.554826418289586,52.554826418289586 0 0,0 -0.3894581469048689,0.8138177384460185 l -28.345440293291546 -13.865175255575766" fill="#84ff25" stroke="none" /><path d="M 118.8641267826498 109.22738970284198 l 13.357431009306438 6.533788856055542 a35.86981371718882,35.86981371718882 0 0,0 -0.2753095089531185,0.5508034404349567 l -13.243301587141588 -6.762124152654245" fill="#ffaf10" stroke="none" /><path d="M 118.5362547648365 109.86951160357373 l 6.919050783656864 3.6840048252120376 a28.838696020321763,28.838696020321763 0 0,0 -0.2364150300441909,0.43497702730152915 l -6.854790403997335 -3.80223668598817" fill="#ff4f07" stroke="none" /><line stroke="#e1ed5e" stroke-width="0.3" x1="174.33088141563837" x2="178.70328620479359" y1="141.23008692659167" y2="143.65538615756765" /><path d="M 175.20536237346943 141.71514677278685 a86.0,86.0 0 0,1 -30.301960400862466,31.631185727798858" fill="none" id="id101" stroke="none" /><text fill="#e1ed5e" style="font-size:6.75px; font-family:Arial;" text-anchor="middle"><textPath startOffset="22.145653131862474" xlink:href="#id101">May</textPath></text><path d="M 118.36410011445183 110.18625677009912 l 9.57986114494372 5.313787489510498 a31.954911092294665,31.954911092294665 0 0,0 -0.2701964777952284,0.4774112865377095 l -9.487231302127114 -5.47745554614733" fill="#ff7a0b" stroke="none" /><path d="M 118.00360718960297 110.81064883170644 l 7.8076608656011794 4.6882760174758555 a30.107112616426758,30.107112616426758 0 0,0 -0.26986300438858934,0.4408009366766335 l -7.726029896757185 -4.821614070277046" fill="#ff6108" stroke="none" /><path d="M 117.62189284568427 111.42229804090321 l 8.92285514116782 5.78368689962754 a31.633361558001695,31.633361558001695 0 0,0 -0.2992750407790239,0.45314055582964474 l -8.822255661468072 -5.936007333796246" fill="#ff760a" stroke="none" /><path d="M 115.89218393027572 113.72728997021213 l 5.611380778090579 4.8469770682290045 a28.414902624894157,28.414902624894157 0 0,0 -0.3220205925437598,0.3664003218099522 l -5.527349121588234 -4.94258966785025" fill="#ff4906" stroke="none" /><path d="M 115.41159269507618 114.26474011684316 l 10.886639463054452 10.07651095891313 a35.83425063505504,35.83425063505504 0 0,0 -0.4217250474707893,0.44785738598378677 l -10.712058581847403 -10.261909804841414" fill="#ffaf10" stroke="none" /><path d="M 114.91283532996324 114.78537596483092 l 10.702684740407577 10.611209352123574 a36.07133784928027,36.07133784928027 0 0,0 -0.4397406638636936,0.4359822192353716 l -10.518952156413919 -10.793371581587607" fill="#ffb210" stroke="none" /><path d="M 114.65682725009322 115.03919595460226 l 3.1109043443607374 3.1920619130287595 a25.457239627434376,25.457239627434376 0 0,0 -0.3155819004257647,0.30232032185648694 l -3.0556499580696608 -3.2449943651908266" fill="#ff1e03" stroke="none" /><path d="M 114.39649973595853 115.28858382429668 l 6.538969009339896 6.944158486945929 a30.538314987298897,30.538314987298897 0 0,0 -0.38473947523217955,0.3561091144480517 l -6.418799762793749 -7.05538534752636" fill="#ff6709" stroke="none" /><path d="M 113.86319453409587 115.77377054828091 l 9.8398161034766 11.195904455627838 a35.90537679932261,35.90537679932261 0 0,0 -0.4664630275096138,0.40291965327740803 l -9.646173596204132 -11.363168241369964" fill="#ffb010" stroke="none" /><path d="M 113.31354834802062 116.24036423190432 l 9.466597989204333 11.547710299527228 a35.93204911092295,35.93204911092295 0 0,0 -0.4803759574975643,0.38695686733021145 l -9.266971261351516 -11.708515460650844" fill="#ffb010" stroke="none" /><path d="M 113.03279911837588 116.46651593811092 l 4.690961635819597 5.92687678523171 a28.558636748518204,28.558636748518204 0 0,0 -0.3870240006382444,0.30095220379004045 l -4.588527690546122 -6.006530040642544" fill="#ff4b07" stroke="none" /><path d="M 112.45986205192187 116.90419585922612 l 5.585485719436893 7.577784102008432 a30.413844199830653,30.413844199830653 0 0,0 -0.4229247644703859,0.30616491444874355 l -5.45457994459254 -7.672549787830253" fill="#ff6509" stroke="none" /><path d="M 112.16784306229584 117.11559508785304 l 8.641641294242703 12.155550702740669 a35.91426756985605,35.91426756985605 0 0,0 -0.5055444662165972,0.35290929998103704 l -8.431701736852348 -12.302104818526828" fill="#ffb010" stroke="none" /><path d="M 111.5731344415666 117.5232005979908 l 8.531226045092172 12.917363579396683 a36.480313293818796,36.480313293818796 0 0,0 -0.525515186245038,0.34063259462967943 l -8.308225226590125 -13.061910015730257" fill="#ffb811" stroke="none" /><path d="M 110.96478420261333 117.91015095944535 l 6.393803037707913 10.443796749143129 a33.24555461473328,33.24555461473328 0 0,0 -0.48929104388070516,0.29380521337680093 l -6.213579237269771 -10.552015963055853" fill="#ff8c0c" stroke="none" /><line stroke="#e1ed5e" stroke-width="0.3" x1="143.1302829299769" x2="145.66735839644613" y1="173.24464959558577" y2="177.55315839532614" /><path d="M 143.63769802327073 174.10635135553383 a86.0,86.0 0 0,1 -40.68552437913181,11.842963189579606" fill="none" id="id102" stroke="none" /><text fill="#e1ed5e" style="font-size:6.75px; font-family:Arial;" text-anchor="middle"><textPath startOffset="21.407464694133747" xlink:href="#id102">June</textPath></text><path d="M 109.71004243097381 118.62028667847754 l 3.7930281469002973 7.273631601189083 a29.203217612193058,29.203217612193058 0 0,0 -0.44649324826903186,0.22798263395651588 l -3.667607676917683 -7.337672186818436" fill="#ff5407" stroke="none" /><path d="M 109.3889696526874 118.78422872680471 l 6.634951388065497 13.274347353863192 a35.84017781541067,35.84017781541067 0 0,0 -0.5526892500069381,0.2703480077898995 l -6.406101888796489 -13.386289111750314" fill="#ffaf10" stroke="none" /><path d="M 109.06512990194946 118.94263497670748 l 6.661322523207852 13.919602077859988 a36.431414055884844,36.431414055884844 0 0,0 -0.5664413266126974,0.2651231421540264 l -6.421392482723649 -14.031901451584547" fill="#ffb711" stroke="none" /><path d="M 108.4095320186766 119.2426549942271 l 3.655879675914938 8.365368149832992 a30.129339542760373,30.129339542760373 0 0,0 -0.475706295269519,0.2030507302057113 l -3.5117383054749878 -8.426893529698107" fill="#ff6109" stroke="none" /><path d="M 107.74402155503746 119.51999308798841 l 5.4987361634449625 13.860407172200627 a35.91130397967824,35.91130397967824 0 0,0 -0.5749703089521109,0.2224108672717038 l -5.259993591999322 -13.952757927610373" fill="#ffb010" stroke="none" /><path d="M 106.72888874123015 119.89276391827305 l 3.8131319136903246 11.272846953686908 a32.90029635901778,32.90029635901778 0 0,0 -0.5365525441721251,0.17637547855708208 l -3.6190566318704653 -11.336643353646009" fill="#ff870c" stroke="none" /><path d="M 106.38641147887787 120.00534299687104 l 6.832090349369709 21.40142571094847 a43.46549534292972,43.46549534292972 0 0,0 -0.71275002229584,0.22081177885038816 l -6.463699694202244 -21.515554077605504" fill="#eeff19" stroke="none" /><path d="M 105.69591212413111 120.21278271476187 l 2.171134440767447 7.704590193701922 a29.004657070279425,29.004657070279425 0 0,0 -0.4803980565978181,0.13093462656100505 l -2.0385549832349334 -7.740725314407069" fill="#ff5107" stroke="none" /><path d="M 105.3480935250658 120.30758222061773 l 1.8898710396224632 7.17614816263432 a28.420829805249788,28.420829805249788 0 0,0 -0.4728613093379113,0.12019949572392896 l -1.7664044370591545 -7.2075328901935185" fill="#ff4906" stroke="none" /><path d="M 104.64783097203109 120.47920084513623 l 3.2927055432678554 14.508268168583669 a35.87722269263336,35.87722269263336 0 0,0 -0.6017764866509654,0.13115438439644378 l -3.043166639997754 -14.562654011113832" fill="#ffb010" stroke="none" /><path d="M 103.94208987418118 120.62667999033965 l 2.1910698517446456 11.46460332231904 a32.672099915325994,32.672099915325994 0 0,0 -0.5517932867578846,0.10055511804878375 l -1.9939418314357038 -11.500526614299186" fill="#ff840c" stroke="none" /><path d="M 103.58742460773223 120.69131181640829 l 1.8542114910837286 10.694599143041962 a31.85414902624894,31.85414902624894 0 0,0 -0.5395827347493724,0.08878813366769453 l -1.670351253281284 -10.724853275205328" fill="#ff790b" stroke="none" /><path d="M 102.875027216393 120.80226474461374 l 1.7073263514792136 12.353362975632885 a33.47078746824725,33.47078746824725 0 0,0 -0.5698356589846999,0.07377663456290465 l -1.4950128706037384 -12.380851206396185" fill="#ff8f0d" stroke="none" /><path d="M 102.15924093988457 120.88869738790638 l 1.0063354789682155 9.735382885063615 a30.78725656223539,30.78725656223539 0 0,0 -0.5261695153506588,0.04982880016009019 l -0.8390664002325414 -9.75122344072889" fill="#ff6a09" stroke="none" /><path d="M 101.80034050326958 120.92268563240118 l 1.1256574371628392 13.081845709053555 a34.13018628281118,34.13018628281118 0 0,0 -0.5841641506732991,0.04521799977440935 l -0.9009242917143043 -13.099241475823018" fill="#ff980e" stroke="none" /><path d="M 101.08105385017728 120.97215588758144 l 0.8004161762567183 15.527859986479822 a36.54847586790855,36.54847586790855 0 0,0 -0.626848547472519,0.02691957379176406 l -0.5337418681833698 -15.539312128697416" fill="#ffb811" stroke="none" /><path d="M 100.72087961077811 120.9876233191556 l 0.3715795622871931 10.818133527126145 a31.824513124470787,31.824513124470787 0 0,0 -0.546149086487626,0.014066863143739864 l -0.18581716172882332 -10.82291810761993" fill="#ff790b" stroke="none" /><line stroke="#e1ed5e" stroke-width="0.3" x1="101.45913802915013" x2="101.54496967792366" y1="184.9874750549273" y2="189.98673829345242" /><path d="M 101.47630435890484 185.9873277026323 a86.0,86.0 0 0,1 -42.54439059252881,-10.42667462771756" fill="none" id="id103" stroke="none" /><text fill="#e1ed5e" style="font-size:6.75px; font-family:Arial;" text-anchor="middle"><textPath startOffset="22.145653131862474" xlink:href="#id103">July</textPath></text><path d="M 99.27912038922189 120.98762331915562 l -0.5126322831937447 14.924729594302162 a35.93353090601185,35.93353090601185 0 0,0 -0.6163015315713845,-0.026466639547957707 l 0.7687595753659678 -14.913730386328377" fill="#ffb010" stroke="none" /><path d="M 98.55909050195518 120.95050786540614 l -0.5627599542533223 8.182406226010652 a29.20173581710415,29.20173581710415 0 0,0 -0.4998099647166541,-0.038688452288207574 l 0.7031389137452125 -8.171540006727392" fill="#ff5407" stroke="none" /><path d="M 98.19965949673042 120.92268563240118 l -0.9908732659824131 11.515449331973556 a32.5580016934801,32.5580016934801 0 0,0 -0.5564324296714962,-0.0526947296105069 l 1.1884052590389245 -11.496742846857867" fill="#ff830c" stroke="none" /><path d="M 97.84075906011543 120.88869738790638 l -1.5408131262385445 14.905969283368414 a35.985393734123626,35.985393734123626 0 0,0 -0.6139178400807642,-0.06879077449112425 l 1.796466867920108 -14.877322748370318" fill="#ffb110" stroke="none" /><path d="M 97.48249496171623 120.84855314841334 l -0.904361991949102 7.4894146259224055 a28.54381879762913,28.54381879762913 0 0,0 -0.4859546794325173,-0.06291656240415976 l 1.0327944932724133 -7.472786467317849" fill="#ff4b06" stroke="none" /><path d="M 97.12497278360702 120.80226474461374 l -0.461724664444709 3.3408096640376015 a24.37256562235394,24.37256562235394 0 0,0 -0.4139562985439457,-0.0608373205179214 l 0.5190060685963397 -3.3323912702207976" fill="#ff0e01" stroke="none" /><path d="M 96.76829788921471 120.74984581791261 l -1.1422238126533673 7.333896253311057 a28.422311600338695,28.422311600338695 0 0,0 -0.4814502691179218,-0.07922245857003846 l 1.2679515848243526 -7.31320779624535" fill="#ff4906" stroke="none" /><path d="M 96.41257539226777 120.69131181640829 l -2.5315998801813437 14.601595362397635 a35.81943268416596,35.81943268416596 0 0,0 -0.6049480303323663,-0.1102416830057219 l 2.7818826440647673 -14.555985505460548" fill="#ffaf10" stroke="none" /><path d="M 95.70440661134978 120.55596938700252 l -3.032861095599353 14.51333825051843 a35.8268416596105,35.8268416596105 0 0,0 -0.6009314345880976,-0.13097020923249703 l 3.2815549468065868 -14.459136583152215" fill="#ffaf10" stroke="none" /><path d="M 95.00130118170881 120.39639698878247 l -4.275982625892187 17.44746829628915 a38.96380186282811,38.96380186282811 0 0,0 -0.6482736250803462,-0.16478862044113457 l 4.574861544197912 -17.37149444401275" fill="#ffd814" stroke="none" /><path d="M 94.30408787586889 120.21278271476187 l -3.4741366356893413 12.328485308100593 a33.808636748518204,33.808636748518204 0 0,0 -0.5572629097869926,-0.16221111140232827 l 3.6852595578579406 -12.267030502395748" fill="#ff940d" stroke="none" /><path d="M 93.95794788825049 120.11202640906438 l -2.2203646202364826 7.390871686311551 a28.71718882303133,28.71718882303133 0 0,0 -0.47090633184785063,-0.1458879853448449 l 2.3469115849559667 -7.351667113160058" fill="#ff4d07" stroke="none" /><path d="M 93.27111125876986 119.89276391827306 l -3.85016644105526 11.382332953237107 a33.01587637595259,33.01587637595259 0 0,0 -0.535319777946999,-0.1862120070518795 l 4.044991991047281 -11.314562513616636" fill="#ff890c" stroke="none" /><path d="M 92.25597844496254 119.51999308798841 l -6.591051933168351 16.61375646537653 a38.87341236240474,38.87341236240474 0 0,0 -0.6181715541299728,-0.2514049894791753 l 6.8752779484887645 -16.498164219318063" fill="#ffd714" stroke="none" /><path d="M 91.59046798132341 119.24265499422711 l -4.759586249068933 10.890864783283629 a32.885478408128705,32.885478408128705 0 0,0 -0.5153414373712172,-0.23050567005769046 l 4.945841089295786 -10.807555362316084" fill="#ff870c" stroke="none" /><path d="M 90.93487009805054 118.94263497670748 l -3.9933394000755364 8.344543477249847 a30.250846740050804,30.250846740050804 0 0,0 -0.46649650799568537,-0.2281868184988167 l 4.135996157333291 -8.274762908653807" fill="#ff6309" stroke="none" /><path d="M 90.6110303473126 118.78422872680471 l -4.173096234989973 8.348987916323939 a30.333827265029637,30.333827265029637 0 0,0 -0.46377934266873105,-0.23680903692530125 l 4.315802799372287 -8.2761209277258" fill="#ff6409" stroke="none" /><line stroke="#e1ed5e" stroke-width="0.3" x1="58.13341422392154" x2="55.67067388415222" y1="173.97424548756322" y2="178.32567169271397" /><path d="M 57.64086615596768 174.84453072859336 a86.0,86.0 0 0,1 -31.369924170532247,-30.572349798747897" fill="none" id="id104" stroke="none" /><text fill="#e1ed5e" style="font-size:6.75px; font-family:Arial;" text-anchor="middle"><textPath startOffset="22.145653131862474" xlink:href="#id104">August</textPath></text><path d="M 89.65649057296885 118.27599006163327 l -7.537945622521712 13.318827642996638 a36.30397967823878,36.30397967823878 0 0,0 -0.53973218581853,-0.3116145227726358 l 7.7654702762006425 -13.187466222947831" fill="#ffb510" stroke="none" /><path d="M 89.34428304082925 118.09573695890944 l -4.001532998638634 6.795477850360994 a28.886113463166808,28.886113463166808 0 0,0 -0.4251310219919216,-0.255278963699746 l 4.117596777187983 -6.7257848861253295" fill="#ff4f07" stroke="none" /><path d="M 88.72937992617639 117.7192867562869 l -8.25255606167567 12.974388842082215 a36.37658763759526,36.37658763759526 0 0,0 -0.5240209718968861,-0.3396640629417929 l 8.474062665829564 -12.830810937436528" fill="#ffb610" stroke="none" /><path d="M 88.1277618465304 117.32195027204791 l -6.905366857116135 10.075136613921181 a33.214436917866216,33.214436917866216 0 0,0 -0.467540504610503,-0.32637958324358124 l 7.077302452900403 -9.955112214872472" fill="#ff8c0c" stroke="none" /><path d="M 87.83215693770417 117.11559508785305 l -7.383816704469669 10.386262895536003 a33.74343776460627,33.74343776460627 0 0,0 -0.46922498107284244,-0.33968270069803524 l 7.561022695916465 -10.257979423464903" fill="#ff930d" stroke="none" /><path d="M 86.96720088162412 116.46651593811092 l -9.245820091458587 11.681791648445328 a35.89796782387807,35.89796782387807 0 0,0 -0.4799203243983507,-0.38658984155806064 l 9.4449911862122 -11.521353513093857" fill="#ffb010" stroke="none" /><path d="M 86.68645165197938 116.24036423190432 l -7.524803998563725 9.179037362232123 a32.869178662150716,32.869178662150716 0 0,0 -0.4332872508905515,-0.36146363508798296 l 7.681265583616169 -9.04851154323227" fill="#ff870c" stroke="none" /><path d="M 86.13680546590413 115.77377054828092 l -10.40913442261601 11.843684194486123 a36.767781541066896,36.767781541066896 0 0,0 -0.47051375172394144,-0.4207362981233161 l 10.610913201163322 -11.663252366479425" fill="#ffbb11" stroke="none" /><path d="M 85.86807049272751 115.53346607816431 l -6.095715853652042 6.700259535409144 a30.058213378492802,30.058213378492802 0 0,0 -0.3786908755924481,-0.35051062092186897 l 6.209836500558457 -6.594631168354898" fill="#ff6008" stroke="none" /><path d="M 85.60350026404147 115.28858382429668 l -4.111108836538539 4.36585511832689 a26.996824724809485,26.996824724809485 0 0,0 -0.3346674414352129,-0.32060383841113416 l 4.185448763839066 -4.294639149610174" fill="#ff3405" stroke="none" /><path d="M 85.08716467003676 114.78537596483092 l -10.599561831690645 10.508967830492656 a35.92612193056732,35.92612193056732 0 0,0 -0.4304517362474333,-0.4416814021180997 l 10.778400369088887 -10.32546373630682" fill="#ffb010" stroke="none" /><path d="M 84.58840730492382 114.26474011684316 l -10.892076801713452 10.081543678401143 a35.841659610499576,35.841659610499576 0 0,0 -0.4140604298642824,-0.4551249451320194 l 11.063534932419616 -9.89308115771145" fill="#ffaf10" stroke="none" /><path d="M 83.4222238831116 112.89097897827486 l -17.596633229350292 13.68324843142737 a43.290643522438614,43.290643522438614 0 0,0 -0.45114627304503735,-0.5905649534058689 l 17.828931479749627 -13.37916256478063" fill="#f0ff19" stroke="none" /><path d="M 83.20337586046588 112.60449989151573 l -9.858475839164887 7.397984059951159 a33.325571549534295,33.325571549534295 0 0,0 -0.3394415452695212,-0.4605176477944466 l 9.98401940401824 -7.227660102887833" fill="#ff8d0d" stroke="none" /><path d="M 82.576782715395 111.72311816256416 l -18.550587468769745 12.481663135402952 a43.35880609652837,43.35880609652837 0 0,0 -0.4102064347121519,-0.6211048250014631 l 18.762118342402623 -12.161378432062428" fill="#efff19" stroke="none" /><path d="M 82.37810715431573 111.42229804090323 l -13.642916194104414 8.843173447981238 a37.25825571549534,37.25825571549534 0 0,0 -0.3432768248489009,-0.5396881854275665 l 13.792710710579204 -8.607671587875" fill="#ffc212" stroke="none" /><line stroke="#e1ed5e" stroke-width="0.3" x1="26.387840678322732" x2="22.057713659400548" y1="142.50000000000003" y2="145.00000000000006" /><path d="M 25.521815274538298 143.00000000000003 a86.0,86.0 0 0,1 -11.493303480769221,-40.785679425670985" fill="none" id="id105" stroke="none" /><text fill="#e1ed5e" style="font-size:6.75px; font-family:Arial;" text-anchor="middle"><textPath startOffset="21.40746469413373" xlink:href="#id105">September</textPath></text><path d="M 81.81346652052679 110.50000000000001 l -7.39036454334506 4.266828958509741 a29.533657917019475,29.533657917019475 0 0,0 -0.24972344071118466,-0.4412373916987305 l 7.462521349077623 -4.139334796711889" fill="#ff5908" stroke="none" /><path d="M 81.1358732173502 109.22738970284198 l -17.497103200531456 8.558709966402606 a40.478196443691786,40.478196443691786 0 0,0 -0.29996414128627463,-0.6268096867829195 l 17.64144659977764 -8.257087777554583" fill="#ffeb16" stroke="none" /><path d="M 80.83023694016515 108.57439118712176 l -13.963411238122713 6.245656239391617 a36.29657070279424,36.29657070279424 0 0,0 -0.24952357183138363,-0.5709587638188378 l 14.068568691971064 -6.00503540579693" fill="#ffb510" stroke="none" /><path d="M 80.68587082218212 108.24405325689762 l -13.80145259552368 5.891019427928461 a36.00613886536833,36.00613886536833 0 0,0 -0.23776766184080847,-0.5705558321398747 l 13.900546101900973 -5.653231086347304" fill="#ffb110" stroke="none" /><path d="M 80.28708602549918 107.23885506374661 l -8.01063163838204 2.9416148964237028 a29.533657917019475,29.533657917019475 0 0,0 -0.17067617632332538,-0.47741164157295046 l 8.059947984749309 -2.8036682984698307" fill="#ff5908" stroke="none" /><path d="M 79.94057633289273 106.21446072829308 l -9.272458682135172 2.8726314021343478 a30.707239627434376,30.707239627434376 0 0,0 -0.1516698998422793,-0.5048597686134234 l 9.320404901981082 -2.713034029930201" fill="#ff6909" stroke="none" /><path d="M 79.73907114497094 105.5222062557868 l -30.31562209786136 8.26265761035557 a52.42146486028789,52.42146486028789 0 0,0 -0.22918294789521412,-0.8702449828396388 l 30.45299452656131 -7.741032123143128" fill="#86ff25" stroke="none" /><path d="M 79.48165901384964 104.47187691870673 l -16.565823988394897 3.610444235382614 a37.954699407281964,37.954699407281964 0 0,0 -0.13327935329838192,-0.6377899532017733 l 16.625361052517647 -3.3255378308954318" fill="#ffcb12" stroke="none" /><path d="M 79.34024301695615 103.76489593502545 l -7.404100036471892 1.3492736701943464 a28.526037256562233,28.526037256562233 0 0,0 -0.08365624812708136,-0.4825070084141737 l 7.426171102091208 -1.22197362885958" fill="#ff4a06" stroke="none" /><path d="M 79.2786578344484 103.40968896794605 l -31.065929790535915 5.111886925059952 a52.48370025402201,52.48370025402201 0 0,0 -0.13865320843597956,-0.8902530612595239 l 31.14910449111016 -4.577845681868979" fill="#85ff25" stroke="none" /><path d="M 79.17382384314188 102.69636545807758 l -9.654810707772928 1.2500085421655178 a30.735393734123626,30.735393734123626 0 0,0 -0.06325331405603336,-0.5238281790329419 l 9.674846108088623 -1.0840866862091767" fill="#ff6a09" stroke="none" /><path d="M 79.06263194458094 101.62068470465958 l -15.388345022949824 1.191155227472067 a36.43437764606266,36.43437764606266 0 0,0 -0.04291629430379305,-0.6239935003452587 l 15.406525278418684 -0.9268183029724649" fill="#ffb711" stroke="none" /><path d="M 79.01933749520258 100.90099992219065 l -16.87394801225522 0.724639931775968 a37.88950042337002,37.88950042337002 0 0,0 -0.022328306060583773,-0.6500642686350165 l 16.88390100531265 -0.43486939857683155" fill="#ffca12" stroke="none" /><line stroke="#e1ed5e" stroke-width="0.3" x1="15.003131293944662" x2="10.003315487706104" y1="100.72959589197737" y2="100.7725132973878" /><path d="M 14.003168132696942 100.73817937305945 a86.0,86.0 0 0,1 10.791469493833604,-42.45332614584628" fill="none" id="id106" stroke="none" /><text fill="#e1ed5e" style="font-size:6.75px; font-family:Arial;" text-anchor="middle"><textPath startOffset="22.145653131862435" xlink:href="#id106">October</textPath></text><path d="M 79.00077361379809 100.18025310272382 l -9.023799653681175 0.07745846708919506 a30.024132091447925,30.024132091447925 0 0,0 0.0,-0.5154231396260218 l 9.023799653681175 0.07745846708919173" fill="#ff6008" stroke="none" /><path d="M 79.00077361379809 99.81974689727619 l -17.06224187391441 -0.14645882570312693 a38.06287044877223,38.06287044877223 0 0,0 0.011216889396349544,-0.6533275733490652 l 17.057213552919393 0.43933331502124456" fill="#ffcc13" stroke="none" /><path d="M 79.00696218219943 99.45929381324524 l -15.950679595122535 -0.41083292541456884 a36.95596951735817,36.95596951735817 0 0,0 0.021778175719626685,-0.6340478240029908 l 15.941276732406058 0.6845870139816981" fill="#ffbe11" stroke="none" /><path d="M 79.03789590574601 98.7389718711861 l -16.43747267848184 -0.9888375384920258 a37.46718882303133,37.46718882303133 0 0,0 0.04413284941725677,-0.6416819446978473 l 16.418075867899518 1.2708629073441982" fill="#ffc412" stroke="none" /><path d="M 79.06263194458094 98.37931529534042 l -20.136630439977548 -1.5587025490057973 a41.19686706181203,41.19686706181203 0 0,0 0.06063075795634671,-0.7046213125078554 l 20.10690605932346 1.9041449088893334" fill="#fff417" stroke="none" /><path d="M 79.13060592940154 97.66154086499901 l -14.740518956159372 -1.651705894817946 a35.83276883996613,35.83276883996613 0 0,0 0.07374369108585244,-0.6107035495792734 l 14.70999317881385 1.9045031213206558" fill="#ffaf10" stroke="none" /><path d="M 79.407916724674 95.88100663000787 l -14.977645667658793 -2.9959486069629477 a36.274343776460626,36.274343776460626 0 0,0 0.1273787213533376,-0.6095532932919266 l 14.924009235481089 3.2526183515402836" fill="#ffb510" stroke="none" /><path d="M 79.56144815229197 95.17655741523228 l -15.07220613607089 -3.556999608623158 a36.48624047417443,36.48624047417443 0 0,0 0.14909402586714574,-0.6083545039990347 l 15.008924583687445 3.81520993723031" fill="#ffb811" stroke="none" /><path d="M 79.83685265289637 94.1308016681162 l -7.682824984078438 -2.236358382174182 a29.001693480101608,29.001693480101608 0 0,0 0.14324582732775615,-0.47681877099367487 l 7.643302836747052 2.3679147567585805" fill="#ff5107" stroke="none" /><path d="M 80.05021161711548 93.44210830539832 l -59.84936514865357 -19.67367508380505 a84.0,84.0 0 0,0 0.46205831371054007,-1.3659933021033535 l 59.50282141337067 20.698170060382566" fill="#4dd2ff" stroke="none" /><path d="M 80.83023694016515 91.42560881287825 l -13.538678977271172 -6.0556789014889585 a35.83128704487722,35.83128704487722 0 0,0 0.255964271474747,-0.5593281273685458 l 13.432730240941378 6.287196011072175" fill="#ffaf10" stroke="none" /><path d="M 81.29705330413844 90.45014215332179 l -13.752710098615102 -7.022231768291961 a36.4417866215072,36.4417866215072 0 0,0 0.2892643705686779,-0.5547025715023541 l 13.630137659071485 7.257280582898802" fill="#ffb711" stroke="none" /><path d="M 81.46374523516351 90.13048839642627 l -10.729106536547683 -5.712644911382677 a33.15516511430991,33.15516511430991 0 0,0 0.27180075517615937,-0.500082775967075 l 10.629460431756174 5.895982520824372" fill="#ff8b0c" stroke="none" /><line stroke="#e1ed5e" stroke-width="0.3" x1="26.387840678322718" x2="22.05771365940052" y1="57.49999999999999" y2="54.99999999999999" /><path d="M 25.521815274538284 56.99999999999999 a86.0,86.0 0 0,1 29.574782752854787,-30.34633250058573" fill="none" id="id107" stroke="none" /><text fill="#e1ed5e" style="font-size:6.75px; font-family:Arial;" text-anchor="middle"><textPath startOffset="21.40746469413373" xlink:href="#id107">November</textPath></text><path d="M 81.99639281039701 89.18935116829357 l -19.210453564858625 -11.53532540453462 a43.40770533446232,43.40770533446232 0 0,0 0.38908193968696847,-0.6355361078357068 l 19.009603660716262 11.86339862849487" fill="#eeff19" stroke="none" /><path d="M 82.37810715431573 88.57770195909679 l -12.440519187205135 -8.063794235057626 a35.825359864521594,35.825359864521594 0 0,0 0.33893445104526776,-0.5131899577615384 l 12.300260297239138 8.276164071158226" fill="#ffaf10" stroke="none" /><path d="M 82.78059297857968 87.97951657250589 l -7.983962993067521 -5.57342623497487 a30.736875529212533,30.736875529212533 0 0,0 0.30573662935314594,-0.4300568576322622 l 7.887111265184402 5.709660319316653" fill="#ff6a09" stroke="none" /><path d="M 83.42222388311158 87.10902102172516 l -11.83909625169543 -9.206152853451862 a35.99724809483489,35.99724809483489 0 0,0 0.3835139430161264,-0.4845573385888095 l 11.679315878037743 9.408030135955354" fill="#ffb110" stroke="none" /><path d="M 83.8745106332314 86.54754324733833 l -14.105820750764208 -11.767577361187323 a39.36981371718882,39.36981371718882 0 0,0 0.4373900749491585,-0.5152444084884087 l 13.901736112307935 12.007988552125289" fill="#ffdd14" stroke="none" /><path d="M 84.58840730492382 85.73525988315684 l -11.222666992180791 -10.387533023272752 a36.29212531752752,36.29212531752752 0 0,0 0.427113669216147,-0.4535799155404342 l 11.042697489228372 10.578654398757697" fill="#ffb510" stroke="none" /><path d="M 85.08716467003674 85.21462403516908 l -13.372305346681696 -13.258012825364897 a39.83065198983912,39.83065198983912 0 0,0 0.48556993980427826,-0.48141979431648735 l 13.142743486747442 13.485612629910056" fill="#ffe315" stroke="none" /><path d="M 85.60350026404147 84.71141617570332 l -10.591159063442255 -11.247443900092943 a36.44919559695174,36.44919559695174 0 0,0 0.45920819116704614,-0.4250362461639904 l 10.396521100961257 11.427597892389299" fill="#ffb711" stroke="none" /><path d="M 86.68645165197937 83.75963576809568 l -9.849883885760393 -12.01525677191058 a36.53662150719729,36.53662150719729 0 0,0 0.48845849247464795,-0.39346758537511733 l 9.6421746229305 12.182572651079097" fill="#ffb811" stroke="none" /><path d="M 87.54013794807813 83.09580414077388 l -9.161146103656925 -12.428854138663288 a36.44030482641829,36.44030482641829 0 0,0 0.5067267141464424,-0.36683106339212757 l 8.946438379136515 12.584285973428495" fill="#ffb711" stroke="none" /><path d="M 88.12776184653039 82.6780497279521 l -8.586680854717995 -12.528223983099846 a36.188399661303976,36.188399661303976 0 0,0 0.5154326031678892,-0.34680605843757206 l 8.370351963453118 12.673779715594526" fill="#ffb410" stroke="none" /><line stroke="#e1ed5e" stroke-width="0.3" x1="56.869717070023135" x2="54.33264160355391" y1="26.7553504044142" y2="22.446841604673864" /><path d="M 56.362301976729285 25.89364864446614 a86.0,86.0 0 0,1 42.16139366436587,-11.88097634709845" fill="none" id="id108" stroke="none" /><text fill="#e1ed5e" style="font-size:6.75px; font-family:Arial;" text-anchor="middle"><textPath startOffset="22.145653131862474" xlink:href="#id108">December</textPath></text><path d="M 90.61103034731259 81.2157712731953 l -6.63958889777259 -13.283625479821955 a35.850550381033024,35.850550381033024 0 0,0 0.5528492047243782,-0.27042624965763484 l 6.410579443786159 13.395645479576803" fill="#ffaf10" stroke="none" /><path d="M 96.05791012581881 79.37332000966035 l -2.788280334377097 -14.589460924581191 a35.85351397121084,35.85351397121084 0 0,0 0.6055236231300503,-0.11034657518746699 l 2.5374219776960083 14.635175673700019" fill="#ffaf10" stroke="none" /><path d="M 96.76829788921471 79.25015418208739 l -2.991125923452636 -19.20517411752468 a40.43670618120237,40.43670618120237 0 0,0 0.6867979955596871,-0.10093565415938005 l 2.6610028222852637 19.25369084498295" fill="#ffeb16" stroke="none" /><path d="M 97.48249496171623 79.15144685158666 l -1.777459456185964 -14.719914112547553 a35.8268416596105,35.8268416596105 0 0,0 0.6112129107462514,-0.06848768151724942 l 1.524510643838913 14.748257554571772" fill="#ffaf10" stroke="none" /><path d="M 98.1996594967304 79.07731436759882 l -0.796382628774843 -9.255173315659261 a30.289373412362405,30.289373412362405 0 0,0 0.5184257111063919,-0.040129428792979704 l 0.637387922893234 9.267480511447294" fill="#ff6309" stroke="none" /><path d="M 98.9189461498227 79.02784411241856 l -0.9414596823940274 -18.264066325467837 a39.288314987298904,39.288314987298904 0 0,0 0.6738399508488468,-0.028937586844311372 l 0.6277939709443605 18.277536480737975" fill="#ffdc14" stroke="none" /><path d="M 99.63950707515114 79.00309439819443 l -0.33083340252499566 -19.269387119466778 a40.272226926333616,40.272226926333616 0 0,0 0.691326327373843,-0.005934205061272369 l 4.720334203555179e-15 19.272226926333616" fill="#ffe915" stroke="none" /></svg>