<?xml version="1.0" encoding="utf-8" ?>
<svg baseProfile="full" height="200mm" version="1.1" viewBox="0,0,200,200" width="200mm" xmlns="http://www.w3.org/2000/svg" xmlns:ev="http://www.w3.org/2001/xml-events" xmlns:xlink="http://www.w3.org/1999/xlink"><defs /><rect fill="#1a1a1a" height="200" width="200" x="0" y="0" /><text alignment-baseline="middle" fill="#e1ed5e" style="dominant-baseline: central; font-size:9.0px; font-family:Arial;" text-anchor="middle" x="100.0" y="100.0">2020</text><line stroke="#e1ed5e" stroke-width="0.3" x1="100.0" x2="100.0" y1="15.0" y2="10.0" /><path d="M 100.0 14.0 a86.0,86.0 0 0,1 42.35913384403234,11.155469271406648" fill="none" id="id49" stroke="none" /><text fill="#e1ed5e" style="font-size:6.75px; font-family:Arial;" text-anchor="middle"><textPath startOffset="22.145653131862478" xlink:href="#id49">January</textPath></text><path d="M 100.0 79.0 l 0.0 -63.0 a84.0,84.0 0 0,0 1.441971699395419,0.012377592777739643 l -1.0814787745465644 62.990716805416696" fill="#4dd2ff" stroke="none" /><path d="M 102.87502721639298 79.19773525538626 l 2.134921200291817 -15.447226295505255 a36.5940594059406,36.5940594059406 0 0,0 0.6215324892380988,0.09134387227125441 l -2.399778795137598 15.408301349935119" fill="#ffb210" stroke="none" /><path d="M 103.58742460773223 79.30868818359171 l 1.6020869993243778 -9.240412074050457 a30.378267326732676,30.378267326732676 0 0,0 0.5130531559853793,0.09349537572037404 l -1.7604748888608108 9.211548524398717" fill="#ff5b08" stroke="none" /><path d="M 109.71004243097381 81.37971332152246 l 5.26793836638822 -10.101966421259181 a32.3930198019802,32.3930198019802 0 0,0 0.49084862816369274,0.26134924733823484 l -5.440575810338473 10.010046706198372" fill="#ff780b" stroke="none" /><path d="M 110.02825361518725 81.54914285379988 l 7.446722981574695 -13.701131544208009 a36.5940594059406,36.5940594059406 0 0,0 0.5493566622230333,0.3047188800372901 l -7.680823831953828 13.571279748737574" fill="#ffb210" stroke="none" /><line stroke="#e1ed5e" stroke-width="0.3" x1="143.13028292997686" x2="145.6673583964461" y1="26.7553504044142" y2="22.446841604673864" /><path d="M 143.63769802327073 25.89364864446614 a86.0,86.0 0 0,1 29.32050498858742,28.57503671076993" fill="none" id="id50" stroke="none" /><text fill="#e1ed5e" style="font-size:6.75px; font-family:Arial;" text-anchor="middle"><textPath startOffset="20.669276256404974" xlink:href="#id50">February</textPath></text><path d="M 110.65571695917076 81.90426304109057 l 7.912661108295118 -13.43742843483374 a36.5940594059406,36.5940594059406 0 0,0 0.5385726222365503,0.32339738520473166 l -8.142166487089101 13.299617049093088" fill="#ffb210" stroke="none" /><path d="M 111.5731344415666 82.4767994020092 l 8.593911714034608 -13.012277671775346 a36.5940594059406,36.5940594059406 0 0,0 0.5212104286626518,0.35069363728660485 l -8.81601843079426 12.862834360431622" fill="#ffb210" stroke="none" /><path d="M 112.16784306229584 82.88440491214696 l 9.03552702645731 -12.709600312762161 a36.5940594059406,36.5940594059406 0 0,0 0.5088647740017986,0.3683788538449391 l -9.252372810833075 12.552620687544147" fill="#ffb210" stroke="none" /><path d="M 112.7482090630111 83.31218511350987 l 9.466491878473596 -12.391941747393663 a36.5940594059406,36.5940594059406 0 0,0 0.49591930439802206,0.3856298506409982 l -9.677821127506844 12.227610845131874" fill="#ffb210" stroke="none" /><path d="M 113.59037401385872 83.9905735841838 l 10.091861891479255 -11.888187932536784 a36.5940594059406,36.5940594059406 0 0,0 0.47541001546273864,0.41064784837830975 l -10.294451386704853 11.713195951693754" fill="#ffb210" stroke="none" /><path d="M 113.86319453409587 84.22622945171908 l 10.294451386704853 -11.713195951693754 a36.5940594059406,36.5940594059406 0 0,0 0.4682906463275832,0.4187483835695436 l -10.494007059855813 11.534752038240823" fill="#ffb210" stroke="none" /><path d="M 114.65682725009322 84.96080404539774 l 10.88378261145536 -11.167719768269007 a36.5940594059406,36.5940594059406 0 0,0 0.4461130896745208,0.4423001801956034 l -11.073887621259843 10.979239577844744" fill="#ffb210" stroke="none" /><path d="M 116.35404254752997 86.82634096563983 l 9.372809434294778 -7.5500718139003835 a33.03549504950495,33.03549504950495 0 0,0 0.3519594868070876,0.444689313971449 l -9.501035351743425 7.388062556014256" fill="#ff810b" stroke="none" /><path d="M 116.57777611688842 87.10902102172516 l 9.875266337352391 -7.679066833939668 a33.509554455445546,33.509554455445546 0 0,0 0.34921427296725893,0.45713269324290356 l -10.005632587673956 7.508413227455883" fill="#ff870c" stroke="none" /><path d="M 117.01052211995028 87.68569379921539 l 12.631575831646252 -9.14428678276085 a36.5940594059406,36.5940594059406 0 0,0 0.3639974520666033,0.5120080009814584 l -12.786688382242815 8.926101555069888" fill="#ffb210" stroke="none" /><path d="M 117.81537515405839 88.88188828441811 l 16.77732086909171 -10.470289067599717 a40.77638613861386,40.77638613861386 0 0,0 0.3654962935725621,0.59701072743795 l -16.954585127119675 10.180741224037213" fill="#ffe815" stroke="none" /><line stroke="#e1ed5e" stroke-width="0.3" x1="172.87174338648825" x2="177.1583165268699" y1="56.24261187166439" y2="53.66864786411523" /><path d="M 173.72905801456457 55.72781907015455 a86.0,86.0 0 0,1 12.242430191666344,42.057860355516425" fill="none" id="id51" stroke="none" /><text fill="#e1ed5e" style="font-size:6.75px; font-family:Arial;" text-anchor="middle"><textPath startOffset="22.145653131862474" xlink:href="#id51">March</textPath></text><path d="M 118.00360718960297 89.18935116829356 l 16.064208712148716 -9.646095769439453 a39.737821782178216,39.737821782178216 0 0,0 0.3461472526732554,0.587833710056787 l -16.22742967495174 9.36891089108911" fill="#ffdb14" stroke="none" /><path d="M 118.70294669586156 90.45014215332178 l 13.888326754352638 -7.091478599018483 a36.5940594059406,36.5940594059406 0 0,0 0.2808682700468742,0.5619246862889101 l -14.00801493761125 6.852022056565823" fill="#ffb210" stroke="none" /><path d="M 119.4528033332814 92.08871423366111 l 14.445150990060446 -5.8747171532219475 a36.5940594059406,36.5940594059406 0 0,0 0.2316601307521,0.5839348610931931 l -14.54386979577867 5.625881274915189" fill="#ffb210" stroke="none" /><path d="M 119.58574465831526 92.42381321644754 l 12.199397984699143 -4.718989213398859 a34.08029702970297,34.08029702970297 0 0,0 0.206379431841337,0.5474459623106496 l -12.278608100354921 4.508874970894052" fill="#ff8f0d" stroke="none" /><path d="M 119.94978838288452 93.4421083053983 l 14.814199294221183 -4.869721555397295 a36.5940594059406,36.5940594059406 0 0,0 0.19104762399210634,0.5984539610922366 l -14.895611633990546 4.614698560613672" fill="#ffb210" stroke="none" /><path d="M 120.26092885502905 94.47779374421319 l 15.045244199279004 -4.100648209742683 a36.5940594059406,36.5940594059406 0 0,0 0.15998664731056905,0.6074953587167076 l -15.113420327394305 3.8417723466531775" fill="#ffb210" stroke="none" /><path d="M 120.43855184770803 95.1765574152323 l 15.177142461169336 -3.5817642956195845 a36.5940594059406,36.5940594059406 0 0,0 0.13903849867178925,0.6126292794725879 l -15.236391821398792 3.32070068220797" fill="#ffb210" stroke="none" /><path d="M 120.65975698304385 96.23510406497455 l 20.901128401261584 -3.8088818479297086 a42.245346534653464,42.245346534653464 0 0,0 0.12388987506859238,0.7145638769425147 l -20.96343309382241 3.4495249380666015" fill="#fffb17" stroke="none" /><line stroke="#e1ed5e" stroke-width="0.3" x1="184.99686870605535" x2="189.99668451229388" y1="99.2704041080226" y2="99.22748670261217" /><path d="M 185.99683186730306 99.26182062694052 a86.0,86.0 0 0,1 -10.086455211305974,41.156179273409016" fill="none" id="id52" stroke="none" /><text fill="#e1ed5e" style="font-size:6.75px; font-family:Arial;" text-anchor="middle"><textPath startOffset="21.40746469413373" xlink:href="#id52">April</textPath></text><path d="M 120.592083275326 104.11899336999214 l 11.226763025305207 2.245667028897196 a32.44915841584158,32.44915841584158 0 0,0 -0.11394643920985699,0.5452749606944814 l -11.186558875270986 -2.4380584408770867" fill="#ff790b" stroke="none" /><path d="M 120.26092885502905 105.52220625578681 l 15.045244199279006 4.100648209742678 a36.5940594059406,36.5940594059406 0 0,0 -0.17039153856310862,0.6046594593373318 l -14.972634168641319 -4.358315592983018" fill="#ffb210" stroke="none" /><path d="M 120.16314734710363 105.8691983318838 l 14.972634168641319 4.358315592983018 a36.5940594059406,36.5940594059406 0 0,0 -0.1807462146471404,0.6016453640399275 l -14.895611633990548 -4.61469856061367" fill="#ffb210" stroke="none" /><path d="M 119.31412917781788 108.2440532568976 l 10.09402285793185 4.308538130349903 a31.97509900990099,31.97509900990099 0 0,0 -0.21981528172297957,0.5029803821734824 l -10.018573694191904 -4.48118058229923" fill="#ff720a" stroke="none" /><line stroke="#e1ed5e" stroke-width="0.3" x1="174.33088141563837" x2="178.70328620479359" y1="141.23008692659167" y2="143.65538615756765" /><path d="M 175.20536237346943 141.71514677278685 a86.0,86.0 0 0,1 -30.301960400862466,31.631185727798858" fill="none" id="id53" stroke="none" /><text fill="#e1ed5e" style="font-size:6.75px; font-family:Arial;" text-anchor="middle"><textPath startOffset="22.145653131862474" xlink:href="#id53">May</textPath></text><path d="M 116.1254893667686 113.45245675266167 l 11.974373292154906 9.989448083659664 a36.5940594059406,36.5940594059406 0 0,0 -0.4065520477499787,0.4789172899888914 l -11.801126680897813 -10.193532156098112" fill="#ffb210" stroke="none" /><path d="M 113.31354834802062 116.24036423190432 l 9.886298278233138 12.059676409829947 a36.5940594059406,36.5940594059406 0 0,0 -0.48922638037104516,0.3940861415085245 l -9.67782112750684 -12.227610845131876" fill="#ffb210" stroke="none" /><line stroke="#e1ed5e" stroke-width="0.3" x1="143.1302829299769" x2="145.66735839644613" y1="173.24464959558577" y2="177.55315839532614" /><path d="M 143.63769802327073 174.10635135553383 a86.0,86.0 0 0,1 -40.68552437913181,11.842963189579606" fill="none" id="id54" stroke="none" /><text fill="#e1ed5e" style="font-size:6.75px; font-family:Arial;" text-anchor="middle"><textPath startOffset="21.407464694133747" xlink:href="#id54">June</textPath></text><path d="M 107.74402155503746 119.51999308798841 l 2.692389276288521 6.786579775096167 a28.301138613861387,28.301138613861387 0 0,0 -0.4531251335712203,0.17527853590188722 l -2.5754918802237716 -6.831798199136095" fill="#ff3d05" stroke="none" /><path d="M 106.0420521117495 120.11202640906438 l 4.494748370458405 14.961555487574781 a36.62212871287129,36.62212871287129 0 0,0 -0.6036372942491652,0.17571001885174203 l -4.237251063827633 -15.036509200729041" fill="#ffb210" stroke="none" /><path d="M 100.72087961077811 120.9876233191556 l 0.3314618725201532 9.650150761797887 a30.655841584158416,30.655841584158416 0 0,0 -0.52609319775653,0.013550294593161883 l -0.16575536069287938 -9.654418773741094" fill="#ff5f08" stroke="none" /><line stroke="#e1ed5e" stroke-width="0.3" x1="101.45913802915013" x2="101.54496967792366" y1="184.9874750549273" y2="189.98673829345242" /><path d="M 101.47630435890484 185.9873277026323 a86.0,86.0 0 0,1 -42.54439059252881,-10.42667462771756" fill="none" id="id55" stroke="none" /><text fill="#e1ed5e" style="font-size:6.75px; font-family:Arial;" text-anchor="middle"><textPath startOffset="22.145653131862474" xlink:href="#id55">July</textPath></text><path d="M 98.91894614982273 120.97215588758144 l -0.8027627600326241 15.573383084837708 a36.5940594059406,36.5940594059406 0 0,0 -0.6270751883632619,-0.0377232861668738 l 1.0699823005283324 -15.557307820846143" fill="#ffb210" stroke="none" /><path d="M 98.19965949673042 120.92268563240118 l -1.6066702105168715 18.67194326214338 a39.74094059405941,39.74094059405941 0 0,0 -0.6791924252713377,-0.06432022882689815 l 1.9269621991732246 -18.641611277811297" fill="#ffdb14" stroke="none" /><path d="M 96.41257539226777 120.69131181640829 l -3.7774515547754692 21.78733674925764 a43.112376237623764,43.112376237623764 0 0,0 -0.728117257407805,-0.13268721916169574 l 4.150903545734332 -21.71928135616458" fill="#f8ff18" stroke="none" /><path d="M 95.35216902796893 120.47920084513623 l -3.4513596326963443 15.207327360249684 a36.5940594059406,36.5940594059406 0 0,0 -0.6114132766512845,-0.144291868497663 l 3.7119050630875168 -15.145839348105794" fill="#ffb210" stroke="none" /><path d="M 93.27111125876986 119.89276391827306 l -4.996699560319405 14.771854394757224 a36.5940594059406,36.5940594059406 0 0,0 -0.5933364764363978,-0.20639322641512953 l 5.249541808800824 -14.683902735773504" fill="#ffb210" stroke="none" /><path d="M 92.93061703081489 119.77432235084164 l -5.249541808800824 14.683902735773504 a36.5940594059406,36.5940594059406 0 0,0 -0.5897060327611395,-0.21654822350955802 l 5.500836993216082 -14.591623663255227" fill="#ffb210" stroke="none" /><path d="M 92.25597844496254 119.51999308798841 l -1.1662036421001962 2.9395949986960765 a24.162475247524753,24.162475247524753 0 0,0 -0.38423575311939473,-0.15626533577149068 l 1.2164938564100318 -2.9191424063452946" fill="#ff0000" stroke="none" /><path d="M 90.93487009805054 118.94263497670748 l -6.73153210540802 14.066313101515462 a36.5940594059406,36.5940594059406 0 0,0 -0.564314813167087,-0.2760346532959315 l 6.972007167837176 -13.948684698122308" fill="#ffb210" stroke="none" /><path d="M 89.97174638481275 118.45085714620012 l -3.2929409024523277 6.0586403688487795 a27.89569306930693,27.89569306930693 0 0,0 -0.4187752078815494,-0.2322875485238777 l 3.3964602984899797 -6.001219904891753" fill="#ff3805" stroke="none" /><line stroke="#e1ed5e" stroke-width="0.3" x1="58.13341422392154" x2="55.67067388415222" y1="173.97424548756322" y2="178.32567169271397" /><path d="M 57.64086615596768 174.84453072859336 a86.0,86.0 0 0,1 -31.369924170532247,-30.572349798747897" fill="none" id="id56" stroke="none" /><text fill="#e1ed5e" style="font-size:6.75px; font-family:Arial;" text-anchor="middle"><textPath startOffset="22.145653131862474" xlink:href="#id56">August</textPath></text><path d="M 89.65649057296885 118.27599006163327 l -7.680823831953825 13.571279748737576 a36.5940594059406,36.5940594059406 0 0,0 -0.5440448084808877,-0.3141044166276613 l 7.912661108295112 -13.437428434833741" fill="#ffb210" stroke="none" /><path d="M 88.72937992617639 117.7192867562869 l -8.369272332047236 13.157886205163544 a36.5940594059406,36.5940594059406 0 0,0 -0.5271537497303594,-0.3416946916843024 l 8.593911714034606 -13.012277671775346" fill="#ffb210" stroke="none" /><path d="M 86.96720088162412 116.46651593811092 l -5.837661704112126 7.375694861783543 a30.406336633663365,30.406336633663365 0 0,0 -0.40650264696283667,-0.32744975758070927 l 5.9634151214302245 -7.274396810409423" fill="#ff5c08" stroke="none" /><path d="M 85.60350026404147 115.28858382429668 l -10.690470100959303 11.35290878041833 a36.5940594059406,36.5940594059406 0 0,0 -0.45364002463073927,-0.4345768818437375 l 10.883782611455356 -11.167719768269011" fill="#ffb210" stroke="none" /><path d="M 84.3458050057657 113.99807769240083 l -11.624402223441319 10.394612147822398 a36.5940594059406,36.5940594059406 0 0,0 -0.4147133934978982,-0.47186771391298193 l 11.80112668089781 -10.193532156098115" fill="#ffb210" stroke="none" /><path d="M 83.8745106332314 113.45245675266167 l -11.974373292154905 9.989448083659665 a36.5940594059406,36.5940594059406 0 0,0 -0.39827088924753606,-0.4858257269412361 l 12.14409100064107 -9.782420075019935" fill="#ffb210" stroke="none" /><path d="M 83.64595745247003 113.17365903436017 l -12.14409100064107 9.782420075019935 a36.5940594059406,36.5940594059406 0 0,0 -0.3898723584859916,-0.4925909888219428 l 12.310229789768623 -9.57250914228331" fill="#ffb210" stroke="none" /><line stroke="#e1ed5e" stroke-width="0.3" x1="26.387840678322732" x2="22.057713659400548" y1="142.50000000000003" y2="145.00000000000006" /><path d="M 25.521815274538298 143.00000000000003 a86.0,86.0 0 0,1 -11.493303480769221,-40.785679425670985" fill="none" id="id57" stroke="none" /><text fill="#e1ed5e" style="font-size:6.75px; font-family:Arial;" text-anchor="middle"><textPath startOffset="21.40746469413373" xlink:href="#id57">September</textPath></text><path d="M 81.29705330413844 109.54985784667822 l -13.888326754352638 7.091478599018482 a36.5940594059406,36.5940594059406 0 0,0 -0.2808682700468742,-0.5619246862889061 l 14.00801493761125 -6.852022056565824" fill="#ffb210" stroke="none" /><path d="M 80.68587082218212 108.24405325689762 l -14.34217513204298 6.121821725419024 a36.5940594059406,36.5940594059406 0 0,0 -0.24165001348097573,-0.5798720627557871 l 14.445150990060442 -5.8747171532219555" fill="#ffb210" stroke="none" /><path d="M 79.94057633289273 106.21446072829308 l -14.895611633990546 4.614698560613676 a36.5940594059406,36.5940594059406 0 0,0 -0.1807462146471404,-0.6016453640399275 l 14.972634168641317 -4.3583155929830255" fill="#ffb210" stroke="none" /><path d="M 79.17382384314188 102.69636545807758 l -15.464982294696634 2.0022515777803833 a36.5940594059406,36.5940594059406 0 0,0 -0.07531042394356047,-0.6236783451631855 l 15.497074804899857 -1.7364795556937986" fill="#ffb210" stroke="none" /><path d="M 79.01933749520258 100.90099992219065 l -15.57969987980007 0.6690593481613734 a36.5940594059406,36.5940594059406 0 0,0 -0.021564901866878504,-0.6278385884823258 l 15.588889468663796 -0.4015144951149276" fill="#ffb210" stroke="none" /><line stroke="#e1ed5e" stroke-width="0.3" x1="15.003131293944662" x2="10.003315487706104" y1="100.72959589197737" y2="100.7725132973878" /><path d="M 14.003168132696942 100.73817937305945 a86.0,86.0 0 0,1 10.791469493833604,-42.45332614584628" fill="none" id="id58" stroke="none" /><text fill="#e1ed5e" style="font-size:6.75px; font-family:Arial;" text-anchor="middle"><textPath startOffset="22.145653131862435" xlink:href="#id58">October</textPath></text><path d="M 79.00696218219943 99.45929381324524 l -15.588889468663796 -0.4015144951149219 a36.5940594059406,36.5940594059406 0 0,0 0.02156490186687444,-0.6278385884822933 l 15.579699879800073 0.6690593481613537" fill="#ffb210" stroke="none" /><path d="M 79.03789590574601 98.7389718711861 l -31.131837763743558 -1.872814052693927 a52.18811881188119,52.18811881188119 0 0,0 0.061472730173950475,-0.8938000053194498 l 31.095101072404542 2.4069574821677016" fill="#8cff24" stroke="none" /><path d="M 79.13060592940154 97.66154086499901 l -15.497074804899855 -1.7364795556938066 a36.5940594059406,36.5940594059406 0 0,0 0.07531042394354828,-0.623678345163121 l 15.464982294696638 2.002251577780364" fill="#ffb210" stroke="none" /><path d="M 79.64726062577567 94.8264132398404 l -15.113420327394309 -3.8417723466531672 a36.5940594059406,36.5940594059406 0 0,0 0.15998664731057716,-0.6074953587167319 l 15.045244199279004 4.100648209742683" fill="#ffb210" stroke="none" /><path d="M 80.5471966667186 92.08871423366112 l -14.44515099006045 -5.874717153221937 a36.5940594059406,36.5940594059406 0 0,0 0.2416500134809879,-0.5798720627558176 l 14.342175132042982 6.121821725419019" fill="#ffb210" stroke="none" /><line stroke="#e1ed5e" stroke-width="0.3" x1="26.387840678322718" x2="22.05771365940052" y1="57.49999999999999" y2="54.99999999999999" /><path d="M 25.521815274538284 56.99999999999999 a86.0,86.0 0 0,1 29.574782752854787,-30.34633250058573" fill="none" id="id59" stroke="none" /><text fill="#e1ed5e" style="font-size:6.75px; font-family:Arial;" text-anchor="middle"><textPath startOffset="21.40746469413373" xlink:href="#id59">November</textPath></text><path d="M 81.81346652052679 89.5 l -13.50485159366823 -7.797029702970301 a36.5940594059406,36.5940594059406 0 0,0 0.3187626437342459,-0.5413286572310019 l 13.369015239804204 8.027709528494876" fill="#ffb210" stroke="none" /><path d="M 83.2033758604659 87.39550010848427 l -12.472740697673844 -9.359777147165152 a36.5940594059406,36.5940594059406 0 0,0 0.3813589305509111,-0.499211081877271 l 12.310229789768627 9.572509142283307" fill="#ffb210" stroke="none" /><path d="M 86.13680546590413 84.22622945171909 l -10.294451386704859 -11.713195951693748 a36.5940594059406,36.5940594059406 0 0,0 0.47541001546275896,-0.410647848378326 l 10.091861891479251 11.888187932536786" fill="#ffb210" stroke="none" /><path d="M 86.68645165197937 83.75963576809568 l -9.886298278233145 -12.059676409829942 a36.5940594059406,36.5940594059406 0 0,0 0.4892263803710573,-0.3940861415085326 l 9.677821127506842 12.227610845131874" fill="#ffb210" stroke="none" /><path d="M 88.4268655584334 82.4767994020092 l -8.593911714034604 -13.012277671775347 a36.5940594059406,36.5940594059406 0 0,0 0.527153749730331,-0.34169469168428207 l 8.369272332047247 13.157886205163537" fill="#ffb210" stroke="none" /><line stroke="#e1ed5e" stroke-width="0.3" x1="56.869717070023135" x2="54.33264160355391" y1="26.7553504044142" y2="22.446841604673864" /><path d="M 56.362301976729285 25.89364864446614 a86.0,86.0 0 0,1 42.16139366436587,-11.88097634709845" fill="none" id="id60" stroke="none" /><text fill="#e1ed5e" style="font-size:6.75px; font-family:Arial;" text-anchor="middle"><textPath startOffset="22.145653131862474" xlink:href="#id60">December</textPath></text><path d="M 89.34428304082924 81.90426304109057 l -9.683514664331561 -16.444724918549525 a40.0840099009901,40.0840099009901 0 0,0 0.5959299909260677,-0.3440603406793346 l 9.399792205545094 16.608532156505035" fill="#ffdf14" stroke="none" /><path d="M 91.92203290615298 80.6158196554323 l -6.311611615949882 -15.145570216748116 a37.40806930693069,37.40806930693069 0 0,0 0.5948694219299191,-0.24192821517363175 l 6.050687732829522 15.251685688501038" fill="#ffbc11" stroke="none" /><path d="M 93.27111125876988 80.10723608172694 l -4.996699560319404 -14.771854394757224 a36.5940594059406,36.5940594059406 0 0,0 0.5967920611286541,-0.19617740428953442 l 4.742384761542989 14.855452720448787" fill="#ffb210" stroke="none" /><path d="M 93.95794788825049 79.88797359093562 l -4.48667236021003 -14.934673076037914 a36.5940594059406,36.5940594059406 0 0,0 0.6031746318894469,-0.17557534458174628 l 4.229637715938959 15.009492114922182" fill="#ffb210" stroke="none" /><path d="M 94.6519064749342 79.69241777938228 l -7.947478783931952 -30.177871440519947 a52.20683168316832,52.20683168316832 0 0,0 0.8686090784558397,-0.22079703107409715 l 7.428264412250734 30.309853703429305" fill="#8cff24" stroke="none" /><path d="M 98.1996594967304 79.07731436759882 l -1.337421266933837 -15.542862405931299 a36.60029702970297,36.60029702970297 0 0,0 0.6264419787100844,-0.048490571048125805 l 1.0704102934485353 15.563530743974479" fill="#ffb210" stroke="none" /></svg>