<?xml version="1.0" encoding="utf-8" ?>
<svg baseProfile="full" height="200mm" version="1.1" viewBox="0,0,200,200" width="200mm" xmlns="http://www.w3.org/2000/svg" xmlns:ev="http://www.w3.org/2001/xml-events" xmlns:xlink="http://www.w3.org/1999/xlink"><defs /><rect fill="#1a1a1a" height="200" width="200" x="0" y="0" /><text alignment-baseline="middle" fill="#e1ed5e" style="dominant-baseline: central; font-size:9.0px; font-family:Arial;" text-anchor="middle" x="100.0" y="100.0">2023</text><line stroke="#e1ed5e" stroke-width="0.3" x1="100.0" x2="100.0" y1="15.0" y2="10.0" /><path d="M 100.0 14.0 a86.0,86.0 0 0,1 42.46469731375804,11.215312516191453" fill="none" id="id85" stroke="none" /><text fill="#e1ed5e" style="font-size:6.75px; font-family:Arial;" text-anchor="middle"><textPath startOffset="22.20632615414155" xlink:href="#id85">January</textPath></text><path d="M 109.08828744355905 81.06846463323043 l 8.359886042673413 -17.414224545813525 a40.31690739167375,40.31690739167375 0 0,0 0.6230473749465543,0.3057266410212331 l -8.658404684630398 17.26774274465746" fill="#ffbf11" stroke="none" /><line stroke="#e1ed5e" stroke-width="0.3" x1="143.23703022742887" x2="145.7803849466894" y1="26.81831364943548" y2="22.513508569990506" /><path d="M 143.74570117128098 25.957352633546492 a86.0,86.0 0 0,1 28.547481713284135,27.462654790039103" fill="none" id="id86" stroke="none" /><text fill="#e1ed5e" style="font-size:6.75px; font-family:Arial;" text-anchor="middle"><textPath startOffset="19.985693538727396" xlink:href="#id86">February</textPath></text><path d="M 111.60114157652 82.49532879139004 l 8.218707350230758 -12.401001140849004 a35.877230246389125,35.877230246389125 0 0,0 0.5118404647387529,0.34559696659820804 l -8.430952509376054 12.257692261952126" fill="#ff7f0b" stroke="none" /><path d="M 111.90073688211348 82.69761687909136 l 8.520267017270701 -12.387545887753335 a36.03483432455395,36.03483432455395 0 0,0 0.5080377301791728,0.3559128965429947 l -8.732235887033525 12.239048148446406" fill="#ff810b" stroke="none" /><path d="M 112.77801427241765 83.33499621200491 l 9.059688114131289 -11.815586797860584 a35.88912489379779,35.88912489379779 0 0,0 0.4870110580261733,0.3801198556308282 l -9.261731727316892 11.657888553006533" fill="#ff7f0b" stroke="none" /><path d="M 113.06298171725822 83.55741782278167 l 9.289478077608432 -11.692813323986178 a35.933729821580286,35.933729821580286 0 0,0 0.4809928252260958,0.3889294138573006 l -9.48937430139902 11.531177812864748" fill="#ff800b" stroke="none" /><path d="M 113.89432698308785 84.25364557470407 l 12.50332030267959 -14.16993519863434 a39.89762107051827,39.89762107051827 0 0,0 0.5110486518584823,0.45882452553700603 l -12.745379942134063 13.952611664328037" fill="#ffb911" stroke="none" /><path d="M 115.4437574822437 85.77008943001954 l 13.125663042824502 -12.094013486409338 a38.84791843670348,38.84791843670348 0 0,0 0.44889021226169784,0.49567578407117124 l -13.331896895702236 11.866284915068618" fill="#ffaa0f" stroke="none" /><path d="M 115.68641384162765 86.03803664274999 l 11.119539463493071 -9.897138001471763 a35.886151231945625,35.886151231945625 0 0,0 0.40672361800375645,0.46495540466480123 l -11.288254945074675 9.704267040604014" fill="#ff7f0b" stroke="none" /><path d="M 116.60985879189232 87.15038557335679 l 11.771784657805306 -9.106813962807882 a35.88317757009346,35.88317757009346 0 0,0 0.3737387750376129,0.4917964187827199 l -11.926799373067032 8.90283276814413" fill="#ff7f0b" stroke="none" /><path d="M 117.04232023915458 87.72973835380427 l 12.083106405755734 -8.699688482370725 a35.88912489379779,35.88912489379779 0 0,0 0.35664797388656716,0.504453266425317 l -12.231066999446185 8.490408715613615" fill="#ff7f0b" stroke="none" /><path d="M 117.2510076193507 88.02491185347247 l 19.57654702088311 -13.589401926688138 a44.83092608326253,44.83092608326253 0 0,0 0.43459427295074704,0.6377134694385942 l -19.807565759502587 13.250410433979138" fill="#fffd17" stroke="none" /><path d="M 117.65298651832404 88.62581576622439 l 12.541069578367557 -8.080470447585984 a35.91886151231945,35.91886151231945 0 0,0 0.3304063246877798,0.5226234584055655 l -12.678303499301292 7.863399341466213" fill="#ff7f0b" stroke="none" /><line stroke="#e1ed5e" stroke-width="0.3" x1="172.23445277983987" x2="176.4835382374775" y1="55.19839476539836" y2="52.563006222186495" /><path d="M 173.08426987136738 54.67131705675599 a86.0,86.0 0 0,1 12.851231095245387,41.99856678651699" fill="none" id="id87" stroke="none" /><text fill="#e1ed5e" style="font-size:6.75px; font-family:Arial;" text-anchor="middle"><textPath startOffset="22.20632615414155" xlink:href="#id87">March</textPath></text><path d="M 119.196687751892 91.48605970444005 l 13.632312245219257 -6.046079096889423 a35.91291418861512,35.91291418861512 0 0,0 0.2457628288345999,0.567254493178646 l -13.734365783896537 5.810525459124174" fill="#ff7f0b" stroke="none" /><path d="M 119.61058180528143 92.48833698450437 l 13.901242214279076 -5.324750078670511 a35.886151231945625,35.886151231945625 0 0,0 0.21599261200260358,0.5787528153964892 l -13.990839414783306 5.084674126244689" fill="#ff7f0b" stroke="none" /><path d="M 120.37134235888165 94.90015583598534 l 14.454941455728683 -3.6187084545280945 a35.90101954120646,35.90101954120646 0 0,0 0.14491566163284156,0.6007689745363906 l -14.515089917622344 3.369354248332298" fill="#ff7f0b" stroke="none" /><path d="M 120.78858239683441 97.02765380044208 l 14.748059729275052 -2.1086738119208643 a35.89804587935429,35.89804587935429 0 0,0 0.08219627008974816,0.6124576854425618 l -14.782171998422637 1.8544977844136379" fill="#ff7f0b" stroke="none" /><path d="M 120.83666639777658 97.38593545837742 l 14.82938053175093 -1.860420332228132 a35.94562446898895,35.94562446898895 0 0,0 0.07173659202670875,0.6145953116863749 l -14.859207476781227 1.6048812822169045" fill="#ff800b" stroke="none" /><path d="M 120.98425023603335 99.18683210126433 l 14.886872512394097 -0.5768863172848624 a35.89804587935429,35.89804587935429 0 0,0 0.01861280437998482,0.617668363110367 l -14.894597011229727 0.3205478067494964" fill="#ff7f0b" stroke="none" /><line stroke="#e1ed5e" stroke-width="0.3" x1="184.98032266829074" x2="189.97916517819016" y1="98.17113171792111" y2="98.06355123074" /><path d="M 185.9800911702706 98.14961562048488 a86.0,86.0 0 0,1 -9.607161424134198,41.387399972396054" fill="none" id="id88" stroke="none" /><text fill="#e1ed5e" style="font-size:6.75px; font-family:Arial;" text-anchor="middle"><textPath startOffset="21.466115282336823" xlink:href="#id88">April</textPath></text><path d="M 120.99513854157772 99.54816195383933 l 14.873786197042378 -0.3200999355624212 a35.877230246389125,35.877230246389125 0 0,0 0.007973275152189447,0.617538947394579 l -14.877092479312283 0.06402473010737945" fill="#ff7f0b" stroke="none" /><path d="M 120.9904718944345 100.63252640178507 l 15.200406863231105 0.4580487140652578 a36.20730671197961,36.20730671197961 0 0,0 -0.024134527103334736,0.6228049051766442 l -15.190270203276569 -0.7196308662559081" fill="#ff840c" stroke="none" /><path d="M 120.9764740272857 100.99374915477107 l 18.95367895328662 0.8979203280365564 a39.9749362786746,39.9749362786746 0 0,0 -0.03847806358240493,0.6870516733648973 l -18.935414538816683 -1.224043717736877" fill="#ffba11" stroke="none" /><path d="M 120.92983693683757 101.71520430193887 l 18.680368481009236 1.5308599143473096 a39.742990654205606,39.742990654205606 0 0,0 -0.06174433882142284,0.6813436338216304 l -18.651249545910737 -1.8521849367175107" fill="#ffb711" stroke="none" /><path d="M 120.89721153311464 102.0752229133903 l 29.66208558594467 2.9456293520000525 a50.80798640611725,50.80798640611725 0 0,0 -0.09391662369768161,0.869551294856479 l -29.60698666074594 -3.455776968741323" fill="#b4ff20" stroke="none" /><path d="M 120.49622156327973 104.57218783832717 l 14.514529033979318 3.237823758067709 a35.87128292268479,35.87128292268479 0 0,0 -0.13962373168787046,0.6014953818187853 l -14.456644736360895 -3.4871877972350593" fill="#ff7f0b" stroke="none" /><path d="M 120.41448212921028 104.9243191809786 l 14.500005998317583 3.497647268732464 a35.915887850467286,35.915887850467286 0 0,0 -0.15014326620564356,0.5997477139278181 l -14.437651417816879 -3.746722822057678" fill="#ff7f0b" stroke="none" /><path d="M 120.13307415673323 105.97154293290107 l 14.322934659222275 4.248234451273719 a35.93967714528462,35.93967714528462 0 0,0 -0.1810216974640159,0.5915893811577226 l -14.247686189252127 -4.494150804983499" fill="#ff800b" stroke="none" /><path d="M 119.9155931802556 106.66101706037122 l 14.218977742119622 4.75571339824295 a35.99320305862362,35.99320305862362 0 0,0 -0.20157765254363277,0.5858790146993923 l -14.135009258632758 -4.999765116031643" fill="#ff810b" stroke="none" /><path d="M 119.79798401119884 107.00284435728193 l 14.095760918763485 4.985882388617036 a35.95157179269329,35.95157179269329 0 0,0 -0.21138794738697375,0.5816488436980848 l -14.007848710371285 -5.227779029321252" fill="#ff800b" stroke="none" /><path d="M 119.54520255179757 107.68017299344265 l 17.01279525430468 6.685078361751906 a39.27909940526763,39.27909940526763 0 0,0 -0.25269064971312705,0.6271574695786287 l -16.89520199033416 -6.976935199173348" fill="#ffb010" stroke="none" /><path d="M 118.81262510543309 109.33194174019688 l 10.703643114362807 5.309507492510769 a32.9481733220051,32.9481733220051 0 0,0 -0.2564016339235541,0.5059047485604853 l -10.610662810652984 -5.492966452773949" fill="#ff5307" stroke="none" /><path d="M 118.64920377521936 109.65438752849418 l 13.314823765881622 6.892866315302701 a35.99320305862362,35.99320305862362 0 0,0 -0.2895695894145985,0.5477565360234254 l -13.19420166824213 -7.121037866412261" fill="#ff810b" stroke="none" /><line stroke="#e1ed5e" stroke-width="0.3" x1="174.80103733775053" x2="179.2010983576182" y1="140.37084112569926" y2="142.7455964860345" /><path d="M 175.68104954172406 140.8457921977663 a86.0,86.0 0 0,1 -30.038265399797805,32.042727171017184" fill="none" id="id89" stroke="none" /><text fill="#e1ed5e" style="font-size:6.75px; font-family:Arial;" text-anchor="middle"><textPath startOffset="22.206326154141568" xlink:href="#id89">May</textPath></text><path d="M 118.48025628344425 109.97397251340804 l 15.714236615984523 8.481125027331538 a38.85683942225998,38.85683942225998 0 0,0 -0.3227404499712722,0.5858676629985672 l -15.565919756561742 -8.750363208727912" fill="#ffaa0f" stroke="none" /><path d="M 118.30583269289576 110.29060199501025 l 28.82740942759753 16.205293795880618 a54.070093457943926,54.070093457943926 0 0,0 -0.46306658934597605,0.807395630523684 l -28.544190842099173 -16.699109272262618" fill="#8cff24" stroke="none" /><path d="M 118.12598468904814 110.60418214915192 l 12.889931337921231 7.5409519616314045 a35.933729821580286,35.933729821580286 0 0,0 -0.31693399859283805,0.5311996116511353 l -12.758216463630166 -7.761713667168643" fill="#ff800b" stroke="none" /><path d="M 117.75023020441432 111.22182372390056 l 12.647855903230374 7.996065842348849 a35.96346644010195,35.96346644010195 0 0,0 -0.33530818214641084,0.5204057449093668 l -12.508342857706912 -8.21259318717967" fill="#ff800b" stroke="none" /><path d="M 117.35343817320211 111.8261652097733 l 14.763446126394536 10.061115913384016 a38.86576040781648,38.86576040781648 0 0,0 -0.38151202823433583,0.5495965311831852 l -14.588073190998065 -10.313753706754222" fill="#ffaa0f" stroke="none" /><path d="M 117.14729908036423 112.12312394758627 l 12.18910243322408 8.61768368973139 a35.92778249787595,35.92778249787595 0 0,0 -0.3613654132707401,0.5019049531208486 l -12.038957227577738 -8.826222248303369" fill="#ff800b" stroke="none" /><path d="M 116.498646956653 112.99209946851258 l 11.685957530045073 9.202277193642011 a35.87425658453696,35.87425658453696 0 0,0 -0.38621556343390573,0.48186329874143136 l -11.525824054556313 -9.402068325961693" fill="#ff7f0b" stroke="none" /><path d="M 116.27256486870786 113.27417163493432 l 11.558083458147632 9.428383591168302 a35.915887850467286,35.915887850467286 0 0,0 -0.394910579621323,0.4756952331605607 l -11.394076878632765 -9.625940081442632" fill="#ff7f0b" stroke="none" /><path d="M 115.80600337817218 113.82643327865902 l 11.2222176349696 9.816728470574393 a35.90994052676296,35.90994052676296 0 0,0 -0.410982686441046,0.4617434050140607 l -11.051576098880215 -10.00844604532932" fill="#ff7f0b" stroke="none" /><path d="M 115.56566222782051 114.09645910891815 l 13.25792386014449 12.006542274163511 a38.88657604078165,38.88657604078165 0 0,0 -0.453590784854141,0.49228321169115613 l -13.049286667294629 -12.232976740656003" fill="#ffab0f" stroke="none" /><path d="M 115.07121518719521 114.62390073753431 l 12.828246175337064 12.447503162463716 a38.87468139337298,38.87468139337298 0 0,0 -0.4701233232298192,0.4762324443770562 l -12.61208222705171 -12.666476100821438" fill="#ffaa0f" stroke="none" /><path d="M 114.29624159901734 115.38237550388516 l 10.128022758408914 10.897482957510258 a35.877230246389125,35.877230246389125 0 0,0 -0.45598328174487207,0.4165299166146809 l -9.938939927197177 -11.070205640711523" fill="#ff7f0b" stroke="none" /><path d="M 114.0293411484842 115.62618273729858 l 9.93298013911371 11.063567500211395 a35.868309260832625,35.868309260832625 0 0,0 -0.4629704530219115,0.40851759614027927 l -9.74106733318521 -11.232908238123963" fill="#ff7f0b" stroke="none" /><path d="M 113.75828350139079 115.86535959552629 l 9.815099444917418 11.318278340733706 a35.981308411214954,35.981308411214954 0 0,0 -0.47141429246923366,0.4017494871569447 l -9.618819675871137 -11.485552218113597" fill="#ff800b" stroke="none" /><path d="M 112.92097659922987 116.55440617244103 l 9.148241715682442 11.720763361966181 a35.868309260832625,35.868309260832625 0 0,0 -0.48998035640207854,0.37569604345486346 l -8.945132630786869 -11.876498747248416" fill="#ff7f0b" stroke="none" /><path d="M 112.63410532772338 116.77436683061366 l 5.376024711102908 7.137775747096297 a29.935853865760407,29.935853865760407 0 0,0 -0.4142766217496903,0.30647194081517204 l -5.252363118934653 -7.229257636651239" fill="#ff2403" stroke="none" /><path d="M 112.04921762599082 117.19931262002967 l 17.068871867801217 24.36447514171295 a50.74851316907392,50.74851316907392 0 0,0 -0.7197664410968385,0.4950619213672194 l -16.646948542081496 -24.654677852445264" fill="#b5ff20" stroke="none" /><path d="M 111.45004920935366 117.60387380957326 l 8.110046183119096 12.468787425019181 a35.87425658453696,35.87425658453696 0 0,0 -0.5205494675879114,0.33223929916023365 l -7.894214913484254 -12.606541153003224" fill="#ff7f0b" stroke="none" /><line stroke="#e1ed5e" stroke-width="0.3" x1="143.8653032363475" x2="146.44561519142675" y1="172.8068346515853" y2="177.08958963109032" /><path d="M 144.38136562736335 173.6633856474863 a86.0,86.0 0 0,1 -40.68145358897372,12.25698825130547" fill="none" id="id90" stroke="none" /><text fill="#e1ed5e" style="font-size:6.75px; font-family:Arial;" text-anchor="middle"><textPath startOffset="21.466115282336833" xlink:href="#id90">June</textPath></text><path d="M 110.8373102113329 117.98757091392108 l 9.756955299299724 16.19441742717505 a39.90654205607477,39.90654205607477 0 0,0 -0.5914380020955979,0.3494319965757408 l -9.476749426175743 -16.359967996044542" fill="#ffb911" stroke="none" /><path d="M 110.5260780823613 118.17145234162733 l 7.455599344091076 12.870802125859514 a35.87425658453696,35.87425658453696 0 0,0 -0.5370055615778326,0.3049257728481453 l -7.232945015592044 -12.997231064502287" fill="#ff7f0b" stroke="none" /><path d="M 109.89434966115114 118.52300852407294 l 15.544861156962886 29.101214893031596 a53.9927782497876,53.9927782497876 0 0,0 -0.8235418129179297,0.4308381535288555 l -15.04162844151846 -29.36448246550517" fill="#8dff24" stroke="none" /><path d="M 108.92500713936063 119.00905698771935 l 6.325355527116956 13.472150980392996 a35.88317757009346,35.88317757009346 0 0,0 -0.5613701069207802,0.25769748262230596 l -6.092517424428757 -13.579035533349376" fill="#ff7f0b" stroke="none" /><path d="M 108.2653958097858 119.30500536409082 l 6.550753376857991 15.300214531693051 a37.64358538657604,37.64358538657604 0 0,0 -0.597867147298448,0.24990851605921263 l -6.286414770062082 -15.410708090772236" fill="#ff990e" stroke="none" /><path d="M 107.93186726928326 119.44442032107085 l 23.695639164552396 58.08820950348792 a83.73534409515719,83.73534409515719 0 0,0 -1.3392827272354983,0.5329282368124477 l -22.69223536127503 -58.487484584706436" fill="#4dd5ff" stroke="none" /><path d="M 107.2578585660854 119.70592522655815 l 5.1407262174397035 13.957666097882164 a35.87425658453696,35.87425658453696 0 0,0 -0.5813003710794221,0.20843363139251217 l -4.899706285730547 -14.044087270314638" fill="#ff7f0b" stroke="none" /><path d="M 106.57524785965236 119.94407469862006 l 4.659096614231158 14.131995156031548 a35.88020390824129,35.88020390824129 0 0,0 -0.5882280161615284,0.1883320351464147 l -4.415147252978689 -14.21010003783767" fill="#ff7f0b" stroke="none" /><path d="M 106.2309692047433 120.05430185196036 l 1.9772871690498086 6.3638757363697485 a27.663976210705183,27.663976210705183 0 0,0 -0.45596164157213154,0.13737750229530374 l -1.8674505530374312 -6.396968607770777" fill="#ff0000" stroke="none" /><path d="M 105.53697534728816 120.25689768951611 l 3.921044139307289 14.345050317936856 a35.87128292268479,35.87128292268479 0 0,0 -0.5970169623852883,0.15767760596868685 l -3.673536734110503 -14.410419273209126" fill="#ff7f0b" stroke="none" /><path d="M 105.18746579009965 120.34920634021253 l 3.7300978875851105 14.632295354800231 a36.10025488530162,36.10025488530162 0 0,0 -0.6034702808294276,0.1483183126688865 l -3.4776743220124717 -14.694334925783147" fill="#ff820c" stroke="none" /><path d="M 104.83641907484287 120.43548508189849 l 4.2721016976592745 18.051055783189298 a39.54970263381478,39.54970263381478 0 0,0 -0.6638320607582745,0.15108601577694666 l -3.9607494875081377 -18.12191853254393" fill="#ffb410" stroke="none" /><path d="M 104.48393922423573 120.51570834832081 l 3.1791395774211684 14.545759232518028 a35.88912489379779,35.88912489379779 0 0,0 -0.6046608966311012,0.12671256989682447 l -2.9282872193606893 -14.598327783141395" fill="#ff7f0b" stroke="none" /><path d="M 102.34483914955558 120.86867818915974 l 1.6628369386822976 14.798972015195693 a35.89209855564996,35.89209855564996 0 0,0 -0.614553746668136,0.06370100860082074 l -1.4078505954085592 -14.825402392252272" fill="#ff7f0b" stroke="none" /><path d="M 101.62511606390274 120.93702456842531 l 1.1519868331771566 14.841510193930493 a35.886151231945625,35.886151231945625 0 0,0 -0.6162801193599361,0.04250228524178288 l -0.8963439530382901 -14.859140823688561" fill="#ff7f0b" stroke="none" /><path d="M 101.26447882468166 120.96189622390904 l 1.2553470744609374 20.81051464540162 a41.84834324553951,41.84834324553951 0 0,0 -0.7194167251794253,0.03718562722111764 l -0.8969422808680323 -20.82904007938494" fill="#ffd413" stroke="none" /><line stroke="#e1ed5e" stroke-width="0.3" x1="102.19456741930631" x2="102.32365962044197" y1="184.97166512339345" y2="189.96999836594603" /><path d="M 102.22038585953345 185.97133177190398 a86.0,86.0 0 0,1 -42.740103519485714,-10.115201625700543" fill="none" id="id91" stroke="none" /><text fill="#e1ed5e" style="font-size:6.75px; font-family:Arial;" text-anchor="middle"><textPath startOffset="22.20632615414155" xlink:href="#id91">July</textPath></text><path d="M 100.54218724476979 120.99299961872073 l 0.38779209477941573 15.014959087249853 a36.01996601529312,36.01996601529312 0 0,0 -0.6199556041249099,0.010673097949240873 l -0.12927680076183787 -15.019409662478253" fill="#ff810b" stroke="none" /><path d="M 100.18074693466247 120.99922214144158 l 0.0798542107259818 9.277481319923211 a30.277824978759558,30.277824978759558 0 0,0 -0.5212022907768681,0.0 l 0.0798542107259754 -9.277481319923211" fill="#ff2a04" stroke="none" /><path d="M 99.81925306533755 120.99922214144158 l -0.13252727664714767 15.39705072902641 a36.39762107051827,36.39762107051827 0 0,0 -0.6264555927093945,-0.01078500114742081 l 0.39754255924921017 -15.392488250599829" fill="#ff870c" stroke="none" /><path d="M 99.45781275523022 120.99299961872073 l -0.38464430703718483 14.893079593569938 a35.89804587935429,35.89804587935429 0 0,0 -0.6175825424219357,-0.02127079147553042 l 0.6409472011337635 -14.884252003668314" fill="#ff7f0b" stroke="none" /><path d="M 98.73552117531835 120.96189622390904 l -0.7523845966174295 12.472654762512855 a33.49532710280374,33.49532710280374 0 0,0 -0.5752220139600867,-0.039670677905489095 l 0.9669693713564463 -12.45785574009108" fill="#ff5b08" stroke="none" /><path d="M 98.37488393609728 120.93702456842531 l -1.150606105850126 14.823721727857063 a35.868309260832625,35.868309260832625 0 0,0 -0.6151512092044072,-0.05307783475145312 l 1.405601632796075 -14.801719640826947" fill="#ff7f0b" stroke="none" /><path d="M 97.65516085044442 120.86867818915974 l -1.8517654966116526 16.48040473816821 a37.584112149532714,37.584112149532714 0 0,0 -0.6422812942584949,-0.07777132008500696 l 2.1351742139215366 -16.446087889357855" fill="#ff980e" stroke="none" /><path d="M 96.93821686468263 120.77559828337769 l -2.415782445481216 16.392188280229472 a37.56924384027188,37.56924384027188 0 0,0 -0.6389707871948449,-0.09979409586188981 l 2.6975890962845783 -16.348175877020477" fill="#ff980e" stroke="none" /><path d="M 96.58105272829116 120.7198165907248 l -2.421149151205882 14.672869267943177 a35.87128292268479,35.87128292268479 0 0,0 -0.6083616336919656,-0.10577146804037135 l 2.6733597563698974 -14.629019221381801" fill="#ff7f0b" stroke="none" /><path d="M 95.51606077576429 120.51570834832081 l -4.151866126773907 18.996349035637188 a40.44477485131691,40.44477485131691 0 0,0 -0.6788556284491185,-0.15450533087084148 l 4.478241904615889 -18.92206697118866" fill="#ffc111" stroke="none" /><path d="M 95.16358092515715 120.4354850818985 l -6.852620966139559 28.954611120005158 a50.75446049277825,50.75446049277825 0 0,0 -0.848437459077157,-0.20852528506034224 l 7.350011709959927 -28.832364576630784" fill="#b5ff20" stroke="none" /><path d="M 94.11515582081647 120.15858648285463 l -4.4398824393500265 15.208857091567474 a36.843670348343245,36.843670348343245 0 0,0 -0.6072626829064506,-0.1829632649079666 l 4.701020096696723 -15.13017845755378" fill="#ff8d0d" stroke="none" /><path d="M 92.7421414339146 119.70592522655815 l -10.298923915426478 27.962769285661178 a50.79906542056075,50.79906542056075 0 0,0 -0.8179369893446738,-0.30927378128411004 l 10.778731125531435 -27.781347254270433" fill="#b4ff20" stroke="none" /><path d="M 92.06813273071674 119.44442032107085 l -5.722580534834069 14.028507722437832 a36.150807136788444,36.150807136788444 0 0,0 -0.5741583782057987,-0.23999824865564798 l 5.96321037253733 -13.92792443076221" fill="#ff830c" stroke="none" /><path d="M 91.07499286063937 119.00905698771935 l -9.129743921656926 19.445118617853947 a42.48173322005098,42.48173322005098 0 0,0 -0.6592504141813286,-0.31648026138873575 l 9.463107003838497 -19.28508407996565" fill="#ffdd14" stroke="none" /><path d="M 90.42595943632237 118.69057910512821 l -8.183079700135682 15.975125386371271 a38.94902293967715,38.94902293967715 0 0,0 -0.5940822088229908,-0.3107957335970122 l 8.456852811485168 -15.831900233829542" fill="#ffac0f" stroke="none" /><line stroke="#e1ed5e" stroke-width="0.3" x1="58.666819895761336" x2="56.23545636021788" y1="174.27360380694188" y2="178.64263932499728" /><path d="M 58.180547188652646 175.14741091055294 a86.0,86.0 0 0,1 -31.652253787137756,-30.449443065178592" fill="none" id="id92" stroke="none" /><text fill="#e1ed5e" style="font-size:6.75px; font-family:Arial;" text-anchor="middle"><textPath startOffset="22.20632615414155" xlink:href="#id92">August</textPath></text><path d="M 89.7882731507175 118.34994917583269 l -7.298015492541597 13.114159372759506 a36.008071367884455,36.008071367884455 0 0,0 -0.5390086492992214,-0.3060631783337281 l 7.522672908762026 -12.986593028631145" fill="#ff810b" stroke="none" /><path d="M 89.1626897886671 117.98757091392108 l -9.529835232565468 15.817447660075034 a39.46644010195412,39.46644010195412 0 0,0 -0.5788802121917869,-0.3555955066912724 l 9.800694644689564 -15.651063686555384" fill="#ffb310" stroke="none" /><path d="M 88.54995079064634 117.60387380957326 l -8.491065945820615 13.054586114519282 a36.57306711979609,36.57306711979609 0 0,0 -0.5247804984702931,-0.34779589898015784 l 8.71452114303087 -12.906492194447805" fill="#ff890c" stroke="none" /><path d="M 88.24862548938628 117.40417183066458 l -18.37753895429309 27.21773912459071 a53.8411214953271,53.8411214953271 0 0,0 -0.7636289219793186,-0.5252309356776379 l 18.8433247608953 -26.89736739954797" fill="#8fff24" stroke="none" /><path d="M 87.65650970185807 116.9893568818739 l -10.698740316472215 14.725552743408404 a39.2017841971113,39.2017841971113 0 0,0 -0.5425060797185028,-0.40133302828712203 l 10.950631366609281 -14.539209766381514" fill="#ffaf10" stroke="none" /><path d="M 87.07902340077011 116.55440617244103 l -12.844131368818154 16.45595176020052 a41.87510620220901,41.87510620220901 0 0,0 -0.564401669152388,-0.4483948205862009 l 13.1254905306879 -16.23242302560919" fill="#ffd513" stroke="none" /><path d="M 86.51685102203217 116.09983520530335 l -9.718100863474408 11.604100990511753 a36.13593882752761,36.13593882752761 0 0,0 -0.4734402051310689,-0.4034760138786028 l 9.916406545182534 -11.435100586410199" fill="#ff830c" stroke="none" /><path d="M 85.97065885151581 115.62618273729859 l -13.115506975685731 14.608334527279135 a40.6321155480034,40.6321155480034 0 0,0 -0.5164157117084252,-0.47173350854729906 l 13.36502223686101 -14.38040825214526" fill="#ffc312" stroke="none" /><path d="M 85.70375840098266 115.38237550388516 l -12.53502237059124 13.487350484290129 a39.41291418861512,39.41291418861512 0 0,0 -0.4929695342656629,-0.4661334642550882 l 12.765327739247718 -13.26958238328911" fill="#ffb210" stroke="none" /><path d="M 85.18274418774928 114.88116024355367 l -10.50762066096738 10.552938331877193 a35.89209855564996,35.89209855564996 0 0,0 -0.43405404355419336,-0.4396944544963718 l 10.687715329577108 -10.370503383400157" fill="#ff7f0b" stroke="none" /><path d="M 84.67929136418377 114.36230785411682 l -14.526687202694067 13.617957149697855 a40.91163976210705,40.91163976210705 0 0,0 -0.477212053072042,-0.5179194330845521 l 14.758945663761837 -13.365886461811959" fill="#ffc712" stroke="none" /><path d="M 84.43433777217949 114.09645910891817 l -16.01530752582042 14.503663535174091 a42.60662701784197,42.60662701784197 0 0,0 -0.48762503571772997,-0.5478518969063861 l 16.262591411186488 -14.22583746852684" fill="#ffdf14" stroke="none" /><path d="M 84.19399662182784 113.82643327865904 l -11.193121338748089 9.791276242788703 a35.87128292268479,35.87128292268479 0 0,0 -0.402539833906499,-0.46824476816970545 l 11.360003682225367 -9.597154375457468" fill="#ff7f0b" stroke="none" /><path d="M 83.95833913139862 113.55231037782056 l -17.649915739030412 14.91099570032084 a44.1053525913339,44.1053525913339 0 0,0 -0.48495725425928465,-0.5841622535384727 l 17.903968993183234 -14.604972189668606" fill="#fff316" stroke="none" /><path d="M 83.72743513129214 113.27417163493432 l -13.926845378996072 11.360675922053675 a38.97281223449448,38.97281223449448 0 0,0 -0.41957403633658913,-0.5234831227872174 l 14.12033732738752 -11.119264965688199" fill="#ffac0f" stroke="none" /><path d="M 83.28015986056508 112.70617746262583 l -23.70893219432191 18.017510777504267 a50.778249787595584,50.778249787595584 0 0,0 -0.5228678292147731,-0.7004669030726504 l 24.01556129023177 -17.60673099492231" fill="#b4ff20" stroke="none" /><path d="M 82.85270091963577 112.12312394758628 l -32.21370955808443 22.775061655710452 a60.45157179269329,60.45157179269329 0 0,0 -0.5934015319032824,-0.8548391646842568 l 32.60097199714985 -22.217181228839184" fill="#43ff2d" stroke="none" /><path d="M 82.44556493220864 111.52570212397912 l -14.203630979518529 9.325667224074861 a37.99150382327952,37.99150382327952 0 0,0 -0.35421674674240505,-0.5497522570664934 l 14.36205258963798 -9.07979336708692" fill="#ff9e0e" stroke="none" /><path d="M 82.24976979558568 111.22182372390057 l -9.144057984092228 5.780939494130595 a31.81818181818182,31.81818181818182 0 0,0 -0.2886899398970365,-0.465460103992024 l 9.242212563657219 -5.622683058773307" fill="#ff4106" stroke="none" /><path d="M 82.05923443525364 110.91462005526583 l -13.718512326484053 8.34592867437489 a37.05777400169924,37.05777400169924 0 0,0 -0.32684802138893154,-0.5478160841109152 l 13.860141223571215 -8.108550496377864" fill="#ff900d" stroke="none" /><line stroke="#e1ed5e" stroke-width="0.3" x1="26.63291911575756" x2="22.317208475507996" y1="142.92168965132927" y2="145.44649492493687" /><path d="M 25.769776987707644 143.4266507060508 a86.0,86.0 0 0,1 -11.730757126820373,-40.83630448921669" fill="none" id="id93" stroke="none" /><text fill="#e1ed5e" style="font-size:6.75px; font-family:Arial;" text-anchor="middle"><textPath startOffset="21.46611528233685" xlink:href="#id93">September</textPath></text><path d="M 81.69416730710424 110.29060199501025 l -29.62838681390519 16.655562277395514 a54.98895497026338,54.98895497026338 0 0,0 -0.4567319507820101,-0.8291011574323797 l 29.91069517413872 -16.143090601565312" fill="#81ff25" stroke="none" /><path d="M 81.35079622478065 109.6543875284942 l -13.431018181926595 6.95301826252074 a36.12404418011894,36.12404418011894 0 0,0 -0.28111615964831943,-0.5546688524831185 l 13.54871301136118 -6.720795198334938" fill="#ff820c" stroke="none" /><path d="M 81.18737489456691 109.33194174019688 l -16.481692371469062 8.17569010855255 a39.39804587935429,39.39804587935429 0 0,0 -0.29613586846666506,-0.6101276015882104 l 16.619981496550444 -7.890773550999055" fill="#ffb210" stroke="none" /><path d="M 80.73074385275274 108.34839909993369 l -8.851524630652808 3.8349202322550116 a30.64655904842821,30.64655904842821 0 0,0 -0.20554941770491197,-0.4858581051380016 l 8.916225029550025 -3.6819876014508512" fill="#ff2f04" stroke="none" /><path d="M 80.45479744820244 107.68017299344265 l -41.514873729391596 16.313026749028573 a65.60492778249787,65.60492778249787 0 0,0 -0.4039567832919856,-1.0546036913801855 l 41.78952479227709 -15.595999490815228" fill="#34ff5b" stroke="none" /><path d="M 80.20201598880116 107.00284435728193 l -20.58575426143204 7.281490528960806 a42.8355989804588,42.8355989804588 0 0,0 -0.23989805724480237,-0.6972560481448143 l 20.70804314962007 -6.926061777726694" fill="#ffe215" stroke="none" /><path d="M 79.97269907076064 106.31721596034903 l -15.668484513458997 4.942313534540977 a37.42948173322005,37.42948173322005 0 0,0 -0.18852557554026297,-0.6161124888823809 l 15.75123686150539 -4.671874073106548" fill="#ff960d" stroke="none" /><path d="M 79.86692584326677 105.97154293290107 l -18.68766653885391 5.542829782663064 a40.492353440951575,40.492353440951575 0 0,0 -0.19244928681986986,-0.6699412143944941 l 18.780308462559884 -5.220331092763974" fill="#ffc112" stroke="none" /><path d="M 79.76711848015287 105.62410040840567 l -21.914657426410454 6.09158085866539 a43.74553950722175,43.74553950722175 0 0,0 -0.1954215815542551,-0.7272364035761324 l 22.016267084306484 -5.713453521913719" fill="#ffee16" stroke="none" /><path d="M 79.58551787078972 104.9243191809786 l -21.856966776969546 5.272270932792297 a43.48385726423109,43.48385726423109 0 0,0 -0.16925456590165558,-0.7291442401007927 l 21.94448190880176 -4.8952580353429305" fill="#ffeb16" stroke="none" /><path d="M 79.50377843672027 104.57218783832718 l -20.798063398819394 4.639521105841483 a42.30926083262532,42.30926083262532 0 0,0 -0.152446232940903,-0.7121780483357153 l 20.87484367048474 -4.280829238089604" fill="#ffdb14" stroke="none" /><path d="M 79.4281124754447 104.21870165774334 l -15.06332914039584 3.089054980485814 a36.3768054375531,36.3768054375531 0 0,0 -0.12051127582960526,-0.6144843991472257 l 15.114270349201112 -2.829306854270633" fill="#ff860c" stroke="none" /><path d="M 79.23777060512086 103.15116336523772 l -15.335002623009006 2.3274522958198753 a36.51062022090059,36.51062022090059 0 0,0 -0.08895716817023468,-0.6221662269930106 l 15.37279384219584 -2.063140596846464" fill="#ff880c" stroke="none" /><path d="M 79.18660465613746 102.79330883721812 l -62.398924698422235 8.374388941034 a83.95836873406967,83.95836873406967 0 0,0 -0.1799047561490357,-1.4340179163762823 l 62.53383096381812 -7.29905327037031" fill="#4dd2ff" stroke="none" /><path d="M 79.0095281055655 100.63252640178507 l -18.523452399619917 0.558185292541007 a39.53186066270179,39.53186066270179 0 0,0 -0.014641730199024483,-0.6803436687745721 l 18.53031619250395 -0.23925180797630613" fill="#ffb410" stroke="none" /><line stroke="#e1ed5e" stroke-width="0.3" x1="15.007084014347285" x2="10.007500721073583" y1="101.09737516637583" y2="101.16192664675087" /><path d="M 14.007167355692545 101.11028546245083 a86.0,86.0 0 0,1 10.666146001902534,-42.60595125391555" fill="none" id="id94" stroke="none" /><text fill="#e1ed5e" style="font-size:6.75px; font-family:Arial;" text-anchor="middle"><textPath startOffset="22.20632615414155" xlink:href="#id94">October</textPath></text><path d="M 79.00486145842228 99.54816195383935 l -18.86054360064698 -0.40589925868637106 a39.864910790144435,39.864910790144435 0 0,0 0.020669587103883075,-0.6859229685104113 l 18.850762319087455 0.7304923746217769" fill="#ffb911" stroke="none" /><path d="M 79.01574976396665 99.18683210126434 l -32.78974813857661 -1.2706468086304077 a53.8143585386576,53.8143585386576 0 0,0 0.043836642848820745,-0.9253222463103092 l 32.76301788749429 1.834880161563726" fill="#8fff24" stroke="none" /><path d="M 79.03285615573316 98.82574320788736 l -20.922608704410717 -1.1717626188073926 a41.9553950722175,41.9553950722175 0 0,0 0.04658928653621275,-0.7207156418088723 l 20.899338826870093 1.5317373248692767" fill="#ffd614" stroke="none" /><path d="M 79.05617556472873 98.46500227214037 l -17.008330945381008 -1.2465607433127999 a38.05395072217502,38.05395072217502 0 0,0 0.05350297798950663,-0.6528718495457462 l 16.984353483572004 1.5391465100663244" fill="#ff9f0e" stroke="none" /><path d="M 79.16333360222342 97.38593545837743 l -24.274037730743117 -3.045300054365452 a45.464316057774,45.464316057774 0 0,0 0.10410029600747353,-0.7756681206702665 l 24.218021435677812 3.4626865171003773" fill="#f9ff18" stroke="none" /><path d="M 79.21141760316559 97.0276538004421 l -38.347899020612 -5.482972803970661 a59.737892948173325,59.737892948173325 0 0,0 0.1543061252758224,-1.0166845696906348 l 38.247837001896876 6.1422564860533875" fill="#4bff2c" stroke="none" /><path d="M 79.32604984820605 96.31383870115002 l -12.94829814802954 -2.308679046277751 a34.15250637213254,34.15250637213254 0 0,0 0.10817282085743972,-0.5778635344579939 l 12.906639603262239 2.5312206581983174" fill="#ff6509" stroke="none" /><path d="M 79.46518482838121 95.60439243477599 l -29.56641187553383 -6.328878182270987 a51.23619371282923,51.23619371282923 0 0,0 0.19202743018336058,-0.8608213167168228 l 29.453090058348433 6.8368776685377695" fill="#afff20" stroke="none" /><path d="M 79.54389044137918 95.25157060432595 l -31.813856029783715 -7.38487681289834 a53.659728122344944,53.659728122344944 0 0,0 0.21659928055700897,-0.8979438536825524 l 31.68202394896589 7.931405898240289" fill="#91ff24" stroke="none" /><path d="M 79.81627453868168 94.20196356495316 l -15.822303052089799 -4.545161385502595 a37.46219201359388,37.46219201359388 0 0,0 0.18337582953649328,-0.6182521361890538 l 15.741721325441599 4.816842908438188" fill="#ff960d" stroke="none" /><path d="M 80.02781315780177 93.51064311812611 l -28.323626624839317 -9.202904159157042 a50.78122344944775,50.78122344944775 0 0,0 0.27727202410923857,-0.8290080602372564 l 28.161017306958307 9.68908532231662" fill="#b4ff20" stroke="none" /><path d="M 80.2630227832202 92.82701384747504 l -22.582097976717765 -8.206985006004201 a45.02718776550552,45.02718776550552 0 0,0 0.2710109488683595,-0.7261746048005823 l 22.43748243934778 8.594482747834125" fill="#feff18" stroke="none" /><path d="M 80.38941819471856 92.48833698450439 l -23.026188661766305 -8.819981552604029 a45.65760407816482,45.65760407816482 0 0,0 0.2874395121943521,-0.7315022060082764 l 22.870955599690262 9.215032763508068" fill="#f6ff19" stroke="none" /><path d="M 80.65960295795068 91.81776055985345 l -27.468731567793082 -11.621050918248345 a50.825828377230245,50.825828377230245 0 0,0 0.3478163675118806,-0.8028081309439032 l 27.26462449043852 12.092158193778848" fill="#b4ff20" stroke="none" /><path d="M 81.10775173730289 90.83032412892265 l -29.461955553254498 -14.2998641133071 a53.74893797790994,53.74893797790994 0 0,0 0.4111537476447273,-0.8288608663100071 l 29.21144179265636 14.80488456811607" fill="#90ff24" stroke="none" /><path d="M 81.43458229118936 90.18545643968196 l -18.60222255841746 -9.83400031617254 a42.041631265930334,42.041631265930334 0 0,0 0.3437241706668431,-0.6368686855912633 l 18.430190288532142 10.152749985096277" fill="#ffd714" stroke="none" /><line stroke="#e1ed5e" stroke-width="0.3" x1="26.266209847984243" x2="21.928928074336255" y1="57.711370442889674" y2="55.22380399835377" /><path d="M 25.398753493254645 57.213857153982495 a86.0,86.0 0 0,1 29.58750427330803,-30.492523968695096" fill="none" id="id95" stroke="none" /><text fill="#e1ed5e" style="font-size:6.75px; font-family:Arial;" text-anchor="middle"><textPath startOffset="21.46611528233685" xlink:href="#id95">November</textPath></text><path d="M 81.96595687620814 89.24020034530311 l -28.15169801708886 -16.79637940999413 a53.781648258283774,53.781648258283774 0 0,0 0.4811772404694818,-0.7909288662952211 l 27.858404978333162 17.27847604949643" fill="#90ff24" stroke="none" /><path d="M 82.15384107792192 88.93136811851018 l -14.30826278912576 -8.874340656045788 a37.836873406966866,37.836873406966866 0 0,0 0.348049513645762,-0.5505307463161033 l 14.153385679234034 9.119319050076108" fill="#ff9c0e" stroke="none" /><path d="M 82.95767976084542 87.72973835380427 l -16.513820078806965 -11.889748009758906 a41.348768054375526,41.348768054375526 0 0,0 0.4208465552248552,-0.5740342283698361 l 16.306710911068475 12.172244681800242" fill="#ffcd13" stroke="none" /><path d="M 83.17141714833178 87.43820079747576 l -16.826199874770502 -12.560020414758371 a41.99702633814783,41.99702633814783 0 0,0 0.43741714758070105,-0.5755896927544976 l 16.60750678696569 12.847794883393895" fill="#ffd614" stroke="none" /><path d="M 83.39014120810768 87.1503855733568 l -30.670144243312933 -23.726843971031922 a59.776550552251486,59.776550552251486 0 0,0 0.6366086479609168,-0.8084283342899795 l 30.257181514758045 24.251264699274948" fill="#4bff2c" stroke="none" /><path d="M 83.6137871275137 86.86637796730984 l -14.94760454893185 -11.980571103736903 a40.156329651656755,40.156329651656755 0 0,0 0.4369419941943352,-0.5356392202793059 l 14.739164062661123 12.236094493624291" fill="#ffbd11" stroke="none" /><path d="M 84.07557802195018 86.31012108654704 l -47.77326593414944 -41.06963674035889 a84.0,84.0 0 0,0 0.9520325456886258,-1.0883377751882275 l 47.05924152488297 41.885890071750055" fill="#4dd2ff" stroke="none" /><path d="M 84.5562425177563 85.77008943001954 l -21.890684281684997 -20.170122459006574 a50.76635514018692,50.76635514018692 0 0,0 0.5976715207193963,-0.6375543068617854 l 21.540245438995147 20.54394618274641" fill="#b4ff20" stroke="none" /><path d="M 85.31137513191541 84.99185889309783 l -19.02948582810902 -19.443427214252058 a48.20603228547154,48.20603228547154 0 0,0 0.5980228175869352,-0.5752974767057681 l 18.691979766909657 19.76810777772014" fill="#d5ff1c" stroke="none" /><path d="M 85.57189188830299 84.74124197986013 l -14.342299482315646 -15.16800924686801 a41.87510620220901,41.87510620220901 0 0,0 0.5280094279808605,-0.49072721876193914 l 14.079082170539928 15.412641051704597" fill="#ffd513" stroke="none" /><path d="M 85.83668400450813 84.49514656593479 l -13.11239875085328 -14.354394187470744 a40.44180118946474,40.44180118946474 0 0,0 0.5180190553235329,-0.46508262259102356 l 12.863368707933777 14.577975818831048" fill="#ffc111" stroke="none" /><path d="M 86.93701828274178 83.55741782278169 l -14.842447649289154 -18.682424156046405 a44.86066270178419,44.86066270178419 0 0,0 0.6087537344753475,-0.47514194564974177 l 14.518661359654383 18.93514449091937" fill="#fffd18" stroke="none" /><path d="M 87.51073957382395 83.11751280151077 l -14.24539687522629 -19.256362841097538 a44.95284621920136,44.95284621920136 0 0,0 0.6260319247635064,-0.4548388172297412 l 13.911819634109001 19.498720893143947" fill="#ffff18" stroke="none" /><path d="M 88.09926311788651 82.69761687909137 l -14.88855994809865 -21.646354414220863 a47.27230246389125,47.27230246389125 0 0,0 0.6744076144179045,-0.4553630317456975 l 14.513747639274206 21.899429358265223" fill="#e1ff1b" stroke="none" /><path d="M 88.39885842347998 82.49532879139004 l -16.509695956390008 -24.911065653714257 a50.88530161427357,50.88530161427357 0 0,0 0.7342821091446159,-0.4775975091733272 l 16.078446821461107 25.191562087047117" fill="#b3ff20" stroke="none" /><line stroke="#e1ed5e" stroke-width="0.3" x1="56.762969772571076" x2="54.21961505331055" y1="26.818313649435495" y2="22.513508569990535" /><path d="M 56.25429882871897 25.957352633546506 a86.0,86.0 0 0,1 42.265352541879196,-11.944610805530505" fill="none" id="id96" stroke="none" /><text fill="#e1ed5e" style="font-size:6.75px; font-family:Arial;" text-anchor="middle"><textPath startOffset="22.20632615414155" xlink:href="#id96">December</textPath></text><path d="M 89.94658935756843 81.56283822128135 l -14.487901459646853 -26.569668000852396 a51.26295666949872,51.26295666949872 0 0,0 0.7783546506511674,-0.41577009824926947 l 14.02840176246738 26.815116825603415" fill="#aeff20" stroke="none" /><path d="M 90.91171255644093 81.06846463323043 l -7.341925781011679 -15.293742462109934 a37.96474086661003,37.96474086661003 0 0,0 0.5915662101866184,-0.27774826771948785 l 7.077581359525452 15.41785571246943" fill="#ff9d0e" stroke="none" /><path d="M 91.23893434514133 80.91482961587045 l -10.6765407852894 -23.257855611132673 a46.591333899745116,46.591333899745116 0 0,0 0.7317454783152901,-0.32831286625134876 l 10.274613188507336 23.438188807900552" fill="#eaff1a" stroke="none" /><path d="M 91.56875222667455 80.76684994638697 l -10.064488633408882 -22.958857965442903 a46.067969413763805,46.067969413763805 0 0,0 0.7290064038958574,-0.3121224968564878 l 9.667798471722717 23.128699990262177" fill="#f1ff19" stroke="none" /><path d="M 91.90106846888425 80.62456947434976 l -12.516530548087987 -29.943847176004912 a53.45454545454545,53.45454545454545 0 0,0 0.8520046955932133,-0.3475541078963495 l 11.999241982906392 30.154862170084836" fill="#94ff23" stroke="none" /><path d="M 92.23578459929587 80.48803036053334 l -7.614692136119634 -19.136208117098 a41.59558198810535,41.59558198810535 0 0,0 0.6675433996013207,-0.2589964681363588 l 7.284165571518636 19.26444728912491" fill="#ffd113" stroke="none" /><path d="M 92.91201910852362 80.23233633223022 l -11.447962340438915 -31.927212092124353 a54.917587085811384,54.917587085811384 0 0,0 0.8925886078956736,-0.31140663885806136 l 10.896691728479956 32.11953958415462" fill="#82ff25" stroke="none" /><path d="M 98.19473922651362 79.07773832637324 l -1.4747308697596901 -17.09155021171804 a38.155055225148686,38.155055225148686 0 0,0 0.6548312489793104,-0.05082750790991811 l 1.1803094314180456 17.114402981816422" fill="#ffa00e" stroke="none" /><path d="M 98.55514903715128 79.0497635885617 l -1.3777437530194343 -19.977186631920915 a41.02463891248938,41.02463891248938 0 0,0 0.7049165072512831,-0.042522488760874076 l 1.0336651969285282 19.997942390062097" fill="#ffc912" stroke="none" /><path d="M 99.63851952072746 79.00311137660856 l -0.42070349180699707 -24.43690563518185 a45.440526762956665,45.440526762956665 0 0,0 0.7821839710795268,-0.006732504383374125 l 5.98620257394602e-15 24.440526762956665" fill="#f9ff18" stroke="none" /></svg>