<?xml version="1.0" encoding="utf-8" ?>
<svg baseProfile="full" height="200mm" version="1.1" viewBox="0,0,200,200" width="200mm" xmlns="http://www.w3.org/2000/svg" xmlns:ev="http://www.w3.org/2001/xml-events" xmlns:xlink="http://www.w3.org/1999/xlink"><defs /><rect fill="#1a1a1a" height="200" width="200" x="0" y="0" /><text alignment-baseline="middle" fill="#e1ed5e" style="dominant-baseline: central; font-size:9.0px; font-family:Arial;" text-anchor="middle" x="100.0" y="100.0">2021</text><line stroke="#e1ed5e" stroke-width="0.3" x1="100.0" x2="100.0" y1="15.0" y2="10.0" /><path d="M 100.0 14.0 a86.0,86.0 0 0,1 42.46469731375804,11.215312516191453" fill="none" id="id61" stroke="none" /><text fill="#e1ed5e" style="font-size:6.75px; font-family:Arial;" text-anchor="middle"><textPath startOffset="22.20632615414155" xlink:href="#id61">January</textPath></text><path d="M 100.0 79.0 l 0.0 -63.0 a84.0,84.0 0 0,0 1.4459219170901134,0.012445506434235476 l -1.084441437817585 62.990665870174325" fill="#4dd2ff" stroke="none" /><path d="M 103.95276090670814 79.375362276772 l 1.9407021870958796 -10.1261575091985 a31.310450566299025,31.310450566299025 0 0,0 0.5284512102578782,0.10600234136685681 l -2.114719806820883 10.091251211754434" fill="#ff6209" stroke="none" /><path d="M 110.05341064243156 81.56283822128135 l 7.458388626364971 -13.678096180858587 a36.57940550966912,36.57940550966912 0 0,0 0.5502168112652454,0.30619505976200717 l -7.692729526702251 13.547685723536398" fill="#ffac0f" stroke="none" /><line stroke="#e1ed5e" stroke-width="0.3" x1="143.23703022742887" x2="145.7803849466894" y1="26.81831364943548" y2="22.513508569990506" /><path d="M 143.74570117128098 25.957352633546492 a86.0,86.0 0 0,1 28.547481713284135,27.462654790039103" fill="none" id="id62" stroke="none" /><text fill="#e1ed5e" style="font-size:6.75px; font-family:Arial;" text-anchor="middle"><textPath startOffset="19.985693538727396" xlink:href="#id62">February</textPath></text><path d="M 114.94478906791727 85.2469230424477 l 11.116013788634836 -10.973417298809487 a36.61991196399426,36.61991196399426 0 0,0 0.43897811911349627,0.4524055390125164 l -11.303256171451443 10.780447564246856" fill="#ffac10" stroke="none" /><path d="M 117.45458315368197 88.32363383020206 l 12.949144235878602 -8.662421116126863 a36.57940550966912,36.57940550966912 0 0,0 0.34559414903453395,0.5263635988313121 l -13.096335020271061 8.438239453317877" fill="#ffac0f" stroke="none" /><line stroke="#e1ed5e" stroke-width="0.3" x1="172.23445277983987" x2="176.4835382374775" y1="55.19839476539836" y2="52.563006222186495" /><path d="M 173.08426987136738 54.67131705675599 a86.0,86.0 0 0,1 12.851231095245387,41.99856678651699" fill="none" id="id63" stroke="none" /><text fill="#e1ed5e" style="font-size:6.75px; font-family:Arial;" text-anchor="middle"><textPath startOffset="22.20632615414155" xlink:href="#id63">March</textPath></text><path d="M 119.34039704204932 91.81776055985345 l 8.626128914644685 -3.6494107162194758 a30.36633859241308,30.36633859241308 0 0,0 0.19951886544874856,0.4831507583785933 l -8.68766946697963 3.5003853873875794" fill="#ff5507" stroke="none" /><path d="M 119.61058180528143 92.48833698450437 l 14.548628867858026 -5.572725912875736 a36.57940550966912,36.57940550966912 0 0,0 0.22016519103621643,0.5899332527307934 l -14.642398647395867 5.32146952311561" fill="#ffac0f" stroke="none" /><path d="M 120.18372546131832 94.20196356495316 l 14.973830650367216 -4.301426703877674 a36.57940550966912,36.57940550966912 0 0,0 0.1686366846739828,0.6066758793653461 l -15.04565410560756 4.043039521093376" fill="#ffac0f" stroke="none" /><path d="M 120.96714384426684 98.82574320788733 l 15.583029355942328 -0.8727215398920356 a36.60744843958653,36.60744843958653 0 0,0 0.029820064503792633,0.629454430781233 l -15.595743028679617 0.6043560024878029" fill="#ffac0f" stroke="none" /><path d="M 120.98425023603335 99.18683210126433 l 15.567721130644458 -0.6032701162785016 a36.57940550966912,36.57940550966912 0 0,0 0.01896608303905418,0.6293919619090438 l -15.575798908139157 0.3352080069444587" fill="#ffac0f" stroke="none" /><line stroke="#e1ed5e" stroke-width="0.3" x1="184.98032266829074" x2="189.97916517819016" y1="98.17113171792111" y2="98.06355123074" /><path d="M 185.9800911702706 98.14961562048488 a86.0,86.0 0 0,1 -9.607161424134198,41.387399972396054" fill="none" id="id64" stroke="none" /><text fill="#e1ed5e" style="font-size:6.75px; font-family:Arial;" text-anchor="middle"><textPath startOffset="21.466115282336823" xlink:href="#id64">April</textPath></text><path d="M 120.99824983174949 100.27111621757518 l 15.578107101055563 0.20113473780245206 a36.57940550966912,36.57940550966912 0 0,0 -0.013548205860661874,0.6295318896922669 l -15.572336832509894 -0.46925644328483385" fill="#ffac0f" stroke="none" /><path d="M 120.92983693683757 101.71520430193887 l 15.527353185249694 1.2724696834206963 a36.57940550966912,36.57940550966912 0 0,0 -0.05682942250940618,0.6271079418718974 l -15.503149166463214 -1.5395590138411643" fill="#ffac0f" stroke="none" /><path d="M 120.32669344350535 105.2749913415812 l 15.107039041275772 3.920435970618764 a36.60744843958653,36.60744843958653 0 0,0 -0.16353405515889607,0.6085710554080136 l -15.0373169097751 -4.179897959202326" fill="#ffac0f" stroke="none" /><line stroke="#e1ed5e" stroke-width="0.3" x1="174.80103733775053" x2="179.2010983576182" y1="140.37084112569926" y2="142.7455964860345" /><path d="M 175.68104954172406 140.8457921977663 a86.0,86.0 0 0,1 -30.038265399797805,32.042727171017184" fill="none" id="id65" stroke="none" /><text fill="#e1ed5e" style="font-size:6.75px; font-family:Arial;" text-anchor="middle"><textPath startOffset="22.206326154141568" xlink:href="#id65">May</textPath></text><path d="M 115.32070863581623 114.36230785411682 l 7.103795611097346 6.659411253392612 a30.737128443543202,30.737128443543202 0 0,0 -0.36517677028987217,0.3828863836914429 l -6.988112289428509 -6.780704753666562" fill="#ff5a08" stroke="none" /><path d="M 112.34349029814194 116.9893568818739 l 9.157344798067612 12.604003819581008 a36.57940550966912,36.57940550966912 0 0,0 -0.5125866383347413,0.36571695643248636 l -8.939030831883986 -12.759765037857713" fill="#ffac0f" stroke="none" /><line stroke="#e1ed5e" stroke-width="0.3" x1="143.8653032363475" x2="146.44561519142675" y1="172.8068346515853" y2="177.08958963109032" /><path d="M 144.38136562736335 173.6633856474863 a86.0,86.0 0 0,1 -40.68145358897372,12.25698825130547" fill="none" id="id66" stroke="none" /><text fill="#e1ed5e" style="font-size:6.75px; font-family:Arial;" text-anchor="middle"><textPath startOffset="21.466115282336833" xlink:href="#id66">June</textPath></text><path d="M 109.2508944713604 118.85261126421891 l 6.863020776022846 13.986308371496296 a36.57940550966912,36.57940550966912 0 0,0 -0.567655469889698,0.27250912191315074 l -6.6212526381329155 -14.102371769909007" fill="#ffac0f" stroke="none" /><path d="M 108.92500713936063 119.00905698771935 l 6.6212526381329155 14.102371769909007 a36.57940550966912,36.57940550966912 0 0,0 -0.5722621621775189,0.2626974909691001 l -6.377522480187977 -14.214256331212182" fill="#ffac0f" stroke="none" /><path d="M 106.2309692047433 120.05430185196036 l 4.6226093313788805 14.877814322142802 a36.57940550966912,36.57940550966912 0 0,0 -0.6029070317616589,0.18165094294799203 l -4.3658273251769755 -14.95518063419652" fill="#ffac0f" stroke="none" /><path d="M 105.53697534728816 120.25689768951611 l 4.1077516301163435 15.028115403469096 a36.57940550966912,36.57940550966912 0 0,0 -0.6088024677096727,0.16079026504164776 l -3.8484587195951736 -15.096597017814329" fill="#ffac0f" stroke="none" /><path d="M 105.18746579009965 120.34920634021253 l 4.002397068378979 15.700460898526897 a37.20258173005588,37.20258173005588 0 0,0 -0.6218973388289687,0.15284723519708002 l -3.7315464448067996 -15.767029392038006" fill="#ffb410" stroke="none" /><path d="M 104.48393922423573 120.51570834832081 l 3.466908447127806 15.862410040521251 a37.236856422177155,37.236856422177155 0 0,0 -0.6273675119854561,0.1314709619166153 l -3.193349473712972 -15.919736983164407" fill="#ffb510" stroke="none" /><path d="M 103.41894727170886 120.7198165907248 l 2.5425239219256355 15.40843574153707 a36.61679608289233,36.61679608289233 0 0,0 -0.6227717309699653,0.09726413642998101 l -2.276916327347153 -15.449918185314159" fill="#ffac10" stroke="none" /><line stroke="#e1ed5e" stroke-width="0.3" x1="102.19456741930631" x2="102.32365962044197" y1="184.97166512339345" y2="189.96999836594603" /><path d="M 102.22038585953345 185.97133177190398 a86.0,86.0 0 0,1 -42.740103519485714,-10.115201625700543" fill="none" id="id67" stroke="none" /><text fill="#e1ed5e" style="font-size:6.75px; font-family:Arial;" text-anchor="middle"><textPath startOffset="22.20632615414155" xlink:href="#id67">July</textPath></text><path d="M 97.2962882734958 120.8252237178851 l -1.6062607081838063 12.37215427564349 a33.475987932143035,33.475987932143035 0 0,0 -0.5707997219178619,-0.07910764031890061 l 1.8189890212884992 -12.342672069831984" fill="#ff810b" stroke="none" /><path d="M 95.86986931433489 120.58985236759428 l -3.068336368236583 15.296511816293268 a36.60121667738266,36.60121667738266 0 0,0 -0.6166582372633864,-0.12922672927428105 l 3.3311860669293565 -15.241429106292445" fill="#ffac0f" stroke="none" /><path d="M 93.42475214034765 119.94407469862007 l -5.0858252770712244 15.42635067074134 a37.24308818438102,37.24308818438102 0 0,0 -0.6071160154476956,-0.20596671525827703 l 5.350611025456146 -15.336520968584939" fill="#ffb510" stroke="none" /><line stroke="#e1ed5e" stroke-width="0.3" x1="58.666819895761336" x2="56.23545636021788" y1="174.27360380694188" y2="178.64263932499728" /><path d="M 58.180547188652646 175.14741091055294 a86.0,86.0 0 0,1 -31.652253787137756,-30.449443065178592" fill="none" id="id68" stroke="none" /><text fill="#e1ed5e" style="font-size:6.75px; font-family:Arial;" text-anchor="middle"><textPath startOffset="22.20632615414155" xlink:href="#id68">August</textPath></text><path d="M 87.65650970185807 116.9893568818739 l -7.9888676018341815 10.995732932202474 a34.59147336663534,34.59147336663534 0 0,0 -0.47870485979572264,-0.3541344110599965 l 8.176957432048468 -10.85658857240271" fill="#ff910d" stroke="none" /><path d="M 84.43433777217949 114.09645910891817 l -11.596299032477386 10.501753971889528 a36.64483901280973,36.64483901280973 0 0,0 -0.4193934648947687,-0.4711930037688724 l 11.775351347020493 -10.300586798379792" fill="#ffad10" stroke="none" /><path d="M 82.6465618267979 111.8261652097733 l -12.966800728064557 8.836723081717937 a36.69157722933874,36.69157722933874 0 0,0 -0.35118538479425926,-0.5249745008086931 l 13.116989218269547 -8.612211666703422" fill="#ffad10" stroke="none" /><path d="M 82.24976979558568 111.22182372390057 l -15.844312514430474 10.016888796130246 a39.745140709233894,39.745140709233894 0 0,0 -0.36061212888007976,-0.5814215731562113 l 16.01438928297851 -9.742670891608771" fill="#ffd614" stroke="none" /><path d="M 82.05923443525364 110.91462005526583 l -13.360408878202978 8.12806934923278 a36.638607250605865,36.638607250605865 0 0,0 -0.32315098812350623,-0.5416196437051063 l 13.498340742024716 -7.896887611641563" fill="#ffad10" stroke="none" /><line stroke="#e1ed5e" stroke-width="0.3" x1="26.63291911575756" x2="22.317208475507996" y1="142.92168965132927" y2="145.44649492493687" /><path d="M 25.769776987707644 143.4266507060508 a86.0,86.0 0 0,1 -11.730757126820373,-40.83630448921669" fill="none" id="id69" stroke="none" /><text fill="#e1ed5e" style="font-size:6.75px; font-family:Arial;" text-anchor="middle"><textPath startOffset="21.46611528233685" xlink:href="#id69">September</textPath></text><path d="M 81.18737489456691 109.33194174019688 l -8.385151463977596 4.159427220072917 a30.36010683020921,30.36010683020921 0 0,0 -0.22820209485608342,-0.47016390663132507 l 8.455506815448398 -4.014474357476307" fill="#ff5507" stroke="none" /><path d="M 80.73074385275274 108.34839909993369 l -14.321139132730826 6.204628976443125 a36.60744843958653,36.60744843958653 0 0,0 -0.2455296758937614,-0.5803596255190943 l 14.425819789816893 -5.957194825257871" fill="#ffac0f" stroke="none" /><path d="M 79.86692584326677 105.97154293290107 l -29.896405286203983 8.867382413443885 a52.183738068153716,52.183738068153716 0 0,0 -0.2480152997146977,-0.8633737948574403 l 30.044613222804784 -8.351451143081848" fill="#8fff24" stroke="none" /><path d="M 79.67330655649465 105.27499134158121 l -15.996752859837628 4.1513260906691825 a37.526633364657,37.526633364657 0 0,0 -0.15687684866735446,-0.6266450286726759 l 16.06584102280004 -3.875353222599115" fill="#ffb911" stroke="none" /><path d="M 79.29508885075956 103.50808413554451 l -15.37584652583437 2.60516757976165 a36.59498491517879,36.59498491517879 0 0,0 -0.09988382545300369,-0.6219766764424209 l 15.418412105648665 -2.3401116736260157" fill="#ffac0f" stroke="none" /><line stroke="#e1ed5e" stroke-width="0.3" x1="15.007084014347285" x2="10.007500721073583" y1="101.09737516637583" y2="101.16192664675087" /><path d="M 14.007167355692545 101.11028546245083 a86.0,86.0 0 0,1 10.666146001902534,-42.60595125391555" fill="none" id="id70" stroke="none" /><text fill="#e1ed5e" style="font-size:6.75px; font-family:Arial;" text-anchor="middle"><textPath startOffset="22.20632615414155" xlink:href="#id70">October</textPath></text><path d="M 79.08570108090925 98.10471618934814 l -15.413421444847492 -1.3967863921323154 a36.476581433305306,36.476581433305306 0 0,0 0.06204992067066269,-0.6248342332291611 l 15.3870943984946 1.6618961560659067" fill="#ffaa0f" stroke="none" /><path d="M 79.26566170972629 96.67025291283419 l -36.95755564781515 -5.935048977415732 a58.43107967753104,58.43107967753104 0 0,0 0.16802591100426792,-0.9916984381486795 l 36.84991787529066 6.570333203880239" fill="#4bff2c" stroke="none" /><line stroke="#e1ed5e" stroke-width="0.3" x1="26.266209847984243" x2="21.928928074336255" y1="57.711370442889674" y2="55.22380399835377" /><path d="M 25.398753493254645 57.213857153982495 a86.0,86.0 0 0,1 29.58750427330803,-30.492523968695096" fill="none" id="id71" stroke="none" /><text fill="#e1ed5e" style="font-size:6.75px; font-family:Arial;" text-anchor="middle"><textPath startOffset="21.46611528233685" xlink:href="#id71">November</textPath></text><path d="M 81.96595687620814 89.24020034530311 l -19.05709309970508 -11.370190386381813 a43.191305207972704,43.191305207972704 0 0,0 0.3864268523798244,-0.6351841412129091 l 18.85855044903904 11.696542300801797" fill="#fbff18" stroke="none" /><path d="M 84.07557802195018 86.31012108654704 l -11.81631648136314 -10.15823004790221 a36.582521390771056,36.582521390771056 0 0,0 0.414616082944814,-0.4739778564429466 l 11.639708534840484 10.360123460548099" fill="#ffac0f" stroke="none" /><path d="M 84.31358615837235 86.03803664274999 l -11.70720534498053 -10.420200161279132 a36.67288194272714,36.67288194272714 0 0,0 0.42375752477808337,-0.4679236428260174 l 11.526104179586401 10.620176591374706" fill="#ffad10" stroke="none" /><path d="M 86.37877921826538 84.01681056812374 l -10.531705053704794 -12.357940570182574 a37.236856422177155,37.236856422177155 0 0,0 0.4914244811781974,-0.411553870375243 l 10.317423035567485 12.53739559795163" fill="#ffb510" stroke="none" /><line stroke="#e1ed5e" stroke-width="0.3" x1="56.762969772571076" x2="54.21961505331055" y1="26.818313649435495" y2="22.513508569990535" /><path d="M 56.25429882871897 25.957352633546506 a86.0,86.0 0 0,1 42.265352541879196,-11.944610805530505" fill="none" id="id72" stroke="none" /><text fill="#e1ed5e" style="font-size:6.75px; font-family:Arial;" text-anchor="middle"><textPath startOffset="22.20632615414155" xlink:href="#id72">December</textPath></text><path d="M 90.26544431104013 81.39251694778311 l -1.7000205815182416 -3.249568359334184 a24.667392056976112,24.667392056976112 0 0,0 0.37792736632706175,-0.1935890758112667 l 1.643832727602416 3.278349960457956" fill="#ff0000" stroke="none" /><path d="M 93.59665428221793 80.00007090966166 l -9.52283507532466 -29.743205292911796 a52.23047628468272,52.23047628468272 0 0,0 0.8586059239884699,-0.26677304006269204 l 9.00944377862546 29.902718467857014" fill="#8fff24" stroke="none" /></svg>