<?xml version="1.0" encoding="utf-8" ?>
<svg baseProfile="full" height="200mm" version="1.1" viewBox="0,0,200,200" width="200mm" xmlns="http://www.w3.org/2000/svg" xmlns:ev="http://www.w3.org/2001/xml-events" xmlns:xlink="http://www.w3.org/1999/xlink"><defs /><rect fill="#1a1a1a" height="200" width="200" x="0" y="0" /><text alignment-baseline="middle" fill="#e1ed5e" style="dominant-baseline: central; font-size:9.0px; font-family:Arial;" text-anchor="middle" x="100.0" y="100.0">2024</text><line stroke="#e1ed5e" stroke-width="0.3" x1="100.0" x2="100.0" y1="15.0" y2="10.0" /><path d="M 100.0 14.0 a86.0,86.0 0 0,1 42.35913384403234,11.155469271406648" fill="none" id="id1" stroke="none" /><text fill="#e1ed5e" style="font-size:6.75px; font-family:Arial;" text-anchor="middle"><textPath startOffset="22.145653131862478" xlink:href="#id1">January</textPath></text><line stroke="#e1ed5e" stroke-width="0.3" x1="143.13028292997686" x2="145.6673583964461" y1="26.7553504044142" y2="22.446841604673864" /><path d="M 143.63769802327073 25.89364864446614 a86.0,86.0 0 0,1 29.32050498858742,28.57503671076993" fill="none" id="id2" stroke="none" /><text fill="#e1ed5e" style="font-size:6.75px; font-family:Arial;" text-anchor="middle"><textPath startOffset="20.669276256404974" xlink:href="#id2">February</textPath></text><line stroke="#e1ed5e" stroke-width="0.3" x1="172.87174338648825" x2="177.1583165268699" y1="56.24261187166439" y2="53.66864786411523" /><path d="M 173.72905801456457 55.72781907015455 a86.0,86.0 0 0,1 12.242430191666344,42.057860355516425" fill="none" id="id3" stroke="none" /><text fill="#e1ed5e" style="font-size:6.75px; font-family:Arial;" text-anchor="middle"><textPath startOffset="22.145653131862474" xlink:href="#id3">March</textPath></text><line stroke="#e1ed5e" stroke-width="0.3" x1="184.99686870605535" x2="189.99668451229388" y1="99.2704041080226" y2="99.22748670261217" /><path d="M 185.99683186730306 99.26182062694052 a86.0,86.0 0 0,1 -10.086455211305974,41.156179273409016" fill="none" id="id4" stroke="none" /><text fill="#e1ed5e" style="font-size:6.75px; font-family:Arial;" text-anchor="middle"><textPath startOffset="21.40746469413373" xlink:href="#id4">April</textPath></text><path d="M 120.35273937422433 105.17358676015961 l 11.486180774748311 2.919742236580498 a32.8514658805681,32.8514658805681 0 0,0 -0.14362429232479265,0.545364831709415 l -11.434367001618789 -3.116487572662716" fill="#ff7c0b" stroke="none" /><path d="M 120.16314734710363 105.8691983318838 l 7.0954057094359575 2.0653691924659943 a28.38989391552301,28.38989391552301 0 0,0 -0.14022401293450523,0.4667601336704102 l -7.0589053764978225 -2.186866929727128" fill="#ff3c05" stroke="none" /><path d="M 119.83427380445688 106.89939002012753 l 28.846972732611054 10.034474553716464 a51.542405200068785,51.542405200068785 0 0,0 -0.29786559669554874,0.8331830871177891 l -28.67046696587156 -10.528192597215174" fill="#95ff23" stroke="none" /><path d="M 119.4528033332814 107.91128576633889 l 6.908251062309585 2.809525566222138 a28.457705186393287,28.457705186393287 0 0,0 -0.18792134443584593,0.45094281628266797 l -6.859003873337254 -2.9277008919460834" fill="#ff3d05" stroke="none" /><path d="M 119.0197475246899 108.90220220490707 l 28.449458796241025 13.315783214027652 a52.411491343169246,52.411491343169246 0 0,0 -0.3883959606786499,0.8115981777581759 l -28.216683577602463 -13.802193893850932" fill="#8bff24" stroke="none" /><path d="M 118.8641267826498 109.22738970284198 l 13.035682995085423 6.376405779301443 a35.51163608318056,35.51163608318056 0 0,0 -0.2725604088514486,0.5453033986824659 l -12.924302673022241 -6.599241034147655" fill="#ffa10e" stroke="none" /><path d="M 118.5362547648365 109.86951160357373 l 6.787346869479108 3.61387990916485 a28.689486687971648,28.689486687971648 0 0,0 -0.2351918357372927,0.43272648754808246 l -6.724309684126476 -3.7298612301875353" fill="#ff4106" stroke="none" /><line stroke="#e1ed5e" stroke-width="0.3" x1="174.33088141563837" x2="178.70328620479359" y1="141.23008692659167" y2="143.65538615756765" /><path d="M 175.20536237346943 141.71514677278685 a86.0,86.0 0 0,1 -30.301960400862466,31.631185727798858" fill="none" id="id5" stroke="none" /><text fill="#e1ed5e" style="font-size:6.75px; font-family:Arial;" text-anchor="middle"><textPath startOffset="22.145653131862474" xlink:href="#id5">May</textPath></text><path d="M 118.36410011445183 110.18625677009912 l 9.497352468726154 5.268021317660253 a31.860559493807934,31.860559493807934 0 0,0 -0.26939868275484063,0.4760016591445886 l -9.405520420949935 -5.430279746903964" fill="#ff6e0a" stroke="none" /><path d="M 118.00360718960297 110.81064883170644 l 7.667138858658513 4.603896589831984 a29.94320312236158,29.94320312236158 0 0,0 -0.26839381306892396,0.43840112306997425 l -7.586977081134184 -4.734834829026515" fill="#ff5307" stroke="none" /><path d="M 117.62189284568427 111.42229804090321 l 8.75314040586007 5.673679858636316 a31.43111260139567,31.43111260139567 0 0,0 -0.2973616157822906,0.45024338650907225 l -8.654454351157051 -5.823103123484449" fill="#ff6809" stroke="none" /><path d="M 115.89218393027572 113.72728997021213 l 5.581657603087839 4.821302897587128 a28.375626293976012,28.375626293976012 0 0,0 -0.32157548148629217,0.36589386713446387 l -5.498071057642961 -4.9164090425328855" fill="#ff3c05" stroke="none" /><path d="M 115.41159269507618 114.26474011684316 l 9.961636934943124 9.220342428379187 a34.57383235936677,34.57383235936677 0 0,0 -0.4068914749046674,0.4321046459601478 l -9.801889626302197 -9.389988534283832" fill="#ff940d" stroke="none" /><path d="M 114.91283532996324 114.78537596483092 l 10.490774472771802 10.401110272473197 a35.772929429829006,35.772929429829006 0 0,0 -0.4361028083169903,0.43237545628428586 l -10.310679744324847 -10.579665738986145" fill="#ffa50f" stroke="none" /><path d="M 114.65682725009322 115.03919595460226 l 3.0781069816968674 3.1584089296456765 a25.410248242178273,25.410248242178273 0 0,0 -0.3149993694491235,0.3017622703582484 l -3.0234351263824317 -3.2107833303095052" fill="#ff1001" stroke="none" /><path d="M 114.39649973595853 115.28858382429668 l 6.410007285442072 6.807205605196967 a30.350200080792145,30.350200080792145 0 0,0 -0.3823694940972394,0.35391549529131505 l -6.292208020030865 -6.9162388466206615" fill="#ff5908" stroke="none" /><path d="M 113.86319453409587 115.77377054828091 l 9.720247106386534 11.0598568859174 a35.724253398600226,35.724253398600226 0 0,0 -0.464109971299509,0.4008871393665426 l -9.528957655324168 -11.22508815774866" fill="#ffa40f" stroke="none" /><path d="M 113.31354834802062 116.24036423190432 l 9.396048898061816 11.46165187945512 a35.82076916696923,35.82076916696923 0 0,0 -0.4788882547099492,0.38575847927346346 l -9.197909872996615 -11.621258652521986" fill="#ffa50f" stroke="none" /><path d="M 113.03279911837588 116.46651593811092 l 4.589638312266031 5.798858075893613 a28.395372527586204,28.395372527586204 0 0,0 -0.38481145903471464,0.29923171805669746 l -4.489416908596085 -5.8767908455711035" fill="#ff3d05" stroke="none" /><path d="M 112.45986205192187 116.90419585922612 l 5.496207946954217 7.4566616573430196 a30.2633743780683,30.2633743780683 0 0,0 -0.42083238135989776,0.3046501904367344 l -5.3673945552203515 -7.549912619152831" fill="#ff5808" stroke="none" /><path d="M 112.16784306229584 117.11559508785304 l 8.583229549355902 12.073387268454164 a35.81345704523449,35.81345704523449 0 0,0 -0.5041254145051934,0.35191869167736733 l -8.374709043676951 -12.218950775936653" fill="#ffa50f" stroke="none" /><path d="M 111.5731344415666 117.5232005979908 l 8.352545153821238 12.646817936245531 a36.15608836273939,36.15608836273939 0 0,0 -0.5208445814816094,0.33760516505067084 l -8.134214940082618 -12.788336943000097" fill="#ffaa0f" stroke="none" /><path d="M 110.96478420261333 117.91015095944535 l 6.380769488815119 10.422507426535974 a33.22059247031794,33.22059247031794 0 0,0 -0.48892366382523544,0.29358461220917775 l -6.200913068432447 -10.530506039281075" fill="#ff810b" stroke="none" /><line stroke="#e1ed5e" stroke-width="0.3" x1="143.1302829299769" x2="145.66735839644613" y1="173.24464959558577" y2="177.55315839532614" /><path d="M 143.63769802327073 174.10635135553383 a86.0,86.0 0 0,1 -40.68552437913181,11.842963189579606" fill="none" id="id6" stroke="none" /><text fill="#e1ed5e" style="font-size:6.75px; font-family:Arial;" text-anchor="middle"><textPath startOffset="21.407464694133747" xlink:href="#id6">June</textPath></text><path d="M 109.71004243097381 118.62028667847754 l 3.725919280517821 7.1449415012649755 a29.058080636319858,29.058080636319858 0 0,0 -0.4442742229320939,0.22684958380829387 l -3.602717835872145 -7.207849036746106" fill="#ff4606" stroke="none" /><path d="M 109.3889696526874 118.78422872680471 l 6.56809331431811 13.140586419920348 a35.69063855810854,35.69063855810854 0 0,0 -0.5503832140159735,0.2692200100297816 l -6.341549851040067 -13.251400180047353" fill="#ffa30f" stroke="none" /><path d="M 109.06512990194946 118.94263497670748 l 6.618509480768635 13.83013928538594 a36.332234683835225,36.332234683835225 0 0,0 -0.5648992702162529,0.26440138189749823 l -6.380121496680876 -13.941716898853972" fill="#ffac0f" stroke="none" /><path d="M 108.4095320186766 119.2426549942271 l 3.586456311133661 8.206513905142845 a29.95597785543116,29.95597785543116 0 0,0 -0.4729691212301077,0.2018823933707159 l -3.4450521147331226 -8.266870948172965" fill="#ff5307" stroke="none" /><path d="M 107.74402155503746 119.51999308798841 l 5.444614605280691 13.723985490808158 a35.76453879916161,35.76453879916161 0 0,0 -0.572620474447833,0.22150190080525464 l -5.208221868339328 -13.815427279751454" fill="#ffa40f" stroke="none" /><path d="M 106.72888874123015 119.89276391827305 l 3.73864977236207 11.052653737459119 a32.66784713477821,32.66784713477821 0 0,0 -0.53276165969815,0.17512933953395318 l -3.5483653750161857 -11.115203998395092" fill="#ff7a0b" stroke="none" /><path d="M 106.38641147887787 120.00534299687104 l 6.808612125196029 21.32788050812129 a43.38829350442026,43.38829350442026 0 0,0 -0.7114840615220178,0.22041958096658867 l -6.441487430802386 -21.441616676894522" fill="#f6ff19" stroke="none" /><path d="M 105.69591212413111 120.21278271476187 l 2.12874383531329 7.5541608895765915 a28.848369070194963,28.848369070194963 0 0,0 -0.47780949120543253,0.13022910155247136 l -1.9987529431731623 -7.589590485273205" fill="#ff4306" stroke="none" /><path d="M 105.3480935250658 120.30758222061773 l 1.8542371026694984 7.04084029991183 a28.280908415972466,28.280908415972466 0 0,0 -0.4705333192056234,0.119607729735836 l -1.7330984902384776 -7.071633261482936" fill="#ff3b05" stroke="none" /><path d="M 104.64783097203109 120.47920084513623 l 3.2599081674524597 14.363756879219075 a35.72903638889987,35.72903638889987 0 0,0 -0.5992909254358594,0.13061266789824502 l -3.0128548253974645 -14.417601005251038" fill="#ffa40f" stroke="none" /><path d="M 103.94208987418118 120.62667999033965 l 2.169274968741496 11.350563284805629 a32.55599587973213,32.55599587973213 0 0,0 -0.549832426342661,0.10019778396143283 l -1.974107808847778 -11.386129242698425" fill="#ff780b" stroke="none" /><path d="M 103.58742460773223 120.69131181640829 l 1.8369745013458059 10.595180766785397 a31.7532474536511,31.7532474536511 0 0,0 -0.5378735462088783,0.08850688734377876 l -1.6548234520838554 -10.625153652624846" fill="#ff6d0a" stroke="none" /><path d="M 102.875027216393 120.80226474461374 l 1.6965012606817766 12.275038011135582 a33.39171798833068,33.39171798833068 0 0,0 -0.5684895117141411,0.07360234884792356 l -1.4855339270768604 -12.3023519561839" fill="#ff840c" stroke="none" /><path d="M 102.15924093988457 120.88869738790638 l 0.991985237144175 9.596557312905981 a30.64769127670456,30.64769127670456 0 0,0 -0.5237842752595488,0.0496029154435373 l -0.8271013984996108 -9.612171983854703" fill="#ff5d08" stroke="none" /><path d="M 101.80034050326958 120.92268563240118 l 1.1122020573953464 12.925473800279324 a33.9732365421348,33.9732365421348 0 0,0 -0.5814778362418191,0.04501006204797296 l -0.8901552263782915 -12.942661629322352" fill="#ff8c0c" stroke="none" /><path d="M 101.08105385017728 120.97215588758144 l 0.7865039456624856 15.257966429633989 a36.27822398135269,36.27822398135269 0 0,0 -0.6222134156779262,0.02672052128875964 l -0.5244647693837299 -15.269219519348578" fill="#ffab0f" stroke="none" /><path d="M 100.72087961077811 120.9876233191556 l 0.3656020554007708 10.644104936160065 a31.650381906528064,31.650381906528064 0 0,0 -0.5431607735089972,0.01398989480168628 l -0.18282796782102972 -10.648812548311797" fill="#ff6b09" stroke="none" /><line stroke="#e1ed5e" stroke-width="0.3" x1="101.45913802915013" x2="101.54496967792366" y1="184.9874750549273" y2="189.98673829345242" /><path d="M 101.47630435890484 185.9873277026323 a86.0,86.0 0 0,1 -42.54439059252881,-10.42667462771756" fill="none" id="id7" stroke="none" /><text fill="#e1ed5e" style="font-size:6.75px; font-family:Arial;" text-anchor="middle"><textPath startOffset="22.145653131862474" xlink:href="#id7">July</textPath></text><path d="M 99.27912038922189 120.98762331915562 l -0.5024098158400068 14.627113610988333 a35.635739414591,35.635739414591 0 0,0 -0.6111940637655726,-0.026247302904294733 l 0.7534296402064181 -14.61633373965821" fill="#ffa30f" stroke="none" /><path d="M 98.55909050195518 120.95050786540614 l -0.5526319858942765 8.035147788853642 a29.05412950607035,29.05412950607035 0 0,0 -0.49728357020463515,-0.03849289337494172 l 0.6904845508741477 -8.024477128483646" fill="#ff4606" stroke="none" /><path d="M 98.19965949673042 120.92268563240118 l -0.9766306800671462 11.34992889450275 a32.391869618088016,32.391869618088016 0 0,0 -0.5535931499384499,-0.0524258468677994 l 1.1713233933906113 -11.331491292129765" fill="#ff760a" stroke="none" /><path d="M 97.84075906011543 120.88869738790638 l -1.5204403307378258 14.708880967609192 a35.78725525980498,35.78725525980498 0 0,0 -0.6105375590398135,-0.06841200694989419 l 1.7727137913784388 -14.680613200152326" fill="#ffa50f" stroke="none" /><path d="M 97.48249496171623 120.84855314841334 l -0.8910097294251862 7.378838738030161 a28.432439670780038,28.432439670780038 0 0,0 -0.48405846476456543,-0.0626710594518532 l 1.0175460160805456 -7.362456082377911" fill="#ff3d05" stroke="none" /><path d="M 97.12497278360702 120.80226474461374 l -0.45637968674303514 3.3021360679859533 a24.333524415684607,24.333524415684607 0 0,0 -0.4132932024360537,-0.06073986822502984 l 0.5129979947867738 -3.293815126462041" fill="#ff0000" stroke="none" /><path d="M 96.76829788921471 120.74984581791261 l -1.1185312128235105 7.181772766479046 a28.26835415643738,28.26835415643738 0 0,0 -0.47884235833848643,-0.07879332784370881 l 1.2416510742150604 -7.161513440139669" fill="#ff3b05" stroke="none" /><path d="M 96.41257539226777 120.69131181640829 l -2.491367103515884 14.369543398035608 a35.583918798200635,35.583918798200635 0 0,0 -0.600970478183875,-0.10951684050503338 l 2.7376723152508164 -14.324658383599209" fill="#ffa20f" stroke="none" /><path d="M 95.70440661134978 120.55596938700252 l -2.990031240284278 14.308381888253642 a35.617458023814564,35.617458023814564 0 0,0 -0.5974193971656091,-0.130204777022463 l 3.2352130540690234 -14.25494565309746" fill="#ffa20f" stroke="none" /><path d="M 95.00130118170881 120.39639698878247 l -4.254228199385911 17.358702812427293 a38.87240948788443,38.87240948788443 0 0,0 -0.646753053078209,-0.16440209698434183 l 4.551586545689498 -17.283115483607688" fill="#ffce13" stroke="none" /><path d="M 94.30408787586889 120.21278271476187 l -3.3919476858259543 12.03682571979602 a33.505618037990885,33.505618037990885 0 0,0 -0.552268295848418,-0.16075725207709265 l 3.598075994055979 -11.97682477341641" fill="#ff850c" stroke="none" /><path d="M 93.95794788825049 120.11202640906438 l -2.177455808935024 7.248042208823544 a28.568053227928075,28.568053227928075 0 0,0 -0.46846079665041884,-0.14513035228936388 l 2.3015572384570766 -7.209595268727531" fill="#ff3f05" stroke="none" /><path d="M 93.27111125876986 119.89276391827306 l -3.7853126815347795 11.190604336972674 a32.81347609823881,32.81347609823881 0 0,0 -0.532038057647093,-0.18507045437849987 l 3.9768565112268943 -11.123975450025583" fill="#ff7c0b" stroke="none" /><path d="M 92.25597844496254 119.51999308798841 l -6.536115318962357 16.475280310324905 a38.72443693792708,38.72443693792708 0 0,0 -0.615802521825374,-0.25044152466486214 l 6.8179723019781715 -16.36065152908075" fill="#ffcc13" stroke="none" /><path d="M 91.59046798132341 119.24265499422711 l -4.715714126760703 10.790476781719818 a32.775922422560576,32.775922422560576 0 0,0 -0.5136246084908642,-0.22973775433669036 l 4.900252138107202 -10.707935276473274" fill="#ff7b0b" stroke="none" /><path d="M 90.93487009805054 118.94263497670748 l -3.959728052949061 8.27430868893696 a30.172983731214693,30.172983731214693 0 0,0 -0.46529578716839054,-0.22759948577329883 l 4.101184089379521 -8.20511545306644" fill="#ff5608" stroke="none" /><path d="M 90.6110303473126 118.78422872680471 l -4.136714062495107 8.276199199883044 a30.252452454943473,30.252452454943473 0 0,0 -0.462535188556498,-0.23617376297064602 l 4.278176472765187 -8.203967485239561" fill="#ff5708" stroke="none" /><line stroke="#e1ed5e" stroke-width="0.3" x1="58.13341422392154" x2="55.67067388415222" y1="173.97424548756322" y2="178.32567169271397" /><path d="M 57.64086615596768 174.84453072859336 a86.0,86.0 0 0,1 -31.369924170532247,-30.572349798747897" fill="none" id="id8" stroke="none" /><text fill="#e1ed5e" style="font-size:6.75px; font-family:Arial;" text-anchor="middle"><textPath startOffset="22.145653131862474" xlink:href="#id8">August</textPath></text><path d="M 89.65649057296885 118.27599006163327 l -7.390564775166684 13.058419807480343 a36.00475843072222,36.00475843072222 0 0,0 -0.5352836559494406,-0.30904616285521885 l 7.6136408989765245 -12.929626747348951" fill="#ffa80f" stroke="none" /><path d="M 89.34428304082925 118.09573695890944 l -3.9025607992786258 6.627401418458205 a28.691061718218627,28.691061718218627 0 0,0 -0.4222603503185979,-0.25355520784101165 l 4.015753906154651 -6.559432210081275" fill="#ff4106" stroke="none" /><path d="M 88.72937992617639 117.7192867562869 l -8.098285401250685 12.731849740218525 a36.08914259484655,36.08914259484655 0 0,0 -0.5198801978317441,-0.3369800632201808 l 8.315651231339439 -12.59095583529445" fill="#ffa90f" stroke="none" /><path d="M 88.1277618465304 117.32195027204791 l -6.841762240983605 9.982335578136839 a33.101931009416866,33.101931009416866 0 0,0 -0.46595682371480857,-0.32527405098352996 l 7.012114155872179 -9.86341671134818" fill="#ff800b" stroke="none" /><path d="M 87.83215693770417 117.11559508785305 l -7.390996744481491 10.396362520993677 a33.75582951222138,33.75582951222138 0 0,0 -0.4693972965784741,-0.33980744383551975 l 7.568375051433919 -10.267954305785091" fill="#ff890c" stroke="none" /><path d="M 86.96720088162412 116.46651593811092 l -9.094563835085197 11.490684309669604 a35.654245707470814,35.654245707470814 0 0,0 -0.47666200075888776,-0.3839651666787377 l 9.290476606199347 -11.332870849197455" fill="#ffa30f" stroke="none" /><path d="M 86.68645165197938 116.24036423190432 l -7.420996102374175 9.052408607808689 a32.70543825553668,32.70543825553668 0 0,0 -0.43112879626743084,-0.35966297547327686 l 7.575299232803498 -8.923683448423542" fill="#ff7a0b" stroke="none" /><path d="M 86.13680546590413 115.77377054828092 l -10.302531118627943 11.722389203446305 a36.60629860304395,36.60629860304395 0 0,0 -0.468447270151652,-0.41888843755881716 l 10.502243415602967 -11.543805236004106" fill="#ffb010" stroke="none" /><path d="M 85.86807049272751 115.53346607816431 l -5.982154698600675 6.575435933021389 a29.889461881759715,29.889461881759715 0 0,0 -0.376564845969506,-0.3485427996426531 l 6.094149315884147 -6.471775387246358" fill="#ff5207" stroke="none" /><path d="M 85.60350026404147 115.28858382429668 l -4.035773207800843 4.285851291283048 a26.886933554559256,26.886933554559256 0 0,0 -0.33330517023632744,-0.31929881341842314 l 4.108750863902485 -4.215940347559043" fill="#ff2603" stroke="none" /><path d="M 85.08716467003676 114.78537596483092 l -10.438275685982946 10.349060190567506 a35.69900153495372,35.69900153495372 0 0,0 -0.42773047485389853,-0.43888914819828884 l 10.614392961987654 -10.16834835030148" fill="#ffa40f" stroke="none" /><path d="M 84.58840730492382 114.26474011684316 l -10.818355780953764 10.01330860217691 a35.74120656410885,35.74120656410885 0 0,0 -0.41289994700657634,-0.4538493711847257 l 10.988653428802222 -9.82612165543451" fill="#ffa40f" stroke="none" /><path d="M 83.4222238831116 112.89097897827486 l -17.23002427865137 13.398171093949472 a42.82623937616508,42.82623937616508 0 0,0 -0.4463065621345407,-0.5842296164672215 l 17.457482818140207 -13.10042056424138" fill="#fdff18" stroke="none" /><path d="M 83.20337586046588 112.60449989151573 l -9.653203593727477 7.243943940112007 a33.06892967207277,33.06892967207277 0 0,0 -0.3368274891133672,-0.45697117857460257 l 9.776133102424675 -7.077166452268525" fill="#ff7f0b" stroke="none" /><path d="M 82.576782715395 111.72311816256416 l -17.94179677270913 12.072041585627847 a42.62503779137331,42.62503779137331 0 0,0 -0.403264442820301,-0.610593764485859 l 18.146385654450157 -11.762267942802927" fill="#fffe18" stroke="none" /><path d="M 82.37810715431573 111.42229804090323 l -12.344139068349033 8.001321806446668 a35.71050372995636,35.71050372995636 0 0,0 -0.3290166997559154,-0.5172689002375715 l 12.47967345973084 -7.788239231530425" fill="#ffa40f" stroke="none" /><line stroke="#e1ed5e" stroke-width="0.3" x1="26.387840678322732" x2="22.057713659400548" y1="142.50000000000003" y2="145.00000000000006" /><path d="M 25.521815274538298 143.00000000000003 a86.0,86.0 0 0,1 -11.493303480769221,-40.785679425670985" fill="none" id="id9" stroke="none" /><text fill="#e1ed5e" style="font-size:6.75px; font-family:Arial;" text-anchor="middle"><textPath startOffset="21.40746469413373" xlink:href="#id9">September</textPath></text><path d="M 81.81346652052679 110.50000000000001 l -7.213130822280515 4.164503021943647 a29.329006043887286,29.329006043887286 0 0,0 -0.24799299573717729,-0.43817986123769437 l 7.28355718303907 -4.040066390606831" fill="#ff4a06" stroke="none" /><path d="M 81.1358732173502 109.22738970284198 l -17.279645648458818 8.452340580746982 a40.23611746245182,40.23611746245182 0 0,0 -0.2981702122056617,-0.6230610649632979 l 17.42219511862439 -8.154467013718579" fill="#ffe015" stroke="none" /><path d="M 80.83023694016515 108.57439118712176 l -13.714539712525639 6.134339171510055 a36.02393811880113,36.02393811880113 0 0,0 -0.2476493381272518,-0.5666701503184594 l 13.81782293266986 -5.898006951415747" fill="#ffa80f" stroke="none" /><path d="M 80.68587082218212 108.24405325689762 l -12.969230329986843 5.535793229765649 a35.10127448264765,35.10127448264765 0 0,0 -0.23179236164638925,-0.556217286904926 l 13.062348536169718 -5.312343433419442" fill="#ff9b0e" stroke="none" /><path d="M 80.28708602549918 107.23885506374661 l -7.944360646053155 2.9172792700916443 a29.463059991177218,29.463059991177218 0 0,0 -0.17026818811973174,-0.4762704259550715 l 7.993269004216829 -2.7804738877556514" fill="#ff4c07" stroke="none" /><path d="M 79.94057633289273 106.21446072829308 l -9.119314446466205 2.8251869264543292 a30.546914535227373,30.546914535227373 0 0,0 -0.15087801848230464,-0.5022238531115221 l 9.166468784952139 -2.668225469752084" fill="#ff5c08" stroke="none" /><path d="M 79.73907114497094 105.5222062557868 l -29.779740748108996 8.11660076552205 a51.86603581627314,51.86603581627314 0 0,0 -0.2267546512805891,-0.8610243450691093 l 29.914684880194315 -7.604195916080137" fill="#91ff24" stroke="none" /><path d="M 79.48165901384964 104.47187691870673 l -16.418262900239544 3.578283983017836 a37.803674387600594,37.803674387600594 0 0,0 -0.13274902326628196,-0.6352521320165422 l 16.477269634330195 -3.2959153997158843" fill="#ffc011" stroke="none" /><path d="M 79.34024301695615 103.76489593502545 l -7.287146077210437 1.3279607628755443 a28.407157196815824,28.407157196815824 0 0,0 -0.08330761716631865,-0.480496197677567 l 7.30886851186899 -1.2026715322773847" fill="#ff3d05" stroke="none" /><path d="M 79.2786578344484 103.40968896794605 l -31.034816407397965 5.106767229704634 a52.452168462274315,52.452168462274315 0 0,0 -0.13856990668567626,-0.8897182042659331 l 31.11790780622191 -4.573260843507251" fill="#8aff24" stroke="none" /><path d="M 79.17382384314188 102.69636545807758 l -9.557643386245939 1.237428287036301 a30.637415414114322,30.637415414114322 0 0,0 -0.06305167507591025,-0.5221583190207633 l 9.57747714758151 -1.0731762910921383" fill="#ff5d08" stroke="none" /><path d="M 79.06263194458094 101.62068470465958 l -15.228013593900531 1.1787445608568259 a36.27356660232864,36.27356660232864 0 0,0 -0.04272687391222682,-0.6212393694239472 l 15.246004428977825 -0.9171617672785355" fill="#ffab0f" stroke="none" /><path d="M 79.01933749520258 100.90099992219065 l -16.750862172998033 0.7193540962324936 a37.76630113813249,37.76630113813249 0 0,0 -0.02225570464550858,-0.6479505576501946 l 16.76074256464039 -0.4316972740181792" fill="#ffbf11" stroke="none" /><line stroke="#e1ed5e" stroke-width="0.3" x1="15.003131293944662" x2="10.003315487706104" y1="100.72959589197737" y2="100.7725132973878" /><path d="M 14.003168132696942 100.73817937305945 a86.0,86.0 0 0,1 10.791469493833604,-42.45332614584628" fill="none" id="id10" stroke="none" /><text fill="#e1ed5e" style="font-size:6.75px; font-family:Arial;" text-anchor="middle"><textPath startOffset="22.145653131862435" xlink:href="#id10">October</textPath></text><path d="M 79.00077361379809 100.18025310272382 l -8.866225862379192 0.07610588560510756 a29.866552495110227,29.866552495110227 0 0,0 0.0,-0.5127179766578469 l 8.866225862379192 0.0761058856051043" fill="#ff5207" stroke="none" /><path d="M 79.00077361379809 99.81974689727619 l -16.88291232893361 -0.1449194972393851 a37.88353429727137,37.88353429727137 0 0,0 0.011164040156330731,-0.6502493700687448 l 16.87793685717861 0.43471578327718235" fill="#ffc111" stroke="none" /><path d="M 79.00696218219943 99.45929381324524 l -15.845066938078759 -0.408112718003007 a36.85032183467555,36.85032183467555 0 0,0 0.021715917474805026,-0.6322352431347115 l 15.835726333607104 0.680054225701857" fill="#ffb310" stroke="none" /><path d="M 79.03789590574601 98.7389718711861 l -16.282567929314713 -0.979518853444557 a37.312004032521614,37.312004032521614 0 0,0 0.04395005622655964,-0.639024171822702 l 16.26335391192309 1.2588864494215841" fill="#ffb911" stroke="none" /><path d="M 79.06263194458094 98.37931529534042 l -19.960295700186975 -1.5450531249271704 a41.020004835108054,41.020004835108054 0 0,0 0.06037046411305955,-0.7015963034913631 l 19.93083161337617 1.887470475794214" fill="#ffea16" stroke="none" /><path d="M 79.13060592940154 97.66154086499901 l -14.559682074710615 -1.6314427450619737 a35.65080023572313,35.65080023572313 0 0,0 0.07336920044577518,-0.6076022298621313 l 14.529530788005172 1.8811386518475415" fill="#ffa30f" stroke="none" /><path d="M 79.407916724674 95.88100663000787 l -14.693438852913154 -2.9390992843377535 a35.98450699647781,35.98450699647781 0 0,0 0.12636094860842204,-0.6046828822696245 l 14.640820193480364 3.190898617892787" fill="#ffa70f" stroke="none" /><path d="M 79.56144815229197 95.17655741523228 l -14.899595055974006 -3.5162638637158965 a36.30888775813838,36.30888775813838 0 0,0 0.14836930799847403,-0.605397407784275 l 14.837038221459233 3.771517096108289" fill="#ffac0f" stroke="none" /><path d="M 79.83685265289637 94.1308016681162 l -7.584492077812373 -2.2077351062792623 a28.89927935813746,28.89927935813746 0 0,0 0.1427399811556743,-0.47513497360436563 l 7.545475776653069 2.337607683474351" fill="#ff4406" stroke="none" /><path d="M 80.05021161711548 93.44210830539832 l -59.84936514865357 -19.67367508380505 a84.0,84.0 0 0,0 0.46205831371054007,-1.3659933021033535 l 59.50282141337067 20.698170060382566" fill="#4dd2ff" stroke="none" /><path d="M 80.83023694016515 91.42560881287825 l -13.304512043615642 -5.95093901054799 a35.57476297666537,35.57476297666537 0 0,0 0.2541317669333012,-0.5553237742310715 l 13.200395811827294 6.178451766993733" fill="#ffa20f" stroke="none" /><path d="M 81.29705330413844 90.45014215332179 l -13.61684013545194 -6.952855596989033 a36.28922941900724,36.28922941900724 0 0,0 0.2880534155840827,-0.5523804056489932 l 13.495478650892917 7.185582245742513" fill="#ffac0f" stroke="none" /><path d="M 81.46374523516351 90.13048839642627 l -10.511690494780305 -5.596883115148802 a32.90885123186499,32.90885123186499 0 0,0 0.2697815132562932,-0.4963675982664784 l 10.414063631908661 5.776505546889899" fill="#ff7d0b" stroke="none" /><line stroke="#e1ed5e" stroke-width="0.3" x1="26.387840678322718" x2="22.05771365940052" y1="57.49999999999999" y2="54.99999999999999" /><path d="M 25.521815274538284 56.99999999999999 a86.0,86.0 0 0,1 29.574782752854787,-30.34633250058573" fill="none" id="id11" stroke="none" /><text fill="#e1ed5e" style="font-size:6.75px; font-family:Arial;" text-anchor="middle"><textPath startOffset="21.40746469413373" xlink:href="#id11">November</textPath></text><path d="M 81.99639281039701 89.18935116829357 l -19.04288556799576 -11.434705637038078 a43.212248507557526,43.212248507557526 0 0,0 0.38732997604937897,-0.6326744068988832 l 18.843787627490986 11.759917160061505" fill="#f8ff18" stroke="none" /><path d="M 82.37810715431573 88.57770195909679 l -12.305405749764677 -7.976215337302961 a35.66434525552943,35.66434525552943 0 0,0 0.3374111335317689,-0.5108834608917189 l 12.166670177312179 8.18627867653374" fill="#ffa30f" stroke="none" /><path d="M 82.78059297857968 87.97951657250589 l -7.885289551067676 -5.504544509093284 a30.616537919478407,30.616537919478407 0 0,0 0.3045396431744578,-0.42837314666925136 l 7.789634809363246 5.6390948824720555" fill="#ff5d08" stroke="none" /><path d="M 83.42222388311158 87.10902102172516 l -11.67368971521484 -9.077531730232062 a35.78771834599519,35.78771834599519 0 0,0 0.38128161736876054,-0.4817368680576882 l 11.516141667204518 9.276588542204435" fill="#ffa50f" stroke="none" /><path d="M 83.8745106332314 86.54754324733833 l -14.102833080255675 -11.765084940188922 a39.365922915536096,39.365922915536096 0 0,0 0.4373468489883063,-0.515193488415215 l 13.898791667760253 12.005445211053694" fill="#ffd413" stroke="none" /><path d="M 84.58840730492382 85.73525988315684 l -11.03778229749343 -10.216406510038354 a36.0401994676006,36.0401994676006 0 0,0 0.42414881187612463,-0.4504313397892886 l 10.860777651881033 10.404379309772153" fill="#ffa80f" stroke="none" /><path d="M 85.08716467003674 85.21462403516908 l -13.312593001002423 -13.1988108385478 a39.74656608454214,39.74656608454214 0 0,0 0.48454486022526816,-0.4804034760487544 l 13.084056220647177 13.425394324825227" fill="#ffd914" stroke="none" /><path d="M 85.60350026404147 84.71141617570332 l -10.33866442522195 -10.979303344234447 a36.08088472278956,36.08088472278956 0 0,0 0.4545679963001583,-0.42074135106928595 l 10.148666657607839 11.155162441436099" fill="#ffa90f" stroke="none" /><path d="M 86.68645165197937 83.75963576809568 l -9.839124875222577 -12.002132528445086 a36.519650883334435,36.519650883334435 0 0,0 0.4882316120186438,-0.3932848265397852 l 9.631642492848687 12.169265648778271" fill="#ffaf10" stroke="none" /><path d="M 87.54013794807813 83.09580414077388 l -9.14626351098283 -12.408663043416198 a36.415221527353374,36.415221527353374 0 0,0 0.5063779141631365,-0.36657855910290177 l 8.931904586445727 12.563842373892179" fill="#ffad10" stroke="none" /><path d="M 88.12776184653039 82.6780497279521 l -8.575679829757373 -12.512173158912683 a36.168940691463014,36.168940691463014 0 0,0 0.5151554484007825,-0.3466195763412384 l 8.359628093259602 12.65754240931103" fill="#ffaa0f" stroke="none" /><line stroke="#e1ed5e" stroke-width="0.3" x1="56.869717070023135" x2="54.33264160355391" y1="26.7553504044142" y2="22.446841604673864" /><path d="M 56.362301976729285 25.89364864446614 a86.0,86.0 0 0,1 42.16139366436587,-11.88097634709845" fill="none" id="id12" stroke="none" /><text fill="#e1ed5e" style="font-size:6.75px; font-family:Arial;" text-anchor="middle"><textPath startOffset="22.145653131862474" xlink:href="#id12">December</textPath></text><path d="M 90.61103034731259 81.2157712731953 l -6.539485515618985 -13.083351658917458 a35.626652434507655,35.626652434507655 0 0,0 0.5493964878104014,-0.26873735279715777 l 6.31392877854653 13.19368276181183" fill="#ffa30f" stroke="none" /><path d="M 96.05791012581881 79.37332000966035 l -2.767829522958568 -14.482453637549106 a35.74456997107479,35.74456997107479 0 0,0 0.6036836872807042,-0.11001127758422818 l 2.518811102126825 14.527833089064695" fill="#ffa40f" stroke="none" /><path d="M 96.76829788921471 79.25015418208739 l -2.948623398337482 -18.932277417031116 a40.160519516460134,40.160519516460134 0 0,0 0.6821070979654251,-0.10024625375295393 l 2.623191194764372 18.980104744082954" fill="#ffdf14" stroke="none" /><path d="M 97.48249496171623 79.15144685158666 l -1.7697804976677565 -14.656321320335923 a35.76278692032295,35.76278692032295 0 0,0 0.6101201243929634,-0.06836523252702928 l 1.5179244716739937 14.684542313369922" fill="#ffa40f" stroke="none" /><path d="M 98.1996594967304 79.07731436759882 l -0.7945015014700375 -9.23331176493511 a30.267431077937793,30.267431077937793 0 0,0 0.5180501513292863,-0.040100358091025703 l 0.635882355365534 9.24558989002119" fill="#ff5808" stroke="none" /><path d="M 98.9189461498227 79.02784411241856 l -0.9369344734118463 -18.176278480132822 a39.20041058863253,39.20041058863253 0 0,0 0.6723322889474419,-0.028872841355195144 l 0.6247764238635843 18.189683889913844" fill="#ffd213" stroke="none" /><path d="M 99.63950707515114 79.00309439819443 l -0.3292192854068421 -19.175372889438997 a40.178198841051675,40.178198841051675 0 0,0 0.6897122102556895,-0.005920349807114149 l 4.6973039648210825e-15 19.178198841051675" fill="#ffdf14" stroke="none" /></svg>