<?xml version="1.0" encoding="utf-8" ?>
<svg baseProfile="full" height="200mm" version="1.1" viewBox="0,0,200,200" width="200mm" xmlns="http://www.w3.org/2000/svg" xmlns:ev="http://www.w3.org/2001/xml-events" xmlns:xlink="http://www.w3.org/1999/xlink"><defs /><rect fill="#1a1a1a" height="200" width="200" x="0" y="0" /><text alignment-baseline="middle" fill="#e1ed5e" style="dominant-baseline: central; font-size:9.0px; font-family:Arial;" text-anchor="middle" x="100.0" y="100.0">2019</text><line stroke="#e1ed5e" stroke-width="0.3" x1="100.0" x2="100.0" y1="15.0" y2="10.0" /><path d="M 100.0 14.0 a86.0,86.0 0 0,1 42.46469731375804,11.215312516191453" fill="none" id="id37" stroke="none" /><text fill="#e1ed5e" style="font-size:6.75px; font-family:Arial;" text-anchor="middle"><textPath startOffset="22.20632615414155" xlink:href="#id37">January</textPath></text><line stroke="#e1ed5e" stroke-width="0.3" x1="143.23703022742887" x2="145.7803849466894" y1="26.81831364943548" y2="22.513508569990506" /><path d="M 143.74570117128098 25.957352633546492 a86.0,86.0 0 0,1 28.547481713284135,27.462654790039103" fill="none" id="id38" stroke="none" /><text fill="#e1ed5e" style="font-size:6.75px; font-family:Arial;" text-anchor="middle"><textPath startOffset="19.985693538727396" xlink:href="#id38">February</textPath></text><line stroke="#e1ed5e" stroke-width="0.3" x1="172.23445277983987" x2="176.4835382374775" y1="55.19839476539836" y2="52.563006222186495" /><path d="M 173.08426987136738 54.67131705675599 a86.0,86.0 0 0,1 12.851231095245387,41.99856678651699" fill="none" id="id39" stroke="none" /><text fill="#e1ed5e" style="font-size:6.75px; font-family:Arial;" text-anchor="middle"><textPath startOffset="22.20632615414155" xlink:href="#id39">March</textPath></text><line stroke="#e1ed5e" stroke-width="0.3" x1="184.98032266829074" x2="189.97916517819016" y1="98.17113171792111" y2="98.06355123074" /><path d="M 185.9800911702706 98.14961562048488 a86.0,86.0 0 0,1 -9.607161424134198,41.387399972396054" fill="none" id="id40" stroke="none" /><text fill="#e1ed5e" style="font-size:6.75px; font-family:Arial;" text-anchor="middle"><textPath startOffset="21.466115282336823" xlink:href="#id40">April</textPath></text><line stroke="#e1ed5e" stroke-width="0.3" x1="174.80103733775053" x2="179.2010983576182" y1="140.37084112569926" y2="142.7455964860345" /><path d="M 175.68104954172406 140.8457921977663 a86.0,86.0 0 0,1 -30.038265399797805,32.042727171017184" fill="none" id="id41" stroke="none" /><text fill="#e1ed5e" style="font-size:6.75px; font-family:Arial;" text-anchor="middle"><textPath startOffset="22.206326154141568" xlink:href="#id41">May</textPath></text><line stroke="#e1ed5e" stroke-width="0.3" x1="143.8653032363475" x2="146.44561519142675" y1="172.8068346515853" y2="177.08958963109032" /><path d="M 144.38136562736335 173.6633856474863 a86.0,86.0 0 0,1 -40.68145358897372,12.25698825130547" fill="none" id="id42" stroke="none" /><text fill="#e1ed5e" style="font-size:6.75px; font-family:Arial;" text-anchor="middle"><textPath startOffset="21.466115282336833" xlink:href="#id42">June</textPath></text><line stroke="#e1ed5e" stroke-width="0.3" x1="102.19456741930631" x2="102.32365962044197" y1="184.97166512339345" y2="189.96999836594603" /><path d="M 102.22038585953345 185.97133177190398 a86.0,86.0 0 0,1 -42.740103519485714,-10.115201625700543" fill="none" id="id43" stroke="none" /><text fill="#e1ed5e" style="font-size:6.75px; font-family:Arial;" text-anchor="middle"><textPath startOffset="22.20632615414155" xlink:href="#id43">July</textPath></text><line stroke="#e1ed5e" stroke-width="0.3" x1="58.666819895761336" x2="56.23545636021788" y1="174.27360380694188" y2="178.64263932499728" /><path d="M 58.180547188652646 175.14741091055294 a86.0,86.0 0 0,1 -31.652253787137756,-30.449443065178592" fill="none" id="id44" stroke="none" /><text fill="#e1ed5e" style="font-size:6.75px; font-family:Arial;" text-anchor="middle"><textPath startOffset="22.20632615414155" xlink:href="#id44">August</textPath></text><path d="M 83.06392112726016 112.41649034213515 l -25.36353665046901 18.594983539539456 a52.44968051118211,52.44968051118211 0 0,0 -0.5275444003526162,-0.7327130317526285 l 25.67986084319723 -18.155636902335687" fill="red" stroke="none" /><path d="M 82.85270091963577 112.12312394758628 l -25.684996815365867 18.159268029716156 a52.45597044728434,52.45597044728434 0 0,0 -0.5149155315206243,-0.7417742273705203 l 25.993773254048627 -17.71445254015862" fill="red" stroke="none" /><path d="M 82.6465618267979 111.8261652097733 l -26.07173898066545 17.767585271232882 a52.55031948881789,52.55031948881789 0 0,0 -0.5029738584250653,-0.7518776739562006 l 26.373715944501246 -17.31617068307086" fill="red" stroke="none" /><path d="M 82.44556493220864 111.52570212397912 l -26.28958925887285 17.26093568886649 a52.44968051118211,52.44968051118211 0 0,0 -0.4890186838817717,-0.7589678570652006 l 26.58281280613167 -16.80584623187984" fill="red" stroke="none" /><path d="M 82.05923443525364 110.91462005526583 l -26.93264287455335 16.385006704370706 a52.525159744408946,52.525159744408946 0 0,0 -0.46326971865094796,-0.776466695683421 l 27.210693468902527 -15.918977914801175" fill="red" stroke="none" /><line stroke="#e1ed5e" stroke-width="0.3" x1="26.63291911575756" x2="22.317208475507996" y1="142.92168965132927" y2="145.44649492493687" /><path d="M 25.769776987707644 143.4266507060508 a86.0,86.0 0 0,1 -11.730757126820373,-40.83630448921669" fill="none" id="id45" stroke="none" /><text fill="#e1ed5e" style="font-size:6.75px; font-family:Arial;" text-anchor="middle"><textPath startOffset="21.46611528233685" xlink:href="#id45">September</textPath></text><path d="M 81.87401531095188 110.60418214915194 l -27.14554416291154 15.88086384158138 a52.44968051118211,52.44968051118211 0 0,0 -0.44918906392293645,-0.7831989952085257 l 27.414885222986854 -15.411245000514548" fill="red" stroke="none" /><path d="M 81.18737489456691 109.33194174019688 l -33.86497909853819 16.798613176492587 a58.802515974440894,58.802515974440894 0 0,0 -0.4419897928298315,-0.9106298862817116 l 34.149122147982744 -16.213194334245593" fill="red" stroke="none" /><path d="M 81.02952815118164 109.00673069616217 l -28.495482125147 13.528979964432887 a52.54402955271566,52.54402955271566 0 0,0 -0.3808826205448386,-0.8203872797449395 l 28.724139362531666 -13.03647261740912" fill="red" stroke="none" /><path d="M 80.87730276802145 108.67885076344099 l -27.229224033793724 12.358004152176063 a50.90235623003195,50.90235623003195 0 0,0 -0.35524733874740283,-0.800988966316926 l 27.437912457272407 -11.88746684936644" fill="red" stroke="none" /><path d="M 80.73074385275274 108.34839909993369 l -28.857711881859917 12.50259449870261 a52.44968051118211,52.44968051118211 0 0,0 -0.3517850493703333,-0.8315159410877966 l 29.068647912422556 -12.004004031948654" fill="red" stroke="none" /><path d="M 80.45479744820244 107.68017299344265 l -58.6356076553927 23.04051898032796 a84.0,84.0 0 0,0 -0.5172228816259636,-1.3503057326673686 l 59.02352481661217 -22.027789680827432" fill="red" stroke="none" /><path d="M 80.32549172779594 107.34259656027581 l -29.46461901787748 10.996300759198999 a52.44968051118211,52.44968051118211 0 0,0 -0.3083934791027662,-0.8485664047618784 l 29.649536757985473 -10.487486557431003" fill="red" stroke="none" /><path d="M 80.0844068197444 106.66101706037122 l -29.825668700462668 9.975564687057545 a52.44968051118211,52.44968051118211 0 0,0 -0.2790017021343358,-0.8586789455027227 l 29.99296265361325 -9.460686841577019" fill="red" stroke="none" /><path d="M 79.86692584326677 105.97154293290107 l -30.15136904462843 8.943005590406964 a52.44968051118211,52.44968051118211 0 0,0 -0.24927925276130397,-0.8677737812277383 l 30.30084093427584 -8.422674333674628" fill="red" stroke="none" /><path d="M 79.67330655649465 105.27499134158121 l -30.441334030808726 7.8998472567609985 a52.44968051118211,52.44968051118211 0 0,0 -0.21926135798670285,-0.8758401327510827 l 30.572806703090485 -7.374679284612524" fill="red" stroke="none" /><path d="M 79.29508885075956 103.50808413554451 l -34.13333595210245 5.783295252207562 a55.61980830670927,55.61980830670927 0 0,0 -0.15181094451913726,-0.9453268964355459 l 34.22782865098287 -5.194889126078802" fill="red" stroke="none" /><line stroke="#e1ed5e" stroke-width="0.3" x1="15.007084014347285" x2="10.007500721073583" y1="101.09737516637583" y2="101.16192664675087" /><path d="M 14.007167355692545 101.11028546245083 a86.0,86.0 0 0,1 10.666146001902534,-42.60595125391555" fill="none" id="id46" stroke="none" /><text fill="#e1ed5e" style="font-size:6.75px; font-family:Arial;" text-anchor="middle"><textPath startOffset="22.20632615414155" xlink:href="#id46">October</textPath></text><path d="M 79.05617556472873 98.46500227214037 l -31.365551770074777 -2.298818482217901 a52.44968051118211,52.44968051118211 0 0,0 0.07374304240929123,-0.899851901670349 l 31.32133424384599 2.838384301096028" fill="red" stroke="none" /><path d="M 79.16333360222342 97.38593545837743 l -31.2050714822932 -3.914833079506633 a52.44968051118211,52.44968051118211 0 0,0 0.12009478510076159,-0.894845642463107 l 31.133060698134607 4.4513970640344" fill="red" stroke="none" /><path d="M 79.26566170972629 96.67025291283419 l -31.051824516184677 -4.986642003543047 a52.44968051118211,52.44968051118211 0 0,0 0.1508256461871107,-0.8901815015466501 l 30.961387008477345 5.5204092934055256" fill="red" stroke="none" /><path d="M 79.62865764111835 94.90015583598534 l -30.508200417654226 -7.637546172146544 a52.44968051118211,52.44968051118211 0 0,0 0.22679158964979945,-0.8739205090325103 l 30.372212496134118 8.161563106727918" fill="red" stroke="none" /><path d="M 79.81627453868168 94.20196356495316 l -29.870543381901097 -8.580700287210403 a52.07857428115016,52.07857428115016 0 0,0 0.25492239633010294,-0.8594715917135296 l 29.718415088459288 9.093601265670472" fill="red" stroke="none" /><path d="M 80.803312248108 91.48605970444005 l -28.7490331747584 -12.750509627935218 a52.44968051118211,52.44968051118211 0 0,0 0.3731362259230027,-0.8221562127402908 l 28.525294631872043 13.24348784951758" fill="red" stroke="none" /><path d="M 81.26839172434947 90.50648371742162 l -28.546252867365173 -14.467754845974078 a53.00319488817891,53.00319488817891 0 0,0 0.41945861918054284,-0.810260541259856 l 28.292984815024514 14.956988109494269" fill="red" stroke="none" /><line stroke="#e1ed5e" stroke-width="0.3" x1="26.266209847984243" x2="21.928928074336255" y1="57.711370442889674" y2="55.22380399835377" /><path d="M 25.398753493254645 57.213857153982495 a86.0,86.0 0 0,1 29.58750427330803,-30.492523968695096" fill="none" id="id47" stroke="none" /><text fill="#e1ed5e" style="font-size:6.75px; font-family:Arial;" text-anchor="middle"><textPath startOffset="21.46611528233685" xlink:href="#id47">November</textPath></text><path d="M 82.54541684631803 88.32363383020206 l -26.140050649483772 -17.486570741510487 a52.44968051118211,52.44968051118211 0 0,0 0.5084510350270358,-0.7460891543397843 l 25.835175148787997 17.933937919120687" fill="red" stroke="none" /><path d="M 85.31137513191541 84.99185889309783 l -21.997740916660227 -22.476249660895835 a52.44968051118211,52.44968051118211 0 0,0 0.6506676495398874,-0.6259417633340618 l 21.607590023507914 22.85157451099221" fill="red" stroke="none" /><path d="M 85.83668400450813 84.49514656593479 l -21.211036335101646 -23.220127946383613 a52.44968051118211,52.44968051118211 0 0,0 0.671827988648081,-0.6031738015802438 l 20.808197358857594 23.581800756733138" fill="red" stroke="none" /><path d="M 86.10567301691215 84.25364557470407 l -20.808197358857594 -23.581800756733138 a52.44968051118211,52.44968051118211 0 0,0 0.6821110955523476,-0.5915200204286413 l 20.399192464658473 23.93648577058146" fill="red" stroke="none" /><path d="M 87.22198572758235 83.33499621200491 l -19.13640316356478 -24.957573564289774 a52.44968051118211,52.44968051118211 0 0,0 0.7211927134165452,-0.543187399852391 l 18.70396429638984 25.283277553648016" fill="red" stroke="none" /><path d="M 87.80319425747018 82.90503203632743 l -18.265983040929253 -25.60148956220932 a52.44968051118211,52.44968051118211 0 0,0 0.7394627208641329,-0.5180408919146577 l 17.822589180481458 25.91211529688792" fill="red" stroke="none" /><path d="M 88.70189139769569 82.29822771554957 l -33.85371758909315 -53.04169227245668 a83.92452076677316,83.92452076677316 0 0,0 1.224422181394158,-0.7667330576603183 l 32.935676255326754 53.616569671439926" fill="red" stroke="none" /><line stroke="#e1ed5e" stroke-width="0.3" x1="56.762969772571076" x2="54.21961505331055" y1="26.818313649435495" y2="22.513508569990535" /><path d="M 56.25429882871897 25.957352633546506 a86.0,86.0 0 0,1 42.265352541879196,-11.944610805530505" fill="none" id="id48" stroke="none" /><text fill="#e1ed5e" style="font-size:6.75px; font-family:Arial;" text-anchor="middle"><textPath startOffset="22.20632615414155" xlink:href="#id48">December</textPath></text><path d="M 90.58718382345135 81.22770947309562 l -14.096669593473402 -28.11345426353493 a52.44968051118211,52.44968051118211 0 0,0 0.8105442077143754,-0.3977305225705972 l 13.6106541187486 28.351939946240357" fill="red" stroke="none" /><path d="M 92.91201910852362 80.23233633223022 l -7.466582107225172 -20.82354426503984 a43.121705271565496,43.121705271565496 0 0,0 0.7008673345078286,-0.24451885111892582 l 7.107032768654058 20.948983969330975" fill="red" stroke="none" /><path d="M 93.94186890950719 79.89281104454417 l -9.089011171808645 -30.166805953837315 a52.506289936102235,52.506289936102235 0 0,0 0.867628392327512,-0.2532845196574506 l 8.568392561757712 30.318788802413465" fill="red" stroke="none" /><path d="M 94.63758080256005 79.69619591428918 l -8.030779548881714 -30.407054840820923 a52.44968051118211,52.44968051118211 0 0,0 0.8748884225894623,-0.22302853912137766 l 7.506182237607253 30.54078637611116" fill="red" stroke="none" /><path d="M 94.98787191387505 79.60689891045804 l -7.506182237607253 -30.54078637611116 a52.44968051118211,52.44968051118211 0 0,0 0.8785978681055561,-0.20793572902196203 l 6.979360682539163 30.665468017273994" fill="red" stroke="none" /><path d="M 96.75951476605007 79.25152402106235 l -4.852963109948961 -31.07299717292978 a52.44968051118211,52.44968051118211 0 0,0 0.893220605590747,-0.13163749842543937 l 4.317373523929565 31.15192915551619" fill="red" stroke="none" /><path d="M 97.83486435360386 79.11191278185805 l -3.2425154448824047 -31.282079500012895 a52.44968051118211,52.44968051118211 0 0,0 0.8988248622913986,-0.0853542510391617 l 2.7035654555007698 31.333259295567235" fill="red" stroke="none" /></svg>