<?xml version="1.0" encoding="utf-8" ?>
<svg baseProfile="full" height="200mm" version="1.1" viewBox="0,0,200,200" width="200mm" xmlns="http://www.w3.org/2000/svg" xmlns:ev="http://www.w3.org/2001/xml-events" xmlns:xlink="http://www.w3.org/1999/xlink"><defs /><rect fill="#1a1a1a" height="200" width="200" x="0" y="0" /><text alignment-baseline="middle" fill="#e1ed5e" style="dominant-baseline: central; font-size:9.0px; font-family:Arial;" text-anchor="middle" x="100.0" y="100.0">2022</text><line stroke="#e1ed5e" stroke-width="0.3" x1="100.0" x2="100.0" y1="15.0" y2="10.0" /><path d="M 100.0 14.0 a86.0,86.0 0 0,1 42.46469731375804,11.215312516191453" fill="none" id="id73" stroke="none" /><text fill="#e1ed5e" style="font-size:6.75px; font-family:Arial;" text-anchor="middle"><textPath startOffset="22.20632615414155" xlink:href="#id73">January</textPath></text><path d="M 101.08401301168833 79.027996857942 l 1.586383706360192 -30.691185175423985 a51.732156786271446,51.732156786271446 0 0,0 0.888901212565055,0.05362094862584022 l -2.114446967764859 30.659330957417843" fill="red" stroke="none" /><line stroke="#e1ed5e" stroke-width="0.3" x1="143.23703022742887" x2="145.7803849466894" y1="26.81831364943548" y2="22.513508569990506" /><path d="M 143.74570117128098 25.957352633546492 a86.0,86.0 0 0,1 28.547481713284135,27.462654790039103" fill="none" id="id74" stroke="none" /><text fill="#e1ed5e" style="font-size:6.75px; font-family:Arial;" text-anchor="middle"><textPath startOffset="19.985693538727396" xlink:href="#id74">February</textPath></text><path d="M 114.68862486808459 84.99185889309783 l 9.847794909608975 -10.062010359892687 a35.07917316692668,35.07917316692668 0 0,0 0.42790611071893825,0.4260685458913969 l -10.019536820495237 9.891005963351173" fill="red" stroke="none" /><line stroke="#e1ed5e" stroke-width="0.3" x1="172.23445277983987" x2="176.4835382374775" y1="55.19839476539836" y2="52.563006222186495" /><path d="M 173.08426987136738 54.67131705675599 a86.0,86.0 0 0,1 12.851231095245387,41.99856678651699" fill="none" id="id75" stroke="none" /><text fill="#e1ed5e" style="font-size:6.75px; font-family:Arial;" text-anchor="middle"><textPath startOffset="22.20632615414155" xlink:href="#id75">March</textPath></text><path d="M 117.84615892207809 88.93136811851018 l 26.158473778822135 -16.224136415214158 a51.781298751950075,51.781298751950075 0 0,0 0.4632803799863185,0.7615111333235294 l -26.43386995709468 15.771457508683547" fill="red" stroke="none" /><path d="M 118.56541770881063 90.18545643968196 l 27.983891610813536 -14.793587061130722 a52.65356864274571,52.65356864274571 0 0,0 0.41669173423241107,0.8049158002218441 l -28.23439277820606 14.309698538648533" fill="red" stroke="none" /><path d="M 120.67395015179393 96.31383870115 l 30.261051060718664 -5.395539529868964 a51.73829953198128,51.73829953198128 0 0,0 0.14877998080216506,0.8781078686461983 l -30.34944290304105 4.873845872906927" fill="red" stroke="none" /><path d="M 120.73433829027371 96.67025291283417 l 30.367638012695153 -4.876767842854713 a51.75672776911077,51.75672776911077 0 0,0 0.1336903550638472,0.8808524021124552 l -30.4470842611983 4.353316328350176" fill="red" stroke="none" /><path d="M 120.78858239683441 97.02765380044208 l 30.501812393483256 -4.361141342721087 a51.81201248049922,51.81201248049922 0 0,0 0.11863470747274893,0.8839663682133125 l -30.57236310001384 3.83545663244311" fill="red" stroke="none" /><path d="M 120.87857604477298 97.74499172005257 l 18.87133384702083 -2.0382143871989737 a39.981084243369736,39.981084243369736 0 0,0 0.06801139273876783,0.6848654433955931 l -18.903622365441827 1.7130734130989456" fill="red" stroke="none" /><line stroke="#e1ed5e" stroke-width="0.3" x1="184.98032266829074" x2="189.97916517819016" y1="98.17113171792111" y2="98.06355123074" /><path d="M 185.9800911702706 98.14961562048488 a86.0,86.0 0 0,1 -9.607161424134198,41.387399972396054" fill="none" id="id76" stroke="none" /><text fill="#e1ed5e" style="font-size:6.75px; font-family:Arial;" text-anchor="middle"><textPath startOffset="21.466115282336823" xlink:href="#id76">April</textPath></text><path d="M 120.99980553446 99.90962569577887 l 30.71344413191301 -0.13217770703168397 a51.71372854914196,51.71372854914196 0 0,0 -0.0038310089368478835,0.890191557964873 l -30.71116882568666 -0.3965233291368738" fill="red" stroke="none" /><path d="M 120.8583938346157 102.4346265915055 l 17.724346945073698 2.0688154002506347 a38.844676287051485,38.844676287051485 0 0,0 -0.0832358003196221,0.6634712249818479 l -17.68610963550723 -2.3736043795198776" fill="red" stroke="none" /><path d="M 120.5718875245553 104.21870165774334 l 30.19590432865205 6.1923103310908925 a51.82429797191888,51.82429797191888 0 0,0 -0.18673025349886366,0.8723415786443801 l -30.08484003642874 -6.711165729151442" fill="red" stroke="none" /><path d="M 119.79798401119884 107.00284435728193 l 29.094697252026997 10.2912314891725 a51.86115444617785,51.86115444617785 0 0,0 -0.3049330652554229,0.8390448320425811 l -28.913239925766344 -10.790524118221212" fill="red" stroke="none" /><path d="M 118.81262510543309 109.33194174019688 l 27.520067712247727 13.651240437614447 a51.7198712948518,51.7198712948518 0 0,0 -0.4024823888327448,0.7941359366811277 l -27.28100665362871 -14.12293058599827" fill="red" stroke="none" /><line stroke="#e1ed5e" stroke-width="0.3" x1="174.80103733775053" x2="179.2010983576182" y1="140.37084112569926" y2="142.7455964860345" /><path d="M 175.68104954172406 140.8457921977663 a86.0,86.0 0 0,1 -30.038265399797805,32.042727171017184" fill="none" id="id77" stroke="none" /><text fill="#e1ed5e" style="font-size:6.75px; font-family:Arial;" text-anchor="middle"><textPath startOffset="22.206326154141568" xlink:href="#id77">May</textPath></text><path d="M 117.75023020441432 111.22182372390056 l 15.810096813311713 9.995257382783887 a39.70466068642746,39.70466068642746 0 0,0 -0.3701894982698535,0.5745423221453887 l -15.635702451664809 -10.265921304850728" fill="red" stroke="none" /><path d="M 117.55443506779139 111.5257021239791 l 25.741141671657036 16.900841872320754 a51.793584243369736,51.793584243369736 0 0,0 -0.49573093297931076,0.7410504831478272 l -25.446407633267007 -17.34142926967439" fill="red" stroke="none" /><path d="M 117.14729908036423 112.12312394758627 l 30.275281956633737 21.404595206990273 a58.07761310452418,58.07761310452418 0 0,0 -0.5841507380127147,0.8113342838323045 l -29.90235142624542 -21.922563096273706" fill="red" stroke="none" /><path d="M 115.80600337817218 113.82643327865902 l 16.37160431808922 14.321197418018215 a42.75146255850234,42.75146255850234 0 0,0 -0.4892826519298308,0.5497142462929454 l -16.12266281651105 -14.600885834052027" fill="red" stroke="none" /><path d="M 115.56566222782051 114.09645910891815 l 45.672530559848155 41.36161700123577 a82.6178822152886,82.6178822152886 0 0,0 -0.9636927148772049,1.0458981103764569 l -44.95379143697523 -42.14166636641356" fill="red" stroke="none" /><path d="M 115.07121518719521 114.62390073753431 l 22.113070021149902 21.456752954213766 a51.81201248049922,51.81201248049922 0 0,0 -0.6265783954363033,0.6347206065048032 l -21.740451000658062 -21.834214054699235" fill="red" stroke="none" /><path d="M 114.55890576462653 115.13401014063108 l 17.409362353488667 18.097065168164935 a46.11154446177847,46.11154446177847 0 0,0 -0.5767547786192485,0.5453576424026764 l -17.095271740478612 -18.394057447313532" fill="red" stroke="none" /><path d="M 114.0293411484842 115.62618273729858 l 20.609014600532664 22.954764929810874 a51.84886895475819,51.84886895475819 0 0,0 -0.6692396392062584,0.5905261704409226 l -20.210832608419818 -23.306114242024083" fill="red" stroke="none" /><path d="M 113.20401910651253 116.32954008644616 l 19.334824389782096 23.911567181966504 a51.75058502340094,51.75058502340094 0 0,0 -0.6975054923032048,0.5541405477217674 l -18.92036140476154 -24.240841643693397" fill="red" stroke="none" /><path d="M 111.7513745106137 117.40417183066458 l 17.25238358095852 25.551347041177515 a51.830440717628704,51.830440717628704 0 0,0 -0.7437058649371381,0.49288769423902656 l -16.810003017281417 -25.84453275650786" fill="red" stroke="none" /><line stroke="#e1ed5e" stroke-width="0.3" x1="143.8653032363475" x2="146.44561519142675" y1="172.8068346515853" y2="177.08958963109032" /><path d="M 144.38136562736335 173.6633856474863 a86.0,86.0 0 0,1 -40.68145358897372,12.25698825130547" fill="none" id="id78" stroke="none" /><text fill="#e1ed5e" style="font-size:6.75px; font-family:Arial;" text-anchor="middle"><textPath startOffset="21.466115282336833" xlink:href="#id78">June</textPath></text><path d="M 110.5260780823613 118.17145234162733 l 15.505849031621917 26.768165169394074 a51.934867394695786,51.934867394695786 0 0,0 -0.7774185526336492,0.44143854356328427 l -15.042781712067068 -27.031106878751988" fill="red" stroke="none" /><path d="M 107.59598834532513 119.57807347666477 l 13.413703678060003 34.57278556317041 a58.083755850234006,58.083755850234006 0 0,0 -0.9352308353835106,0.35362427742055397 l -12.816602621916218 -34.7985580906976" fill="red" stroke="none" /><path d="M 107.2578585660854 119.70592522655815 l 12.916384023809554 35.06947613447146 a58.37246489859594,58.37246489859594 0 0,0 -0.945857523943791,0.3391508560874431 l -12.310806939236029 -35.286614531598865" fill="red" stroke="none" /><path d="M 102.34483914955558 120.86867818915974 l 2.09403098389037 18.636527255705353 a39.75380265210609,39.75380265210609 0 0,0 -0.6806748378414806,0.07055473005376858 l -1.772923549443287 -18.66981135421488" fill="red" stroke="none" /><line stroke="#e1ed5e" stroke-width="0.3" x1="102.19456741930631" x2="102.32365962044197" y1="184.97166512339345" y2="189.96999836594603" /><path d="M 102.22038585953345 185.97133177190398 a86.0,86.0 0 0,1 -42.740103519485714,-10.115201625700543" fill="none" id="id79" stroke="none" /><text fill="#e1ed5e" style="font-size:6.75px; font-family:Arial;" text-anchor="middle"><textPath startOffset="22.20632615414155" xlink:href="#id79">July</textPath></text><path d="M 97.65516085044442 120.86867818915974 l -2.0803131261511556 18.51444060483273 a39.630947737909516,39.630947737909516 0 0,0 -0.6772600162675857,-0.08200675619353334 l 2.3987005654701306 -18.475888319913846" fill="red" stroke="none" /><line stroke="#e1ed5e" stroke-width="0.3" x1="58.666819895761336" x2="56.23545636021788" y1="174.27360380694188" y2="178.64263932499728" /><path d="M 58.180547188652646 175.14741091055294 a86.0,86.0 0 0,1 -31.652253787137756,-30.449443065178592" fill="none" id="id80" stroke="none" /><text fill="#e1ed5e" style="font-size:6.75px; font-family:Arial;" text-anchor="middle"><textPath startOffset="22.20632615414155" xlink:href="#id80">August</textPath></text><path d="M 88.24862548938628 117.40417183066458 l -10.810668731244185 16.010955657402523 a40.318935257410295,40.318935257410295 0 0,0 -0.5718436802740511,-0.39331929764155554 l 11.084669296141126 -15.822495570395867" fill="red" stroke="none" /><path d="M 87.95078237400918 117.19931262002967 l -7.6376719760692575 10.902177393019981 a34.311329953198126,34.311329953198126 0 0,0 -0.48080413097076846,-0.3430409813062029 l 7.824203434888913 -10.769092149869559" fill="red" stroke="none" /><path d="M 87.65650970185807 116.9893568818739 l -3.690048874230027 5.078916556145218 a27.277886115444616,27.277886115444616 0 0,0 -0.37749350858852243,-0.27926067305858304 l 3.776927353237114 -5.014645934346869" fill="red" stroke="none" /><line stroke="#e1ed5e" stroke-width="0.3" x1="26.63291911575756" x2="22.317208475507996" y1="142.92168965132927" y2="145.44649492493687" /><path d="M 25.769776987707644 143.4266507060508 a86.0,86.0 0 0,1 -11.730757126820373,-40.83630448921669" fill="none" id="id81" stroke="none" /><text fill="#e1ed5e" style="font-size:6.75px; font-family:Arial;" text-anchor="middle"><textPath startOffset="21.46611528233685" xlink:href="#id81">September</textPath></text><path d="M 81.51974371655577 109.97397251340807 l -24.83915102060051 13.405929319162464 a49.225916536661465,49.225916536661465 0 0,0 -0.39602833948571703,-0.7491363711305031 l 25.066231868311114 -12.976377932945836" fill="red" stroke="none" /><path d="M 81.35079622478065 109.6543875284942 l -27.275551543320034 14.120106564685347 a51.71372854914196,51.71372854914196 0 0,0 -0.4024345861815569,-0.7940416175153069 l 27.514564799287857 -13.648510735467356" fill="red" stroke="none" /><path d="M 80.32549172779594 107.34259656027581 l -28.7866294006137 10.743272619295906 a51.72601404056162,51.72601404056162 0 0,0 -0.30413846709107073,-0.8368584391606346 l 28.967292128709992 -10.246166383129156" fill="red" stroke="none" /><path d="M 80.0844068197444 106.66101706037122 l -29.145196767010173 9.747972412159877 a51.732156786271446,51.732156786271446 0 0,0 -0.27518489450804023,-0.8469320195067079 l 29.30867391253446 -9.244841492675366" fill="red" stroke="none" /><path d="M 79.58551787078972 104.9243191809786 l -29.952918007055032 7.225151622013067 a51.81201248049922,51.81201248049922 0 0,0 -0.20167069419785805,-0.8687920723919342 l 30.072849267183443 -6.708490892272558" fill="red" stroke="none" /><path d="M 79.4281124754447 104.21870165774334 l -18.14281617195813 3.7205690809563685 a39.520378315132604,39.520378315132604 0 0,0 -0.1309254937243235,-0.6675862718273599 l 18.20417159865812 -3.4077190820610537" fill="red" stroke="none" /><path d="M 79.23777060512086 103.15116336523772 l -62.286688184637434 9.45349009571317 a84.0,84.0 0 0,0 -0.20466379593360395,-1.4314181120783975 l 62.440186031587636 -8.379926511654372" fill="red" stroke="none" /><path d="M 79.07016306316243 101.71520430193888 l -30.978444296138296 2.538689674671627 a52.08229329173167,52.08229329173167 0 0,0 -0.06553302006766441,-0.8941459925963725 l 31.017553874870295 -2.0050705455784943" fill="red" stroke="none" /><line stroke="#e1ed5e" stroke-width="0.3" x1="15.007084014347285" x2="10.007500721073583" y1="101.09737516637583" y2="101.16192664675087" /><path d="M 14.007167355692545 101.11028546245083 a86.0,86.0 0 0,1 10.666146001902534,-42.60595125391555" fill="none" id="id82" stroke="none" /><text fill="#e1ed5e" style="font-size:6.75px; font-family:Arial;" text-anchor="middle"><textPath startOffset="22.20632615414155" xlink:href="#id82">October</textPath></text><path d="M 79.00175016825051 100.2711162175752 l -30.71116882568666 0.3965233291369018 a51.71372854914196,51.71372854914196 0 0,0 -0.0038310089368478835,-0.890191557964896 l 30.71344413191301 0.13217770703166962" fill="red" stroke="none" /><path d="M 79.03285615573316 98.82574320788736 l -30.67180763412009 -1.7177627390859995 a51.7198712948518,51.7198712948518 0 0,0 0.057432230091607604,-0.8884511794104111 l 30.63769481302407 2.2454729827494226" fill="red" stroke="none" /><path d="M 79.12142395522702 97.74499172005258 l -30.5849967332946 -3.30335846313671 a51.76287051482059,51.76287051482059 0 0,0 0.10330303003795556,-0.8850372752678914 l 30.523603350253055 3.8293394767294635" fill="red" stroke="none" /><path d="M 79.21141760316559 97.0276538004421 l -27.576897768031607 -3.9429377968979398 a48.85735179407176,48.85735179407176 0 0,0 0.12620111414243465,-0.8315076617796696 l 27.504940760449873 4.4170445710697015" fill="red" stroke="none" /><path d="M 79.26566170972629 96.67025291283419 l -30.45861356096566 -4.891377692593614 a51.84886895475819,51.84886895475819 0 0,0 0.14909793706951174,-0.8799844645345752 l 30.369903762375923 5.414947945444017" fill="red" stroke="none" /><path d="M 80.02781315780177 93.51064311812611 l -29.309807348081655 -9.52333370018369 a51.81815522620904,51.81815522620904 0 0,0 0.2829338052376907,-0.8459360651662239 l 29.141536249072193 10.026442868272236" fill="red" stroke="none" /><path d="M 81.26839172434947 90.50648371742162 l -16.50887355729379 -8.366994313399568 a39.50809282371295,39.50809282371295 0 0,0 0.31266058767312793,-0.6039607375182163 l 16.362403536460548 8.64992777317812" fill="red" stroke="none" /><line stroke="#e1ed5e" stroke-width="0.3" x1="26.266209847984243" x2="21.928928074336255" y1="57.711370442889674" y2="55.22380399835377" /><path d="M 25.398753493254645 57.213857153982495 a86.0,86.0 0 0,1 29.58750427330803,-30.492523968695096" fill="none" id="id83" stroke="none" /><text fill="#e1ed5e" style="font-size:6.75px; font-family:Arial;" text-anchor="middle"><textPath startOffset="21.46611528233685" xlink:href="#id83">November</textPath></text><path d="M 81.78341655067845 89.55222093294921 l -26.7547188472241 -15.34466615512734 a51.842726209048365,51.842726209048365 0 0,0 0.4506375294545478,-0.7702856141392174 l 26.48662164329923 15.80293118162045" fill="red" stroke="none" /><path d="M 81.96595687620814 89.24020034530311 l -26.407494113992417 -15.755720672215089 a51.75058502340094,51.75058502340094 0 0,0 0.46300558834966393,-0.761059448124454 l 26.132372727356536 16.207947893546617" fill="red" stroke="none" /><path d="M 82.54541684631803 88.32363383020206 l -25.661096411000063 -17.166170934888193 a51.8734399375975,51.8734399375975 0 0,0 0.502864916804615,-0.737892215139166 l 25.36180702852671 17.605341173297774" fill="red" stroke="none" /><path d="M 84.80347519578584 85.50635884689758 l -22.274703332854077 -21.24443325415255 a51.781298751950075,51.781298751950075 0 0,0 0.62072396989195,-0.639710614151026 l 21.90571509925901 21.6247080638537" fill="red" stroke="none" /><path d="M 85.31137513191541 84.99185889309783 l -21.487269783138956 -21.954674437095694 a51.7198712948518,51.7198712948518 0 0,0 0.6416139576436908,-0.6172321189031515 l 21.106172581882838 22.32128964276116" fill="red" stroke="none" /><path d="M 85.83668400450813 84.49514656593479 l -20.843109235565407 -22.81735109987776 a51.90415366614664,51.90415366614664 0 0,0 0.6648403349677965,-0.5969002171126708 l 20.44725791300164 23.172750325759708" fill="red" stroke="none" /><path d="M 86.10567301691215 84.25364557470407 l -19.110118606029364 -21.65737865866074 a49.88319032761311,49.88319032761311 0 0,0 0.6487337438930679,-0.5625755099755989 l 18.73449106348952 21.98311916205602" fill="red" stroke="none" /><path d="M 86.65592168130627 83.78471172551755 l -19.598464480741384 -23.81541412622164 a51.842726209048365,51.842726209048365 0 0,0 0.6939435307864092,-0.5611207413581693 l 19.185617551390475 24.14924096484394" fill="red" stroke="none" /><line stroke="#e1ed5e" stroke-width="0.3" x1="56.762969772571076" x2="54.21961505331055" y1="26.818313649435495" y2="22.513508569990535" /><path d="M 56.25429882871897 25.957352633546506 a86.0,86.0 0 0,1 42.265352541879196,-11.944610805530505" fill="none" id="id84" stroke="none" /><text fill="#e1ed5e" style="font-size:6.75px; font-family:Arial;" text-anchor="middle"><textPath startOffset="22.20632615414155" xlink:href="#id84">December</textPath></text></svg>